<?xml version="1.0" encoding="UTF-8" standalone="no"?>
<!DOCTYPE svg PUBLIC "-//W3C//DTD SVG 1.1//EN"
 "http://www.w3.org/Graphics/SVG/1.1/DTD/svg11.dtd">
<!-- Generated by graphviz version 14.1.5 (20260411.2331)
 -->
<!-- Title: ComplexFlow.cpp Pages: 1 -->
<svg width="102pt" height="252pt"
 viewBox="0.00 0.00 102.00 252.00" xmlns="http://www.w3.org/2000/svg" xmlns:xlink="http://www.w3.org/1999/xlink">
<g id="graph0" class="graph" transform="scale(1 1) rotate(0) translate(4 248)">
<title>ComplexFlow.cpp</title>
<!-- Node1 -->
<g id="Node000001" class="node">
<title>Node1</title>
<g id="a_Node000001"><a xlink:title="Implementation of the ComplexFlow class.">
<polygon fill="#999999" stroke="#666666" points="94,-244 0,-244 0,-224 94,-224 94,-244"/>
<text xml:space="preserve" text-anchor="middle" x="47" y="-230.5" font-family="Helvetica,sans-Serif" font-size="10.00">ComplexFlow.cpp</text>
</a>
</g>
</g>
<!-- Node2 -->
<g id="Node000002" class="node">
<title>Node2</title>
<g id="a_Node000002"><a xlink:href="_complex_flow_8h.html" target="_top" xlink:title="Definition of the ComplexFlow class.">
<polygon fill="white" stroke="#666666" points="88.75,-188 5.25,-188 5.25,-168 88.75,-168 88.75,-188"/>
<text xml:space="preserve" text-anchor="middle" x="47" y="-174.5" font-family="Helvetica,sans-Serif" font-size="10.00">ComplexFlow.h</text>
</a>
</g>
</g>
<!-- Node1&#45;&gt;Node2 -->
<g id="edge1_Node000001_Node000002" class="edge">
<title>Node1&#45;&gt;Node2</title>
<g id="a_edge1_Node000001_Node000002"><a xlink:title=" ">
<path fill="none" stroke="#63b8ff" d="M47,-223.59C47,-217.01 47,-207.96 47,-199.73"/>
<polygon fill="#63b8ff" stroke="#63b8ff" points="50.5,-199.81 47,-189.81 43.5,-199.81 50.5,-199.81"/>
</a>
</g>
</g>
<!-- Node3 -->
<g id="Node000003" class="node">
<title>Node3</title>
<g id="a_Node000003"><a xlink:href="_flow_8h.html" target="_top" xlink:title="Definition of the abstract Flow class.">
<polygon fill="white" stroke="#666666" points="82,-132 12,-132 12,-112 82,-112 82,-132"/>
<text xml:space="preserve" text-anchor="middle" x="47" y="-118.5" font-family="Helvetica,sans-Serif" font-size="10.00">../src/Flow.h</text>
</a>
</g>
</g>
<!-- Node2&#45;&gt;Node3 -->
<g id="edge2_Node000002_Node000003" class="edge">
<title>Node2&#45;&gt;Node3</title>
<g id="a_edge2_Node000002_Node000003"><a xlink:title=" ">
<path fill="none" stroke="#63b8ff" d="M47,-167.59C47,-161.01 47,-151.96 47,-143.73"/>
<polygon fill="#63b8ff" stroke="#63b8ff" points="50.5,-143.81 47,-133.81 43.5,-143.81 50.5,-143.81"/>
</a>
</g>
</g>
<!-- Node4 -->
<g id="Node000004" class="node">
<title>Node4</title>
<g id="a_Node000004"><a xlink:href="_system_8h.html" target="_top" xlink:title="Definition of the System class.">
<polygon fill="white" stroke="#666666" points="76,-76 18,-76 18,-56 76,-56 76,-76"/>
<text xml:space="preserve" text-anchor="middle" x="47" y="-62.5" font-family="Helvetica,sans-Serif" font-size="10.00">System.h</text>
</a>
</g>
</g>
<!-- Node3&#45;&gt;Node4 -->
<g id="edge3_Node000003_Node000004" class="edge">
<title>Node3&#45;&gt;Node4</title>
<g id="a_edge3_Node000003_Node000004"><a xlink:title=" ">
<path fill="none" stroke="#63b8ff" d="M47,-111.59C47,-105.01 47,-95.96 47,-87.73"/>
<polygon fill="#63b8ff" stroke="#63b8ff" points="50.5,-87.81 47,-77.81 43.5,-87.81 50.5,-87.81"/>
</a>
</g>
</g>
<!-- Node5 -->
<g id="Node000005" class="node">
<title>Node5</title>
<g id="a_Node000005"><a xlink:title=" ">
<polygon fill="#e0e0e0" stroke="#999999" points="67,-20 27,-20 27,0 67,0 67,-20"/>
<text xml:space="preserve" text-anchor="middle" x="47" y="-6.5" font-family="Helvetica,sans-Serif" font-size="10.00">string</text>
</a>
</g>
</g>
<!-- Node4&#45;&gt;Node5 -->
<g id="edge4_Node000004_Node000005" class="edge">
<title>Node4&#45;&gt;Node5</title>
<g id="a_edge4_Node000004_Node000005"><a xlink:title=" ">
<path fill="none" stroke="#63b8ff" d="M47,-55.59C47,-49.01 47,-39.96 47,-31.73"/>
<polygon fill="#63b8ff" stroke="#63b8ff" points="50.5,-31.81 47,-21.81 43.5,-31.81 50.5,-31.81"/>
</a>
</g>
</g>
</g>
</svg>
