<?xml version="1.0" encoding="UTF-8" standalone="no"?>
<!DOCTYPE svg PUBLIC "-//W3C//DTD SVG 1.1//EN"
 "http://www.w3.org/Graphics/SVG/1.1/DTD/svg11.dtd">
<!-- Generated by graphviz version 14.1.5 (20260411.2331)
 -->
<!-- Title: ExponentialFlow.cpp Pages: 1 -->
<svg width="114pt" height="252pt"
 viewBox="0.00 0.00 114.00 252.00" xmlns="http://www.w3.org/2000/svg" xmlns:xlink="http://www.w3.org/1999/xlink">

<svg id="main" version="1.1" xmlns="http://www.w3.org/2000/svg" xmlns:xlink="http://www.w3.org/1999/xlink" xml:space="preserve">

<style type="text/css"><![CDATA[
.node, .edge {opacity: 0.7;}
.node.selected, .edge.selected {opacity: 1;}
.edge:hover path { stroke: red; }
.edge:hover polygon { stroke: red; fill: red; }
]]></style>
<script type="application/ecmascript" xlink:href="svg.min.js"/>
<svg id="graph" class="graph">
<g id="graph0" class="graph" transform="scale(1 1) rotate(0) translate(4 248)">
<title>ExponentialFlow.cpp</title>
<!-- Node1 -->
<g id="Node000001" class="node">
<title>Node1</title>
<g id="a_Node000001"><a xlink:title="Implementation of the ExponentialFlow class.">
<polygon fill="#999999" stroke="#666666" points="106,-244 0,-244 0,-224 106,-224 106,-244"/>
<text xml:space="preserve" text-anchor="middle" x="53" y="-230.5" font-family="Helvetica,sans-Serif" font-size="10.00">ExponentialFlow.cpp</text>
</a>
</g>
</g>
<!-- Node2 -->
<g id="Node000002" class="node">
<title>Node2</title>
<g id="a_Node000002"><a xlink:href="_exponential_flow_8h.html" target="_top" xlink:title="Definition of the ExponentialFlow class.">
<polygon fill="white" stroke="#666666" points="100.75,-188 5.25,-188 5.25,-168 100.75,-168 100.75,-188"/>
<text xml:space="preserve" text-anchor="middle" x="53" y="-174.5" font-family="Helvetica,sans-Serif" font-size="10.00">ExponentialFlow.h</text>
</a>
</g>
</g>
<!-- Node1&#45;&gt;Node2 -->
<g id="edge1_Node000001_Node000002" class="edge">
<title>Node1&#45;&gt;Node2</title>
<g id="a_edge1_Node000001_Node000002"><a xlink:title=" ">
<path fill="none" stroke="#63b8ff" d="M53,-223.59C53,-217.01 53,-207.96 53,-199.73"/>
<polygon fill="#63b8ff" stroke="#63b8ff" points="56.5,-199.81 53,-189.81 49.5,-199.81 56.5,-199.81"/>
</a>
</g>
</g>
<!-- Node3 -->
<g id="Node000003" class="node">
<title>Node3</title>
<g id="a_Node000003"><a xlink:href="_flow_8h.html" target="_top" xlink:title="Definition of the abstract Flow class.">
<polygon fill="white" stroke="#666666" points="88,-132 18,-132 18,-112 88,-112 88,-132"/>
<text xml:space="preserve" text-anchor="middle" x="53" y="-118.5" font-family="Helvetica,sans-Serif" font-size="10.00">../src/Flow.h</text>
</a>
</g>
</g>
<!-- Node2&#45;&gt;Node3 -->
<g id="edge2_Node000002_Node000003" class="edge">
<title>Node2&#45;&gt;Node3</title>
<g id="a_edge2_Node000002_Node000003"><a xlink:title=" ">
<path fill="none" stroke="#63b8ff" d="M53,-167.59C53,-161.01 53,-151.96 53,-143.73"/>
<polygon fill="#63b8ff" stroke="#63b8ff" points="56.5,-143.81 53,-133.81 49.5,-143.81 56.5,-143.81"/>
</a>
</g>
</g>
<!-- Node4 -->
<g id="Node000004" class="node">
<title>Node4</title>
<g id="a_Node000004"><a xlink:href="_system_8h.html" target="_top" xlink:title="Definition of the System class.">
<polygon fill="white" stroke="#666666" points="82,-76 24,-76 24,-56 82,-56 82,-76"/>
<text xml:space="preserve" text-anchor="middle" x="53" y="-62.5" font-family="Helvetica,sans-Serif" font-size="10.00">System.h</text>
</a>
</g>
</g>
<!-- Node3&#45;&gt;Node4 -->
<g id="edge3_Node000003_Node000004" class="edge">
<title>Node3&#45;&gt;Node4</title>
<g id="a_edge3_Node000003_Node000004"><a xlink:title=" ">
<path fill="none" stroke="#63b8ff" d="M53,-111.59C53,-105.01 53,-95.96 53,-87.73"/>
<polygon fill="#63b8ff" stroke="#63b8ff" points="56.5,-87.81 53,-77.81 49.5,-87.81 56.5,-87.81"/>
</a>
</g>
</g>
<!-- Node5 -->
<g id="Node000005" class="node">
<title>Node5</title>
<g id="a_Node000005"><a xlink:title=" ">
<polygon fill="#e0e0e0" stroke="#999999" points="73,-20 33,-20 33,0 73,0 73,-20"/>
<text xml:space="preserve" text-anchor="middle" x="53" y="-6.5" font-family="Helvetica,sans-Serif" font-size="10.00">string</text>
</a>
</g>
</g>
<!-- Node4&#45;&gt;Node5 -->
<g id="edge4_Node000004_Node000005" class="edge">
<title>Node4&#45;&gt;Node5</title>
<g id="a_edge4_Node000004_Node000005"><a xlink:title=" ">
<path fill="none" stroke="#63b8ff" d="M53,-55.59C53,-49.01 53,-39.96 53,-31.73"/>
<polygon fill="#63b8ff" stroke="#63b8ff" points="56.5,-31.81 53,-21.81 49.5,-31.81 56.5,-31.81"/>
</a>
</g>
</g>
</g>
</svg>
</svg>

<style type='text/css'>
<![CDATA[
[data-mouse-over-selected='false'] { opacity: 0.7; }
[data-mouse-over-selected='true']  { opacity: 1.0; }
]]>
</style>
<script type="application/ecmascript"><![CDATA[
document.addEventListener('DOMContentLoaded', (event) => {
  highlightEdges();
  highlightAdjacentNodes();
});
]]></script>
</svg>
