<?xml version="1.0" encoding="UTF-8" standalone="no"?>
<!DOCTYPE svg PUBLIC "-//W3C//DTD SVG 1.1//EN"
 "http://www.w3.org/Graphics/SVG/1.1/DTD/svg11.dtd">
<!-- Generated by graphviz version 14.1.5 (20260411.2331)
 -->
<!-- Title: Flow.h Pages: 1 -->
<!--zoomable 140 -->

<svg id="main" version="1.1" xmlns="http://www.w3.org/2000/svg" xmlns:xlink="http://www.w3.org/1999/xlink" xml:space="preserve" onload="init(evt)">

<style type="text/css"><![CDATA[
.node, .edge {opacity: 0.7;}
.node.selected, .edge.selected {opacity: 1;}
.edge:hover path { stroke: red; }
.edge:hover polygon { stroke: red; fill: red; }
]]></style>

<defs>
  <circle id="rim" cx="0" cy="0" r="7"/>
  <circle id="rim2" cx="0" cy="0" r="3.5"/>
  <g id="zoomPlus">
    <use xlink:href="#rim" fill="#404040"><set attributeName="fill" to="#808080" begin="zoomplus.mouseover" end="zoomplus.mouseout"/></use>
    <path d="M-4,0h8M0,-4v8" fill="none" stroke="white" stroke-width="1.5" pointer-events="none"/>
  </g>
  <g id="zoomMin">
    <use xlink:href="#rim" fill="#404040"><set attributeName="fill" to="#808080" begin="zoomminus.mouseover" end="zoomminus.mouseout"/></use>
    <path d="M-4,0h8" fill="none" stroke="white" stroke-width="1.5" pointer-events="none"/>
  </g>
  <g id="arrowUp" transform="translate(30 24)">
    <use xlink:href="#rim"/>
    <path pointer-events="none" fill="none" stroke="white" stroke-width="1.5" d="M0,-3.0v7 M-2.5,-0.5L0,-3.0L2.5,-0.5"/>
  </g>
  <g id="arrowRight" transform="rotate(90) translate(36 -43)">
    <use xlink:href="#rim"/>
    <path pointer-events="none" fill="none" stroke="white" stroke-width="1.5" d="M0,-3.0v7 M-2.5,-0.5L0,-3.0L2.5,-0.5"/>
  </g>
  <g id="arrowDown" transform="rotate(180) translate(-30 -48)">
    <use xlink:href="#rim"/>
    <path pointer-events="none" fill="none" stroke="white" stroke-width="1.5" d="M0,-3.0v7 M-2.5,-0.5L0,-3.0L2.5,-0.5"/>
  </g>
  <g id="arrowLeft" transform="rotate(270) translate(-36 17)">
    <use xlink:href="#rim"/>
    <path pointer-events="none" fill="none" stroke="white" stroke-width="1.5" d="M0,-3.0v7 M-2.5,-0.5L0,-3.0L2.5,-0.5"/>
  </g>
  <g id="resetDef">
    <use xlink:href="#rim2" fill="#404040"><set attributeName="fill" to="#808080" begin="reset.mouseover" end="reset.mouseout"/></use>
  </g>
</defs>
<script type="application/ecmascript">
var viewWidth = 542;
var viewHeight = 140;
var sectionId = 'dynsection-1';
</script>
<script type="application/ecmascript" xlink:href="svg.min.js"/>
<svg id="graph" class="graph">
<g id="viewport">
<title>Flow.h</title>
<!-- Node1 -->
<g id="Node000001" class="node">
<title>Node1</title>
<g id="a_Node000001"><a xlink:title="Definition of the abstract Flow class.">
<polygon fill="#999999" stroke="#666666" points="341.25,-132 296.75,-132 296.75,-112 341.25,-112 341.25,-132"/>
<text xml:space="preserve" text-anchor="middle" x="319" y="-118.5" font-family="Helvetica,sans-Serif" font-size="10.00">Flow.h</text>
</a>
</g>
</g>
<!-- Node2 -->
<g id="Node000002" class="node">
<title>Node2</title>
<g id="a_Node000002"><a xlink:href="_complex_flow_8h.html" target="_top" xlink:title="Definition of the ComplexFlow class.">
<polygon fill="white" stroke="#666666" points="143.75,-76 60.25,-76 60.25,-56 143.75,-56 143.75,-76"/>
<text xml:space="preserve" text-anchor="middle" x="102" y="-62.5" font-family="Helvetica,sans-Serif" font-size="10.00">ComplexFlow.h</text>
</a>
</g>
</g>
<!-- Node1&#45;&gt;Node2 -->
<g id="edge1_Node000001_Node000002" class="edge">
<title>Node1&#45;&gt;Node2</title>
<g id="a_edge1_Node000001_Node000002"><a xlink:title=" ">
<path fill="none" stroke="#63b8ff" d="M285.5,-112.66C246.15,-102.87 181.02,-86.66 139.86,-76.42"/>
<polygon fill="#63b8ff" stroke="#63b8ff" points="284.58,-116.04 295.13,-115.06 286.27,-109.25 284.58,-116.04"/>
</a>
</g>
</g>
<!-- Node4 -->
<g id="Node000004" class="node">
<title>Node4</title>
<g id="a_Node000004"><a xlink:href="funcional__tests_8cpp.html" target="_top" xlink:title="Implementation of functional tests for MySim framework.">
<polygon fill="white" stroke="#666666" points="336.38,-20 235.62,-20 235.62,0 336.38,0 336.38,-20"/>
<text xml:space="preserve" text-anchor="middle" x="286" y="-6.5" font-family="Helvetica,sans-Serif" font-size="10.00">funcional_tests.cpp</text>
</a>
</g>
</g>
<!-- Node1&#45;&gt;Node4 -->
<g id="edge14_Node000001_Node000004" class="edge">
<title>Node1&#45;&gt;Node4</title>
<g id="a_edge14_Node000001_Node000004"><a xlink:title=" ">
<path fill="none" stroke="#63b8ff" d="M312.63,-100.79C310.21,-93.05 307.45,-84.12 305,-76 299.02,-56.19 292.28,-32.9 288.66,-20.27"/>
<polygon fill="#63b8ff" stroke="#63b8ff" points="309.27,-101.77 315.6,-110.26 315.95,-99.67 309.27,-101.77"/>
</a>
</g>
</g>
<!-- Node5 -->
<g id="Node000005" class="node">
<title>Node5</title>
<g id="a_Node000005"><a xlink:href="_exponential_flow_8h.html" target="_top" xlink:title="Definition of the ExponentialFlow class.">
<polygon fill="white" stroke="#666666" points="257.75,-76 162.25,-76 162.25,-56 257.75,-56 257.75,-76"/>
<text xml:space="preserve" text-anchor="middle" x="210" y="-62.5" font-family="Helvetica,sans-Serif" font-size="10.00">ExponentialFlow.h</text>
</a>
</g>
</g>
<!-- Node1&#45;&gt;Node5 -->
<g id="edge4_Node000001_Node000005" class="edge">
<title>Node1&#45;&gt;Node5</title>
<g id="a_edge4_Node000001_Node000005"><a xlink:title=" ">
<path fill="none" stroke="#63b8ff" d="M289.96,-106.61C270.7,-97.07 245.96,-84.81 229.13,-76.48"/>
<polygon fill="#63b8ff" stroke="#63b8ff" points="288.14,-109.62 298.66,-110.92 291.25,-103.35 288.14,-109.62"/>
</a>
</g>
</g>
<!-- Node7 -->
<g id="Node000007" class="node">
<title>Node7</title>
<g id="a_Node000007"><a xlink:href="_flow_8cpp.html" target="_top" xlink:title="Implementation of the abstract Flow class.">
<polygon fill="white" stroke="#666666" points="533.5,-76 478.5,-76 478.5,-56 533.5,-56 533.5,-76"/>
<text xml:space="preserve" text-anchor="middle" x="506" y="-62.5" font-family="Helvetica,sans-Serif" font-size="10.00">Flow.cpp</text>
</a>
</g>
</g>
<!-- Node1&#45;&gt;Node7 -->
<g id="edge7_Node000001_Node000007" class="edge">
<title>Node1&#45;&gt;Node7</title>
<g id="a_edge7_Node000001_Node000007"><a xlink:title=" ">
<path fill="none" stroke="#63b8ff" d="M352.43,-111.35C388.31,-100.99 444.65,-84.72 478.19,-75.03"/>
<polygon fill="#63b8ff" stroke="#63b8ff" points="351.65,-107.93 343.01,-114.07 353.59,-114.65 351.65,-107.93"/>
</a>
</g>
</g>
<!-- Node8 -->
<g id="Node000008" class="node">
<title>Node8</title>
<g id="a_Node000008"><a xlink:href="_logistic_flow_8h.html" target="_top" xlink:title="Definition of the LogisticFlow class.">
<polygon fill="white" stroke="#666666" points="392.12,-76 313.88,-76 313.88,-56 392.12,-56 392.12,-76"/>
<text xml:space="preserve" text-anchor="middle" x="353" y="-62.5" font-family="Helvetica,sans-Serif" font-size="10.00">LogisticFlow.h</text>
</a>
</g>
</g>
<!-- Node1&#45;&gt;Node8 -->
<g id="edge8_Node000001_Node000008" class="edge">
<title>Node1&#45;&gt;Node8</title>
<g id="a_edge8_Node000001_Node000008"><a xlink:title=" ">
<path fill="none" stroke="#63b8ff" d="M331.05,-101.87C336.51,-93.19 342.73,-83.32 347.15,-76.3"/>
<polygon fill="#63b8ff" stroke="#63b8ff" points="328.1,-99.99 325.73,-110.31 334.02,-103.72 328.1,-99.99"/>
</a>
</g>
</g>
<!-- Node10 -->
<g id="Node000010" class="node">
<title>Node10</title>
<g id="a_Node000010"><a xlink:href="_model_8h.html" target="_top" xlink:title="Definition of the Model class.">
<polygon fill="white" stroke="#666666" points="460.25,-76 409.75,-76 409.75,-56 460.25,-56 460.25,-76"/>
<text xml:space="preserve" text-anchor="middle" x="435" y="-62.5" font-family="Helvetica,sans-Serif" font-size="10.00">Model.h</text>
</a>
</g>
</g>
<!-- Node1&#45;&gt;Node10 -->
<g id="edge11_Node000001_Node000010" class="edge">
<title>Node1&#45;&gt;Node10</title>
<g id="a_edge11_Node000001_Node000010"><a xlink:title=" ">
<path fill="none" stroke="#63b8ff" d="M349.62,-106.75C370.16,-97.18 396.65,-84.85 414.64,-76.48"/>
<polygon fill="#63b8ff" stroke="#63b8ff" points="348.17,-103.56 340.58,-110.96 351.12,-109.91 348.17,-103.56"/>
</a>
</g>
</g>
<!-- Node3 -->
<g id="Node000003" class="node">
<title>Node3</title>
<g id="a_Node000003"><a xlink:href="_complex_flow_8cpp.html" target="_top" xlink:title="Implementation of the ComplexFlow class.">
<polygon fill="white" stroke="#666666" points="94,-20 0,-20 0,0 94,0 94,-20"/>
<text xml:space="preserve" text-anchor="middle" x="47" y="-6.5" font-family="Helvetica,sans-Serif" font-size="10.00">ComplexFlow.cpp</text>
</a>
</g>
</g>
<!-- Node2&#45;&gt;Node3 -->
<g id="edge2_Node000002_Node000003" class="edge">
<title>Node2&#45;&gt;Node3</title>
<g id="a_edge2_Node000002_Node000003"><a xlink:title=" ">
<path fill="none" stroke="#63b8ff" d="M84.24,-47.57C75.01,-38.5 64.09,-27.78 56.47,-20.3"/>
<polygon fill="#63b8ff" stroke="#63b8ff" points="81.75,-50.03 91.34,-54.53 86.66,-45.03 81.75,-50.03"/>
</a>
</g>
</g>
<!-- Node2&#45;&gt;Node4 -->
<g id="edge3_Node000002_Node000004" class="edge">
<title>Node2&#45;&gt;Node4</title>
<g id="a_edge3_Node000002_Node000004"><a xlink:title=" ">
<path fill="none" stroke="#63b8ff" d="M144.82,-52.43C178.07,-42.67 223.46,-29.35 253.7,-20.48"/>
<polygon fill="#63b8ff" stroke="#63b8ff" points="144.11,-48.99 135.5,-55.17 146.08,-55.71 144.11,-48.99"/>
</a>
</g>
</g>
<!-- Node5&#45;&gt;Node4 -->
<g id="edge6_Node000005_Node000004" class="edge">
<title>Node5&#45;&gt;Node4</title>
<g id="a_edge6_Node000005_Node000004"><a xlink:title=" ">
<path fill="none" stroke="#63b8ff" d="M232.52,-49C245.58,-39.72 261.58,-28.35 272.66,-20.48"/>
<polygon fill="#63b8ff" stroke="#63b8ff" points="230.6,-46.07 224.47,-54.72 234.65,-51.78 230.6,-46.07"/>
</a>
</g>
</g>
<!-- Node6 -->
<g id="Node000006" class="node">
<title>Node6</title>
<g id="a_Node000006"><a xlink:href="_exponential_flow_8cpp.html" target="_top" xlink:title="Implementation of the ExponentialFlow class.">
<polygon fill="white" stroke="#666666" points="218,-20 112,-20 112,0 218,0 218,-20"/>
<text xml:space="preserve" text-anchor="middle" x="165" y="-6.5" font-family="Helvetica,sans-Serif" font-size="10.00">ExponentialFlow.cpp</text>
</a>
</g>
</g>
<!-- Node5&#45;&gt;Node6 -->
<g id="edge5_Node000005_Node000006" class="edge">
<title>Node5&#45;&gt;Node6</title>
<g id="a_edge5_Node000005_Node000006"><a xlink:title=" ">
<path fill="none" stroke="#63b8ff" d="M195,-47C187.55,-38.06 178.85,-27.62 172.75,-20.3"/>
<polygon fill="#63b8ff" stroke="#63b8ff" points="192.1,-48.99 201.19,-54.43 197.48,-44.51 192.1,-48.99"/>
</a>
</g>
</g>
<!-- Node8&#45;&gt;Node4 -->
<g id="edge10_Node000008_Node000004" class="edge">
<title>Node8&#45;&gt;Node4</title>
<g id="a_edge10_Node000008_Node000004"><a xlink:title=" ">
<path fill="none" stroke="#63b8ff" d="M332.41,-48.4C320.95,-39.17 307.1,-28.01 297.54,-20.3"/>
<polygon fill="#63b8ff" stroke="#63b8ff" points="330.17,-51.09 340.15,-54.64 334.56,-45.64 330.17,-51.09"/>
</a>
</g>
</g>
<!-- Node9 -->
<g id="Node000009" class="node">
<title>Node9</title>
<g id="a_Node000009"><a xlink:href="_logistic_flow_8cpp.html" target="_top" xlink:title="Implementation of the LogisticFlow class.">
<polygon fill="white" stroke="#666666" points="443.38,-20 354.62,-20 354.62,0 443.38,0 443.38,-20"/>
<text xml:space="preserve" text-anchor="middle" x="399" y="-6.5" font-family="Helvetica,sans-Serif" font-size="10.00">LogisticFlow.cpp</text>
</a>
</g>
</g>
<!-- Node8&#45;&gt;Node9 -->
<g id="edge9_Node000008_Node000009" class="edge">
<title>Node8&#45;&gt;Node9</title>
<g id="a_edge9_Node000008_Node000009"><a xlink:title=" ">
<path fill="none" stroke="#63b8ff" d="M368.33,-47C375.95,-38.06 384.84,-27.62 391.08,-20.3"/>
<polygon fill="#63b8ff" stroke="#63b8ff" points="365.81,-44.56 361.99,-54.44 371.14,-49.1 365.81,-44.56"/>
</a>
</g>
</g>
<!-- Node10&#45;&gt;Node4 -->
<g id="edge13_Node000010_Node000004" class="edge">
<title>Node10&#45;&gt;Node4</title>
<g id="a_edge13_Node000010_Node000004"><a xlink:title=" ">
<path fill="none" stroke="#63b8ff" d="M398.87,-51.91C372.04,-42.18 336.08,-29.15 312.03,-20.43"/>
<polygon fill="#63b8ff" stroke="#63b8ff" points="397.37,-55.08 407.96,-55.2 399.75,-48.5 397.37,-55.08"/>
</a>
</g>
</g>
<!-- Node11 -->
<g id="Node000011" class="node">
<title>Node11</title>
<g id="a_Node000011"><a xlink:href="_model_8cpp.html" target="_top" xlink:title="Implementation of the Model class.">
<polygon fill="white" stroke="#666666" points="522.5,-20 461.5,-20 461.5,0 522.5,0 522.5,-20"/>
<text xml:space="preserve" text-anchor="middle" x="492" y="-6.5" font-family="Helvetica,sans-Serif" font-size="10.00">Model.cpp</text>
</a>
</g>
</g>
<!-- Node10&#45;&gt;Node11 -->
<g id="edge12_Node000010_Node000011" class="edge">
<title>Node10&#45;&gt;Node11</title>
<g id="a_edge12_Node000010_Node000011"><a xlink:title=" ">
<path fill="none" stroke="#63b8ff" d="M453.11,-47.85C462.74,-38.72 474.21,-27.86 482.19,-20.3"/>
<polygon fill="#63b8ff" stroke="#63b8ff" points="450.88,-45.13 446.03,-54.55 455.69,-50.22 450.88,-45.13"/>
</a>
</g>
</g>
</g>
</svg>

<g id="navigator" transform="translate(0 0)" fill="#404254">
  <rect fill="#f2f5e9" fill-opacity="0.5" stroke="#606060" stroke-width=".5" x="0" y="0" width="60" height="60"/>
  <use id="zoomplus" xlink:href="#zoomPlus" x="17" y="9" onmousedown="handleZoom(evt,'in')"/>
  <use id="zoomminus" xlink:href="#zoomMin" x="42" y="9" onmousedown="handleZoom(evt,'out')"/>
  <use id="reset" xlink:href="#resetDef" x="30" y="36" onmousedown="handleReset()"/>
   <use id="arrowup" xlink:href="#arrowUp" x="0" y="0" onmousedown="handlePan(0,-1)"/>
  <use id="arrowright" xlink:href="#arrowRight" x="0" y="0" onmousedown="handlePan(1,0)"/>
  <use id="arrowdown" xlink:href="#arrowDown" x="0" y="0" onmousedown="handlePan(0,1)"/>
  <use id="arrowleft" xlink:href="#arrowLeft" x="0" y="0" onmousedown="handlePan(-1,0)"/>
</g>
<svg viewBox="0 0 15 15" width="100%" height="30px" preserveAspectRatio="xMaxYMin meet">
 <g id="arrow_out" transform="scale(0.3 0.3)">
  <a xlink:href="_flow_8h__dep__incl_org.svg" target="_base">
   <rect id="button" ry="5" rx="5" y="6" x="6" height="38" width="38"
        fill="#f2f5e9" fill-opacity="0.5" stroke="#606060" stroke-width="1.0"/>
   <path id="arrow"
     d="M 11.500037,31.436501 C 11.940474,20.09759 22.043105,11.32322 32.158766,21.979434 L 37.068811,17.246167 C 37.068811,17.246167 37.088388,32 37.088388,32 L 22.160133,31.978069 C 22.160133,31.978069 26.997745,27.140456 26.997745,27.140456 C 18.528582,18.264221 13.291696,25.230495 11.500037,31.436501 z"
     style="fill:#404040;"/>
  </a>
 </g>
</svg>

<style type='text/css'>
<![CDATA[
[data-mouse-over-selected='false'] { opacity: 0.7; }
[data-mouse-over-selected='true']  { opacity: 1.0; }
]]>
</style>
<script type="application/ecmascript"><![CDATA[
document.addEventListener('DOMContentLoaded', (event) => {
  highlightEdges();
  highlightAdjacentNodes();
});
]]></script>
</svg>
