<?xml version="1.0" encoding="UTF-8" standalone="no"?>
<!DOCTYPE svg PUBLIC "-//W3C//DTD SVG 1.1//EN"
 "http://www.w3.org/Graphics/SVG/1.1/DTD/svg11.dtd">
<!-- Generated by graphviz version 14.1.5 (20260411.2331)
 -->
<!-- Title: LogisticFlow.h Pages: 1 -->
<svg width="86pt" height="196pt"
 viewBox="0.00 0.00 86.00 196.00" xmlns="http://www.w3.org/2000/svg" xmlns:xlink="http://www.w3.org/1999/xlink">
<g id="graph0" class="graph" transform="scale(1 1) rotate(0) translate(4 192)">
<title>LogisticFlow.h</title>
<!-- Node1 -->
<g id="Node000001" class="node">
<title>Node1</title>
<g id="a_Node000001"><a xlink:title="Definition of the LogisticFlow class.">
<polygon fill="#999999" stroke="#666666" points="78.25,-188 0,-188 0,-168 78.25,-168 78.25,-188"/>
<text xml:space="preserve" text-anchor="middle" x="39.12" y="-174.5" font-family="Helvetica,sans-Serif" font-size="10.00">LogisticFlow.h</text>
</a>
</g>
</g>
<!-- Node2 -->
<g id="Node000002" class="node">
<title>Node2</title>
<g id="a_Node000002"><a xlink:href="_flow_8h.html" target="_top" xlink:title="Definition of the abstract Flow class.">
<polygon fill="white" stroke="#666666" points="74.12,-132 4.12,-132 4.12,-112 74.12,-112 74.12,-132"/>
<text xml:space="preserve" text-anchor="middle" x="39.12" y="-118.5" font-family="Helvetica,sans-Serif" font-size="10.00">../src/Flow.h</text>
</a>
</g>
</g>
<!-- Node1&#45;&gt;Node2 -->
<g id="edge1_Node000001_Node000002" class="edge">
<title>Node1&#45;&gt;Node2</title>
<g id="a_edge1_Node000001_Node000002"><a xlink:title=" ">
<path fill="none" stroke="#63b8ff" d="M39.12,-167.59C39.12,-161.01 39.12,-151.96 39.12,-143.73"/>
<polygon fill="#63b8ff" stroke="#63b8ff" points="42.63,-143.81 39.13,-133.81 35.63,-143.81 42.63,-143.81"/>
</a>
</g>
</g>
<!-- Node3 -->
<g id="Node000003" class="node">
<title>Node3</title>
<g id="a_Node000003"><a xlink:href="_system_8h.html" target="_top" xlink:title="Definition of the System class.">
<polygon fill="white" stroke="#666666" points="68.12,-76 10.12,-76 10.12,-56 68.12,-56 68.12,-76"/>
<text xml:space="preserve" text-anchor="middle" x="39.12" y="-62.5" font-family="Helvetica,sans-Serif" font-size="10.00">System.h</text>
</a>
</g>
</g>
<!-- Node2&#45;&gt;Node3 -->
<g id="edge2_Node000002_Node000003" class="edge">
<title>Node2&#45;&gt;Node3</title>
<g id="a_edge2_Node000002_Node000003"><a xlink:title=" ">
<path fill="none" stroke="#63b8ff" d="M39.12,-111.59C39.12,-105.01 39.12,-95.96 39.12,-87.73"/>
<polygon fill="#63b8ff" stroke="#63b8ff" points="42.63,-87.81 39.13,-77.81 35.63,-87.81 42.63,-87.81"/>
</a>
</g>
</g>
<!-- Node4 -->
<g id="Node000004" class="node">
<title>Node4</title>
<g id="a_Node000004"><a xlink:title=" ">
<polygon fill="#e0e0e0" stroke="#999999" points="59.12,-20 19.12,-20 19.12,0 59.12,0 59.12,-20"/>
<text xml:space="preserve" text-anchor="middle" x="39.12" y="-6.5" font-family="Helvetica,sans-Serif" font-size="10.00">string</text>
</a>
</g>
</g>
<!-- Node3&#45;&gt;Node4 -->
<g id="edge3_Node000003_Node000004" class="edge">
<title>Node3&#45;&gt;Node4</title>
<g id="a_edge3_Node000003_Node000004"><a xlink:title=" ">
<path fill="none" stroke="#63b8ff" d="M39.12,-55.59C39.12,-49.01 39.12,-39.96 39.12,-31.73"/>
<polygon fill="#63b8ff" stroke="#63b8ff" points="42.63,-31.81 39.13,-21.81 35.63,-31.81 42.63,-31.81"/>
</a>
</g>
</g>
</g>
</svg>
