<?xml version="1.0" encoding="UTF-8" standalone="no"?>
<!DOCTYPE svg PUBLIC "-//W3C//DTD SVG 1.1//EN"
 "http://www.w3.org/Graphics/SVG/1.1/DTD/svg11.dtd">
<!-- Generated by graphviz version 14.1.5 (20260411.2331)
 -->
<!-- Title: LogisticFlow.cpp Pages: 1 -->
<svg width="97pt" height="252pt"
 viewBox="0.00 0.00 97.00 252.00" xmlns="http://www.w3.org/2000/svg" xmlns:xlink="http://www.w3.org/1999/xlink">
<g id="graph0" class="graph" transform="scale(1 1) rotate(0) translate(4 248)">
<title>LogisticFlow.cpp</title>
<!-- Node1 -->
<g id="Node000001" class="node">
<title>Node1</title>
<g id="a_Node000001"><a xlink:title="Implementation of the LogisticFlow class.">
<polygon fill="#999999" stroke="#666666" points="88.75,-244 0,-244 0,-224 88.75,-224 88.75,-244"/>
<text xml:space="preserve" text-anchor="middle" x="44.38" y="-230.5" font-family="Helvetica,sans-Serif" font-size="10.00">LogisticFlow.cpp</text>
</a>
</g>
</g>
<!-- Node2 -->
<g id="Node000002" class="node">
<title>Node2</title>
<g id="a_Node000002"><a xlink:href="_logistic_flow_8h.html" target="_top" xlink:title="Definition of the LogisticFlow class.">
<polygon fill="white" stroke="#666666" points="83.5,-188 5.25,-188 5.25,-168 83.5,-168 83.5,-188"/>
<text xml:space="preserve" text-anchor="middle" x="44.38" y="-174.5" font-family="Helvetica,sans-Serif" font-size="10.00">LogisticFlow.h</text>
</a>
</g>
</g>
<!-- Node1&#45;&gt;Node2 -->
<g id="edge1_Node000001_Node000002" class="edge">
<title>Node1&#45;&gt;Node2</title>
<g id="a_edge1_Node000001_Node000002"><a xlink:title=" ">
<path fill="none" stroke="#63b8ff" d="M44.38,-223.59C44.38,-217.01 44.38,-207.96 44.38,-199.73"/>
<polygon fill="#63b8ff" stroke="#63b8ff" points="47.88,-199.81 44.38,-189.81 40.88,-199.81 47.88,-199.81"/>
</a>
</g>
</g>
<!-- Node3 -->
<g id="Node000003" class="node">
<title>Node3</title>
<g id="a_Node000003"><a xlink:href="_flow_8h.html" target="_top" xlink:title="Definition of the abstract Flow class.">
<polygon fill="white" stroke="#666666" points="79.38,-132 9.38,-132 9.38,-112 79.38,-112 79.38,-132"/>
<text xml:space="preserve" text-anchor="middle" x="44.38" y="-118.5" font-family="Helvetica,sans-Serif" font-size="10.00">../src/Flow.h</text>
</a>
</g>
</g>
<!-- Node2&#45;&gt;Node3 -->
<g id="edge2_Node000002_Node000003" class="edge">
<title>Node2&#45;&gt;Node3</title>
<g id="a_edge2_Node000002_Node000003"><a xlink:title=" ">
<path fill="none" stroke="#63b8ff" d="M44.38,-167.59C44.38,-161.01 44.38,-151.96 44.38,-143.73"/>
<polygon fill="#63b8ff" stroke="#63b8ff" points="47.88,-143.81 44.38,-133.81 40.88,-143.81 47.88,-143.81"/>
</a>
</g>
</g>
<!-- Node4 -->
<g id="Node000004" class="node">
<title>Node4</title>
<g id="a_Node000004"><a xlink:href="_system_8h.html" target="_top" xlink:title="Definition of the System class.">
<polygon fill="white" stroke="#666666" points="73.38,-76 15.38,-76 15.38,-56 73.38,-56 73.38,-76"/>
<text xml:space="preserve" text-anchor="middle" x="44.38" y="-62.5" font-family="Helvetica,sans-Serif" font-size="10.00">System.h</text>
</a>
</g>
</g>
<!-- Node3&#45;&gt;Node4 -->
<g id="edge3_Node000003_Node000004" class="edge">
<title>Node3&#45;&gt;Node4</title>
<g id="a_edge3_Node000003_Node000004"><a xlink:title=" ">
<path fill="none" stroke="#63b8ff" d="M44.38,-111.59C44.38,-105.01 44.38,-95.96 44.38,-87.73"/>
<polygon fill="#63b8ff" stroke="#63b8ff" points="47.88,-87.81 44.38,-77.81 40.88,-87.81 47.88,-87.81"/>
</a>
</g>
</g>
<!-- Node5 -->
<g id="Node000005" class="node">
<title>Node5</title>
<g id="a_Node000005"><a xlink:title=" ">
<polygon fill="#e0e0e0" stroke="#999999" points="64.38,-20 24.38,-20 24.38,0 64.38,0 64.38,-20"/>
<text xml:space="preserve" text-anchor="middle" x="44.38" y="-6.5" font-family="Helvetica,sans-Serif" font-size="10.00">string</text>
</a>
</g>
</g>
<!-- Node4&#45;&gt;Node5 -->
<g id="edge4_Node000004_Node000005" class="edge">
<title>Node4&#45;&gt;Node5</title>
<g id="a_edge4_Node000004_Node000005"><a xlink:title=" ">
<path fill="none" stroke="#63b8ff" d="M44.38,-55.59C44.38,-49.01 44.38,-39.96 44.38,-31.73"/>
<polygon fill="#63b8ff" stroke="#63b8ff" points="47.88,-31.81 44.38,-21.81 40.88,-31.81 47.88,-31.81"/>
</a>
</g>
</g>
</g>
</svg>
