<?xml version="1.0" encoding="UTF-8" standalone="no"?>
<!DOCTYPE svg PUBLIC "-//W3C//DTD SVG 1.1//EN"
 "http://www.w3.org/Graphics/SVG/1.1/DTD/svg11.dtd">
<!-- Generated by graphviz version 14.1.5 (20260411.2331)
 -->
<!-- Title: LogisticFlow.h Pages: 1 -->
<svg width="216pt" height="84pt"
 viewBox="0.00 0.00 216.00 84.00" xmlns="http://www.w3.org/2000/svg" xmlns:xlink="http://www.w3.org/1999/xlink">
<g id="graph0" class="graph" transform="scale(1 1) rotate(0) translate(4 80)">
<title>LogisticFlow.h</title>
<!-- Node1 -->
<g id="Node000001" class="node">
<title>Node1</title>
<g id="a_Node000001"><a xlink:title="Definition of the LogisticFlow class.">
<polygon fill="#999999" stroke="#666666" points="139.5,-76 61.25,-76 61.25,-56 139.5,-56 139.5,-76"/>
<text xml:space="preserve" text-anchor="middle" x="100.38" y="-62.5" font-family="Helvetica,sans-Serif" font-size="10.00">LogisticFlow.h</text>
</a>
</g>
</g>
<!-- Node2 -->
<g id="Node000002" class="node">
<title>Node2</title>
<g id="a_Node000002"><a xlink:href="_logistic_flow_8cpp.html" target="_top" xlink:title="Implementation of the LogisticFlow class.">
<polygon fill="white" stroke="#666666" points="88.75,-20 0,-20 0,0 88.75,0 88.75,-20"/>
<text xml:space="preserve" text-anchor="middle" x="44.38" y="-6.5" font-family="Helvetica,sans-Serif" font-size="10.00">LogisticFlow.cpp</text>
</a>
</g>
</g>
<!-- Node1&#45;&gt;Node2 -->
<g id="edge1_Node000001_Node000002" class="edge">
<title>Node1&#45;&gt;Node2</title>
<g id="a_edge1_Node000001_Node000002"><a xlink:title=" ">
<path fill="none" stroke="#63b8ff" d="M82.59,-47.85C73.12,-38.72 61.85,-27.86 54.02,-20.3"/>
<polygon fill="#63b8ff" stroke="#63b8ff" points="79.9,-50.12 89.53,-54.54 84.76,-45.08 79.9,-50.12"/>
</a>
</g>
</g>
<!-- Node3 -->
<g id="Node000003" class="node">
<title>Node3</title>
<g id="a_Node000003"><a xlink:href="funcional__tests_8cpp.html" target="_top" xlink:title="Implementation of functional tests for MySim framework.">
<polygon fill="white" stroke="#666666" points="207.75,-20 107,-20 107,0 207.75,0 207.75,-20"/>
<text xml:space="preserve" text-anchor="middle" x="157.38" y="-6.5" font-family="Helvetica,sans-Serif" font-size="10.00">funcional_tests.cpp</text>
</a>
</g>
</g>
<!-- Node1&#45;&gt;Node3 -->
<g id="edge2_Node000001_Node000003" class="edge">
<title>Node1&#45;&gt;Node3</title>
<g id="a_edge2_Node000001_Node000003"><a xlink:title=" ">
<path fill="none" stroke="#63b8ff" d="M118.48,-47.85C128.11,-38.72 139.58,-27.86 147.56,-20.3"/>
<polygon fill="#63b8ff" stroke="#63b8ff" points="116.25,-45.13 111.4,-54.55 121.07,-50.22 116.25,-45.13"/>
</a>
</g>
</g>
</g>
</svg>
