<?xml version="1.0" encoding="UTF-8" standalone="no"?>
<!DOCTYPE svg PUBLIC "-//W3C//DTD SVG 1.1//EN"
 "http://www.w3.org/Graphics/SVG/1.1/DTD/svg11.dtd">
<!-- Generated by graphviz version 14.1.5 (20260411.2331)
 -->
<!-- Title: Model.h Pages: 1 -->
<svg width="188pt" height="84pt"
 viewBox="0.00 0.00 188.00 84.00" xmlns="http://www.w3.org/2000/svg" xmlns:xlink="http://www.w3.org/1999/xlink">
<g id="graph0" class="graph" transform="scale(1 1) rotate(0) translate(4 80)">
<title>Model.h</title>
<!-- Node1 -->
<g id="Node000001" class="node">
<title>Node1</title>
<g id="a_Node000001"><a xlink:title="Definition of the Model class.">
<polygon fill="#999999" stroke="#666666" points="104.75,-76 54.25,-76 54.25,-56 104.75,-56 104.75,-76"/>
<text xml:space="preserve" text-anchor="middle" x="79.5" y="-62.5" font-family="Helvetica,sans-Serif" font-size="10.00">Model.h</text>
</a>
</g>
</g>
<!-- Node2 -->
<g id="Node000002" class="node">
<title>Node2</title>
<g id="a_Node000002"><a xlink:href="_model_8cpp.html" target="_top" xlink:title="Implementation of the Model class.">
<polygon fill="white" stroke="#666666" points="61,-20 0,-20 0,0 61,0 61,-20"/>
<text xml:space="preserve" text-anchor="middle" x="30.5" y="-6.5" font-family="Helvetica,sans-Serif" font-size="10.00">Model.cpp</text>
</a>
</g>
</g>
<!-- Node1&#45;&gt;Node2 -->
<g id="edge1_Node000001_Node000002" class="edge">
<title>Node1&#45;&gt;Node2</title>
<g id="a_edge1_Node000001_Node000002"><a xlink:title=" ">
<path fill="none" stroke="#63b8ff" d="M63.43,-47.29C55.25,-38.28 45.65,-27.7 38.94,-20.3"/>
<polygon fill="#63b8ff" stroke="#63b8ff" points="60.64,-49.42 69.95,-54.47 65.82,-44.72 60.64,-49.42"/>
</a>
</g>
</g>
<!-- Node3 -->
<g id="Node000003" class="node">
<title>Node3</title>
<g id="a_Node000003"><a xlink:href="funcional__tests_8cpp.html" target="_top" xlink:title="Implementation of functional tests for MySim framework.">
<polygon fill="white" stroke="#666666" points="179.88,-20 79.12,-20 79.12,0 179.88,0 179.88,-20"/>
<text xml:space="preserve" text-anchor="middle" x="129.5" y="-6.5" font-family="Helvetica,sans-Serif" font-size="10.00">funcional_tests.cpp</text>
</a>
</g>
</g>
<!-- Node1&#45;&gt;Node3 -->
<g id="edge2_Node000001_Node000003" class="edge">
<title>Node1&#45;&gt;Node3</title>
<g id="a_edge2_Node000001_Node000003"><a xlink:title=" ">
<path fill="none" stroke="#63b8ff" d="M95.9,-47.29C104.24,-38.28 114.04,-27.7 120.89,-20.3"/>
<polygon fill="#63b8ff" stroke="#63b8ff" points="93.46,-44.77 89.24,-54.48 98.6,-49.52 93.46,-44.77"/>
</a>
</g>
</g>
</g>
</svg>
