<?xml version="1.0" encoding="UTF-8" standalone="no"?>
<!DOCTYPE svg PUBLIC "-//W3C//DTD SVG 1.1//EN"
 "http://www.w3.org/Graphics/SVG/1.1/DTD/svg11.dtd">
<!-- Generated by graphviz version 14.1.5 (20260411.2331)
 -->
<!-- Title: Model.h Pages: 1 -->
<svg width="152pt" height="196pt"
 viewBox="0.00 0.00 152.00 196.00" xmlns="http://www.w3.org/2000/svg" xmlns:xlink="http://www.w3.org/1999/xlink">

<svg id="main" version="1.1" xmlns="http://www.w3.org/2000/svg" xmlns:xlink="http://www.w3.org/1999/xlink" xml:space="preserve">

<style type="text/css"><![CDATA[
.node, .edge {opacity: 0.7;}
.node.selected, .edge.selected {opacity: 1;}
.edge:hover path { stroke: red; }
.edge:hover polygon { stroke: red; fill: red; }
]]></style>
<script type="application/ecmascript" xlink:href="svg.min.js"/>
<svg id="graph" class="graph">
<g id="graph0" class="graph" transform="scale(1 1) rotate(0) translate(4 192)">
<title>Model.h</title>
<!-- Node1 -->
<g id="Node000001" class="node">
<title>Node1</title>
<g id="a_Node000001"><a xlink:title="Definition of the Model class.">
<polygon fill="#999999" stroke="#666666" points="96.75,-188 46.25,-188 46.25,-168 96.75,-168 96.75,-188"/>
<text xml:space="preserve" text-anchor="middle" x="71.5" y="-174.5" font-family="Helvetica,sans-Serif" font-size="10.00">Model.h</text>
</a>
</g>
</g>
<!-- Node2 -->
<g id="Node000002" class="node">
<title>Node2</title>
<g id="a_Node000002"><a xlink:title=" ">
<polygon fill="#e0e0e0" stroke="#999999" points="43,-132 0,-132 0,-112 43,-112 43,-132"/>
<text xml:space="preserve" text-anchor="middle" x="21.5" y="-118.5" font-family="Helvetica,sans-Serif" font-size="10.00">vector</text>
</a>
</g>
</g>
<!-- Node1&#45;&gt;Node2 -->
<g id="edge1_Node000001_Node000002" class="edge">
<title>Node1&#45;&gt;Node2</title>
<g id="a_edge1_Node000001_Node000002"><a xlink:title=" ">
<path fill="none" stroke="#63b8ff" d="M62.79,-167.59C55.91,-160.16 46.11,-149.58 37.78,-140.58"/>
<polygon fill="#63b8ff" stroke="#63b8ff" points="40.5,-138.37 31.14,-133.41 35.36,-143.12 40.5,-138.37"/>
</a>
</g>
</g>
<!-- Node3 -->
<g id="Node000003" class="node">
<title>Node3</title>
<g id="a_Node000003"><a xlink:href="_system_8h.html" target="_top" xlink:title="Definition of the System class.">
<polygon fill="white" stroke="#666666" points="125.5,-76 67.5,-76 67.5,-56 125.5,-56 125.5,-76"/>
<text xml:space="preserve" text-anchor="middle" x="96.5" y="-62.5" font-family="Helvetica,sans-Serif" font-size="10.00">System.h</text>
</a>
</g>
</g>
<!-- Node1&#45;&gt;Node3 -->
<g id="edge2_Node000001_Node000003" class="edge">
<title>Node1&#45;&gt;Node3</title>
<g id="a_edge2_Node000001_Node000003"><a xlink:title=" ">
<path fill="none" stroke="#63b8ff" d="M73.63,-167.62C77.65,-149.92 86.45,-111.24 91.88,-87.32"/>
<polygon fill="#63b8ff" stroke="#63b8ff" points="95.24,-88.36 94.04,-77.83 88.41,-86.81 95.24,-88.36"/>
</a>
</g>
</g>
<!-- Node5 -->
<g id="Node000005" class="node">
<title>Node5</title>
<g id="a_Node000005"><a xlink:href="_flow_8h.html" target="_top" xlink:title="Definition of the abstract Flow class.">
<polygon fill="white" stroke="#666666" points="143.75,-132 99.25,-132 99.25,-112 143.75,-112 143.75,-132"/>
<text xml:space="preserve" text-anchor="middle" x="121.5" y="-118.5" font-family="Helvetica,sans-Serif" font-size="10.00">Flow.h</text>
</a>
</g>
</g>
<!-- Node1&#45;&gt;Node5 -->
<g id="edge4_Node000001_Node000005" class="edge">
<title>Node1&#45;&gt;Node5</title>
<g id="a_edge4_Node000001_Node000005"><a xlink:title=" ">
<path fill="none" stroke="#63b8ff" d="M80.21,-167.59C87.09,-160.16 96.89,-149.58 105.22,-140.58"/>
<polygon fill="#63b8ff" stroke="#63b8ff" points="107.64,-143.12 111.86,-133.41 102.5,-138.37 107.64,-143.12"/>
</a>
</g>
</g>
<!-- Node4 -->
<g id="Node000004" class="node">
<title>Node4</title>
<g id="a_Node000004"><a xlink:title=" ">
<polygon fill="#e0e0e0" stroke="#999999" points="116.5,-20 76.5,-20 76.5,0 116.5,0 116.5,-20"/>
<text xml:space="preserve" text-anchor="middle" x="96.5" y="-6.5" font-family="Helvetica,sans-Serif" font-size="10.00">string</text>
</a>
</g>
</g>
<!-- Node3&#45;&gt;Node4 -->
<g id="edge3_Node000003_Node000004" class="edge">
<title>Node3&#45;&gt;Node4</title>
<g id="a_edge3_Node000003_Node000004"><a xlink:title=" ">
<path fill="none" stroke="#63b8ff" d="M96.5,-55.59C96.5,-49.01 96.5,-39.96 96.5,-31.73"/>
<polygon fill="#63b8ff" stroke="#63b8ff" points="100,-31.81 96.5,-21.81 93,-31.81 100,-31.81"/>
</a>
</g>
</g>
<!-- Node5&#45;&gt;Node3 -->
<g id="edge5_Node000005_Node000003" class="edge">
<title>Node5&#45;&gt;Node3</title>
<g id="a_edge5_Node000005_Node000003"><a xlink:title=" ">
<path fill="none" stroke="#63b8ff" d="M117.15,-111.59C113.95,-104.7 109.51,-95.1 105.56,-86.57"/>
<polygon fill="#63b8ff" stroke="#63b8ff" points="108.82,-85.28 101.44,-77.67 102.47,-88.22 108.82,-85.28"/>
</a>
</g>
</g>
</g>
</svg>
</svg>

<style type='text/css'>
<![CDATA[
[data-mouse-over-selected='false'] { opacity: 0.7; }
[data-mouse-over-selected='true']  { opacity: 1.0; }
]]>
</style>
<script type="application/ecmascript"><![CDATA[
document.addEventListener('DOMContentLoaded', (event) => {
  highlightEdges();
  highlightAdjacentNodes();
});
]]></script>
</svg>
