<?xml version="1.0" encoding="UTF-8" standalone="no"?>
<!DOCTYPE svg PUBLIC "-//W3C//DTD SVG 1.1//EN"
 "http://www.w3.org/Graphics/SVG/1.1/DTD/svg11.dtd">
<!-- Generated by graphviz version 14.1.5 (20260411.2331)
 -->
<!-- Title: System.h Pages: 1 -->
<svg width="548pt" height="196pt"
 viewBox="0.00 0.00 548.00 196.00" xmlns="http://www.w3.org/2000/svg" xmlns:xlink="http://www.w3.org/1999/xlink">
<g id="graph0" class="graph" transform="scale(1 1) rotate(0) translate(4 192)">
<title>System.h</title>
<!-- Node1 -->
<g id="Node000001" class="node">
<title>Node1</title>
<g id="a_Node000001"><a xlink:title="Definition of the System class.">
<polygon fill="#999999" stroke="#666666" points="372,-188 314,-188 314,-168 372,-168 372,-188"/>
<text xml:space="preserve" text-anchor="middle" x="343" y="-174.5" font-family="Helvetica,sans-Serif" font-size="10.00">System.h</text>
</a>
</g>
</g>
<!-- Node2 -->
<g id="Node000002" class="node">
<title>Node2</title>
<g id="a_Node000002"><a xlink:href="_flow_8h.html" target="_top" xlink:title="Definition of the abstract Flow class.">
<polygon fill="white" stroke="#666666" points="296.25,-132 251.75,-132 251.75,-112 296.25,-112 296.25,-132"/>
<text xml:space="preserve" text-anchor="middle" x="274" y="-118.5" font-family="Helvetica,sans-Serif" font-size="10.00">Flow.h</text>
</a>
</g>
</g>
<!-- Node1&#45;&gt;Node2 -->
<g id="edge1_Node000001_Node000002" class="edge">
<title>Node1&#45;&gt;Node2</title>
<g id="a_edge1_Node000001_Node000002"><a xlink:title=" ">
<path fill="none" stroke="#63b8ff" d="M322.15,-160.68C310.27,-151.39 295.83,-140.09 285.88,-132.3"/>
<polygon fill="#63b8ff" stroke="#63b8ff" points="319.76,-163.25 329.79,-166.66 324.07,-157.74 319.76,-163.25"/>
</a>
</g>
</g>
<!-- Node5 -->
<g id="Node000005" class="node">
<title>Node5</title>
<g id="a_Node000005"><a xlink:href="funcional__tests_8cpp.html" target="_top" xlink:title="Implementation of functional tests for MySim framework.">
<polygon fill="white" stroke="#666666" points="336.38,-20 235.62,-20 235.62,0 336.38,0 336.38,-20"/>
<text xml:space="preserve" text-anchor="middle" x="286" y="-6.5" font-family="Helvetica,sans-Serif" font-size="10.00">funcional_tests.cpp</text>
</a>
</g>
</g>
<!-- Node1&#45;&gt;Node5 -->
<g id="edge18_Node000001_Node000005" class="edge">
<title>Node1&#45;&gt;Node5</title>
<g id="a_edge18_Node000001_Node000005"><a xlink:title=" ">
<path fill="none" stroke="#63b8ff" d="M336.12,-156.97C323.74,-120.92 298.16,-46.42 289.19,-20.3"/>
<polygon fill="#63b8ff" stroke="#63b8ff" points="332.72,-157.85 339.28,-166.17 339.34,-155.57 332.72,-157.85"/>
</a>
</g>
</g>
<!-- Node11 -->
<g id="Node000011" class="node">
<title>Node11</title>
<g id="a_Node000011"><a xlink:href="_model_8h.html" target="_top" xlink:title="Definition of the Model class.">
<polygon fill="white" stroke="#666666" points="516.25,-76 465.75,-76 465.75,-56 516.25,-56 516.25,-76"/>
<text xml:space="preserve" text-anchor="middle" x="491" y="-62.5" font-family="Helvetica,sans-Serif" font-size="10.00">Model.h</text>
</a>
</g>
</g>
<!-- Node1&#45;&gt;Node11 -->
<g id="edge16_Node000001_Node000011" class="edge">
<title>Node1&#45;&gt;Node11</title>
<g id="a_edge16_Node000001_Node000011"><a xlink:title=" ">
<path fill="none" stroke="#63b8ff" d="M350.53,-157.11C356.8,-142.89 366.97,-124.19 381,-112 394.05,-100.67 437.11,-84.9 465.33,-75.35"/>
<polygon fill="#63b8ff" stroke="#63b8ff" points="347.3,-155.77 346.76,-166.35 353.78,-158.42 347.3,-155.77"/>
</a>
</g>
</g>
<!-- Node13 -->
<g id="Node000013" class="node">
<title>Node13</title>
<g id="a_Node000013"><a xlink:href="_system_8cpp.html" target="_top" xlink:title="Implementation of the System class.">
<polygon fill="white" stroke="#666666" points="458.25,-132 389.75,-132 389.75,-112 458.25,-112 458.25,-132"/>
<text xml:space="preserve" text-anchor="middle" x="424" y="-118.5" font-family="Helvetica,sans-Serif" font-size="10.00">System.cpp</text>
</a>
</g>
</g>
<!-- Node1&#45;&gt;Node13 -->
<g id="edge17_Node000001_Node000013" class="edge">
<title>Node1&#45;&gt;Node13</title>
<g id="a_edge17_Node000001_Node000013"><a xlink:title=" ">
<path fill="none" stroke="#63b8ff" d="M366.59,-161.27C380.59,-151.94 397.86,-140.43 409.78,-132.48"/>
<polygon fill="#63b8ff" stroke="#63b8ff" points="364.75,-158.3 358.37,-166.75 368.63,-164.12 364.75,-158.3"/>
</a>
</g>
</g>
<!-- Node3 -->
<g id="Node000003" class="node">
<title>Node3</title>
<g id="a_Node000003"><a xlink:href="_complex_flow_8h.html" target="_top" xlink:title="Definition of the ComplexFlow class.">
<polygon fill="white" stroke="#666666" points="88.75,-76 5.25,-76 5.25,-56 88.75,-56 88.75,-76"/>
<text xml:space="preserve" text-anchor="middle" x="47" y="-62.5" font-family="Helvetica,sans-Serif" font-size="10.00">ComplexFlow.h</text>
</a>
</g>
</g>
<!-- Node2&#45;&gt;Node3 -->
<g id="edge2_Node000002_Node000003" class="edge">
<title>Node2&#45;&gt;Node3</title>
<g id="a_edge2_Node000002_Node000003"><a xlink:title=" ">
<path fill="none" stroke="#63b8ff" d="M240.38,-113C199.35,-103.24 130.08,-86.76 86.54,-76.41"/>
<polygon fill="#63b8ff" stroke="#63b8ff" points="239.39,-116.37 249.93,-115.27 241.01,-109.56 239.39,-116.37"/>
</a>
</g>
</g>
<!-- Node2&#45;&gt;Node5 -->
<g id="edge15_Node000002_Node000005" class="edge">
<title>Node2&#45;&gt;Node5</title>
<g id="a_edge15_Node000002_Node000005"><a xlink:title=" ">
<path fill="none" stroke="#63b8ff" d="M276.26,-100.31C278.87,-76.36 283.06,-37.95 284.98,-20.35"/>
<polygon fill="#63b8ff" stroke="#63b8ff" points="272.79,-99.8 275.19,-110.12 279.75,-100.56 272.79,-99.8"/>
</a>
</g>
</g>
<!-- Node6 -->
<g id="Node000006" class="node">
<title>Node6</title>
<g id="a_Node000006"><a xlink:href="_exponential_flow_8h.html" target="_top" xlink:title="Definition of the ExponentialFlow class.">
<polygon fill="white" stroke="#666666" points="447.75,-76 352.25,-76 352.25,-56 447.75,-56 447.75,-76"/>
<text xml:space="preserve" text-anchor="middle" x="400" y="-62.5" font-family="Helvetica,sans-Serif" font-size="10.00">ExponentialFlow.h</text>
</a>
</g>
</g>
<!-- Node2&#45;&gt;Node6 -->
<g id="edge5_Node000002_Node000006" class="edge">
<title>Node2&#45;&gt;Node6</title>
<g id="a_edge5_Node000002_Node000006"><a xlink:title=" ">
<path fill="none" stroke="#63b8ff" d="M306.34,-107.14C328.78,-97.52 358.07,-84.97 377.88,-76.48"/>
<polygon fill="#63b8ff" stroke="#63b8ff" points="305.15,-103.84 297.34,-111 307.91,-110.28 305.15,-103.84"/>
</a>
</g>
</g>
<!-- Node8 -->
<g id="Node000008" class="node">
<title>Node8</title>
<g id="a_Node000008"><a xlink:href="_flow_8cpp.html" target="_top" xlink:title="Implementation of the abstract Flow class.">
<polygon fill="white" stroke="#666666" points="161.5,-76 106.5,-76 106.5,-56 161.5,-56 161.5,-76"/>
<text xml:space="preserve" text-anchor="middle" x="134" y="-62.5" font-family="Helvetica,sans-Serif" font-size="10.00">Flow.cpp</text>
</a>
</g>
</g>
<!-- Node2&#45;&gt;Node8 -->
<g id="edge8_Node000002_Node000008" class="edge">
<title>Node2&#45;&gt;Node8</title>
<g id="a_edge8_Node000002_Node000008"><a xlink:title=" ">
<path fill="none" stroke="#63b8ff" d="M240.91,-108.24C215.57,-98.46 181.18,-85.2 158.32,-76.38"/>
<polygon fill="#63b8ff" stroke="#63b8ff" points="239.5,-111.45 250.09,-111.78 242.02,-104.91 239.5,-111.45"/>
</a>
</g>
</g>
<!-- Node9 -->
<g id="Node000009" class="node">
<title>Node9</title>
<g id="a_Node000009"><a xlink:href="_logistic_flow_8h.html" target="_top" xlink:title="Definition of the LogisticFlow class.">
<polygon fill="white" stroke="#666666" points="258.12,-76 179.88,-76 179.88,-56 258.12,-56 258.12,-76"/>
<text xml:space="preserve" text-anchor="middle" x="219" y="-62.5" font-family="Helvetica,sans-Serif" font-size="10.00">LogisticFlow.h</text>
</a>
</g>
</g>
<!-- Node2&#45;&gt;Node9 -->
<g id="edge9_Node000002_Node000009" class="edge">
<title>Node2&#45;&gt;Node9</title>
<g id="a_edge9_Node000002_Node000009"><a xlink:title=" ">
<path fill="none" stroke="#63b8ff" d="M256.24,-103.57C247.01,-94.5 236.09,-83.78 228.47,-76.3"/>
<polygon fill="#63b8ff" stroke="#63b8ff" points="253.75,-106.03 263.34,-110.53 258.66,-101.03 253.75,-106.03"/>
</a>
</g>
</g>
<!-- Node2&#45;&gt;Node11 -->
<g id="edge12_Node000002_Node000011" class="edge">
<title>Node2&#45;&gt;Node11</title>
<g id="a_edge12_Node000002_Node000011"><a xlink:title=" ">
<path fill="none" stroke="#63b8ff" d="M307.62,-112.92C344.36,-104.05 404.94,-89.29 457,-76 459.72,-75.31 462.56,-74.57 465.39,-73.83"/>
<polygon fill="#63b8ff" stroke="#63b8ff" points="306.94,-109.48 298.04,-115.23 308.58,-116.29 306.94,-109.48"/>
</a>
</g>
</g>
<!-- Node4 -->
<g id="Node000004" class="node">
<title>Node4</title>
<g id="a_Node000004"><a xlink:href="_complex_flow_8cpp.html" target="_top" xlink:title="Implementation of the ComplexFlow class.">
<polygon fill="white" stroke="#666666" points="94,-20 0,-20 0,0 94,0 94,-20"/>
<text xml:space="preserve" text-anchor="middle" x="47" y="-6.5" font-family="Helvetica,sans-Serif" font-size="10.00">ComplexFlow.cpp</text>
</a>
</g>
</g>
<!-- Node3&#45;&gt;Node4 -->
<g id="edge3_Node000003_Node000004" class="edge">
<title>Node3&#45;&gt;Node4</title>
<g id="a_edge3_Node000003_Node000004"><a xlink:title=" ">
<path fill="none" stroke="#63b8ff" d="M47,-44.13C47,-35.9 47,-26.85 47,-20.3"/>
<polygon fill="#63b8ff" stroke="#63b8ff" points="43.5,-44.08 47,-54.08 50.5,-44.08 43.5,-44.08"/>
</a>
</g>
</g>
<!-- Node3&#45;&gt;Node5 -->
<g id="edge4_Node000003_Node000005" class="edge">
<title>Node3&#45;&gt;Node5</title>
<g id="a_edge4_Node000003_Node000005"><a xlink:title=" ">
<path fill="none" stroke="#63b8ff" d="M100.11,-53C143.54,-43.19 204.1,-29.51 244.14,-20.46"/>
<polygon fill="#63b8ff" stroke="#63b8ff" points="99.36,-49.58 90.38,-55.2 100.91,-56.41 99.36,-49.58"/>
</a>
</g>
</g>
<!-- Node6&#45;&gt;Node5 -->
<g id="edge7_Node000006_Node000005" class="edge">
<title>Node6&#45;&gt;Node5</title>
<g id="a_edge7_Node000006_Node000005"><a xlink:title=" ">
<path fill="none" stroke="#63b8ff" d="M369.91,-50.75C349.72,-41.18 323.69,-28.85 306.01,-20.48"/>
<polygon fill="#63b8ff" stroke="#63b8ff" points="368.24,-53.83 378.77,-54.95 371.24,-47.5 368.24,-53.83"/>
</a>
</g>
</g>
<!-- Node7 -->
<g id="Node000007" class="node">
<title>Node7</title>
<g id="a_Node000007"><a xlink:href="_exponential_flow_8cpp.html" target="_top" xlink:title="Implementation of the ExponentialFlow class.">
<polygon fill="white" stroke="#666666" points="460,-20 354,-20 354,0 460,0 460,-20"/>
<text xml:space="preserve" text-anchor="middle" x="407" y="-6.5" font-family="Helvetica,sans-Serif" font-size="10.00">ExponentialFlow.cpp</text>
</a>
</g>
</g>
<!-- Node6&#45;&gt;Node7 -->
<g id="edge6_Node000006_Node000007" class="edge">
<title>Node6&#45;&gt;Node7</title>
<g id="a_edge6_Node000006_Node000007"><a xlink:title=" ">
<path fill="none" stroke="#63b8ff" d="M402.67,-44.43C403.75,-36.11 404.93,-26.93 405.79,-20.3"/>
<polygon fill="#63b8ff" stroke="#63b8ff" points="399.23,-43.73 401.41,-54.09 406.17,-44.63 399.23,-43.73"/>
</a>
</g>
</g>
<!-- Node9&#45;&gt;Node5 -->
<g id="edge11_Node000009_Node000005" class="edge">
<title>Node9&#45;&gt;Node5</title>
<g id="a_edge11_Node000009_Node000005"><a xlink:title=" ">
<path fill="none" stroke="#63b8ff" d="M239.59,-48.4C251.05,-39.17 264.9,-28.01 274.46,-20.3"/>
<polygon fill="#63b8ff" stroke="#63b8ff" points="237.44,-45.64 231.85,-54.64 241.83,-51.09 237.44,-45.64"/>
</a>
</g>
</g>
<!-- Node10 -->
<g id="Node000010" class="node">
<title>Node10</title>
<g id="a_Node000010"><a xlink:href="_logistic_flow_8cpp.html" target="_top" xlink:title="Implementation of the LogisticFlow class.">
<polygon fill="white" stroke="#666666" points="217.38,-20 128.62,-20 128.62,0 217.38,0 217.38,-20"/>
<text xml:space="preserve" text-anchor="middle" x="173" y="-6.5" font-family="Helvetica,sans-Serif" font-size="10.00">LogisticFlow.cpp</text>
</a>
</g>
</g>
<!-- Node9&#45;&gt;Node10 -->
<g id="edge10_Node000009_Node000010" class="edge">
<title>Node9&#45;&gt;Node10</title>
<g id="a_edge10_Node000009_Node000010"><a xlink:title=" ">
<path fill="none" stroke="#63b8ff" d="M203.67,-47C196.05,-38.06 187.16,-27.62 180.92,-20.3"/>
<polygon fill="#63b8ff" stroke="#63b8ff" points="200.86,-49.1 210.01,-54.44 206.19,-44.56 200.86,-49.1"/>
</a>
</g>
</g>
<!-- Node11&#45;&gt;Node5 -->
<g id="edge14_Node000011_Node000005" class="edge">
<title>Node11&#45;&gt;Node5</title>
<g id="a_edge14_Node000011_Node000005"><a xlink:title=" ">
<path fill="none" stroke="#63b8ff" d="M454.45,-55.33C403.34,-41.85 354.34,-28.96 322.03,-20.47"/>
<polygon fill="#63b8ff" stroke="#63b8ff" points="453.36,-58.66 463.92,-57.83 455.14,-51.89 453.36,-58.66"/>
</a>
</g>
</g>
<!-- Node12 -->
<g id="Node000012" class="node">
<title>Node12</title>
<g id="a_Node000012"><a xlink:href="_model_8cpp.html" target="_top" xlink:title="Implementation of the Model class.">
<polygon fill="white" stroke="#666666" points="539.5,-20 478.5,-20 478.5,0 539.5,0 539.5,-20"/>
<text xml:space="preserve" text-anchor="middle" x="509" y="-6.5" font-family="Helvetica,sans-Serif" font-size="10.00">Model.cpp</text>
</a>
</g>
</g>
<!-- Node11&#45;&gt;Node12 -->
<g id="edge13_Node000011_Node000012" class="edge">
<title>Node11&#45;&gt;Node12</title>
<g id="a_edge13_Node000011_Node000012"><a xlink:title=" ">
<path fill="none" stroke="#63b8ff" d="M497.76,-44.71C500.56,-36.32 503.66,-27.01 505.9,-20.3"/>
<polygon fill="#63b8ff" stroke="#63b8ff" points="494.46,-43.56 494.61,-54.16 501.1,-45.78 494.46,-43.56"/>
</a>
</g>
</g>
</g>
</svg>
