<?xml version="1.0" encoding="UTF-8" standalone="no"?>
<!DOCTYPE svg PUBLIC "-//W3C//DTD SVG 1.1//EN"
 "http://www.w3.org/Graphics/SVG/1.1/DTD/svg11.dtd">
<!-- Generated by graphviz version 14.1.5 (20260411.2331)
 -->
<!-- Title: LogisticFlow::LogisticFlow Pages: 1 -->
<svg width="313pt" height="104pt"
 viewBox="0.00 0.00 313.00 104.00" xmlns="http://www.w3.org/2000/svg" xmlns:xlink="http://www.w3.org/1999/xlink">
<g id="graph0" class="graph" transform="scale(1 1) rotate(0) translate(4 100)">
<title>LogisticFlow::LogisticFlow</title>
<!-- Node1 -->
<g id="Node000001" class="node">
<title>Node1</title>
<g id="a_Node000001"><a xlink:title="Default constructor.">
<polygon fill="#999999" stroke="#666666" points="305,-58 173.5,-58 173.5,-38 305,-38 305,-58"/>
<text xml:space="preserve" text-anchor="middle" x="239.25" y="-44.5" font-family="Helvetica,sans-Serif" font-size="10.00">LogisticFlow::LogisticFlow</text>
</a>
</g>
</g>
<!-- Node2 -->
<g id="Node000002" class="node">
<title>Node2</title>
<g id="a_Node000002"><a xlink:href="class_logistic_flow.html#a5cb786f5e252395010b54b16440775cd" target="_top" xlink:title="Copy constructor.">
<polygon fill="white" stroke="#666666" points="134.5,-96 3,-96 3,-76 134.5,-76 134.5,-96"/>
<text xml:space="preserve" text-anchor="middle" x="68.75" y="-82.5" font-family="Helvetica,sans-Serif" font-size="10.00">LogisticFlow::LogisticFlow</text>
</a>
</g>
</g>
<!-- Node1&#45;&gt;Node2 -->
<g id="edge1_Node000001_Node000002" class="edge">
<title>Node1&#45;&gt;Node2</title>
<g id="a_edge1_Node000001_Node000002"><a xlink:title=" ">
<path fill="none" stroke="#63b8ff" d="M180.68,-60.98C159.6,-65.74 136.05,-71.05 116.09,-75.55"/>
<polygon fill="#63b8ff" stroke="#63b8ff" points="181.3,-64.43 190.28,-58.82 179.76,-57.6 181.3,-64.43"/>
</a>
</g>
</g>
<!-- Node3 -->
<g id="Node000003" class="node">
<title>Node3</title>
<g id="a_Node000003"><a xlink:href="class_logistic_flow.html#a2bf490b7a58b8312d3841b5d3b3955f5" target="_top" xlink:title="Assignment operator.">
<polygon fill="white" stroke="#666666" points="127.75,-58 9.75,-58 9.75,-38 127.75,-38 127.75,-58"/>
<text xml:space="preserve" text-anchor="middle" x="68.75" y="-44.5" font-family="Helvetica,sans-Serif" font-size="10.00">LogisticFlow::operator=</text>
</a>
</g>
</g>
<!-- Node1&#45;&gt;Node3 -->
<g id="edge2_Node000001_Node000003" class="edge">
<title>Node1&#45;&gt;Node3</title>
<g id="a_edge2_Node000001_Node000003"><a xlink:title=" ">
<path fill="none" stroke="#63b8ff" d="M161.87,-48C150.53,-48 139.01,-48 128.12,-48"/>
<polygon fill="#63b8ff" stroke="#63b8ff" points="161.59,-51.5 171.59,-48 161.59,-44.5 161.59,-51.5"/>
</a>
</g>
</g>
<!-- Node4 -->
<g id="Node000004" class="node">
<title>Node4</title>
<g id="a_Node000004"><a xlink:href="class_logistic_flow.html#a39d18cc1ab327715c4b8e0377cff8435" target="_top" xlink:title="Virtual destructor.">
<polygon fill="white" stroke="#666666" points="137.5,-20 0,-20 0,0 137.5,0 137.5,-20"/>
<text xml:space="preserve" text-anchor="middle" x="68.75" y="-6.5" font-family="Helvetica,sans-Serif" font-size="10.00">LogisticFlow::~LogisticFlow</text>
</a>
</g>
</g>
<!-- Node1&#45;&gt;Node4 -->
<g id="edge3_Node000001_Node000004" class="edge">
<title>Node1&#45;&gt;Node4</title>
<g id="a_edge3_Node000001_Node000004"><a xlink:title=" ">
<path fill="none" stroke="#63b8ff" d="M180.68,-35.02C159.6,-30.26 136.05,-24.95 116.09,-20.45"/>
<polygon fill="#63b8ff" stroke="#63b8ff" points="179.76,-38.4 190.28,-37.18 181.3,-31.57 179.76,-38.4"/>
</a>
</g>
</g>
</g>
</svg>
