<?xml version="1.0" encoding="UTF-8" standalone="no"?>
<!DOCTYPE svg PUBLIC "-//W3C//DTD SVG 1.1//EN"
 "http://www.w3.org/Graphics/SVG/1.1/DTD/svg11.dtd">
<!-- Generated by graphviz version 14.1.5 (20260411.2331)
 -->
<!-- Title: ComplexFlow::ComplexFlow Pages: 1 -->
<svg width="334pt" height="104pt"
 viewBox="0.00 0.00 334.00 104.00" xmlns="http://www.w3.org/2000/svg" xmlns:xlink="http://www.w3.org/1999/xlink">
<g id="graph0" class="graph" transform="scale(1 1) rotate(0) translate(4 100)">
<title>ComplexFlow::ComplexFlow</title>
<!-- Node1 -->
<g id="Node000001" class="node">
<title>Node1</title>
<g id="a_Node000001"><a xlink:title="Default constructor.">
<polygon fill="#999999" stroke="#666666" points="326,-58 184,-58 184,-38 326,-38 326,-58"/>
<text xml:space="preserve" text-anchor="middle" x="255" y="-44.5" font-family="Helvetica,sans-Serif" font-size="10.00">ComplexFlow::ComplexFlow</text>
</a>
</g>
</g>
<!-- Node2 -->
<g id="Node000002" class="node">
<title>Node2</title>
<g id="a_Node000002"><a xlink:href="class_complex_flow.html#aaf08c069a2cea2f6e759ade91d925c10" target="_top" xlink:title="Copy constructor.">
<polygon fill="white" stroke="#666666" points="145,-96 3,-96 3,-76 145,-76 145,-96"/>
<text xml:space="preserve" text-anchor="middle" x="74" y="-82.5" font-family="Helvetica,sans-Serif" font-size="10.00">ComplexFlow::ComplexFlow</text>
</a>
</g>
</g>
<!-- Node1&#45;&gt;Node2 -->
<g id="edge1_Node000001_Node000002" class="edge">
<title>Node1&#45;&gt;Node2</title>
<g id="a_edge1_Node000001_Node000002"><a xlink:title=" ">
<path fill="none" stroke="#63b8ff" d="M193.46,-60.85C170.92,-65.64 145.63,-71.01 124.23,-75.55"/>
<polygon fill="#63b8ff" stroke="#63b8ff" points="194.08,-64.3 203.13,-58.8 192.62,-57.45 194.08,-64.3"/>
</a>
</g>
</g>
<!-- Node3 -->
<g id="Node000003" class="node">
<title>Node3</title>
<g id="a_Node000003"><a xlink:href="class_complex_flow.html#a6be113d8e13ab3330692c4f681a11875" target="_top" xlink:title="Assignment operator.">
<polygon fill="white" stroke="#666666" points="135.62,-58 12.38,-58 12.38,-38 135.62,-38 135.62,-58"/>
<text xml:space="preserve" text-anchor="middle" x="74" y="-44.5" font-family="Helvetica,sans-Serif" font-size="10.00">ComplexFlow::operator=</text>
</a>
</g>
</g>
<!-- Node1&#45;&gt;Node3 -->
<g id="edge2_Node000001_Node000003" class="edge">
<title>Node1&#45;&gt;Node3</title>
<g id="a_edge2_Node000001_Node000003"><a xlink:title=" ">
<path fill="none" stroke="#63b8ff" d="M172.33,-48C160.06,-48 147.59,-48 135.86,-48"/>
<polygon fill="#63b8ff" stroke="#63b8ff" points="172,-51.5 182,-48 172,-44.5 172,-51.5"/>
</a>
</g>
</g>
<!-- Node4 -->
<g id="Node000004" class="node">
<title>Node4</title>
<g id="a_Node000004"><a xlink:href="class_complex_flow.html#a3ea63b4de8f10baefdbb71c52986cd74" target="_top" xlink:title="Virtual destructor.">
<polygon fill="white" stroke="#666666" points="148,-20 0,-20 0,0 148,0 148,-20"/>
<text xml:space="preserve" text-anchor="middle" x="74" y="-6.5" font-family="Helvetica,sans-Serif" font-size="10.00">ComplexFlow::~ComplexFlow</text>
</a>
</g>
</g>
<!-- Node1&#45;&gt;Node4 -->
<g id="edge3_Node000001_Node000004" class="edge">
<title>Node1&#45;&gt;Node4</title>
<g id="a_edge3_Node000001_Node000004"><a xlink:title=" ">
<path fill="none" stroke="#63b8ff" d="M193.46,-35.15C170.92,-30.36 145.63,-24.99 124.23,-20.45"/>
<polygon fill="#63b8ff" stroke="#63b8ff" points="192.62,-38.55 203.13,-37.2 194.08,-31.7 192.62,-38.55"/>
</a>
</g>
</g>
</g>
</svg>
