<?xml version="1.0" encoding="UTF-8" standalone="no"?>
<!DOCTYPE svg PUBLIC "-//W3C//DTD SVG 1.1//EN"
 "http://www.w3.org/Graphics/SVG/1.1/DTD/svg11.dtd">
<!-- Generated by graphviz version 14.1.5 (20260411.2331)
 -->
<!-- Title: ComplexFlow::ComplexFlow Pages: 1 -->
<svg width="428pt" height="47pt"
 viewBox="0.00 0.00 428.00 47.00" xmlns="http://www.w3.org/2000/svg" xmlns:xlink="http://www.w3.org/1999/xlink">
<g id="graph0" class="graph" transform="scale(1 1) rotate(0) translate(4 43)">
<title>ComplexFlow::ComplexFlow</title>
<!-- Node1 -->
<g id="Node000001" class="node">
<title>Node1</title>
<g id="a_Node000001"><a xlink:title="Copy constructor.">
<polygon fill="#999999" stroke="#666666" points="142,-20 0,-20 0,0 142,0 142,-20"/>
<text xml:space="preserve" text-anchor="middle" x="71" y="-6.5" font-family="Helvetica,sans-Serif" font-size="10.00">ComplexFlow::ComplexFlow</text>
</a>
</g>
</g>
<!-- Node2 -->
<g id="Node000002" class="node">
<title>Node2</title>
<g id="a_Node000002"><a xlink:href="class_complex_flow.html#a5842ce02ac6229830dbe8895b61891cf" target="_top" xlink:title="Default constructor.">
<polygon fill="white" stroke="#666666" points="320,-39 178,-39 178,-19 320,-19 320,-39"/>
<text xml:space="preserve" text-anchor="middle" x="249" y="-25.5" font-family="Helvetica,sans-Serif" font-size="10.00">ComplexFlow::ComplexFlow</text>
</a>
</g>
</g>
<!-- Node1&#45;&gt;Node2 -->
<g id="edge1_Node000001_Node000002" class="edge">
<title>Node1&#45;&gt;Node2</title>
<g id="a_edge1_Node000001_Node000002"><a xlink:title=" ">
<path fill="none" stroke="#63b8ff" d="M142.32,-17.59C150.19,-18.44 158.26,-19.31 166.27,-20.18"/>
<polygon fill="#63b8ff" stroke="#63b8ff" points="165.68,-23.63 176,-21.23 166.43,-16.67 165.68,-23.63"/>
</a>
</g>
</g>
<!-- Node3 -->
<g id="Node000003" class="node">
<title>Node3</title>
<g id="a_Node000003"><a xlink:href="class_flow.html#ac9975e144e606242748197798e87dd32" target="_top" xlink:title="Default constructor.">
<polygon fill="white" stroke="#666666" points="420,-20 356,-20 356,0 420,0 420,-20"/>
<text xml:space="preserve" text-anchor="middle" x="388" y="-6.5" font-family="Helvetica,sans-Serif" font-size="10.00">Flow::Flow</text>
</a>
</g>
</g>
<!-- Node1&#45;&gt;Node3 -->
<g id="edge3_Node000001_Node000003" class="edge">
<title>Node1&#45;&gt;Node3</title>
<g id="a_edge3_Node000001_Node000003"><a xlink:title=" ">
<path fill="none" stroke="#63b8ff" d="M142.3,-10C204.21,-10 292.35,-10 344.22,-10"/>
<polygon fill="#63b8ff" stroke="#63b8ff" points="344.14,-13.5 354.14,-10 344.14,-6.5 344.14,-13.5"/>
</a>
</g>
</g>
<!-- Node2&#45;&gt;Node3 -->
<g id="edge2_Node000002_Node000003" class="edge">
<title>Node2&#45;&gt;Node3</title>
<g id="a_edge2_Node000002_Node000003"><a xlink:title=" ">
<path fill="none" stroke="#63b8ff" d="M320.11,-19.28C328.41,-18.13 336.69,-16.98 344.44,-15.9"/>
<polygon fill="#63b8ff" stroke="#63b8ff" points="344.82,-19.38 354.25,-14.54 343.86,-12.45 344.82,-19.38"/>
</a>
</g>
</g>
</g>
</svg>
