<?xml version="1.0" encoding="UTF-8" standalone="no"?>
<!DOCTYPE svg PUBLIC "-//W3C//DTD SVG 1.1//EN"
 "http://www.w3.org/Graphics/SVG/1.1/DTD/svg11.dtd">
<!-- Generated by graphviz version 14.1.5 (20260411.2331)
 -->
<!-- Title: System::getValue Pages: 1 -->
<svg width="434pt" height="104pt"
 viewBox="0.00 0.00 434.00 104.00" xmlns="http://www.w3.org/2000/svg" xmlns:xlink="http://www.w3.org/1999/xlink">
<g id="graph0" class="graph" transform="scale(1 1) rotate(0) translate(4 100)">
<title>System::getValue</title>
<!-- Node1 -->
<g id="Node000001" class="node">
<title>Node1</title>
<g id="a_Node000001"><a xlink:title="Gets the current value of the system.">
<polygon fill="#999999" stroke="#666666" points="426.25,-58 333,-58 333,-38 426.25,-38 426.25,-58"/>
<text xml:space="preserve" text-anchor="middle" x="379.62" y="-44.5" font-family="Helvetica,sans-Serif" font-size="10.00">System::getValue</text>
</a>
</g>
</g>
<!-- Node2 -->
<g id="Node000002" class="node">
<title>Node2</title>
<g id="a_Node000002"><a xlink:href="funcional__tests_8cpp.html#a943dfe0c597a01c9760c140715fed527" target="_top" xlink:title="Implementation of complex functional test.">
<polygon fill="white" stroke="#666666" points="192.88,-96 79.38,-96 79.38,-76 192.88,-76 192.88,-96"/>
<text xml:space="preserve" text-anchor="middle" x="136.12" y="-82.5" font-family="Helvetica,sans-Serif" font-size="10.00">complexFuncionalTest</text>
</a>
</g>
</g>
<!-- Node1&#45;&gt;Node2 -->
<g id="edge1_Node000001_Node000002" class="edge">
<title>Node1&#45;&gt;Node2</title>
<g id="a_edge1_Node000001_Node000002"><a xlink:title=" ">
<path fill="none" stroke="#63b8ff" d="M352.01,-64C336.54,-72.36 316.34,-81.72 297,-86 263.12,-93.5 224.21,-93.67 193.26,-91.89"/>
<polygon fill="#63b8ff" stroke="#63b8ff" points="353.57,-67.14 360.57,-59.19 350.14,-61.04 353.57,-67.14"/>
</a>
</g>
</g>
<!-- Node4 -->
<g id="Node000004" class="node">
<title>Node4</title>
<g id="a_Node000004"><a xlink:href="funcional__tests_8cpp.html#a2c448ffaffdff4b03c825a01dffa6f27" target="_top" xlink:title="Implementation of exponential functional test.">
<polygon fill="white" stroke="#666666" points="199.25,-58 73,-58 73,-38 199.25,-38 199.25,-58"/>
<text xml:space="preserve" text-anchor="middle" x="136.12" y="-44.5" font-family="Helvetica,sans-Serif" font-size="10.00">exponentialFuncionalTest</text>
</a>
</g>
</g>
<!-- Node1&#45;&gt;Node4 -->
<g id="edge3_Node000001_Node000004" class="edge">
<title>Node1&#45;&gt;Node4</title>
<g id="a_edge3_Node000001_Node000004"><a xlink:title=" ">
<path fill="none" stroke="#63b8ff" d="M321.13,-48C284.46,-48 236.93,-48 199.37,-48"/>
<polygon fill="#63b8ff" stroke="#63b8ff" points="321.12,-51.5 331.12,-48 321.12,-44.5 321.12,-51.5"/>
</a>
</g>
</g>
<!-- Node5 -->
<g id="Node000005" class="node">
<title>Node5</title>
<g id="a_Node000005"><a xlink:href="funcional__tests_8cpp.html#a60914db64bde71b56d69320797266c29" target="_top" xlink:title="Implementation of logistic functional test.">
<polygon fill="white" stroke="#666666" points="193.62,-20 78.62,-20 78.62,0 193.62,0 193.62,-20"/>
<text xml:space="preserve" text-anchor="middle" x="136.12" y="-6.5" font-family="Helvetica,sans-Serif" font-size="10.00">logisticalFuncionalTest</text>
</a>
</g>
</g>
<!-- Node1&#45;&gt;Node5 -->
<g id="edge5_Node000001_Node000005" class="edge">
<title>Node1&#45;&gt;Node5</title>
<g id="a_edge5_Node000001_Node000005"><a xlink:title=" ">
<path fill="none" stroke="#63b8ff" d="M321.61,-39.03C283.11,-32.97 232.49,-25.01 194.01,-18.95"/>
<polygon fill="#63b8ff" stroke="#63b8ff" points="320.71,-42.43 331.14,-40.53 321.8,-35.52 320.71,-42.43"/>
</a>
</g>
</g>
<!-- Node6 -->
<g id="Node000006" class="node">
<title>Node6</title>
<g id="a_Node000006"><a xlink:href="class_model.html#a27269301c78fc4f54061c150f13ae123" target="_top" xlink:title="Executes the simulation in the specified time interval.">
<polygon fill="white" stroke="#666666" points="297,-77 235.25,-77 235.25,-57 297,-57 297,-77"/>
<text xml:space="preserve" text-anchor="middle" x="266.12" y="-63.5" font-family="Helvetica,sans-Serif" font-size="10.00">Model::run</text>
</a>
</g>
</g>
<!-- Node1&#45;&gt;Node6 -->
<g id="edge7_Node000001_Node000006" class="edge">
<title>Node1&#45;&gt;Node6</title>
<g id="a_edge7_Node000001_Node000006"><a xlink:title=" ">
<path fill="none" stroke="#63b8ff" d="M321.38,-57.75C313.11,-59.16 304.87,-60.57 297.42,-61.84"/>
<polygon fill="#63b8ff" stroke="#63b8ff" points="321.87,-61.22 331.14,-56.09 320.69,-54.32 321.87,-61.22"/>
</a>
</g>
</g>
<!-- Node3 -->
<g id="Node000003" class="node">
<title>Node3</title>
<g id="a_Node000003"><a xlink:href="main_8cpp.html#ae66f6b31b5ad750f1fe042a706a4e3d4" target="_top" xlink:title=" ">
<polygon fill="white" stroke="#666666" points="37,-58 0,-58 0,-38 37,-38 37,-58"/>
<text xml:space="preserve" text-anchor="middle" x="18.5" y="-44.5" font-family="Helvetica,sans-Serif" font-size="10.00">main</text>
</a>
</g>
</g>
<!-- Node2&#45;&gt;Node3 -->
<g id="edge2_Node000002_Node000003" class="edge">
<title>Node2&#45;&gt;Node3</title>
<g id="a_edge2_Node000002_Node000003"><a xlink:title=" ">
<path fill="none" stroke="#63b8ff" d="M88.95,-72.13C83.56,-70.43 78.15,-68.7 73,-67 61.02,-63.04 47.65,-58.29 37.27,-54.53"/>
<polygon fill="#63b8ff" stroke="#63b8ff" points="87.85,-75.45 98.44,-75.07 89.92,-68.77 87.85,-75.45"/>
</a>
</g>
</g>
<!-- Node4&#45;&gt;Node3 -->
<g id="edge4_Node000004_Node000003" class="edge">
<title>Node4&#45;&gt;Node3</title>
<g id="a_edge4_Node000004_Node000003"><a xlink:title=" ">
<path fill="none" stroke="#63b8ff" d="M61.17,-48C52.33,-48 44.05,-48 37.23,-48"/>
<polygon fill="#63b8ff" stroke="#63b8ff" points="61.06,-51.5 71.06,-48 61.06,-44.5 61.06,-51.5"/>
</a>
</g>
</g>
<!-- Node5&#45;&gt;Node3 -->
<g id="edge6_Node000005_Node000003" class="edge">
<title>Node5&#45;&gt;Node3</title>
<g id="a_edge6_Node000005_Node000003"><a xlink:title=" ">
<path fill="none" stroke="#63b8ff" d="M88.95,-23.87C83.56,-25.57 78.15,-27.3 73,-29 61.02,-32.96 47.65,-37.71 37.27,-41.47"/>
<polygon fill="#63b8ff" stroke="#63b8ff" points="89.92,-27.23 98.44,-20.93 87.85,-20.55 89.92,-27.23"/>
</a>
</g>
</g>
<!-- Node6&#45;&gt;Node2 -->
<g id="edge8_Node000006_Node000002" class="edge">
<title>Node6&#45;&gt;Node2</title>
<g id="a_edge8_Node000006_Node000002"><a xlink:title=" ">
<path fill="none" stroke="#63b8ff" d="M223.5,-73.18C213.87,-74.61 203.46,-76.15 193.33,-77.66"/>
<polygon fill="#63b8ff" stroke="#63b8ff" points="223.92,-76.66 233.29,-71.72 222.89,-69.73 223.92,-76.66"/>
</a>
</g>
</g>
<!-- Node6&#45;&gt;Node4 -->
<g id="edge9_Node000006_Node000004" class="edge">
<title>Node6&#45;&gt;Node4</title>
<g id="a_edge9_Node000006_Node000004"><a xlink:title=" ">
<path fill="none" stroke="#63b8ff" d="M223.62,-60.84C215.97,-59.7 207.83,-58.5 199.72,-57.29"/>
<polygon fill="#63b8ff" stroke="#63b8ff" points="222.89,-64.27 233.29,-62.28 223.92,-57.34 222.89,-64.27"/>
</a>
</g>
</g>
<!-- Node6&#45;&gt;Node5 -->
<g id="edge10_Node000006_Node000005" class="edge">
<title>Node6&#45;&gt;Node5</title>
<g id="a_edge10_Node000006_Node000005"><a xlink:title=" ">
<path fill="none" stroke="#63b8ff" d="M239.69,-50.52C227.75,-43.26 213.11,-35.02 199.25,-29 191.91,-25.81 183.86,-22.92 176.06,-20.43"/>
<polygon fill="#63b8ff" stroke="#63b8ff" points="237.79,-53.46 248.13,-55.78 241.49,-47.52 237.79,-53.46"/>
</a>
</g>
</g>
</g>
</svg>
