<?xml version="1.0" encoding="UTF-8" standalone="no"?>
<!DOCTYPE svg PUBLIC "-//W3C//DTD SVG 1.1//EN"
 "http://www.w3.org/Graphics/SVG/1.1/DTD/svg11.dtd">
<!-- Generated by graphviz version 14.1.5 (20260411.2331)
 -->
<!-- Title: ModelImpl Pages: 1 -->
<svg width="236pt" height="687pt"
 viewBox="0.00 0.00 236.00 687.00" xmlns="http://www.w3.org/2000/svg" xmlns:xlink="http://www.w3.org/1999/xlink">
<g id="graph0" class="graph" transform="scale(1 1) rotate(0) translate(4 683)">
<title>ModelImpl</title>
<!-- Node1 -->
<g id="Node000001" class="node">
<title>Node1</title>
<g id="a_Node000001"><a xlink:title=" ">
<polygon fill="#999999" stroke="none" points="125.12,-228 27.62,-228 27.62,0 125.12,0 125.12,-228"/>
<text xml:space="preserve" text-anchor="start" x="53.88" y="-214.25" font-family="Helvetica,sans-Serif" font-size="10.00">ModelImpl</text>
<text xml:space="preserve" text-anchor="start" x="74.88" y="-198.25" font-family="Helvetica,sans-Serif" font-size="10.00"> </text>
<text xml:space="preserve" text-anchor="start" x="31.62" y="-182.25" font-family="Helvetica,sans-Serif" font-size="10.00">+</text>
<text xml:space="preserve" text-anchor="start" x="41.62" y="-182.25" font-family="Helvetica,sans-Serif" font-size="10.00">ModelImpl()</text>
<text xml:space="preserve" text-anchor="start" x="31.62" y="-166.25" font-family="Helvetica,sans-Serif" font-size="10.00">+</text>
<text xml:space="preserve" text-anchor="start" x="41.62" y="-166.25" font-family="Helvetica,sans-Serif" font-size="10.00">~ModelImpl()</text>
<text xml:space="preserve" text-anchor="start" x="31.62" y="-150.25" font-family="Helvetica,sans-Serif" font-size="10.00">+</text>
<text xml:space="preserve" text-anchor="start" x="41.62" y="-150.25" font-family="Helvetica,sans-Serif" font-size="10.00">ModelImpl()</text>
<text xml:space="preserve" text-anchor="start" x="31.62" y="-134.25" font-family="Helvetica,sans-Serif" font-size="10.00">+</text>
<text xml:space="preserve" text-anchor="start" x="41.62" y="-134.25" font-family="Helvetica,sans-Serif" font-size="10.00">operator=()</text>
<text xml:space="preserve" text-anchor="start" x="31.62" y="-118.25" font-family="Helvetica,sans-Serif" font-size="10.00">+</text>
<text xml:space="preserve" text-anchor="start" x="41.62" y="-118.25" font-family="Helvetica,sans-Serif" font-size="10.00">getName()</text>
<text xml:space="preserve" text-anchor="start" x="31.62" y="-102.25" font-family="Helvetica,sans-Serif" font-size="10.00">+</text>
<text xml:space="preserve" text-anchor="start" x="41.62" y="-102.25" font-family="Helvetica,sans-Serif" font-size="10.00">setName()</text>
<text xml:space="preserve" text-anchor="start" x="31.62" y="-86.25" font-family="Helvetica,sans-Serif" font-size="10.00">+</text>
<text xml:space="preserve" text-anchor="start" x="41.62" y="-86.25" font-family="Helvetica,sans-Serif" font-size="10.00">add()</text>
<text xml:space="preserve" text-anchor="start" x="31.62" y="-70.25" font-family="Helvetica,sans-Serif" font-size="10.00">+</text>
<text xml:space="preserve" text-anchor="start" x="41.62" y="-70.25" font-family="Helvetica,sans-Serif" font-size="10.00">add()</text>
<text xml:space="preserve" text-anchor="start" x="31.62" y="-54.25" font-family="Helvetica,sans-Serif" font-size="10.00">+</text>
<text xml:space="preserve" text-anchor="start" x="41.62" y="-54.25" font-family="Helvetica,sans-Serif" font-size="10.00">createSystem()</text>
<text xml:space="preserve" text-anchor="start" x="31.62" y="-38.25" font-family="Helvetica,sans-Serif" font-size="10.00">+</text>
<text xml:space="preserve" text-anchor="start" x="41.62" y="-38.25" font-family="Helvetica,sans-Serif" font-size="10.00">run()</text>
<text xml:space="preserve" text-anchor="start" x="31.62" y="-22.25" font-family="Helvetica,sans-Serif" font-size="10.00">+</text>
<text xml:space="preserve" text-anchor="start" x="41.62" y="-22.25" font-family="Helvetica,sans-Serif" font-size="10.00">getSystemCount()</text>
<text xml:space="preserve" text-anchor="start" x="31.62" y="-6.25" font-family="Helvetica,sans-Serif" font-size="10.00">+</text>
<text xml:space="preserve" text-anchor="start" x="41.62" y="-6.25" font-family="Helvetica,sans-Serif" font-size="10.00">getFlowCount()</text>
<polygon fill="#666666" stroke="#666666" points="27.62,-210 27.62,-210 125.12,-210 125.12,-210 27.62,-210"/>
<polygon fill="#666666" stroke="#666666" points="27.62,-194 27.62,-194 125.12,-194 125.12,-194 27.62,-194"/>
<polygon fill="none" stroke="#666666" points="27.62,0 27.62,-228 125.12,-228 125.12,0 27.62,0"/>
</a>
</g>
</g>
<!-- Node2 -->
<g id="Node000002" class="node">
<title>Node2</title>
<g id="a_Node000002"><a xlink:href="class_model.html" target="_top" xlink:title=" ">
<polygon fill="white" stroke="none" points="84.75,-461 0,-461 0,-265 84.75,-265 84.75,-461"/>
<text xml:space="preserve" text-anchor="start" x="29.25" y="-447.25" font-family="Helvetica,sans-Serif" font-size="10.00">Model</text>
<text xml:space="preserve" text-anchor="start" x="40.88" y="-431.25" font-family="Helvetica,sans-Serif" font-size="10.00"> </text>
<text xml:space="preserve" text-anchor="start" x="4" y="-415.25" font-family="Helvetica,sans-Serif" font-size="10.00">+</text>
<text xml:space="preserve" text-anchor="start" x="14" y="-415.25" font-family="Helvetica,sans-Serif" font-size="10.00">~Model()</text>
<text xml:space="preserve" text-anchor="start" x="4" y="-399.25" font-family="Helvetica,sans-Serif" font-size="10.00">+</text>
<text xml:space="preserve" text-anchor="start" x="14" y="-399.25" font-family="Helvetica,sans-Serif" font-size="10.00">getName()</text>
<text xml:space="preserve" text-anchor="start" x="4" y="-383.25" font-family="Helvetica,sans-Serif" font-size="10.00">+</text>
<text xml:space="preserve" text-anchor="start" x="14" y="-383.25" font-family="Helvetica,sans-Serif" font-size="10.00">setName()</text>
<text xml:space="preserve" text-anchor="start" x="4" y="-367.25" font-family="Helvetica,sans-Serif" font-size="10.00">+</text>
<text xml:space="preserve" text-anchor="start" x="14" y="-367.25" font-family="Helvetica,sans-Serif" font-size="10.00">add()</text>
<text xml:space="preserve" text-anchor="start" x="4" y="-351.25" font-family="Helvetica,sans-Serif" font-size="10.00">+</text>
<text xml:space="preserve" text-anchor="start" x="14" y="-351.25" font-family="Helvetica,sans-Serif" font-size="10.00">add()</text>
<text xml:space="preserve" text-anchor="start" x="4" y="-335.25" font-family="Helvetica,sans-Serif" font-size="10.00">+</text>
<text xml:space="preserve" text-anchor="start" x="14" y="-335.25" font-family="Helvetica,sans-Serif" font-size="10.00">createSystem()</text>
<text xml:space="preserve" text-anchor="start" x="4" y="-319.25" font-family="Helvetica,sans-Serif" font-size="10.00">+</text>
<text xml:space="preserve" text-anchor="start" x="14" y="-319.25" font-family="Helvetica,sans-Serif" font-size="10.00">createFlow()</text>
<text xml:space="preserve" text-anchor="start" x="4" y="-303.25" font-family="Helvetica,sans-Serif" font-size="10.00">+</text>
<text xml:space="preserve" text-anchor="start" x="14" y="-303.25" font-family="Helvetica,sans-Serif" font-size="10.00">run()</text>
<text xml:space="preserve" text-anchor="start" x="4" y="-287.25" font-family="Helvetica,sans-Serif" font-size="10.00">+</text>
<text xml:space="preserve" text-anchor="start" x="14" y="-287.25" font-family="Helvetica,sans-Serif" font-size="10.00">createModel()</text>
<text xml:space="preserve" text-anchor="start" x="4" y="-271.25" font-family="Helvetica,sans-Serif" font-size="10.00">+</text>
<text xml:space="preserve" text-anchor="start" x="14" y="-271.25" font-family="Helvetica,sans-Serif" font-size="10.00">deleteModel()</text>
<polygon fill="#666666" stroke="#666666" points="0,-443 0,-443 84.75,-443 84.75,-443 0,-443"/>
<polygon fill="#666666" stroke="#666666" points="0,-427 0,-427 84.75,-427 84.75,-427 0,-427"/>
<polygon fill="none" stroke="#666666" points="0,-265 0,-461 84.75,-461 84.75,-265 0,-265"/>
</a>
</g>
</g>
<!-- Node2&#45;&gt;Node1 -->
<g id="edge1_Node000001_Node000002" class="edge">
<title>Node2&#45;&gt;Node1</title>
<g id="a_edge1_Node000001_Node000002"><a xlink:title=" ">
<path fill="none" stroke="#63b8ff" d="M57.27,-253.76C58.47,-245.08 59.68,-236.31 60.87,-227.6"/>
<polygon fill="none" stroke="#63b8ff" points="53.82,-253.2 55.92,-263.59 60.75,-254.16 53.82,-253.2"/>
</a>
</g>
</g>
<!-- Node3 -->
<g id="Node000003" class="node">
<title>Node3</title>
<g id="a_Node000003"><a xlink:href="class_handle.html" target="_top" xlink:title=" ">
<polygon fill="white" stroke="none" points="208.12,-405 102.62,-405 102.62,-321 208.12,-321 208.12,-405"/>
<text xml:space="preserve" text-anchor="start" x="106.62" y="-391.25" font-family="Helvetica,sans-Serif" font-size="10.00">Handle&lt; ModelBody &gt;</text>
<text xml:space="preserve" text-anchor="start" x="117.06" y="-375.25" font-family="Helvetica,sans-Serif" font-size="10.00">#</text>
<text xml:space="preserve" text-anchor="start" x="136.75" y="-375.25" font-family="Helvetica,sans-Serif" font-size="10.00">pImpl_</text>
<text xml:space="preserve" text-anchor="start" x="116.69" y="-359.25" font-family="Helvetica,sans-Serif" font-size="10.00">+</text>
<text xml:space="preserve" text-anchor="start" x="136.75" y="-359.25" font-family="Helvetica,sans-Serif" font-size="10.00">Handle()</text>
<text xml:space="preserve" text-anchor="start" x="116.69" y="-343.25" font-family="Helvetica,sans-Serif" font-size="10.00">+</text>
<text xml:space="preserve" text-anchor="start" x="136.75" y="-343.25" font-family="Helvetica,sans-Serif" font-size="10.00">~Handle()</text>
<text xml:space="preserve" text-anchor="start" x="116.69" y="-327.25" font-family="Helvetica,sans-Serif" font-size="10.00">+</text>
<text xml:space="preserve" text-anchor="start" x="136.75" y="-327.25" font-family="Helvetica,sans-Serif" font-size="10.00">operator=()</text>
<polygon fill="#666666" stroke="#666666" points="102.62,-387 102.62,-387 208.12,-387 208.12,-387 102.62,-387"/>
<polygon fill="#666666" stroke="#666666" points="102.62,-371 102.62,-371 134.75,-371 134.75,-371 102.62,-371"/>
<polygon fill="#666666" stroke="#666666" points="134.75,-371 134.75,-371 208.12,-371 208.12,-371 134.75,-371"/>
<polygon fill="none" stroke="#666666" points="102.62,-321 102.62,-405 208.12,-405 208.12,-321 102.62,-321"/>
</a>
</g>
</g>
<!-- Node3&#45;&gt;Node1 -->
<g id="edge2_Node000001_Node000003" class="edge">
<title>Node3&#45;&gt;Node1</title>
<g id="a_edge2_Node000001_Node000003"><a xlink:title=" ">
<path fill="none" stroke="#63b8ff" d="M138.92,-310.56C131.22,-286.47 121.71,-256.74 112.46,-227.81"/>
<polygon fill="none" stroke="#63b8ff" points="135.49,-311.31 141.87,-319.77 142.16,-309.18 135.49,-311.31"/>
</a>
</g>
</g>
<!-- Node4 -->
<g id="Node000004" class="node">
<title>Node4</title>
<g id="a_Node000004"><a xlink:href="class_handle.html" target="_top" xlink:title="The classes Handle and Body implements the &quot;bridge&quot; design pattern (also known as &quot;handle/body idiom&quot;...">
<polygon fill="white" stroke="none" points="188,-679 122.75,-679 122.75,-515 188,-515 188,-679"/>
<text xml:space="preserve" text-anchor="start" x="128.38" y="-665.25" font-family="Helvetica,sans-Serif" font-size="10.00">Handle&lt; T &gt;</text>
<text xml:space="preserve" text-anchor="start" x="127.12" y="-649.25" font-family="Helvetica,sans-Serif" font-size="10.00">#</text>
<text xml:space="preserve" text-anchor="start" x="136.75" y="-649.25" font-family="Helvetica,sans-Serif" font-size="10.00">pImpl_</text>
<text xml:space="preserve" text-anchor="start" x="126.75" y="-633.25" font-family="Helvetica,sans-Serif" font-size="10.00">+</text>
<text xml:space="preserve" text-anchor="start" x="136.75" y="-633.25" font-family="Helvetica,sans-Serif" font-size="10.00">Handle()</text>
<text xml:space="preserve" text-anchor="start" x="126.75" y="-617.25" font-family="Helvetica,sans-Serif" font-size="10.00">+</text>
<text xml:space="preserve" text-anchor="start" x="136.75" y="-617.25" font-family="Helvetica,sans-Serif" font-size="10.00">~Handle()</text>
<text xml:space="preserve" text-anchor="start" x="126.75" y="-601.25" font-family="Helvetica,sans-Serif" font-size="10.00">+</text>
<text xml:space="preserve" text-anchor="start" x="136.75" y="-601.25" font-family="Helvetica,sans-Serif" font-size="10.00">Handle()</text>
<text xml:space="preserve" text-anchor="start" x="126.75" y="-585.25" font-family="Helvetica,sans-Serif" font-size="10.00">+</text>
<text xml:space="preserve" text-anchor="start" x="136.75" y="-585.25" font-family="Helvetica,sans-Serif" font-size="10.00">operator=()</text>
<text xml:space="preserve" text-anchor="start" x="126.75" y="-569.25" font-family="Helvetica,sans-Serif" font-size="10.00">+</text>
<text xml:space="preserve" text-anchor="start" x="136.75" y="-569.25" font-family="Helvetica,sans-Serif" font-size="10.00">Handle()</text>
<text xml:space="preserve" text-anchor="start" x="126.75" y="-553.25" font-family="Helvetica,sans-Serif" font-size="10.00">+</text>
<text xml:space="preserve" text-anchor="start" x="136.75" y="-553.25" font-family="Helvetica,sans-Serif" font-size="10.00">~Handle()</text>
<text xml:space="preserve" text-anchor="start" x="126.75" y="-537.25" font-family="Helvetica,sans-Serif" font-size="10.00">+</text>
<text xml:space="preserve" text-anchor="start" x="136.75" y="-537.25" font-family="Helvetica,sans-Serif" font-size="10.00">Handle()</text>
<text xml:space="preserve" text-anchor="start" x="126.75" y="-521.25" font-family="Helvetica,sans-Serif" font-size="10.00">+</text>
<text xml:space="preserve" text-anchor="start" x="136.75" y="-521.25" font-family="Helvetica,sans-Serif" font-size="10.00">operator=()</text>
<polygon fill="#666666" stroke="#666666" points="122.75,-661 122.75,-661 188,-661 188,-661 122.75,-661"/>
<polygon fill="#666666" stroke="#666666" points="122.75,-645 122.75,-645 134.75,-645 134.75,-645 122.75,-645"/>
<polygon fill="#666666" stroke="#666666" points="134.75,-645 134.75,-645 188,-645 188,-645 134.75,-645"/>
<polygon fill="none" stroke="#666666" points="122.75,-515 122.75,-679 188,-679 188,-515 122.75,-515"/>
</a>
</g>
</g>
<!-- Node4&#45;&gt;Node3 -->
<g id="edge3_Node000003_Node000004" class="edge">
<title>Node4&#45;&gt;Node3</title>
<g id="a_edge3_Node000003_Node000004"><a xlink:title=" ">
<path fill="none" stroke="orange" d="M155.38,-503.68C155.38,-469.38 155.38,-432.2 155.38,-404.82"/>
<polygon fill="orange" stroke="orange" points="151.88,-503.67 155.38,-513.67 158.88,-503.67 151.88,-503.67"/>
</a>
</g>
<text xml:space="preserve" text-anchor="start" x="158.38" y="-484.25" font-family="Helvetica,sans-Serif" font-size="10.00" fill="grey">&lt; ModelBody &gt;</text>
</g>
</g>
</svg>
