<?xml version="1.0" encoding="UTF-8" standalone="no"?>
<!DOCTYPE svg PUBLIC "-//W3C//DTD SVG 1.1//EN"
 "http://www.w3.org/Graphics/SVG/1.1/DTD/svg11.dtd">
<!-- Generated by graphviz version 14.1.5 (20260411.2331)
 -->
<!-- Title: Flow::Flow Pages: 1 -->
<svg width="482pt" height="525pt"
 viewBox="0.00 0.00 482.00 525.00" xmlns="http://www.w3.org/2000/svg" xmlns:xlink="http://www.w3.org/1999/xlink">
<g id="graph0" class="graph" transform="scale(1 1) rotate(0) translate(4 521)">
<title>Flow::Flow</title>
<!-- Node1 -->
<g id="Node000001" class="node">
<title>Node1</title>
<g id="a_Node000001"><a xlink:title="Default constructor.">
<polygon fill="#999999" stroke="#666666" points="474,-229 410,-229 410,-209 474,-209 474,-229"/>
<text xml:space="preserve" text-anchor="middle" x="442" y="-215.5" font-family="Helvetica,sans-Serif" font-size="10.00">Flow::Flow</text>
</a>
</g>
</g>
<!-- Node2 -->
<g id="Node000002" class="node">
<title>Node2</title>
<g id="a_Node000002"><a xlink:href="class_complex_flow.html#a5842ce02ac6229830dbe8895b61891cf" target="_top" xlink:title="Default constructor.">
<polygon fill="white" stroke="#666666" points="362,-457 220,-457 220,-437 362,-437 362,-457"/>
<text xml:space="preserve" text-anchor="middle" x="291" y="-443.5" font-family="Helvetica,sans-Serif" font-size="10.00">ComplexFlow::ComplexFlow</text>
</a>
</g>
</g>
<!-- Node1&#45;&gt;Node2 -->
<g id="edge1_Node000001_Node000002" class="edge">
<title>Node1&#45;&gt;Node2</title>
<g id="a_edge1_Node000001_Node000002"><a xlink:title=" ">
<path fill="none" stroke="#63b8ff" d="M436.86,-240.34C429.32,-274.83 410.61,-343.64 374,-390 357.67,-410.68 331.82,-426.9 313.52,-436.66"/>
<polygon fill="#63b8ff" stroke="#63b8ff" points="440.24,-241.28 438.84,-230.77 433.39,-239.86 440.24,-241.28"/>
</a>
</g>
</g>
<!-- Node3 -->
<g id="Node000003" class="node">
<title>Node3</title>
<g id="a_Node000003"><a xlink:href="class_complex_flow.html#aaf08c069a2cea2f6e759ade91d925c10" target="_top" xlink:title="Copy constructor.">
<polygon fill="white" stroke="#666666" points="157,-514 15,-514 15,-494 157,-494 157,-514"/>
<text xml:space="preserve" text-anchor="middle" x="86" y="-500.5" font-family="Helvetica,sans-Serif" font-size="10.00">ComplexFlow::ComplexFlow</text>
</a>
</g>
</g>
<!-- Node1&#45;&gt;Node3 -->
<g id="edge5_Node000001_Node000003" class="edge">
<title>Node1&#45;&gt;Node3</title>
<g id="a_edge5_Node000001_Node000003"><a xlink:title=" ">
<path fill="none" stroke="#63b8ff" d="M438.17,-240.88C430.63,-295.58 408.29,-436 374,-466 314.04,-518.46 218.31,-520.52 154.09,-514.49"/>
<polygon fill="#63b8ff" stroke="#63b8ff" points="441.64,-241.36 439.49,-230.98 434.7,-240.43 441.64,-241.36"/>
</a>
</g>
</g>
<!-- Node6 -->
<g id="Node000006" class="node">
<title>Node6</title>
<g id="a_Node000006"><a xlink:href="class_complex_flow.html#a7796d4f12c1eeeee70bc233d291a42f0" target="_top" xlink:title="Constructor with parameters.">
<polygon fill="white" stroke="#666666" points="362,-172 220,-172 220,-152 362,-152 362,-172"/>
<text xml:space="preserve" text-anchor="middle" x="291" y="-158.5" font-family="Helvetica,sans-Serif" font-size="10.00">ComplexFlow::ComplexFlow</text>
</a>
</g>
</g>
<!-- Node1&#45;&gt;Node6 -->
<g id="edge6_Node000001_Node000006" class="edge">
<title>Node1&#45;&gt;Node6</title>
<g id="a_edge6_Node000001_Node000006"><a xlink:title=" ">
<path fill="none" stroke="#63b8ff" d="M412.03,-203.37C400.41,-197.46 386.77,-190.97 374,-186 360.87,-180.89 346.19,-176.27 332.92,-172.47"/>
<polygon fill="#63b8ff" stroke="#63b8ff" points="410.21,-206.37 420.7,-207.87 413.44,-200.16 410.21,-206.37"/>
</a>
</g>
</g>
<!-- Node7 -->
<g id="Node000007" class="node">
<title>Node7</title>
<g id="a_Node000007"><a xlink:href="class_exponential_flow.html#a1f981db78e6635fd9837648960d8dc8d" target="_top" xlink:title="Default constructor.">
<polygon fill="white" stroke="#666666" points="374,-324 208,-324 208,-304 374,-304 374,-324"/>
<text xml:space="preserve" text-anchor="middle" x="291" y="-310.5" font-family="Helvetica,sans-Serif" font-size="10.00">ExponentialFlow::ExponentialFlow</text>
</a>
</g>
</g>
<!-- Node1&#45;&gt;Node7 -->
<g id="edge7_Node000001_Node000007" class="edge">
<title>Node1&#45;&gt;Node7</title>
<g id="a_edge7_Node000001_Node000007"><a xlink:title=" ">
<path fill="none" stroke="#63b8ff" d="M427.38,-238.38C415.14,-254.42 395.78,-276.66 374,-290 364.64,-295.73 353.84,-300.16 343.21,-303.55"/>
<polygon fill="#63b8ff" stroke="#63b8ff" points="430.03,-240.68 433.14,-230.55 424.39,-236.53 430.03,-240.68"/>
</a>
</g>
</g>
<!-- Node8 -->
<g id="Node000008" class="node">
<title>Node8</title>
<g id="a_Node000008"><a xlink:href="class_exponential_flow.html#ad87b5541b7b6869039fb1f2d0c58fdea" target="_top" xlink:title="Copy constructor.">
<polygon fill="white" stroke="#666666" points="169,-286 3,-286 3,-266 169,-266 169,-286"/>
<text xml:space="preserve" text-anchor="middle" x="86" y="-272.5" font-family="Helvetica,sans-Serif" font-size="10.00">ExponentialFlow::ExponentialFlow</text>
</a>
</g>
</g>
<!-- Node1&#45;&gt;Node8 -->
<g id="edge11_Node000001_Node000008" class="edge">
<title>Node1&#45;&gt;Node8</title>
<g id="a_edge11_Node000001_Node000008"><a xlink:title=" ">
<path fill="none" stroke="#63b8ff" d="M417.48,-235.82C405.14,-243.71 389.41,-252.38 374,-257 307.15,-277.02 227.76,-280.85 169.44,-280.19"/>
<polygon fill="#63b8ff" stroke="#63b8ff" points="419.34,-238.79 425.7,-230.32 415.45,-232.97 419.34,-238.79"/>
</a>
</g>
</g>
<!-- Node11 -->
<g id="Node000011" class="node">
<title>Node11</title>
<g id="a_Node000011"><a xlink:href="class_exponential_flow.html#ad0330979d79035fa2af78908421e9095" target="_top" xlink:title="Constructor with parameters.">
<polygon fill="white" stroke="#666666" points="374,-134 208,-134 208,-114 374,-114 374,-134"/>
<text xml:space="preserve" text-anchor="middle" x="291" y="-120.5" font-family="Helvetica,sans-Serif" font-size="10.00">ExponentialFlow::ExponentialFlow</text>
</a>
</g>
</g>
<!-- Node1&#45;&gt;Node11 -->
<g id="edge12_Node000001_Node000011" class="edge">
<title>Node1&#45;&gt;Node11</title>
<g id="a_edge12_Node000001_Node000011"><a xlink:title=" ">
<path fill="none" stroke="#63b8ff" d="M428.79,-199.25C416.95,-181.77 397.36,-156.94 374,-143 368.23,-139.56 361.88,-136.74 355.36,-134.43"/>
<polygon fill="#63b8ff" stroke="#63b8ff" points="425.63,-200.81 434.02,-207.28 431.5,-196.99 425.63,-200.81"/>
</a>
</g>
</g>
<!-- Node12 -->
<g id="Node000012" class="node">
<title>Node12</title>
<g id="a_Node000012"><a xlink:href="class_flow.html#a5a65e36c874c5cd5283ac32a33eb0a8b" target="_top" xlink:title="Copy constructor.">
<polygon fill="white" stroke="#666666" points="323,-96 259,-96 259,-76 323,-76 323,-96"/>
<text xml:space="preserve" text-anchor="middle" x="291" y="-82.5" font-family="Helvetica,sans-Serif" font-size="10.00">Flow::Flow</text>
</a>
</g>
</g>
<!-- Node1&#45;&gt;Node12 -->
<g id="edge13_Node000001_Node000012" class="edge">
<title>Node1&#45;&gt;Node12</title>
<g id="a_edge13_Node000001_Node000012"><a xlink:title=" ">
<path fill="none" stroke="#63b8ff" d="M434.34,-197.69C425.08,-171.7 405.78,-128.35 374,-105 359.4,-94.27 339.7,-89.48 323.27,-87.39"/>
<polygon fill="#63b8ff" stroke="#63b8ff" points="431.01,-198.78 437.51,-207.15 437.65,-196.56 431.01,-198.78"/>
</a>
</g>
</g>
<!-- Node13 -->
<g id="Node000013" class="node">
<title>Node13</title>
<g id="a_Node000013"><a xlink:href="class_logistic_flow.html#ab0f7906cfe1a27e18a4f558124e53ee0" target="_top" xlink:title="Default constructor.">
<polygon fill="white" stroke="#666666" points="356.75,-248 225.25,-248 225.25,-228 356.75,-228 356.75,-248"/>
<text xml:space="preserve" text-anchor="middle" x="291" y="-234.5" font-family="Helvetica,sans-Serif" font-size="10.00">LogisticFlow::LogisticFlow</text>
</a>
</g>
</g>
<!-- Node1&#45;&gt;Node13 -->
<g id="edge14_Node000001_Node000013" class="edge">
<title>Node1&#45;&gt;Node13</title>
<g id="a_edge14_Node000001_Node000013"><a xlink:title=" ">
<path fill="none" stroke="#63b8ff" d="M398.4,-224.43C385.49,-226.08 370.99,-227.93 356.96,-229.72"/>
<polygon fill="#63b8ff" stroke="#63b8ff" points="398.79,-227.91 408.26,-223.17 397.9,-220.97 398.79,-227.91"/>
</a>
</g>
</g>
<!-- Node14 -->
<g id="Node000014" class="node">
<title>Node14</title>
<g id="a_Node000014"><a xlink:href="class_logistic_flow.html#a5cb786f5e252395010b54b16440775cd" target="_top" xlink:title="Copy constructor.">
<polygon fill="white" stroke="#666666" points="151.75,-210 20.25,-210 20.25,-190 151.75,-190 151.75,-210"/>
<text xml:space="preserve" text-anchor="middle" x="86" y="-196.5" font-family="Helvetica,sans-Serif" font-size="10.00">LogisticFlow::LogisticFlow</text>
</a>
</g>
</g>
<!-- Node1&#45;&gt;Node14 -->
<g id="edge18_Node000001_Node000014" class="edge">
<title>Node1&#45;&gt;Node14</title>
<g id="a_edge18_Node000001_Node000014"><a xlink:title=" ">
<path fill="none" stroke="#63b8ff" d="M398.42,-216.71C337.17,-213.43 223.69,-207.34 151.94,-203.49"/>
<polygon fill="#63b8ff" stroke="#63b8ff" points="397.9,-220.19 408.07,-217.23 398.28,-213.2 397.9,-220.19"/>
</a>
</g>
</g>
<!-- Node17 -->
<g id="Node000017" class="node">
<title>Node17</title>
<g id="a_Node000017"><a xlink:href="class_logistic_flow.html#a4b30935bd972aff12bf16b3ee3f54e00" target="_top" xlink:title="Constructor with parameters.">
<polygon fill="white" stroke="#666666" points="356.75,-58 225.25,-58 225.25,-38 356.75,-38 356.75,-58"/>
<text xml:space="preserve" text-anchor="middle" x="291" y="-44.5" font-family="Helvetica,sans-Serif" font-size="10.00">LogisticFlow::LogisticFlow</text>
</a>
</g>
</g>
<!-- Node1&#45;&gt;Node17 -->
<g id="edge19_Node000001_Node000017" class="edge">
<title>Node1&#45;&gt;Node17</title>
<g id="a_edge19_Node000001_Node000017"><a xlink:title=" ">
<path fill="none" stroke="#63b8ff" d="M437.73,-197.48C431.52,-164.25 414.77,-100.76 374,-67 368.94,-62.81 363.12,-59.5 356.97,-56.9"/>
<polygon fill="#63b8ff" stroke="#63b8ff" points="434.25,-197.85 439.38,-207.12 441.15,-196.67 434.25,-197.85"/>
</a>
</g>
</g>
<!-- Node18 -->
<g id="Node000018" class="node">
<title>Node18</title>
<g id="a_Node000018"><a xlink:href="class_flow.html#a5f7550e37445bb6ae955beffd1fa857a" target="_top" xlink:title="Assignment operator.">
<polygon fill="white" stroke="#666666" points="333.12,-381 248.88,-381 248.88,-361 333.12,-361 333.12,-381"/>
<text xml:space="preserve" text-anchor="middle" x="291" y="-367.5" font-family="Helvetica,sans-Serif" font-size="10.00">Flow::operator=</text>
</a>
</g>
</g>
<!-- Node1&#45;&gt;Node18 -->
<g id="edge20_Node000001_Node000018" class="edge">
<title>Node1&#45;&gt;Node18</title>
<g id="a_edge20_Node000001_Node000018"><a xlink:title=" ">
<path fill="none" stroke="#63b8ff" d="M433.35,-239.67C423.19,-264.66 403.06,-306.64 374,-333 360.29,-345.44 341.79,-354.48 325.84,-360.62"/>
<polygon fill="#63b8ff" stroke="#63b8ff" points="436.51,-241.2 436.88,-230.61 429.99,-238.66 436.51,-241.2"/>
</a>
</g>
</g>
<!-- Node19 -->
<g id="Node000019" class="node">
<title>Node19</title>
<g id="a_Node000019"><a xlink:href="class_flow.html#a5991efa6e8cf88c4ef2125cc727db333" target="_top" xlink:title="Virtual destructor.">
<polygon fill="white" stroke="#666666" points="326,-20 256,-20 256,0 326,0 326,-20"/>
<text xml:space="preserve" text-anchor="middle" x="291" y="-6.5" font-family="Helvetica,sans-Serif" font-size="10.00">Flow::~Flow</text>
</a>
</g>
</g>
<!-- Node1&#45;&gt;Node19 -->
<g id="edge24_Node000001_Node000019" class="edge">
<title>Node1&#45;&gt;Node19</title>
<g id="a_edge24_Node000001_Node000019"><a xlink:title=" ">
<path fill="none" stroke="#63b8ff" d="M439.91,-197.57C436.69,-158.07 424,-73.72 374,-29 361.04,-17.41 342.41,-12.49 326.18,-10.54"/>
<polygon fill="#63b8ff" stroke="#63b8ff" points="436.4,-197.67 440.56,-207.41 443.39,-197.2 436.4,-197.67"/>
</a>
</g>
</g>
<!-- Node2&#45;&gt;Node3 -->
<g id="edge2_Node000002_Node000003" class="edge">
<title>Node2&#45;&gt;Node3</title>
<g id="a_edge2_Node000002_Node000003"><a xlink:title=" ">
<path fill="none" stroke="#63b8ff" d="M249.26,-461.14C226.65,-468.72 197.94,-477.94 172,-485 160.91,-488.02 148.92,-490.92 137.53,-493.51"/>
<polygon fill="#63b8ff" stroke="#63b8ff" points="250.37,-464.46 258.72,-457.93 248.13,-457.83 250.37,-464.46"/>
</a>
</g>
</g>
<!-- Node4 -->
<g id="Node000004" class="node">
<title>Node4</title>
<g id="a_Node000004"><a xlink:href="class_complex_flow.html#a6be113d8e13ab3330692c4f681a11875" target="_top" xlink:title="Assignment operator.">
<polygon fill="white" stroke="#666666" points="147.62,-438 24.38,-438 24.38,-418 147.62,-418 147.62,-438"/>
<text xml:space="preserve" text-anchor="middle" x="86" y="-424.5" font-family="Helvetica,sans-Serif" font-size="10.00">ComplexFlow::operator=</text>
</a>
</g>
</g>
<!-- Node2&#45;&gt;Node4 -->
<g id="edge3_Node000002_Node000004" class="edge">
<title>Node2&#45;&gt;Node4</title>
<g id="a_edge3_Node000002_Node000004"><a xlink:title=" ">
<path fill="none" stroke="#63b8ff" d="M208.18,-439.34C188.03,-437.46 166.8,-435.47 147.84,-433.69"/>
<polygon fill="#63b8ff" stroke="#63b8ff" points="207.78,-442.82 218.06,-440.27 208.43,-435.85 207.78,-442.82"/>
</a>
</g>
</g>
<!-- Node5 -->
<g id="Node000005" class="node">
<title>Node5</title>
<g id="a_Node000005"><a xlink:href="class_complex_flow.html#a3ea63b4de8f10baefdbb71c52986cd74" target="_top" xlink:title="Virtual destructor.">
<polygon fill="white" stroke="#666666" points="160,-476 12,-476 12,-456 160,-456 160,-476"/>
<text xml:space="preserve" text-anchor="middle" x="86" y="-462.5" font-family="Helvetica,sans-Serif" font-size="10.00">ComplexFlow::~ComplexFlow</text>
</a>
</g>
</g>
<!-- Node2&#45;&gt;Node5 -->
<g id="edge4_Node000002_Node000005" class="edge">
<title>Node2&#45;&gt;Node5</title>
<g id="a_edge4_Node000002_Node000005"><a xlink:title=" ">
<path fill="none" stroke="#63b8ff" d="M208.2,-454.66C192.4,-456.14 175.93,-457.68 160.41,-459.13"/>
<polygon fill="#63b8ff" stroke="#63b8ff" points="208.43,-458.15 218.06,-453.73 207.78,-451.18 208.43,-458.15"/>
</a>
</g>
</g>
<!-- Node7&#45;&gt;Node8 -->
<g id="edge8_Node000007_Node000008" class="edge">
<title>Node7&#45;&gt;Node8</title>
<g id="a_edge8_Node000007_Node000008"><a xlink:title=" ">
<path fill="none" stroke="#63b8ff" d="M222.74,-301.41C196.82,-296.56 167.54,-291.08 142.83,-286.45"/>
<polygon fill="#63b8ff" stroke="#63b8ff" points="222.03,-304.84 232.5,-303.24 223.32,-297.96 222.03,-304.84"/>
</a>
</g>
</g>
<!-- Node9 -->
<g id="Node000009" class="node">
<title>Node9</title>
<g id="a_Node000009"><a xlink:href="class_exponential_flow.html#a231385587bb12964a56e5e46ac2aa8e4" target="_top" xlink:title="Assignment operator.">
<polygon fill="white" stroke="#666666" points="153.62,-400 18.38,-400 18.38,-380 153.62,-380 153.62,-400"/>
<text xml:space="preserve" text-anchor="middle" x="86" y="-386.5" font-family="Helvetica,sans-Serif" font-size="10.00">ExponentialFlow::operator=</text>
</a>
</g>
</g>
<!-- Node7&#45;&gt;Node9 -->
<g id="edge9_Node000007_Node000009" class="edge">
<title>Node7&#45;&gt;Node9</title>
<g id="a_edge9_Node000007_Node000009"><a xlink:title=" ">
<path fill="none" stroke="#63b8ff" d="M256.24,-329.17C241.37,-335.98 223.73,-344.21 208,-352 191.79,-360.03 188.98,-364.75 172,-371 162.92,-374.34 153.07,-377.2 143.39,-379.61"/>
<polygon fill="#63b8ff" stroke="#63b8ff" points="257.49,-332.45 265.14,-325.12 254.59,-326.08 257.49,-332.45"/>
</a>
</g>
</g>
<!-- Node10 -->
<g id="Node000010" class="node">
<title>Node10</title>
<g id="a_Node000010"><a xlink:href="class_exponential_flow.html#a47f85f24c8a74a00b025541e3ed950eb" target="_top" xlink:title="Virtual destructor.">
<polygon fill="white" stroke="#666666" points="172,-324 0,-324 0,-304 172,-304 172,-324"/>
<text xml:space="preserve" text-anchor="middle" x="86" y="-310.5" font-family="Helvetica,sans-Serif" font-size="10.00">ExponentialFlow::~ExponentialFlow</text>
</a>
</g>
</g>
<!-- Node7&#45;&gt;Node10 -->
<g id="edge10_Node000007_Node000010" class="edge">
<title>Node7&#45;&gt;Node10</title>
<g id="a_edge10_Node000007_Node000010"><a xlink:title=" ">
<path fill="none" stroke="#63b8ff" d="M196.44,-314C188.42,-314 180.32,-314 172.37,-314"/>
<polygon fill="#63b8ff" stroke="#63b8ff" points="196.21,-317.5 206.21,-314 196.21,-310.5 196.21,-317.5"/>
</a>
</g>
</g>
<!-- Node13&#45;&gt;Node14 -->
<g id="edge15_Node000013_Node000014" class="edge">
<title>Node13&#45;&gt;Node14</title>
<g id="a_edge15_Node000013_Node000014"><a xlink:title=" ">
<path fill="none" stroke="#63b8ff" d="M222.74,-225.41C196.82,-220.56 167.54,-215.08 142.83,-210.45"/>
<polygon fill="#63b8ff" stroke="#63b8ff" points="222.03,-228.84 232.5,-227.24 223.32,-221.96 222.03,-228.84"/>
</a>
</g>
</g>
<!-- Node15 -->
<g id="Node000015" class="node">
<title>Node15</title>
<g id="a_Node000015"><a xlink:href="class_logistic_flow.html#a2bf490b7a58b8312d3841b5d3b3955f5" target="_top" xlink:title="Assignment operator.">
<polygon fill="white" stroke="#666666" points="145,-362 27,-362 27,-342 145,-342 145,-362"/>
<text xml:space="preserve" text-anchor="middle" x="86" y="-348.5" font-family="Helvetica,sans-Serif" font-size="10.00">LogisticFlow::operator=</text>
</a>
</g>
</g>
<!-- Node13&#45;&gt;Node15 -->
<g id="edge16_Node000013_Node000015" class="edge">
<title>Node13&#45;&gt;Node15</title>
<g id="a_edge16_Node000013_Node000015"><a xlink:title=" ">
<path fill="none" stroke="#63b8ff" d="M263.33,-254.54C246.78,-265.28 225.42,-280.03 208,-295 190.36,-310.16 192.23,-321.52 172,-333 163.85,-337.63 154.66,-341.13 145.41,-343.78"/>
<polygon fill="#63b8ff" stroke="#63b8ff" points="265.11,-257.56 271.65,-249.22 261.34,-251.66 265.11,-257.56"/>
</a>
</g>
</g>
<!-- Node16 -->
<g id="Node000016" class="node">
<title>Node16</title>
<g id="a_Node000016"><a xlink:href="class_logistic_flow.html#a39d18cc1ab327715c4b8e0377cff8435" target="_top" xlink:title="Virtual destructor.">
<polygon fill="white" stroke="#666666" points="154.75,-248 17.25,-248 17.25,-228 154.75,-228 154.75,-248"/>
<text xml:space="preserve" text-anchor="middle" x="86" y="-234.5" font-family="Helvetica,sans-Serif" font-size="10.00">LogisticFlow::~LogisticFlow</text>
</a>
</g>
</g>
<!-- Node13&#45;&gt;Node16 -->
<g id="edge17_Node000013_Node000016" class="edge">
<title>Node13&#45;&gt;Node16</title>
<g id="a_edge17_Node000013_Node000016"><a xlink:title=" ">
<path fill="none" stroke="#63b8ff" d="M213.51,-238C194.35,-238 173.92,-238 155.2,-238"/>
<polygon fill="#63b8ff" stroke="#63b8ff" points="213.42,-241.5 223.42,-238 213.42,-234.5 213.42,-241.5"/>
</a>
</g>
</g>
<!-- Node18&#45;&gt;Node4 -->
<g id="edge21_Node000018_Node000004" class="edge">
<title>Node18&#45;&gt;Node4</title>
<g id="a_edge21_Node000018_Node000004"><a xlink:title=" ">
<path fill="none" stroke="#63b8ff" d="M249.26,-385.14C226.65,-392.72 197.94,-401.94 172,-409 160.91,-412.02 148.92,-414.92 137.53,-417.51"/>
<polygon fill="#63b8ff" stroke="#63b8ff" points="250.37,-388.46 258.72,-381.93 248.13,-381.83 250.37,-388.46"/>
</a>
</g>
</g>
<!-- Node18&#45;&gt;Node9 -->
<g id="edge22_Node000018_Node000009" class="edge">
<title>Node18&#45;&gt;Node9</title>
<g id="a_edge22_Node000018_Node000009"><a xlink:title=" ">
<path fill="none" stroke="#63b8ff" d="M237.18,-375.94C211.8,-378.32 181.1,-381.19 154.09,-383.72"/>
<polygon fill="#63b8ff" stroke="#63b8ff" points="237.29,-379.45 246.92,-375.03 236.64,-372.48 237.29,-379.45"/>
</a>
</g>
</g>
<!-- Node18&#45;&gt;Node15 -->
<g id="edge23_Node000018_Node000015" class="edge">
<title>Node18&#45;&gt;Node15</title>
<g id="a_edge23_Node000018_Node000015"><a xlink:title=" ">
<path fill="none" stroke="#63b8ff" d="M237.21,-366.06C209.07,-363.43 174.39,-360.18 145.44,-357.47"/>
<polygon fill="#63b8ff" stroke="#63b8ff" points="236.64,-369.52 246.92,-366.97 237.29,-362.55 236.64,-369.52"/>
</a>
</g>
</g>
</g>
</svg>
