<?xml version="1.0" encoding="UTF-8" standalone="no"?>
<!DOCTYPE svg PUBLIC "-//W3C//DTD SVG 1.1//EN"
 "http://www.w3.org/Graphics/SVG/1.1/DTD/svg11.dtd">
<!-- Generated by graphviz version 14.1.5 (20260411.2331)
 -->
<!-- Title: ExponentialFlow Pages: 1 -->
<svg width="110pt" height="356pt"
 viewBox="0.00 0.00 110.00 356.00" xmlns="http://www.w3.org/2000/svg" xmlns:xlink="http://www.w3.org/1999/xlink">
<g id="graph0" class="graph" transform="scale(1 1) rotate(0) translate(4 352)">
<title>ExponentialFlow</title>
<!-- Node1 -->
<g id="Node000001" class="node">
<title>Node1</title>
<g id="a_Node000001"><a xlink:title="Implements a flow with exponential growth.">
<polygon fill="#999999" stroke="none" points="102,-132 0,-132 0,0 102,0 102,-132"/>
<text xml:space="preserve" text-anchor="start" x="15" y="-118.25" font-family="Helvetica,sans-Serif" font-size="10.00">ExponentialFlow</text>
<text xml:space="preserve" text-anchor="start" x="49.5" y="-102.25" font-family="Helvetica,sans-Serif" font-size="10.00"> </text>
<text xml:space="preserve" text-anchor="start" x="4" y="-86.25" font-family="Helvetica,sans-Serif" font-size="10.00">+</text>
<text xml:space="preserve" text-anchor="start" x="14" y="-86.25" font-family="Helvetica,sans-Serif" font-size="10.00">ExponentialFlow()</text>
<text xml:space="preserve" text-anchor="start" x="4" y="-70.25" font-family="Helvetica,sans-Serif" font-size="10.00">+</text>
<text xml:space="preserve" text-anchor="start" x="14" y="-70.25" font-family="Helvetica,sans-Serif" font-size="10.00">ExponentialFlow()</text>
<text xml:space="preserve" text-anchor="start" x="4" y="-54.25" font-family="Helvetica,sans-Serif" font-size="10.00">+</text>
<text xml:space="preserve" text-anchor="start" x="14" y="-54.25" font-family="Helvetica,sans-Serif" font-size="10.00">~ExponentialFlow()</text>
<text xml:space="preserve" text-anchor="start" x="4" y="-38.25" font-family="Helvetica,sans-Serif" font-size="10.00">+</text>
<text xml:space="preserve" text-anchor="start" x="14" y="-38.25" font-family="Helvetica,sans-Serif" font-size="10.00">ExponentialFlow()</text>
<text xml:space="preserve" text-anchor="start" x="4" y="-22.25" font-family="Helvetica,sans-Serif" font-size="10.00">+</text>
<text xml:space="preserve" text-anchor="start" x="14" y="-22.25" font-family="Helvetica,sans-Serif" font-size="10.00">operator=()</text>
<text xml:space="preserve" text-anchor="start" x="4" y="-6.25" font-family="Helvetica,sans-Serif" font-size="10.00">+</text>
<text xml:space="preserve" text-anchor="start" x="14" y="-6.25" font-family="Helvetica,sans-Serif" font-size="10.00">execute()</text>
<polygon fill="#666666" stroke="#666666" points="0,-114 0,-114 102,-114 102,-114 0,-114"/>
<polygon fill="#666666" stroke="#666666" points="0,-98 0,-98 102,-98 102,-98 0,-98"/>
<polygon fill="none" stroke="#666666" points="0,0 0,-132 102,-132 102,0 0,0"/>
</a>
</g>
</g>
<!-- Node2 -->
<g id="Node000002" class="node">
<title>Node2</title>
<g id="a_Node000002"><a xlink:href="class_flow.html" target="_top" xlink:title="Abstract class that represents a flow between systems.">
<polygon fill="white" stroke="none" points="85.12,-348 16.88,-348 16.88,-168 85.12,-168 85.12,-348"/>
<text xml:space="preserve" text-anchor="start" x="40.5" y="-334.25" font-family="Helvetica,sans-Serif" font-size="10.00">Flow</text>
<text xml:space="preserve" text-anchor="start" x="21.25" y="-318.25" font-family="Helvetica,sans-Serif" font-size="10.00">#</text>
<text xml:space="preserve" text-anchor="start" x="30.88" y="-318.25" font-family="Helvetica,sans-Serif" font-size="10.00">source</text>
<text xml:space="preserve" text-anchor="start" x="21.25" y="-302.25" font-family="Helvetica,sans-Serif" font-size="10.00">#</text>
<text xml:space="preserve" text-anchor="start" x="30.88" y="-302.25" font-family="Helvetica,sans-Serif" font-size="10.00">sink</text>
<text xml:space="preserve" text-anchor="start" x="20.88" y="-286.25" font-family="Helvetica,sans-Serif" font-size="10.00">+</text>
<text xml:space="preserve" text-anchor="start" x="30.88" y="-286.25" font-family="Helvetica,sans-Serif" font-size="10.00">Flow()</text>
<text xml:space="preserve" text-anchor="start" x="20.88" y="-270.25" font-family="Helvetica,sans-Serif" font-size="10.00">+</text>
<text xml:space="preserve" text-anchor="start" x="30.88" y="-270.25" font-family="Helvetica,sans-Serif" font-size="10.00">Flow()</text>
<text xml:space="preserve" text-anchor="start" x="20.88" y="-254.25" font-family="Helvetica,sans-Serif" font-size="10.00">+</text>
<text xml:space="preserve" text-anchor="start" x="30.88" y="-254.25" font-family="Helvetica,sans-Serif" font-size="10.00">~Flow()</text>
<text xml:space="preserve" text-anchor="start" x="20.88" y="-238.25" font-family="Helvetica,sans-Serif" font-size="10.00">+</text>
<text xml:space="preserve" text-anchor="start" x="30.88" y="-238.25" font-family="Helvetica,sans-Serif" font-size="10.00">Flow()</text>
<text xml:space="preserve" text-anchor="start" x="20.88" y="-222.25" font-family="Helvetica,sans-Serif" font-size="10.00">+</text>
<text xml:space="preserve" text-anchor="start" x="30.88" y="-222.25" font-family="Helvetica,sans-Serif" font-size="10.00">operator=()</text>
<text xml:space="preserve" text-anchor="start" x="20.88" y="-206.25" font-family="Helvetica,sans-Serif" font-size="10.00">+</text>
<text xml:space="preserve" text-anchor="start" x="30.88" y="-206.25" font-family="Helvetica,sans-Serif" font-size="10.00">execute()</text>
<text xml:space="preserve" text-anchor="start" x="20.88" y="-190.25" font-family="Helvetica,sans-Serif" font-size="10.00">+</text>
<text xml:space="preserve" text-anchor="start" x="30.88" y="-190.25" font-family="Helvetica,sans-Serif" font-size="10.00">getSource()</text>
<text xml:space="preserve" text-anchor="start" x="20.88" y="-174.25" font-family="Helvetica,sans-Serif" font-size="10.00">+</text>
<text xml:space="preserve" text-anchor="start" x="30.88" y="-174.25" font-family="Helvetica,sans-Serif" font-size="10.00">getSink()</text>
<polygon fill="#666666" stroke="#666666" points="16.88,-330 16.88,-330 85.12,-330 85.12,-330 16.88,-330"/>
<polygon fill="#666666" stroke="#666666" points="16.88,-298 16.88,-298 28.88,-298 28.88,-298 16.88,-298"/>
<polygon fill="#666666" stroke="#666666" points="28.88,-298 28.88,-298 85.12,-298 85.12,-298 28.88,-298"/>
<polygon fill="none" stroke="#666666" points="16.88,-168 16.88,-348 85.12,-348 85.12,-168 16.88,-168"/>
</a>
</g>
</g>
<!-- Node2&#45;&gt;Node1 -->
<g id="edge1_Node000001_Node000002" class="edge">
<title>Node2&#45;&gt;Node1</title>
<g id="a_edge1_Node000001_Node000002"><a xlink:title=" ">
<path fill="none" stroke="#63b8ff" d="M51,-156.89C51,-148.36 51,-139.88 51,-131.73"/>
<polygon fill="none" stroke="#63b8ff" points="47.5,-156.61 51,-166.61 54.5,-156.61 47.5,-156.61"/>
</a>
</g>
</g>
</g>
</svg>
