<?xml version="1.0" encoding="UTF-8" standalone="no"?>
<!DOCTYPE svg PUBLIC "-//W3C//DTD SVG 1.1//EN"
 "http://www.w3.org/Graphics/SVG/1.1/DTD/svg11.dtd">
<!-- Generated by graphviz version 14.1.5 (20260411.2331)
 -->
<!-- Title: Flow::getSink Pages: 1 -->
<svg width="417pt" height="104pt"
 viewBox="0.00 0.00 417.00 104.00" xmlns="http://www.w3.org/2000/svg" xmlns:xlink="http://www.w3.org/1999/xlink">
<g id="graph0" class="graph" transform="scale(1 1) rotate(0) translate(4 100)">
<title>Flow::getSink</title>
<!-- Node1 -->
<g id="Node000001" class="node">
<title>Node1</title>
<g id="a_Node000001"><a xlink:title="Gets the sink system of the flow.">
<polygon fill="#999999" stroke="#666666" points="409,-58 333,-58 333,-38 409,-38 409,-58"/>
<text xml:space="preserve" text-anchor="middle" x="371" y="-44.5" font-family="Helvetica,sans-Serif" font-size="10.00">Flow::getSink</text>
</a>
</g>
</g>
<!-- Node2 -->
<g id="Node000002" class="node">
<title>Node2</title>
<g id="a_Node000002"><a xlink:href="class_model.html#a27269301c78fc4f54061c150f13ae123" target="_top" xlink:title="Executes the simulation in the specified time interval.">
<polygon fill="white" stroke="#666666" points="297,-58 235.25,-58 235.25,-38 297,-38 297,-58"/>
<text xml:space="preserve" text-anchor="middle" x="266.12" y="-44.5" font-family="Helvetica,sans-Serif" font-size="10.00">Model::run</text>
</a>
</g>
</g>
<!-- Node1&#45;&gt;Node2 -->
<g id="edge1_Node000001_Node000002" class="edge">
<title>Node1&#45;&gt;Node2</title>
<g id="a_edge1_Node000001_Node000002"><a xlink:title=" ">
<path fill="none" stroke="#63b8ff" d="M321.19,-48C313.03,-48 304.79,-48 297.28,-48"/>
<polygon fill="#63b8ff" stroke="#63b8ff" points="321.06,-51.5 331.06,-48 321.06,-44.5 321.06,-51.5"/>
</a>
</g>
</g>
<!-- Node3 -->
<g id="Node000003" class="node">
<title>Node3</title>
<g id="a_Node000003"><a xlink:href="funcional__tests_8cpp.html#a943dfe0c597a01c9760c140715fed527" target="_top" xlink:title="Implementation of complex functional test.">
<polygon fill="white" stroke="#666666" points="192.88,-96 79.38,-96 79.38,-76 192.88,-76 192.88,-96"/>
<text xml:space="preserve" text-anchor="middle" x="136.12" y="-82.5" font-family="Helvetica,sans-Serif" font-size="10.00">complexFuncionalTest</text>
</a>
</g>
</g>
<!-- Node2&#45;&gt;Node3 -->
<g id="edge2_Node000002_Node000003" class="edge">
<title>Node2&#45;&gt;Node3</title>
<g id="a_edge2_Node000002_Node000003"><a xlink:title=" ">
<path fill="none" stroke="#63b8ff" d="M224.2,-60.15C207.47,-65.12 188.31,-70.81 172.23,-75.58"/>
<polygon fill="#63b8ff" stroke="#63b8ff" points="224.75,-63.64 233.34,-57.44 222.76,-56.93 224.75,-63.64"/>
</a>
</g>
</g>
<!-- Node5 -->
<g id="Node000005" class="node">
<title>Node5</title>
<g id="a_Node000005"><a xlink:href="funcional__tests_8cpp.html#a2c448ffaffdff4b03c825a01dffa6f27" target="_top" xlink:title="Implementation of exponential functional test.">
<polygon fill="white" stroke="#666666" points="199.25,-58 73,-58 73,-38 199.25,-38 199.25,-58"/>
<text xml:space="preserve" text-anchor="middle" x="136.12" y="-44.5" font-family="Helvetica,sans-Serif" font-size="10.00">exponentialFuncionalTest</text>
</a>
</g>
</g>
<!-- Node2&#45;&gt;Node5 -->
<g id="edge4_Node000002_Node000005" class="edge">
<title>Node2&#45;&gt;Node5</title>
<g id="a_edge4_Node000002_Node000005"><a xlink:title=" ">
<path fill="none" stroke="#63b8ff" d="M223.35,-48C215.78,-48 207.73,-48 199.72,-48"/>
<polygon fill="#63b8ff" stroke="#63b8ff" points="223.28,-51.5 233.28,-48 223.28,-44.5 223.28,-51.5"/>
</a>
</g>
</g>
<!-- Node6 -->
<g id="Node000006" class="node">
<title>Node6</title>
<g id="a_Node000006"><a xlink:href="funcional__tests_8cpp.html#a60914db64bde71b56d69320797266c29" target="_top" xlink:title="Implementation of logistic functional test.">
<polygon fill="white" stroke="#666666" points="193.62,-20 78.62,-20 78.62,0 193.62,0 193.62,-20"/>
<text xml:space="preserve" text-anchor="middle" x="136.12" y="-6.5" font-family="Helvetica,sans-Serif" font-size="10.00">logisticalFuncionalTest</text>
</a>
</g>
</g>
<!-- Node2&#45;&gt;Node6 -->
<g id="edge6_Node000002_Node000006" class="edge">
<title>Node2&#45;&gt;Node6</title>
<g id="a_edge6_Node000002_Node000006"><a xlink:title=" ">
<path fill="none" stroke="#63b8ff" d="M224.2,-35.85C207.47,-30.88 188.31,-25.19 172.23,-20.42"/>
<polygon fill="#63b8ff" stroke="#63b8ff" points="222.76,-39.07 233.34,-38.56 224.75,-32.36 222.76,-39.07"/>
</a>
</g>
</g>
<!-- Node4 -->
<g id="Node000004" class="node">
<title>Node4</title>
<g id="a_Node000004"><a xlink:href="main_8cpp.html#ae66f6b31b5ad750f1fe042a706a4e3d4" target="_top" xlink:title=" ">
<polygon fill="white" stroke="#666666" points="37,-58 0,-58 0,-38 37,-38 37,-58"/>
<text xml:space="preserve" text-anchor="middle" x="18.5" y="-44.5" font-family="Helvetica,sans-Serif" font-size="10.00">main</text>
</a>
</g>
</g>
<!-- Node3&#45;&gt;Node4 -->
<g id="edge3_Node000003_Node000004" class="edge">
<title>Node3&#45;&gt;Node4</title>
<g id="a_edge3_Node000003_Node000004"><a xlink:title=" ">
<path fill="none" stroke="#63b8ff" d="M88.95,-72.13C83.56,-70.43 78.15,-68.7 73,-67 61.02,-63.04 47.65,-58.29 37.27,-54.53"/>
<polygon fill="#63b8ff" stroke="#63b8ff" points="87.85,-75.45 98.44,-75.07 89.92,-68.77 87.85,-75.45"/>
</a>
</g>
</g>
<!-- Node5&#45;&gt;Node4 -->
<g id="edge5_Node000005_Node000004" class="edge">
<title>Node5&#45;&gt;Node4</title>
<g id="a_edge5_Node000005_Node000004"><a xlink:title=" ">
<path fill="none" stroke="#63b8ff" d="M61.17,-48C52.33,-48 44.05,-48 37.23,-48"/>
<polygon fill="#63b8ff" stroke="#63b8ff" points="61.06,-51.5 71.06,-48 61.06,-44.5 61.06,-51.5"/>
</a>
</g>
</g>
<!-- Node6&#45;&gt;Node4 -->
<g id="edge7_Node000006_Node000004" class="edge">
<title>Node6&#45;&gt;Node4</title>
<g id="a_edge7_Node000006_Node000004"><a xlink:title=" ">
<path fill="none" stroke="#63b8ff" d="M88.95,-23.87C83.56,-25.57 78.15,-27.3 73,-29 61.02,-32.96 47.65,-37.71 37.27,-41.47"/>
<polygon fill="#63b8ff" stroke="#63b8ff" points="89.92,-27.23 98.44,-20.93 87.85,-20.55 89.92,-27.23"/>
</a>
</g>
</g>
</g>
</svg>
