<?xml version="1.0" encoding="UTF-8" standalone="no"?>
<!DOCTYPE svg PUBLIC "-//W3C//DTD SVG 1.1//EN"
 "http://www.w3.org/Graphics/SVG/1.1/DTD/svg11.dtd">
<!-- Generated by graphviz version 14.1.5 (20260411.2331)
 -->
<!-- Title: SystemImpl::getName Pages: 1 -->
<svg width="542pt" height="306pt"
 viewBox="0.00 0.00 542.00 306.00" xmlns="http://www.w3.org/2000/svg" xmlns:xlink="http://www.w3.org/1999/xlink">
<g id="graph0" class="graph" transform="scale(1 1) rotate(0) translate(4 302)">
<title>SystemImpl::getName</title>
<!-- Node1 -->
<g id="Node000001" class="node">
<title>Node1</title>
<g id="a_Node000001"><a xlink:title=" ">
<polygon fill="#999999" stroke="#666666" points="534.25,-165 420,-165 420,-145 534.25,-145 534.25,-165"/>
<text xml:space="preserve" text-anchor="middle" x="477.12" y="-151.5" font-family="Helvetica,sans-Serif" font-size="10.00">SystemImpl::getName</text>
</a>
</g>
</g>
<!-- Node2 -->
<g id="Node000002" class="node">
<title>Node2</title>
<g id="a_Node000002"><a xlink:href="class_system_impl.html#a11c027096cb0e824bf8306c33e0a3903" target="_top" xlink:title=" ">
<polygon fill="white" stroke="#666666" points="360,-298 244.25,-298 244.25,-278 360,-278 360,-298"/>
<text xml:space="preserve" text-anchor="middle" x="302.12" y="-284.5" font-family="Helvetica,sans-Serif" font-size="10.00">SystemImpl::operator=</text>
</a>
</g>
</g>
<!-- Node1&#45;&gt;Node2 -->
<g id="edge1_Node000001_Node000002" class="edge">
<title>Node1&#45;&gt;Node2</title>
<g id="a_edge1_Node000001_Node000002"><a xlink:title=" ">
<path fill="none" stroke="#63b8ff" d="M465.4,-175.29C450.62,-201.18 421.52,-245.43 384,-269 376.79,-273.53 368.61,-276.98 360.29,-279.6"/>
<polygon fill="#63b8ff" stroke="#63b8ff" points="468.34,-177.2 470.1,-166.76 462.21,-173.82 468.34,-177.2"/>
</a>
</g>
</g>
<!-- Node3 -->
<g id="Node000003" class="node">
<title>Node3</title>
<g id="a_Node000003"><a xlink:href="class_system_impl.html#a096bb204d8011d9cce315346050ec038" target="_top" xlink:title=" ">
<polygon fill="white" stroke="#666666" points="365.62,-260 238.62,-260 238.62,-240 365.62,-240 365.62,-260"/>
<text xml:space="preserve" text-anchor="middle" x="302.12" y="-246.5" font-family="Helvetica,sans-Serif" font-size="10.00">SystemImpl::SystemImpl</text>
</a>
</g>
</g>
<!-- Node1&#45;&gt;Node3 -->
<g id="edge2_Node000001_Node000003" class="edge">
<title>Node1&#45;&gt;Node3</title>
<g id="a_edge2_Node000001_Node000003"><a xlink:title=" ">
<path fill="none" stroke="#63b8ff" d="M459.19,-173.16C441.92,-190.59 413.53,-216.36 384,-231 377.15,-234.4 369.67,-237.2 362.12,-239.51"/>
<polygon fill="#63b8ff" stroke="#63b8ff" points="461.24,-176.07 465.68,-166.45 456.21,-171.21 461.24,-176.07"/>
</a>
</g>
</g>
<!-- Node4 -->
<g id="Node000004" class="node">
<title>Node4</title>
<g id="a_Node000004"><a xlink:href="unit___system_8cpp.html#ae1b2276713abfafdd55b3a70f2380c78" target="_top" xlink:title="Test the assignment operator of System.">
<polygon fill="white" stroke="#666666" points="384,-222 220.25,-222 220.25,-202 384,-202 384,-222"/>
<text xml:space="preserve" text-anchor="middle" x="302.12" y="-208.5" font-family="Helvetica,sans-Serif" font-size="10.00">unit_System_assignmentOperator</text>
</a>
</g>
</g>
<!-- Node1&#45;&gt;Node4 -->
<g id="edge3_Node000001_Node000004" class="edge">
<title>Node1&#45;&gt;Node4</title>
<g id="a_edge3_Node000001_Node000004"><a xlink:title=" ">
<path fill="none" stroke="#63b8ff" d="M443.58,-169.92C426.16,-177.53 404.19,-186.51 384,-193 374.11,-196.18 363.39,-199.07 353.08,-201.59"/>
<polygon fill="#63b8ff" stroke="#63b8ff" points="444.68,-173.26 452.4,-166.01 441.84,-166.86 444.68,-173.26"/>
</a>
</g>
</g>
<!-- Node7 -->
<g id="Node000007" class="node">
<title>Node7</title>
<g id="a_Node000007"><a xlink:href="unit___system_8cpp.html#a4b504bd5c78b1a1cae785948cf0e58a3" target="_top" xlink:title="Test the copy constructor of System.">
<polygon fill="white" stroke="#666666" points="376.12,-184 228.12,-184 228.12,-164 376.12,-164 376.12,-184"/>
<text xml:space="preserve" text-anchor="middle" x="302.12" y="-170.5" font-family="Helvetica,sans-Serif" font-size="10.00">unit_System_copyConstructor</text>
</a>
</g>
</g>
<!-- Node1&#45;&gt;Node7 -->
<g id="edge6_Node000001_Node000007" class="edge">
<title>Node1&#45;&gt;Node7</title>
<g id="a_edge6_Node000001_Node000007"><a xlink:title=" ">
<path fill="none" stroke="#63b8ff" d="M408.65,-162.41C398.05,-163.57 387.06,-164.78 376.34,-165.96"/>
<polygon fill="#63b8ff" stroke="#63b8ff" points="408.89,-165.9 418.45,-161.33 408.13,-158.95 408.89,-165.9"/>
</a>
</g>
</g>
<!-- Node8 -->
<g id="Node000008" class="node">
<title>Node8</title>
<g id="a_Node000008"><a xlink:href="unit___system_8cpp.html#aa0b06ac0db36fb098d1fb27a757caf16" target="_top" xlink:title="Test the default constructor of System.">
<polygon fill="white" stroke="#666666" points="380.25,-146 224,-146 224,-126 380.25,-126 380.25,-146"/>
<text xml:space="preserve" text-anchor="middle" x="302.12" y="-132.5" font-family="Helvetica,sans-Serif" font-size="10.00">unit_System_defaultConstructor</text>
</a>
</g>
</g>
<!-- Node1&#45;&gt;Node8 -->
<g id="edge8_Node000001_Node000008" class="edge">
<title>Node1&#45;&gt;Node8</title>
<g id="a_edge8_Node000001_Node000008"><a xlink:title=" ">
<path fill="none" stroke="#63b8ff" d="M408.57,-147.58C399.43,-146.58 390,-145.54 380.7,-144.52"/>
<polygon fill="#63b8ff" stroke="#63b8ff" points="408.13,-151.05 418.45,-148.67 408.89,-144.1 408.13,-151.05"/>
</a>
</g>
</g>
<!-- Node9 -->
<g id="Node000009" class="node">
<title>Node9</title>
<g id="a_Node000009"><a xlink:href="unit___system_8cpp.html#ac5707e927092753fdf9ffb275f209466" target="_top" xlink:title="Test the getName method of System.">
<polygon fill="white" stroke="#666666" points="360,-108 244.25,-108 244.25,-88 360,-88 360,-108"/>
<text xml:space="preserve" text-anchor="middle" x="302.12" y="-94.5" font-family="Helvetica,sans-Serif" font-size="10.00">unit_System_getName</text>
</a>
</g>
</g>
<!-- Node1&#45;&gt;Node9 -->
<g id="edge10_Node000001_Node000009" class="edge">
<title>Node1&#45;&gt;Node9</title>
<g id="a_edge10_Node000001_Node000009"><a xlink:title=" ">
<path fill="none" stroke="#63b8ff" d="M443.58,-140.08C426.16,-132.47 404.19,-123.49 384,-117 374.11,-113.82 363.39,-110.93 353.08,-108.41"/>
<polygon fill="#63b8ff" stroke="#63b8ff" points="441.84,-143.14 452.4,-143.99 444.68,-136.74 441.84,-143.14"/>
</a>
</g>
</g>
<!-- Node10 -->
<g id="Node000010" class="node">
<title>Node10</title>
<g id="a_Node000010"><a xlink:href="unit___system_8cpp.html#afc6a7207144c2f1f8a441a4d95023630" target="_top" xlink:title="Test the parameterized constructor of System.">
<polygon fill="white" stroke="#666666" points="370.88,-70 233.38,-70 233.38,-38 370.88,-38 370.88,-70"/>
<text xml:space="preserve" text-anchor="start" x="241.38" y="-56.5" font-family="Helvetica,sans-Serif" font-size="10.00">unit_System_parameterized</text>
<text xml:space="preserve" text-anchor="middle" x="302.12" y="-44.5" font-family="Helvetica,sans-Serif" font-size="10.00">Constructor</text>
</a>
</g>
</g>
<!-- Node1&#45;&gt;Node10 -->
<g id="edge12_Node000001_Node000010" class="edge">
<title>Node1&#45;&gt;Node10</title>
<g id="a_edge12_Node000001_Node000010"><a xlink:title=" ">
<path fill="none" stroke="#63b8ff" d="M458.2,-136.53C440.7,-119.44 412.59,-94.43 384,-79 378.05,-75.79 371.63,-72.93 365.09,-70.39"/>
<polygon fill="#63b8ff" stroke="#63b8ff" points="455.71,-138.99 465.26,-143.58 460.65,-134.03 455.71,-138.99"/>
</a>
</g>
</g>
<!-- Node11 -->
<g id="Node000011" class="node">
<title>Node11</title>
<g id="a_Node000011"><a xlink:href="unit___system_8cpp.html#ae92753cb0977ecd3217dc3540dc33e87" target="_top" xlink:title="Test the setName method of System.">
<polygon fill="white" stroke="#666666" points="360,-20 244.25,-20 244.25,0 360,0 360,-20"/>
<text xml:space="preserve" text-anchor="middle" x="302.12" y="-6.5" font-family="Helvetica,sans-Serif" font-size="10.00">unit_System_setName</text>
</a>
</g>
</g>
<!-- Node1&#45;&gt;Node11 -->
<g id="edge14_Node000001_Node000011" class="edge">
<title>Node1&#45;&gt;Node11</title>
<g id="a_edge14_Node000001_Node000011"><a xlink:title=" ">
<path fill="none" stroke="#63b8ff" d="M466.77,-134.24C452.89,-105.89 424.11,-55.57 384,-29 376.91,-24.3 368.79,-20.76 360.49,-18.09"/>
<polygon fill="#63b8ff" stroke="#63b8ff" points="463.57,-135.66 471,-143.21 469.9,-132.67 463.57,-135.66"/>
</a>
</g>
</g>
<!-- Node5 -->
<g id="Node000005" class="node">
<title>Node5</title>
<g id="a_Node000005"><a xlink:href="unit___system_8cpp.html#aa41a15b7b91bd56d38b04018f568900b" target="_top" xlink:title="Runs all unit tests for the SystemImpl class.">
<polygon fill="white" stroke="#666666" points="184.25,-127 73,-127 73,-107 184.25,-107 184.25,-127"/>
<text xml:space="preserve" text-anchor="middle" x="128.62" y="-113.5" font-family="Helvetica,sans-Serif" font-size="10.00">run_unit_test_System</text>
</a>
</g>
</g>
<!-- Node4&#45;&gt;Node5 -->
<g id="edge4_Node000004_Node000005" class="edge">
<title>Node4&#45;&gt;Node5</title>
<g id="a_edge4_Node000004_Node000005"><a xlink:title=" ">
<path fill="none" stroke="#63b8ff" d="M231.25,-197.83C227.47,-196.37 223.77,-194.77 220.25,-193 186.28,-175.99 154.08,-143.87 138.83,-127.37"/>
<polygon fill="#63b8ff" stroke="#63b8ff" points="230.08,-201.13 240.68,-201.07 232.36,-194.51 230.08,-201.13"/>
</a>
</g>
</g>
<!-- Node6 -->
<g id="Node000006" class="node">
<title>Node6</title>
<g id="a_Node000006"><a xlink:href="unit_2main_8cpp.html#a840291bc02cba5474a4cb46a9b9566fe" target="_top" xlink:title="Main function that runs all unit tests.">
<polygon fill="white" stroke="#666666" points="37,-127 0,-127 0,-107 37,-107 37,-127"/>
<text xml:space="preserve" text-anchor="middle" x="18.5" y="-113.5" font-family="Helvetica,sans-Serif" font-size="10.00">main</text>
</a>
</g>
</g>
<!-- Node5&#45;&gt;Node6 -->
<g id="edge5_Node000005_Node000006" class="edge">
<title>Node5&#45;&gt;Node6</title>
<g id="a_edge5_Node000005_Node000006"><a xlink:title=" ">
<path fill="none" stroke="#63b8ff" d="M61.37,-117C52.62,-117 44.32,-117 37.46,-117"/>
<polygon fill="#63b8ff" stroke="#63b8ff" points="61.1,-120.5 71.1,-117 61.1,-113.5 61.1,-120.5"/>
</a>
</g>
</g>
<!-- Node7&#45;&gt;Node5 -->
<g id="edge7_Node000007_Node000005" class="edge">
<title>Node7&#45;&gt;Node5</title>
<g id="a_edge7_Node000007_Node000005"><a xlink:title=" ">
<path fill="none" stroke="#63b8ff" d="M239.66,-160.7C233.07,-158.93 226.49,-157.03 220.25,-155 196.23,-147.2 169.7,-135.72 151.58,-127.42"/>
<polygon fill="#63b8ff" stroke="#63b8ff" points="238.7,-164.06 249.26,-163.15 240.44,-157.28 238.7,-164.06"/>
</a>
</g>
</g>
<!-- Node8&#45;&gt;Node5 -->
<g id="edge9_Node000008_Node000005" class="edge">
<title>Node8&#45;&gt;Node5</title>
<g id="a_edge9_Node000008_Node000005"><a xlink:title=" ">
<path fill="none" stroke="#63b8ff" d="M212.23,-126.15C202.85,-125.11 193.53,-124.08 184.71,-123.1"/>
<polygon fill="#63b8ff" stroke="#63b8ff" points="211.82,-129.63 222.15,-127.25 212.6,-122.67 211.82,-129.63"/>
</a>
</g>
</g>
<!-- Node9&#45;&gt;Node5 -->
<g id="edge11_Node000009_Node000005" class="edge">
<title>Node9&#45;&gt;Node5</title>
<g id="a_edge11_Node000009_Node000005"><a xlink:title=" ">
<path fill="none" stroke="#63b8ff" d="M232.62,-105.59C216.71,-107.35 199.98,-109.21 184.74,-110.89"/>
<polygon fill="#63b8ff" stroke="#63b8ff" points="232.96,-109.07 242.51,-104.49 232.19,-102.12 232.96,-109.07"/>
</a>
</g>
</g>
<!-- Node10&#45;&gt;Node5 -->
<g id="edge13_Node000010_Node000005" class="edge">
<title>Node10&#45;&gt;Node5</title>
<g id="a_edge13_Node000010_Node000005"><a xlink:title=" ">
<path fill="none" stroke="#63b8ff" d="M234.79,-73.93C229.85,-75.59 224.96,-77.29 220.25,-79 197,-87.45 171.01,-98.52 152.85,-106.53"/>
<polygon fill="#63b8ff" stroke="#63b8ff" points="235.79,-77.29 244.2,-70.84 233.6,-70.64 235.79,-77.29"/>
</a>
</g>
</g>
<!-- Node11&#45;&gt;Node5 -->
<g id="edge15_Node000011_Node000005" class="edge">
<title>Node11&#45;&gt;Node5</title>
<g id="a_edge15_Node000011_Node000005"><a xlink:title=" ">
<path fill="none" stroke="#63b8ff" d="M233.28,-22.99C228.77,-24.75 224.38,-26.74 220.25,-29 183.5,-49.11 151.14,-88.2 137.08,-106.75"/>
<polygon fill="#63b8ff" stroke="#63b8ff" points="234.24,-26.36 242.56,-19.8 231.97,-19.75 234.24,-26.36"/>
</a>
</g>
</g>
</g>
</svg>
