<?xml version="1.0" encoding="UTF-8" standalone="no"?>
<!DOCTYPE svg PUBLIC "-//W3C//DTD SVG 1.1//EN"
 "http://www.w3.org/Graphics/SVG/1.1/DTD/svg11.dtd">
<!-- Generated by graphviz version 14.1.5 (20260411.2331)
 -->
<!-- Title: LogisticFlow::LogisticFlow Pages: 1 -->
<svg width="407pt" height="47pt"
 viewBox="0.00 0.00 407.00 47.00" xmlns="http://www.w3.org/2000/svg" xmlns:xlink="http://www.w3.org/1999/xlink">
<g id="graph0" class="graph" transform="scale(1 1) rotate(0) translate(4 43)">
<title>LogisticFlow::LogisticFlow</title>
<!-- Node1 -->
<g id="Node000001" class="node">
<title>Node1</title>
<g id="a_Node000001"><a xlink:title="Copy constructor.">
<polygon fill="#999999" stroke="#666666" points="131.5,-39 0,-39 0,-19 131.5,-19 131.5,-39"/>
<text xml:space="preserve" text-anchor="middle" x="65.75" y="-25.5" font-family="Helvetica,sans-Serif" font-size="10.00">LogisticFlow::LogisticFlow</text>
</a>
</g>
</g>
<!-- Node2 -->
<g id="Node000002" class="node">
<title>Node2</title>
<g id="a_Node000002"><a xlink:href="class_flow.html#ac9975e144e606242748197798e87dd32" target="_top" xlink:title="Default constructor.">
<polygon fill="white" stroke="#666666" points="399,-39 335,-39 335,-19 399,-19 399,-39"/>
<text xml:space="preserve" text-anchor="middle" x="367" y="-25.5" font-family="Helvetica,sans-Serif" font-size="10.00">Flow::Flow</text>
</a>
</g>
</g>
<!-- Node1&#45;&gt;Node2 -->
<g id="edge1_Node000001_Node000002" class="edge">
<title>Node1&#45;&gt;Node2</title>
<g id="a_edge1_Node000001_Node000002"><a xlink:title=" ">
<path fill="none" stroke="#63b8ff" d="M131.68,-29C189.77,-29 273.25,-29 323.3,-29"/>
<polygon fill="#63b8ff" stroke="#63b8ff" points="323.15,-32.5 333.15,-29 323.15,-25.5 323.15,-32.5"/>
</a>
</g>
</g>
<!-- Node3 -->
<g id="Node000003" class="node">
<title>Node3</title>
<g id="a_Node000003"><a xlink:href="class_logistic_flow.html#ab0f7906cfe1a27e18a4f558124e53ee0" target="_top" xlink:title="Default constructor.">
<polygon fill="white" stroke="#666666" points="299,-20 167.5,-20 167.5,0 299,0 299,-20"/>
<text xml:space="preserve" text-anchor="middle" x="233.25" y="-6.5" font-family="Helvetica,sans-Serif" font-size="10.00">LogisticFlow::LogisticFlow</text>
</a>
</g>
</g>
<!-- Node1&#45;&gt;Node3 -->
<g id="edge2_Node000001_Node000003" class="edge">
<title>Node1&#45;&gt;Node3</title>
<g id="a_edge2_Node000001_Node000003"><a xlink:title=" ">
<path fill="none" stroke="#63b8ff" d="M131.68,-21.55C139.63,-20.63 147.79,-19.7 155.88,-18.77"/>
<polygon fill="#63b8ff" stroke="#63b8ff" points="156.19,-22.25 165.73,-17.64 155.39,-15.3 156.19,-22.25"/>
</a>
</g>
</g>
<!-- Node3&#45;&gt;Node2 -->
<g id="edge3_Node000003_Node000002" class="edge">
<title>Node3&#45;&gt;Node2</title>
<g id="a_edge3_Node000003_Node000002"><a xlink:title=" ">
<path fill="none" stroke="#63b8ff" d="M299.35,-19.39C307.53,-20.57 315.73,-21.75 323.44,-22.86"/>
<polygon fill="#63b8ff" stroke="#63b8ff" points="322.8,-26.31 333.19,-24.27 323.79,-19.38 322.8,-26.31"/>
</a>
</g>
</g>
</g>
</svg>
