<?xml version="1.0" encoding="UTF-8" standalone="no"?>
<!DOCTYPE svg PUBLIC "-//W3C//DTD SVG 1.1//EN"
 "http://www.w3.org/Graphics/SVG/1.1/DTD/svg11.dtd">
<!-- Generated by graphviz version 14.1.5 (20260411.2331)
 -->
<!-- Title: ExponentialFlow::ExponentialFlow Pages: 1 -->
<svg width="476pt" height="47pt"
 viewBox="0.00 0.00 476.00 47.00" xmlns="http://www.w3.org/2000/svg" xmlns:xlink="http://www.w3.org/1999/xlink">
<g id="graph0" class="graph" transform="scale(1 1) rotate(0) translate(4 43)">
<title>ExponentialFlow::ExponentialFlow</title>
<!-- Node1 -->
<g id="Node000001" class="node">
<title>Node1</title>
<g id="a_Node000001"><a xlink:title="Copy constructor.">
<polygon fill="#999999" stroke="#666666" points="166,-20 0,-20 0,0 166,0 166,-20"/>
<text xml:space="preserve" text-anchor="middle" x="83" y="-6.5" font-family="Helvetica,sans-Serif" font-size="10.00">ExponentialFlow::ExponentialFlow</text>
</a>
</g>
</g>
<!-- Node2 -->
<g id="Node000002" class="node">
<title>Node2</title>
<g id="a_Node000002"><a xlink:href="class_exponential_flow.html#a1f981db78e6635fd9837648960d8dc8d" target="_top" xlink:title="Default constructor.">
<polygon fill="white" stroke="#666666" points="368,-39 202,-39 202,-19 368,-19 368,-39"/>
<text xml:space="preserve" text-anchor="middle" x="285" y="-25.5" font-family="Helvetica,sans-Serif" font-size="10.00">ExponentialFlow::ExponentialFlow</text>
</a>
</g>
</g>
<!-- Node1&#45;&gt;Node2 -->
<g id="edge1_Node000001_Node000002" class="edge">
<title>Node1&#45;&gt;Node2</title>
<g id="a_edge1_Node000001_Node000002"><a xlink:title=" ">
<path fill="none" stroke="#63b8ff" d="M166.21,-17.81C174.2,-18.57 182.33,-19.34 190.42,-20.11"/>
<polygon fill="#63b8ff" stroke="#63b8ff" points="189.99,-23.58 200.28,-21.05 190.65,-16.62 189.99,-23.58"/>
</a>
</g>
</g>
<!-- Node3 -->
<g id="Node000003" class="node">
<title>Node3</title>
<g id="a_Node000003"><a xlink:href="class_flow.html#ac9975e144e606242748197798e87dd32" target="_top" xlink:title="Default constructor.">
<polygon fill="white" stroke="#666666" points="468,-20 404,-20 404,0 468,0 468,-20"/>
<text xml:space="preserve" text-anchor="middle" x="436" y="-6.5" font-family="Helvetica,sans-Serif" font-size="10.00">Flow::Flow</text>
</a>
</g>
</g>
<!-- Node1&#45;&gt;Node3 -->
<g id="edge3_Node000001_Node000003" class="edge">
<title>Node1&#45;&gt;Node3</title>
<g id="a_edge3_Node000001_Node000003"><a xlink:title=" ">
<path fill="none" stroke="#63b8ff" d="M166.29,-10C237.23,-10 336.79,-10 392.67,-10"/>
<polygon fill="#63b8ff" stroke="#63b8ff" points="392.39,-13.5 402.39,-10 392.39,-6.5 392.39,-13.5"/>
</a>
</g>
</g>
<!-- Node2&#45;&gt;Node3 -->
<g id="edge2_Node000002_Node000003" class="edge">
<title>Node2&#45;&gt;Node3</title>
<g id="a_edge2_Node000002_Node000003"><a xlink:title=" ">
<path fill="none" stroke="#63b8ff" d="M367.91,-18.56C376.35,-17.48 384.67,-16.42 392.41,-15.43"/>
<polygon fill="#63b8ff" stroke="#63b8ff" points="392.7,-18.92 402.18,-14.19 391.81,-11.98 392.7,-18.92"/>
</a>
</g>
</g>
</g>
</svg>
