<?xml version="1.0" encoding="UTF-8" standalone="no"?>
<!DOCTYPE svg PUBLIC "-//W3C//DTD SVG 1.1//EN"
 "http://www.w3.org/Graphics/SVG/1.1/DTD/svg11.dtd">
<!-- Generated by graphviz version 14.1.5 (20260411.2331)
 -->
<!-- Title: ExponentialFlow::operator= Pages: 1 -->
<svg width="445pt" height="66pt"
 viewBox="0.00 0.00 445.00 66.00" xmlns="http://www.w3.org/2000/svg" xmlns:xlink="http://www.w3.org/1999/xlink">
<g id="graph0" class="graph" transform="scale(1 1) rotate(0) translate(4 62)">
<title>ExponentialFlow::operator=</title>
<!-- Node1 -->
<g id="Node000001" class="node">
<title>Node1</title>
<g id="a_Node000001"><a xlink:title="Assignment operator.">
<polygon fill="#999999" stroke="#666666" points="135.25,-39 0,-39 0,-19 135.25,-19 135.25,-39"/>
<text xml:space="preserve" text-anchor="middle" x="67.62" y="-25.5" font-family="Helvetica,sans-Serif" font-size="10.00">ExponentialFlow::operator=</text>
</a>
</g>
</g>
<!-- Node2 -->
<g id="Node000002" class="node">
<title>Node2</title>
<g id="a_Node000002"><a xlink:href="class_exponential_flow.html#a1f981db78e6635fd9837648960d8dc8d" target="_top" xlink:title="Default constructor.">
<polygon fill="white" stroke="#666666" points="337.25,-58 171.25,-58 171.25,-38 337.25,-38 337.25,-58"/>
<text xml:space="preserve" text-anchor="middle" x="254.25" y="-44.5" font-family="Helvetica,sans-Serif" font-size="10.00">ExponentialFlow::ExponentialFlow</text>
</a>
</g>
</g>
<!-- Node1&#45;&gt;Node2 -->
<g id="edge1_Node000001_Node000002" class="edge">
<title>Node1&#45;&gt;Node2</title>
<g id="a_edge1_Node000001_Node000002"><a xlink:title=" ">
<path fill="none" stroke="#63b8ff" d="M135.54,-35.89C143.33,-36.69 151.37,-37.52 159.43,-38.35"/>
<polygon fill="#63b8ff" stroke="#63b8ff" points="159.01,-41.82 169.31,-39.36 159.72,-34.86 159.01,-41.82"/>
</a>
</g>
</g>
<!-- Node4 -->
<g id="Node000004" class="node">
<title>Node4</title>
<g id="a_Node000004"><a xlink:href="class_flow.html#a5f7550e37445bb6ae955beffd1fa857a" target="_top" xlink:title="Assignment operator.">
<polygon fill="white" stroke="#666666" points="296.38,-20 212.12,-20 212.12,0 296.38,0 296.38,-20"/>
<text xml:space="preserve" text-anchor="middle" x="254.25" y="-6.5" font-family="Helvetica,sans-Serif" font-size="10.00">Flow::operator=</text>
</a>
</g>
</g>
<!-- Node1&#45;&gt;Node4 -->
<g id="edge3_Node000001_Node000004" class="edge">
<title>Node1&#45;&gt;Node4</title>
<g id="a_edge3_Node000001_Node000004"><a xlink:title=" ">
<path fill="none" stroke="#63b8ff" d="M135.54,-22.11C156.95,-19.91 180.33,-17.5 200.57,-15.42"/>
<polygon fill="#63b8ff" stroke="#63b8ff" points="200.68,-18.93 210.27,-14.42 199.97,-11.97 200.68,-18.93"/>
</a>
</g>
</g>
<!-- Node3 -->
<g id="Node000003" class="node">
<title>Node3</title>
<g id="a_Node000003"><a xlink:href="class_flow.html#ac9975e144e606242748197798e87dd32" target="_top" xlink:title="Default constructor.">
<polygon fill="white" stroke="#666666" points="437.25,-39 373.25,-39 373.25,-19 437.25,-19 437.25,-39"/>
<text xml:space="preserve" text-anchor="middle" x="405.25" y="-25.5" font-family="Helvetica,sans-Serif" font-size="10.00">Flow::Flow</text>
</a>
</g>
</g>
<!-- Node2&#45;&gt;Node3 -->
<g id="edge2_Node000002_Node000003" class="edge">
<title>Node2&#45;&gt;Node3</title>
<g id="a_edge2_Node000002_Node000003"><a xlink:title=" ">
<path fill="none" stroke="#63b8ff" d="M337.16,-37.56C345.6,-36.48 353.92,-35.42 361.66,-34.43"/>
<polygon fill="#63b8ff" stroke="#63b8ff" points="361.95,-37.92 371.43,-33.19 361.06,-30.98 361.95,-37.92"/>
</a>
</g>
</g>
<!-- Node4&#45;&gt;Node3 -->
<g id="edge4_Node000004_Node000003" class="edge">
<title>Node4&#45;&gt;Node3</title>
<g id="a_edge4_Node000004_Node000003"><a xlink:title=" ">
<path fill="none" stroke="#63b8ff" d="M296.75,-15.29C317,-17.87 341.33,-20.98 361.71,-23.58"/>
<polygon fill="#63b8ff" stroke="#63b8ff" points="361.03,-27.02 371.39,-24.81 361.91,-20.07 361.03,-27.02"/>
</a>
</g>
</g>
</g>
</svg>
