<?xml version="1.0" encoding="UTF-8" standalone="no"?>
<!DOCTYPE svg PUBLIC "-//W3C//DTD SVG 1.1//EN"
 "http://www.w3.org/Graphics/SVG/1.1/DTD/svg11.dtd">
<!-- Generated by graphviz version 14.1.5 (20260411.2331)
 -->
<!-- Title: Model::run Pages: 1 -->
<svg width="199pt" height="142pt"
 viewBox="0.00 0.00 199.00 142.00" xmlns="http://www.w3.org/2000/svg" xmlns:xlink="http://www.w3.org/1999/xlink">
<g id="graph0" class="graph" transform="scale(1 1) rotate(0) translate(4 138)">
<title>Model::run</title>
<!-- Node1 -->
<g id="Node000001" class="node">
<title>Node1</title>
<g id="a_Node000001"><a xlink:title="Executes the simulation in the specified time interval.">
<polygon fill="#999999" stroke="#666666" points="61.75,-77 0,-77 0,-57 61.75,-57 61.75,-77"/>
<text xml:space="preserve" text-anchor="middle" x="30.88" y="-63.5" font-family="Helvetica,sans-Serif" font-size="10.00">Model::run</text>
</a>
</g>
</g>
<!-- Node2 -->
<g id="Node000002" class="node">
<title>Node2</title>
<g id="a_Node000002"><a xlink:href="class_flow.html#a17d9bd9c23d8949446709af6a4c0d6a6" target="_top" xlink:title="Gets the sink system of the flow.">
<polygon fill="white" stroke="#666666" points="182.38,-134 106.38,-134 106.38,-114 182.38,-114 182.38,-134"/>
<text xml:space="preserve" text-anchor="middle" x="144.38" y="-120.5" font-family="Helvetica,sans-Serif" font-size="10.00">Flow::getSink</text>
</a>
</g>
</g>
<!-- Node1&#45;&gt;Node2 -->
<g id="edge1_Node000001_Node000002" class="edge">
<title>Node1&#45;&gt;Node2</title>
<g id="a_edge1_Node000001_Node000002"><a xlink:title=" ">
<path fill="none" stroke="#63b8ff" d="M48.61,-77.45C61.73,-85.45 80.59,-96.52 97.75,-105 100.47,-106.34 103.31,-107.68 106.18,-108.98"/>
<polygon fill="#63b8ff" stroke="#63b8ff" points="104.63,-112.12 115.19,-112.91 107.42,-105.71 104.63,-112.12"/>
</a>
</g>
</g>
<!-- Node3 -->
<g id="Node000003" class="node">
<title>Node3</title>
<g id="a_Node000003"><a xlink:href="class_flow.html#a1f3858f90d141807377c2640fb5dd0fc" target="_top" xlink:title="Gets the source system of the flow.">
<polygon fill="white" stroke="#666666" points="188,-96 100.75,-96 100.75,-76 188,-76 188,-96"/>
<text xml:space="preserve" text-anchor="middle" x="144.38" y="-82.5" font-family="Helvetica,sans-Serif" font-size="10.00">Flow::getSource</text>
</a>
</g>
</g>
<!-- Node1&#45;&gt;Node3 -->
<g id="edge2_Node000001_Node000003" class="edge">
<title>Node1&#45;&gt;Node3</title>
<g id="a_edge2_Node000001_Node000003"><a xlink:title=" ">
<path fill="none" stroke="#63b8ff" d="M62.05,-72.14C70.49,-73.58 79.92,-75.19 89.29,-76.78"/>
<polygon fill="#63b8ff" stroke="#63b8ff" points="88.68,-80.23 99.13,-78.46 89.86,-73.33 88.68,-80.23"/>
</a>
</g>
</g>
<!-- Node4 -->
<g id="Node000004" class="node">
<title>Node4</title>
<g id="a_Node000004"><a xlink:href="class_system.html#aa7d17369d1034e7d8643a63f69d1901d" target="_top" xlink:title="Gets the current value of the system.">
<polygon fill="white" stroke="#666666" points="191,-58 97.75,-58 97.75,-38 191,-38 191,-58"/>
<text xml:space="preserve" text-anchor="middle" x="144.38" y="-44.5" font-family="Helvetica,sans-Serif" font-size="10.00">System::getValue</text>
</a>
</g>
</g>
<!-- Node1&#45;&gt;Node4 -->
<g id="edge3_Node000001_Node000004" class="edge">
<title>Node1&#45;&gt;Node4</title>
<g id="a_edge3_Node000001_Node000004"><a xlink:title=" ">
<path fill="none" stroke="#63b8ff" d="M62.05,-61.86C69.67,-60.56 78.11,-59.12 86.58,-57.68"/>
<polygon fill="#63b8ff" stroke="#63b8ff" points="86.91,-61.17 96.18,-56.04 85.73,-54.27 86.91,-61.17"/>
</a>
</g>
</g>
<!-- Node5 -->
<g id="Node000005" class="node">
<title>Node5</title>
<g id="a_Node000005"><a xlink:href="class_system.html#a5343de0a45485edd88bc87f338fe9a19" target="_top" xlink:title="Sets the value of the system state.">
<polygon fill="white" stroke="#666666" points="191,-20 97.75,-20 97.75,0 191,0 191,-20"/>
<text xml:space="preserve" text-anchor="middle" x="144.38" y="-6.5" font-family="Helvetica,sans-Serif" font-size="10.00">System::setValue</text>
</a>
</g>
</g>
<!-- Node1&#45;&gt;Node5 -->
<g id="edge4_Node000001_Node000005" class="edge">
<title>Node1&#45;&gt;Node5</title>
<g id="a_edge4_Node000001_Node000005"><a xlink:title=" ">
<path fill="none" stroke="#63b8ff" d="M48.61,-56.55C61.73,-48.55 80.59,-37.48 97.75,-29 100.47,-27.66 103.31,-26.32 106.18,-25.02"/>
<polygon fill="#63b8ff" stroke="#63b8ff" points="107.42,-28.29 115.19,-21.09 104.63,-21.88 107.42,-28.29"/>
</a>
</g>
</g>
</g>
</svg>
