<?xml version="1.0" encoding="UTF-8" standalone="no"?>
<!DOCTYPE svg PUBLIC "-//W3C//DTD SVG 1.1//EN"
 "http://www.w3.org/Graphics/SVG/1.1/DTD/svg11.dtd">
<!-- Generated by graphviz version 14.1.5 (20260411.2331)
 -->
<!-- Title: SystemImpl Pages: 1 -->
<svg width="267pt" height="872pt"
 viewBox="0.00 0.00 267.00 872.00" xmlns="http://www.w3.org/2000/svg" xmlns:xlink="http://www.w3.org/1999/xlink">
<g id="graph0" class="graph" transform="scale(1 1) rotate(0) translate(4 868)">
<title>SystemImpl</title>
<!-- Node1 -->
<g id="Node000001" class="node">
<title>Node1</title>
<g id="a_Node000001"><a xlink:title=" ">
<polygon fill="#999999" stroke="none" points="95.62,-180 13.12,-180 13.12,0 95.62,0 95.62,-180"/>
<text xml:space="preserve" text-anchor="start" x="28.12" y="-166.25" font-family="Helvetica,sans-Serif" font-size="10.00">SystemImpl</text>
<text xml:space="preserve" text-anchor="start" x="52.88" y="-150.25" font-family="Helvetica,sans-Serif" font-size="10.00"> </text>
<text xml:space="preserve" text-anchor="start" x="17.12" y="-134.25" font-family="Helvetica,sans-Serif" font-size="10.00">+</text>
<text xml:space="preserve" text-anchor="start" x="27.12" y="-134.25" font-family="Helvetica,sans-Serif" font-size="10.00">SystemImpl()</text>
<text xml:space="preserve" text-anchor="start" x="17.12" y="-118.25" font-family="Helvetica,sans-Serif" font-size="10.00">+</text>
<text xml:space="preserve" text-anchor="start" x="27.12" y="-118.25" font-family="Helvetica,sans-Serif" font-size="10.00">SystemImpl()</text>
<text xml:space="preserve" text-anchor="start" x="17.12" y="-102.25" font-family="Helvetica,sans-Serif" font-size="10.00">+</text>
<text xml:space="preserve" text-anchor="start" x="27.12" y="-102.25" font-family="Helvetica,sans-Serif" font-size="10.00">~SystemImpl()</text>
<text xml:space="preserve" text-anchor="start" x="17.12" y="-86.25" font-family="Helvetica,sans-Serif" font-size="10.00">+</text>
<text xml:space="preserve" text-anchor="start" x="27.12" y="-86.25" font-family="Helvetica,sans-Serif" font-size="10.00">SystemImpl()</text>
<text xml:space="preserve" text-anchor="start" x="17.12" y="-70.25" font-family="Helvetica,sans-Serif" font-size="10.00">+</text>
<text xml:space="preserve" text-anchor="start" x="27.12" y="-70.25" font-family="Helvetica,sans-Serif" font-size="10.00">operator=()</text>
<text xml:space="preserve" text-anchor="start" x="17.12" y="-54.25" font-family="Helvetica,sans-Serif" font-size="10.00">+</text>
<text xml:space="preserve" text-anchor="start" x="27.12" y="-54.25" font-family="Helvetica,sans-Serif" font-size="10.00">setName()</text>
<text xml:space="preserve" text-anchor="start" x="17.12" y="-38.25" font-family="Helvetica,sans-Serif" font-size="10.00">+</text>
<text xml:space="preserve" text-anchor="start" x="27.12" y="-38.25" font-family="Helvetica,sans-Serif" font-size="10.00">setValue()</text>
<text xml:space="preserve" text-anchor="start" x="17.12" y="-22.25" font-family="Helvetica,sans-Serif" font-size="10.00">+</text>
<text xml:space="preserve" text-anchor="start" x="27.12" y="-22.25" font-family="Helvetica,sans-Serif" font-size="10.00">getName()</text>
<text xml:space="preserve" text-anchor="start" x="17.12" y="-6.25" font-family="Helvetica,sans-Serif" font-size="10.00">+</text>
<text xml:space="preserve" text-anchor="start" x="27.12" y="-6.25" font-family="Helvetica,sans-Serif" font-size="10.00">getValue()</text>
<polygon fill="#666666" stroke="#666666" points="13.12,-162 13.12,-162 95.62,-162 95.62,-162 13.12,-162"/>
<polygon fill="#666666" stroke="#666666" points="13.12,-146 13.12,-146 95.62,-146 95.62,-146 13.12,-146"/>
<polygon fill="none" stroke="#666666" points="13.12,0 13.12,-180 95.62,-180 95.62,0 13.12,0"/>
</a>
</g>
</g>
<!-- Node2 -->
<g id="Node000002" class="node">
<title>Node2</title>
<g id="a_Node000002"><a xlink:href="class_system.html" target="_top" xlink:title=" ">
<polygon fill="white" stroke="none" points="84.75,-349 0,-349 0,-217 84.75,-217 84.75,-349"/>
<text xml:space="preserve" text-anchor="start" x="25.5" y="-335.25" font-family="Helvetica,sans-Serif" font-size="10.00">System</text>
<text xml:space="preserve" text-anchor="start" x="40.88" y="-319.25" font-family="Helvetica,sans-Serif" font-size="10.00"> </text>
<text xml:space="preserve" text-anchor="start" x="4" y="-303.25" font-family="Helvetica,sans-Serif" font-size="10.00">+</text>
<text xml:space="preserve" text-anchor="start" x="14" y="-303.25" font-family="Helvetica,sans-Serif" font-size="10.00">~System()</text>
<text xml:space="preserve" text-anchor="start" x="4" y="-287.25" font-family="Helvetica,sans-Serif" font-size="10.00">+</text>
<text xml:space="preserve" text-anchor="start" x="14" y="-287.25" font-family="Helvetica,sans-Serif" font-size="10.00">setName()</text>
<text xml:space="preserve" text-anchor="start" x="4" y="-271.25" font-family="Helvetica,sans-Serif" font-size="10.00">+</text>
<text xml:space="preserve" text-anchor="start" x="14" y="-271.25" font-family="Helvetica,sans-Serif" font-size="10.00">setValue()</text>
<text xml:space="preserve" text-anchor="start" x="4" y="-255.25" font-family="Helvetica,sans-Serif" font-size="10.00">+</text>
<text xml:space="preserve" text-anchor="start" x="14" y="-255.25" font-family="Helvetica,sans-Serif" font-size="10.00">getName()</text>
<text xml:space="preserve" text-anchor="start" x="4" y="-239.25" font-family="Helvetica,sans-Serif" font-size="10.00">+</text>
<text xml:space="preserve" text-anchor="start" x="14" y="-239.25" font-family="Helvetica,sans-Serif" font-size="10.00">getValue()</text>
<text xml:space="preserve" text-anchor="start" x="4" y="-223.25" font-family="Helvetica,sans-Serif" font-size="10.00">+</text>
<text xml:space="preserve" text-anchor="start" x="14" y="-223.25" font-family="Helvetica,sans-Serif" font-size="10.00">createSystem()</text>
<polygon fill="#666666" stroke="#666666" points="0,-331 0,-331 84.75,-331 84.75,-331 0,-331"/>
<polygon fill="#666666" stroke="#666666" points="0,-315 0,-315 84.75,-315 84.75,-315 0,-315"/>
<polygon fill="none" stroke="#666666" points="0,-217 0,-349 84.75,-349 84.75,-217 0,-217"/>
</a>
</g>
</g>
<!-- Node2&#45;&gt;Node1 -->
<g id="edge1_Node000001_Node000002" class="edge">
<title>Node2&#45;&gt;Node1</title>
<g id="a_edge1_Node000001_Node000002"><a xlink:title=" ">
<path fill="none" stroke="#63b8ff" d="M47.17,-205.63C47.71,-197.13 48.25,-188.41 48.8,-179.77"/>
<polygon fill="none" stroke="#63b8ff" points="43.68,-205.36 46.55,-215.56 50.67,-205.8 43.68,-205.36"/>
</a>
</g>
</g>
<!-- Node3 -->
<g id="Node000003" class="node">
<title>Node3</title>
<g id="a_Node000003"><a xlink:href="class_handle.html" target="_top" xlink:title=" ">
<polygon fill="white" stroke="none" points="215.88,-325 102.88,-325 102.88,-241 215.88,-241 215.88,-325"/>
<text xml:space="preserve" text-anchor="start" x="106.88" y="-311.25" font-family="Helvetica,sans-Serif" font-size="10.00">Handle&lt; SystemBody &gt;</text>
<text xml:space="preserve" text-anchor="start" x="157.88" y="-295.25" font-family="Helvetica,sans-Serif" font-size="10.00"> </text>
<text xml:space="preserve" text-anchor="start" x="118.81" y="-279.25" font-family="Helvetica,sans-Serif" font-size="10.00">+</text>
<text xml:space="preserve" text-anchor="start" x="140.75" y="-279.25" font-family="Helvetica,sans-Serif" font-size="10.00">Handle()</text>
<text xml:space="preserve" text-anchor="start" x="118.81" y="-263.25" font-family="Helvetica,sans-Serif" font-size="10.00">+</text>
<text xml:space="preserve" text-anchor="start" x="140.75" y="-263.25" font-family="Helvetica,sans-Serif" font-size="10.00">~Handle()</text>
<text xml:space="preserve" text-anchor="start" x="118.81" y="-247.25" font-family="Helvetica,sans-Serif" font-size="10.00">+</text>
<text xml:space="preserve" text-anchor="start" x="140.75" y="-247.25" font-family="Helvetica,sans-Serif" font-size="10.00">operator=()</text>
<polygon fill="#666666" stroke="#666666" points="102.88,-307 102.88,-307 215.88,-307 215.88,-307 102.88,-307"/>
<polygon fill="#666666" stroke="#666666" points="102.88,-291 102.88,-291 215.88,-291 215.88,-291 102.88,-291"/>
<polygon fill="none" stroke="#666666" points="102.88,-241 102.88,-325 215.88,-325 215.88,-241 102.88,-241"/>
</a>
</g>
</g>
<!-- Node3&#45;&gt;Node1 -->
<g id="edge2_Node000001_Node000003" class="edge">
<title>Node3&#45;&gt;Node1</title>
<g id="a_edge2_Node000001_Node000003"><a xlink:title=" ">
<path fill="none" stroke="#63b8ff" d="M131.44,-231.18C120.42,-211.14 107.54,-187.71 95.5,-165.81"/>
<polygon fill="none" stroke="#63b8ff" points="128.24,-232.62 136.12,-239.7 134.37,-229.25 128.24,-232.62"/>
</a>
</g>
</g>
<!-- Node4 -->
<g id="Node000004" class="node">
<title>Node4</title>
<g id="a_Node000004"><a xlink:href="class_system_body.html" target="_top" xlink:title=" ">
<polygon fill="white" stroke="none" points="147.5,-567 61.25,-567 61.25,-403 147.5,-403 147.5,-567"/>
<text xml:space="preserve" text-anchor="start" x="76.25" y="-553.25" font-family="Helvetica,sans-Serif" font-size="10.00">SystemBody</text>
<text xml:space="preserve" text-anchor="start" x="66.75" y="-537.25" font-family="Helvetica,sans-Serif" font-size="10.00">&#45;</text>
<text xml:space="preserve" text-anchor="start" x="75.25" y="-537.25" font-family="Helvetica,sans-Serif" font-size="10.00">name</text>
<text xml:space="preserve" text-anchor="start" x="66.75" y="-521.25" font-family="Helvetica,sans-Serif" font-size="10.00">&#45;</text>
<text xml:space="preserve" text-anchor="start" x="75.25" y="-521.25" font-family="Helvetica,sans-Serif" font-size="10.00">value</text>
<text xml:space="preserve" text-anchor="start" x="65.25" y="-505.25" font-family="Helvetica,sans-Serif" font-size="10.00">+</text>
<text xml:space="preserve" text-anchor="start" x="75.25" y="-505.25" font-family="Helvetica,sans-Serif" font-size="10.00">SystemBody()</text>
<text xml:space="preserve" text-anchor="start" x="65.25" y="-489.25" font-family="Helvetica,sans-Serif" font-size="10.00">+</text>
<text xml:space="preserve" text-anchor="start" x="75.25" y="-489.25" font-family="Helvetica,sans-Serif" font-size="10.00">SystemBody()</text>
<text xml:space="preserve" text-anchor="start" x="65.25" y="-473.25" font-family="Helvetica,sans-Serif" font-size="10.00">+</text>
<text xml:space="preserve" text-anchor="start" x="75.25" y="-473.25" font-family="Helvetica,sans-Serif" font-size="10.00">~SystemBody()</text>
<text xml:space="preserve" text-anchor="start" x="65.25" y="-457.25" font-family="Helvetica,sans-Serif" font-size="10.00">+</text>
<text xml:space="preserve" text-anchor="start" x="75.25" y="-457.25" font-family="Helvetica,sans-Serif" font-size="10.00">setName()</text>
<text xml:space="preserve" text-anchor="start" x="65.25" y="-441.25" font-family="Helvetica,sans-Serif" font-size="10.00">+</text>
<text xml:space="preserve" text-anchor="start" x="75.25" y="-441.25" font-family="Helvetica,sans-Serif" font-size="10.00">setValue()</text>
<text xml:space="preserve" text-anchor="start" x="65.25" y="-425.25" font-family="Helvetica,sans-Serif" font-size="10.00">+</text>
<text xml:space="preserve" text-anchor="start" x="75.25" y="-425.25" font-family="Helvetica,sans-Serif" font-size="10.00">getName()</text>
<text xml:space="preserve" text-anchor="start" x="65.25" y="-409.25" font-family="Helvetica,sans-Serif" font-size="10.00">+</text>
<text xml:space="preserve" text-anchor="start" x="75.25" y="-409.25" font-family="Helvetica,sans-Serif" font-size="10.00">getValue()</text>
<polygon fill="#666666" stroke="#666666" points="61.25,-549 61.25,-549 147.5,-549 147.5,-549 61.25,-549"/>
<polygon fill="#666666" stroke="#666666" points="61.25,-517 61.25,-517 73.25,-517 73.25,-517 61.25,-517"/>
<polygon fill="#666666" stroke="#666666" points="73.25,-517 73.25,-517 147.5,-517 147.5,-517 73.25,-517"/>
<polygon fill="none" stroke="#666666" points="61.25,-403 61.25,-567 147.5,-567 147.5,-403 61.25,-403"/>
</a>
</g>
</g>
<!-- Node4&#45;&gt;Node3 -->
<g id="edge3_Node000003_Node000004" class="edge">
<title>Node4&#45;&gt;Node3</title>
<g id="a_edge3_Node000003_Node000004"><a xlink:title=" ">
<path fill="none" stroke="#63b8ff" d="M122.37,-403.2C125.37,-391.02 128.58,-378.65 131.88,-367 134.63,-357.24 137.82,-346.93 141.03,-337.01"/>
<polygon fill="none" stroke="#63b8ff" points="141.04,-336.98 139.12,-330.03 144.8,-325.58 146.72,-332.53 141.04,-336.98"/>
</a>
</g>
<text xml:space="preserve" text-anchor="start" x="134.88" y="-372.25" font-family="Helvetica,sans-Serif" font-size="10.00" fill="grey">#pImpl_</text>
</g>
<!-- Node5 -->
<g id="Node000005" class="node">
<title>Node5</title>
<g id="a_Node000005"><a xlink:href="class_body.html" target="_top" xlink:title="The class Implementation was implemented based on the class teCounted writed by Ricardo Cartaxo and G...">
<polygon fill="white" stroke="none" points="137,-864 71.75,-864 71.75,-604 137,-604 137,-864"/>
<text xml:space="preserve" text-anchor="start" x="93.12" y="-850.25" font-family="Helvetica,sans-Serif" font-size="10.00">Body</text>
<text xml:space="preserve" text-anchor="start" x="77.25" y="-834.25" font-family="Helvetica,sans-Serif" font-size="10.00">&#45;</text>
<text xml:space="preserve" text-anchor="start" x="85.75" y="-834.25" font-family="Helvetica,sans-Serif" font-size="10.00">refCount_</text>
<text xml:space="preserve" text-anchor="start" x="75.75" y="-818.25" font-family="Helvetica,sans-Serif" font-size="10.00">+</text>
<text xml:space="preserve" text-anchor="start" x="85.75" y="-818.25" font-family="Helvetica,sans-Serif" font-size="10.00">Body()</text>
<text xml:space="preserve" text-anchor="start" x="75.75" y="-802.25" font-family="Helvetica,sans-Serif" font-size="10.00">+</text>
<text xml:space="preserve" text-anchor="start" x="85.75" y="-802.25" font-family="Helvetica,sans-Serif" font-size="10.00">attach()</text>
<text xml:space="preserve" text-anchor="start" x="75.75" y="-786.25" font-family="Helvetica,sans-Serif" font-size="10.00">+</text>
<text xml:space="preserve" text-anchor="start" x="85.75" y="-786.25" font-family="Helvetica,sans-Serif" font-size="10.00">detach()</text>
<text xml:space="preserve" text-anchor="start" x="75.75" y="-770.25" font-family="Helvetica,sans-Serif" font-size="10.00">+</text>
<text xml:space="preserve" text-anchor="start" x="85.75" y="-770.25" font-family="Helvetica,sans-Serif" font-size="10.00">refCount()</text>
<text xml:space="preserve" text-anchor="start" x="75.75" y="-754.25" font-family="Helvetica,sans-Serif" font-size="10.00">+</text>
<text xml:space="preserve" text-anchor="start" x="85.75" y="-754.25" font-family="Helvetica,sans-Serif" font-size="10.00">~Body()</text>
<text xml:space="preserve" text-anchor="start" x="75.75" y="-738.25" font-family="Helvetica,sans-Serif" font-size="10.00">+</text>
<text xml:space="preserve" text-anchor="start" x="85.75" y="-738.25" font-family="Helvetica,sans-Serif" font-size="10.00">Body()</text>
<text xml:space="preserve" text-anchor="start" x="75.75" y="-722.25" font-family="Helvetica,sans-Serif" font-size="10.00">+</text>
<text xml:space="preserve" text-anchor="start" x="85.75" y="-722.25" font-family="Helvetica,sans-Serif" font-size="10.00">attach()</text>
<text xml:space="preserve" text-anchor="start" x="75.75" y="-706.25" font-family="Helvetica,sans-Serif" font-size="10.00">+</text>
<text xml:space="preserve" text-anchor="start" x="85.75" y="-706.25" font-family="Helvetica,sans-Serif" font-size="10.00">detach()</text>
<text xml:space="preserve" text-anchor="start" x="75.75" y="-690.25" font-family="Helvetica,sans-Serif" font-size="10.00">+</text>
<text xml:space="preserve" text-anchor="start" x="85.75" y="-690.25" font-family="Helvetica,sans-Serif" font-size="10.00">refCount()</text>
<text xml:space="preserve" text-anchor="start" x="75.75" y="-674.25" font-family="Helvetica,sans-Serif" font-size="10.00">+</text>
<text xml:space="preserve" text-anchor="start" x="85.75" y="-674.25" font-family="Helvetica,sans-Serif" font-size="10.00">~Body()</text>
<text xml:space="preserve" text-anchor="start" x="77.25" y="-658.25" font-family="Helvetica,sans-Serif" font-size="10.00">&#45;</text>
<text xml:space="preserve" text-anchor="start" x="85.75" y="-658.25" font-family="Helvetica,sans-Serif" font-size="10.00">Body()</text>
<text xml:space="preserve" text-anchor="start" x="77.25" y="-642.25" font-family="Helvetica,sans-Serif" font-size="10.00">&#45;</text>
<text xml:space="preserve" text-anchor="start" x="85.75" y="-642.25" font-family="Helvetica,sans-Serif" font-size="10.00">operator=()</text>
<text xml:space="preserve" text-anchor="start" x="77.25" y="-626.25" font-family="Helvetica,sans-Serif" font-size="10.00">&#45;</text>
<text xml:space="preserve" text-anchor="start" x="85.75" y="-626.25" font-family="Helvetica,sans-Serif" font-size="10.00">Body()</text>
<text xml:space="preserve" text-anchor="start" x="77.25" y="-610.25" font-family="Helvetica,sans-Serif" font-size="10.00">&#45;</text>
<text xml:space="preserve" text-anchor="start" x="85.75" y="-610.25" font-family="Helvetica,sans-Serif" font-size="10.00">operator=()</text>
<polygon fill="#666666" stroke="#666666" points="71.75,-846 71.75,-846 137,-846 137,-846 71.75,-846"/>
<polygon fill="#666666" stroke="#666666" points="71.75,-830 71.75,-830 83.75,-830 83.75,-830 71.75,-830"/>
<polygon fill="#666666" stroke="#666666" points="83.75,-830 83.75,-830 137,-830 137,-830 83.75,-830"/>
<polygon fill="none" stroke="#666666" points="71.75,-604 71.75,-864 137,-864 137,-604 71.75,-604"/>
</a>
</g>
</g>
<!-- Node5&#45;&gt;Node4 -->
<g id="edge4_Node000004_Node000005" class="edge">
<title>Node5&#45;&gt;Node4</title>
<g id="a_edge4_Node000004_Node000005"><a xlink:title=" ">
<path fill="none" stroke="#63b8ff" d="M104.38,-592.56C104.38,-583.85 104.38,-575.24 104.38,-566.93"/>
<polygon fill="none" stroke="#63b8ff" points="100.88,-592.56 104.38,-602.56 107.88,-592.56 100.88,-592.56"/>
</a>
</g>
</g>
<!-- Node6 -->
<g id="Node000006" class="node">
<title>Node6</title>
<g id="a_Node000006"><a xlink:href="class_handle.html" target="_top" xlink:title="The classes Handle and Body implements the &quot;bridge&quot; design pattern (also known as &quot;handle/body idiom&quot;...">
<polygon fill="white" stroke="none" points="231,-567 165.75,-567 165.75,-403 231,-403 231,-567"/>
<text xml:space="preserve" text-anchor="start" x="171.38" y="-553.25" font-family="Helvetica,sans-Serif" font-size="10.00">Handle&lt; T &gt;</text>
<text xml:space="preserve" text-anchor="start" x="170.12" y="-537.25" font-family="Helvetica,sans-Serif" font-size="10.00">#</text>
<text xml:space="preserve" text-anchor="start" x="179.75" y="-537.25" font-family="Helvetica,sans-Serif" font-size="10.00">pImpl_</text>
<text xml:space="preserve" text-anchor="start" x="169.75" y="-521.25" font-family="Helvetica,sans-Serif" font-size="10.00">+</text>
<text xml:space="preserve" text-anchor="start" x="179.75" y="-521.25" font-family="Helvetica,sans-Serif" font-size="10.00">Handle()</text>
<text xml:space="preserve" text-anchor="start" x="169.75" y="-505.25" font-family="Helvetica,sans-Serif" font-size="10.00">+</text>
<text xml:space="preserve" text-anchor="start" x="179.75" y="-505.25" font-family="Helvetica,sans-Serif" font-size="10.00">~Handle()</text>
<text xml:space="preserve" text-anchor="start" x="169.75" y="-489.25" font-family="Helvetica,sans-Serif" font-size="10.00">+</text>
<text xml:space="preserve" text-anchor="start" x="179.75" y="-489.25" font-family="Helvetica,sans-Serif" font-size="10.00">Handle()</text>
<text xml:space="preserve" text-anchor="start" x="169.75" y="-473.25" font-family="Helvetica,sans-Serif" font-size="10.00">+</text>
<text xml:space="preserve" text-anchor="start" x="179.75" y="-473.25" font-family="Helvetica,sans-Serif" font-size="10.00">operator=()</text>
<text xml:space="preserve" text-anchor="start" x="169.75" y="-457.25" font-family="Helvetica,sans-Serif" font-size="10.00">+</text>
<text xml:space="preserve" text-anchor="start" x="179.75" y="-457.25" font-family="Helvetica,sans-Serif" font-size="10.00">Handle()</text>
<text xml:space="preserve" text-anchor="start" x="169.75" y="-441.25" font-family="Helvetica,sans-Serif" font-size="10.00">+</text>
<text xml:space="preserve" text-anchor="start" x="179.75" y="-441.25" font-family="Helvetica,sans-Serif" font-size="10.00">~Handle()</text>
<text xml:space="preserve" text-anchor="start" x="169.75" y="-425.25" font-family="Helvetica,sans-Serif" font-size="10.00">+</text>
<text xml:space="preserve" text-anchor="start" x="179.75" y="-425.25" font-family="Helvetica,sans-Serif" font-size="10.00">Handle()</text>
<text xml:space="preserve" text-anchor="start" x="169.75" y="-409.25" font-family="Helvetica,sans-Serif" font-size="10.00">+</text>
<text xml:space="preserve" text-anchor="start" x="179.75" y="-409.25" font-family="Helvetica,sans-Serif" font-size="10.00">operator=()</text>
<polygon fill="#666666" stroke="#666666" points="165.75,-549 165.75,-549 231,-549 231,-549 165.75,-549"/>
<polygon fill="#666666" stroke="#666666" points="165.75,-533 165.75,-533 177.75,-533 177.75,-533 165.75,-533"/>
<polygon fill="#666666" stroke="#666666" points="177.75,-533 177.75,-533 231,-533 231,-533 177.75,-533"/>
<polygon fill="none" stroke="#666666" points="165.75,-403 165.75,-567 231,-567 231,-403 165.75,-403"/>
</a>
</g>
</g>
<!-- Node6&#45;&gt;Node3 -->
<g id="edge5_Node000003_Node000006" class="edge">
<title>Node6&#45;&gt;Node3</title>
<g id="a_edge5_Node000003_Node000006"><a xlink:title=" ">
<path fill="none" stroke="orange" d="M180.46,-392.11C175.87,-368.58 171.16,-344.44 167.36,-324.96"/>
<polygon fill="orange" stroke="orange" points="176.99,-392.6 182.33,-401.74 183.86,-391.26 176.99,-392.6"/>
</a>
</g>
<text xml:space="preserve" text-anchor="start" x="181.88" y="-372.25" font-family="Helvetica,sans-Serif" font-size="10.00" fill="grey">&lt; SystemBody &gt;</text>
</g>
</g>
</svg>
