<?xml version="1.0" encoding="UTF-8" standalone="no"?>
<!DOCTYPE svg PUBLIC "-//W3C//DTD SVG 1.1//EN"
 "http://www.w3.org/Graphics/SVG/1.1/DTD/svg11.dtd">
<!-- Generated by graphviz version 14.1.5 (20260411.2331)
 -->
<!-- Title: ExponentialFlow::~ExponentialFlow Pages: 1 -->
<svg width="482pt" height="28pt"
 viewBox="0.00 0.00 482.00 28.00" xmlns="http://www.w3.org/2000/svg" xmlns:xlink="http://www.w3.org/1999/xlink">
<g id="graph0" class="graph" transform="scale(1 1) rotate(0) translate(4 24)">
<title>ExponentialFlow::~ExponentialFlow</title>
<!-- Node1 -->
<g id="Node000001" class="node">
<title>Node1</title>
<g id="a_Node000001"><a xlink:title="Virtual destructor.">
<polygon fill="#999999" stroke="#666666" points="172,-20 0,-20 0,0 172,0 172,-20"/>
<text xml:space="preserve" text-anchor="middle" x="86" y="-6.5" font-family="Helvetica,sans-Serif" font-size="10.00">ExponentialFlow::~ExponentialFlow</text>
</a>
</g>
</g>
<!-- Node2 -->
<g id="Node000002" class="node">
<title>Node2</title>
<g id="a_Node000002"><a xlink:href="class_exponential_flow.html#a1f981db78e6635fd9837648960d8dc8d" target="_top" xlink:title="Default constructor.">
<polygon fill="white" stroke="#666666" points="374,-20 208,-20 208,0 374,0 374,-20"/>
<text xml:space="preserve" text-anchor="middle" x="291" y="-6.5" font-family="Helvetica,sans-Serif" font-size="10.00">ExponentialFlow::ExponentialFlow</text>
</a>
</g>
</g>
<!-- Node1&#45;&gt;Node2 -->
<g id="edge1_Node000001_Node000002" class="edge">
<title>Node1&#45;&gt;Node2</title>
<g id="a_edge1_Node000001_Node000002"><a xlink:title=" ">
<path fill="none" stroke="#63b8ff" d="M172.21,-10C180.17,-10 188.27,-10 196.31,-10"/>
<polygon fill="#63b8ff" stroke="#63b8ff" points="196.09,-13.5 206.09,-10 196.09,-6.5 196.09,-13.5"/>
</a>
</g>
</g>
<!-- Node3 -->
<g id="Node000003" class="node">
<title>Node3</title>
<g id="a_Node000003"><a xlink:href="class_flow.html#ac9975e144e606242748197798e87dd32" target="_top" xlink:title="Default constructor.">
<polygon fill="white" stroke="#666666" points="474,-20 410,-20 410,0 474,0 474,-20"/>
<text xml:space="preserve" text-anchor="middle" x="442" y="-6.5" font-family="Helvetica,sans-Serif" font-size="10.00">Flow::Flow</text>
</a>
</g>
</g>
<!-- Node2&#45;&gt;Node3 -->
<g id="edge2_Node000002_Node000003" class="edge">
<title>Node2&#45;&gt;Node3</title>
<g id="a_edge2_Node000002_Node000003"><a xlink:title=" ">
<path fill="none" stroke="#63b8ff" d="M374.34,-10C382.56,-10 390.65,-10 398.2,-10"/>
<polygon fill="#63b8ff" stroke="#63b8ff" points="398.06,-13.5 408.06,-10 398.06,-6.5 398.06,-13.5"/>
</a>
</g>
</g>
</g>
</svg>
