<?xml version="1.0" encoding="UTF-8" standalone="no"?>
<!DOCTYPE svg PUBLIC "-//W3C//DTD SVG 1.1//EN"
 "http://www.w3.org/Graphics/SVG/1.1/DTD/svg11.dtd">
<!-- Generated by graphviz version 14.1.5 (20260411.2331)
 -->
<!-- Title: ComplexFlow Pages: 1 -->
<svg width="98pt" height="607pt"
 viewBox="0.00 0.00 98.00 607.00" xmlns="http://www.w3.org/2000/svg" xmlns:xlink="http://www.w3.org/1999/xlink">
<g id="graph0" class="graph" transform="scale(1 1) rotate(0) translate(4 603)">
<title>ComplexFlow</title>
<!-- Node1 -->
<g id="Node000001" class="node">
<title>Node1</title>
<g id="a_Node000001"><a xlink:title="Implements a flow with specific calculation rule.">
<polygon fill="#999999" stroke="none" points="90,-132 0,-132 0,0 90,0 90,-132"/>
<text xml:space="preserve" text-anchor="start" x="15" y="-118.25" font-family="Helvetica,sans-Serif" font-size="10.00">ComplexFlow</text>
<text xml:space="preserve" text-anchor="start" x="43.5" y="-102.25" font-family="Helvetica,sans-Serif" font-size="10.00"> </text>
<text xml:space="preserve" text-anchor="start" x="4" y="-86.25" font-family="Helvetica,sans-Serif" font-size="10.00">+</text>
<text xml:space="preserve" text-anchor="start" x="14" y="-86.25" font-family="Helvetica,sans-Serif" font-size="10.00">ComplexFlow()</text>
<text xml:space="preserve" text-anchor="start" x="4" y="-70.25" font-family="Helvetica,sans-Serif" font-size="10.00">+</text>
<text xml:space="preserve" text-anchor="start" x="14" y="-70.25" font-family="Helvetica,sans-Serif" font-size="10.00">ComplexFlow()</text>
<text xml:space="preserve" text-anchor="start" x="4" y="-54.25" font-family="Helvetica,sans-Serif" font-size="10.00">+</text>
<text xml:space="preserve" text-anchor="start" x="14" y="-54.25" font-family="Helvetica,sans-Serif" font-size="10.00">~ComplexFlow()</text>
<text xml:space="preserve" text-anchor="start" x="4" y="-38.25" font-family="Helvetica,sans-Serif" font-size="10.00">+</text>
<text xml:space="preserve" text-anchor="start" x="14" y="-38.25" font-family="Helvetica,sans-Serif" font-size="10.00">ComplexFlow()</text>
<text xml:space="preserve" text-anchor="start" x="4" y="-22.25" font-family="Helvetica,sans-Serif" font-size="10.00">+</text>
<text xml:space="preserve" text-anchor="start" x="14" y="-22.25" font-family="Helvetica,sans-Serif" font-size="10.00">operator=()</text>
<text xml:space="preserve" text-anchor="start" x="4" y="-6.25" font-family="Helvetica,sans-Serif" font-size="10.00">+</text>
<text xml:space="preserve" text-anchor="start" x="14" y="-6.25" font-family="Helvetica,sans-Serif" font-size="10.00">execute()</text>
<polygon fill="#666666" stroke="#666666" points="0,-114 0,-114 90,-114 90,-114 0,-114"/>
<polygon fill="#666666" stroke="#666666" points="0,-98 0,-98 90,-98 90,-98 0,-98"/>
<polygon fill="none" stroke="#666666" points="0,0 0,-132 90,-132 90,0 0,0"/>
</a>
</g>
</g>
<!-- Node2 -->
<g id="Node000002" class="node">
<title>Node2</title>
<g id="a_Node000002"><a xlink:href="class_flow.html" target="_top" xlink:title="Abstract class that represents a flow between systems.">
<polygon fill="white" stroke="none" points="79.12,-333 10.88,-333 10.88,-169 79.12,-169 79.12,-333"/>
<text xml:space="preserve" text-anchor="start" x="34.5" y="-319.25" font-family="Helvetica,sans-Serif" font-size="10.00">Flow</text>
<text xml:space="preserve" text-anchor="start" x="43.5" y="-303.25" font-family="Helvetica,sans-Serif" font-size="10.00"> </text>
<text xml:space="preserve" text-anchor="start" x="14.88" y="-287.25" font-family="Helvetica,sans-Serif" font-size="10.00">+</text>
<text xml:space="preserve" text-anchor="start" x="24.88" y="-287.25" font-family="Helvetica,sans-Serif" font-size="10.00">Flow()</text>
<text xml:space="preserve" text-anchor="start" x="14.88" y="-271.25" font-family="Helvetica,sans-Serif" font-size="10.00">+</text>
<text xml:space="preserve" text-anchor="start" x="24.88" y="-271.25" font-family="Helvetica,sans-Serif" font-size="10.00">Flow()</text>
<text xml:space="preserve" text-anchor="start" x="14.88" y="-255.25" font-family="Helvetica,sans-Serif" font-size="10.00">+</text>
<text xml:space="preserve" text-anchor="start" x="24.88" y="-255.25" font-family="Helvetica,sans-Serif" font-size="10.00">~Flow()</text>
<text xml:space="preserve" text-anchor="start" x="14.88" y="-239.25" font-family="Helvetica,sans-Serif" font-size="10.00">+</text>
<text xml:space="preserve" text-anchor="start" x="24.88" y="-239.25" font-family="Helvetica,sans-Serif" font-size="10.00">Flow()</text>
<text xml:space="preserve" text-anchor="start" x="14.88" y="-223.25" font-family="Helvetica,sans-Serif" font-size="10.00">+</text>
<text xml:space="preserve" text-anchor="start" x="24.88" y="-223.25" font-family="Helvetica,sans-Serif" font-size="10.00">operator=()</text>
<text xml:space="preserve" text-anchor="start" x="14.88" y="-207.25" font-family="Helvetica,sans-Serif" font-size="10.00">+</text>
<text xml:space="preserve" text-anchor="start" x="24.88" y="-207.25" font-family="Helvetica,sans-Serif" font-size="10.00">execute()</text>
<text xml:space="preserve" text-anchor="start" x="14.88" y="-191.25" font-family="Helvetica,sans-Serif" font-size="10.00">+</text>
<text xml:space="preserve" text-anchor="start" x="24.88" y="-191.25" font-family="Helvetica,sans-Serif" font-size="10.00">getSource()</text>
<text xml:space="preserve" text-anchor="start" x="14.88" y="-175.25" font-family="Helvetica,sans-Serif" font-size="10.00">+</text>
<text xml:space="preserve" text-anchor="start" x="24.88" y="-175.25" font-family="Helvetica,sans-Serif" font-size="10.00">getSink()</text>
<polygon fill="#666666" stroke="#666666" points="10.88,-315 10.88,-315 79.12,-315 79.12,-315 10.88,-315"/>
<polygon fill="#666666" stroke="#666666" points="10.88,-299 10.88,-299 79.12,-299 79.12,-299 10.88,-299"/>
<polygon fill="none" stroke="#666666" points="10.88,-169 10.88,-333 79.12,-333 79.12,-169 10.88,-169"/>
</a>
</g>
</g>
<!-- Node2&#45;&gt;Node1 -->
<g id="edge1_Node000001_Node000002" class="edge">
<title>Node2&#45;&gt;Node1</title>
<g id="a_edge1_Node000001_Node000002"><a xlink:title=" ">
<path fill="none" stroke="#63b8ff" d="M45,-157.78C45,-149.07 45,-140.37 45,-131.99"/>
<polygon fill="none" stroke="#63b8ff" points="41.5,-157.69 45,-167.69 48.5,-157.69 41.5,-157.69"/>
</a>
</g>
</g>
<!-- Node3 -->
<g id="Node000003" class="node">
<title>Node3</title>
<g id="a_Node000003"><a xlink:href="class_system.html" target="_top" xlink:title="Represents a system with variable state in the simulation.">
<polygon fill="white" stroke="none" points="77.62,-599 12.38,-599 12.38,-403 77.62,-403 77.62,-599"/>
<text xml:space="preserve" text-anchor="start" x="28.12" y="-585.25" font-family="Helvetica,sans-Serif" font-size="10.00">System</text>
<text xml:space="preserve" text-anchor="start" x="17.88" y="-569.25" font-family="Helvetica,sans-Serif" font-size="10.00">&#45;</text>
<text xml:space="preserve" text-anchor="start" x="26.38" y="-569.25" font-family="Helvetica,sans-Serif" font-size="10.00">name</text>
<text xml:space="preserve" text-anchor="start" x="17.88" y="-553.25" font-family="Helvetica,sans-Serif" font-size="10.00">&#45;</text>
<text xml:space="preserve" text-anchor="start" x="26.38" y="-553.25" font-family="Helvetica,sans-Serif" font-size="10.00">value</text>
<text xml:space="preserve" text-anchor="start" x="16.38" y="-537.25" font-family="Helvetica,sans-Serif" font-size="10.00">+</text>
<text xml:space="preserve" text-anchor="start" x="26.38" y="-537.25" font-family="Helvetica,sans-Serif" font-size="10.00">System()</text>
<text xml:space="preserve" text-anchor="start" x="16.38" y="-521.25" font-family="Helvetica,sans-Serif" font-size="10.00">+</text>
<text xml:space="preserve" text-anchor="start" x="26.38" y="-521.25" font-family="Helvetica,sans-Serif" font-size="10.00">System()</text>
<text xml:space="preserve" text-anchor="start" x="16.38" y="-505.25" font-family="Helvetica,sans-Serif" font-size="10.00">+</text>
<text xml:space="preserve" text-anchor="start" x="26.38" y="-505.25" font-family="Helvetica,sans-Serif" font-size="10.00">~System()</text>
<text xml:space="preserve" text-anchor="start" x="16.38" y="-489.25" font-family="Helvetica,sans-Serif" font-size="10.00">+</text>
<text xml:space="preserve" text-anchor="start" x="26.38" y="-489.25" font-family="Helvetica,sans-Serif" font-size="10.00">System()</text>
<text xml:space="preserve" text-anchor="start" x="16.38" y="-473.25" font-family="Helvetica,sans-Serif" font-size="10.00">+</text>
<text xml:space="preserve" text-anchor="start" x="26.38" y="-473.25" font-family="Helvetica,sans-Serif" font-size="10.00">operator=()</text>
<text xml:space="preserve" text-anchor="start" x="16.38" y="-457.25" font-family="Helvetica,sans-Serif" font-size="10.00">+</text>
<text xml:space="preserve" text-anchor="start" x="26.38" y="-457.25" font-family="Helvetica,sans-Serif" font-size="10.00">setName()</text>
<text xml:space="preserve" text-anchor="start" x="16.38" y="-441.25" font-family="Helvetica,sans-Serif" font-size="10.00">+</text>
<text xml:space="preserve" text-anchor="start" x="26.38" y="-441.25" font-family="Helvetica,sans-Serif" font-size="10.00">setValue()</text>
<text xml:space="preserve" text-anchor="start" x="16.38" y="-425.25" font-family="Helvetica,sans-Serif" font-size="10.00">+</text>
<text xml:space="preserve" text-anchor="start" x="26.38" y="-425.25" font-family="Helvetica,sans-Serif" font-size="10.00">getName()</text>
<text xml:space="preserve" text-anchor="start" x="16.38" y="-409.25" font-family="Helvetica,sans-Serif" font-size="10.00">+</text>
<text xml:space="preserve" text-anchor="start" x="26.38" y="-409.25" font-family="Helvetica,sans-Serif" font-size="10.00">getValue()</text>
<polygon fill="#666666" stroke="#666666" points="12.38,-581 12.38,-581 77.62,-581 77.62,-581 12.38,-581"/>
<polygon fill="#666666" stroke="#666666" points="12.38,-549 12.38,-549 24.38,-549 24.38,-549 12.38,-549"/>
<polygon fill="#666666" stroke="#666666" points="24.38,-549 24.38,-549 77.62,-549 77.62,-549 24.38,-549"/>
<polygon fill="none" stroke="#666666" points="12.38,-403 12.38,-599 77.62,-599 77.62,-403 12.38,-403"/>
</a>
</g>
</g>
<!-- Node3&#45;&gt;Node2 -->
<g id="edge2_Node000002_Node000003" class="edge">
<title>Node3&#45;&gt;Node2</title>
<g id="a_edge2_Node000002_Node000003"><a xlink:title=" ">
<path fill="none" stroke="#63b8ff" d="M45,-403.05C45,-384.18 45,-364.42 45,-345.66"/>
<polygon fill="none" stroke="#63b8ff" points="45,-345.75 41,-339.75 45,-333.75 49,-339.75 45,-345.75"/>
</a>
</g>
<text xml:space="preserve" text-anchor="start" x="48" y="-372.25" font-family="Helvetica,sans-Serif" font-size="10.00" fill="grey">#sink</text>
<text xml:space="preserve" text-anchor="start" x="48" y="-356.25" font-family="Helvetica,sans-Serif" font-size="10.00" fill="grey">#source</text>
</g>
</g>
</svg>
