<?xml version="1.0" encoding="UTF-8" standalone="no"?>
<!DOCTYPE svg PUBLIC "-//W3C//DTD SVG 1.1//EN"
 "http://www.w3.org/Graphics/SVG/1.1/DTD/svg11.dtd">
<!-- Generated by graphviz version 14.1.5 (20260411.2331)
 -->
<!-- Title: Model::Model Pages: 1 -->
<svg width="208pt" height="104pt"
 viewBox="0.00 0.00 208.00 104.00" xmlns="http://www.w3.org/2000/svg" xmlns:xlink="http://www.w3.org/1999/xlink">
<g id="graph0" class="graph" transform="scale(1 1) rotate(0) translate(4 100)">
<title>Model::Model</title>
<!-- Node1 -->
<g id="Node000001" class="node">
<title>Node1</title>
<g id="a_Node000001"><a xlink:title="Default constructor.">
<polygon fill="#999999" stroke="#666666" points="200,-58 125.5,-58 125.5,-38 200,-38 200,-58"/>
<text xml:space="preserve" text-anchor="middle" x="162.75" y="-44.5" font-family="Helvetica,sans-Serif" font-size="10.00">Model::Model</text>
</a>
</g>
</g>
<!-- Node2 -->
<g id="Node000002" class="node">
<title>Node2</title>
<g id="a_Node000002"><a xlink:href="class_model.html#a48858e5f328ba822b430d86a76a6ceeb" target="_top" xlink:title="Copy constructor.">
<polygon fill="white" stroke="#666666" points="82,-96 7.5,-96 7.5,-76 82,-76 82,-96"/>
<text xml:space="preserve" text-anchor="middle" x="44.75" y="-82.5" font-family="Helvetica,sans-Serif" font-size="10.00">Model::Model</text>
</a>
</g>
</g>
<!-- Node1&#45;&gt;Node2 -->
<g id="edge1_Node000001_Node000002" class="edge">
<title>Node1&#45;&gt;Node2</title>
<g id="a_edge1_Node000001_Node000002"><a xlink:title=" ">
<path fill="none" stroke="#63b8ff" d="M119.08,-61.98C105.38,-66.47 90.44,-71.36 77.65,-75.55"/>
<polygon fill="#63b8ff" stroke="#63b8ff" points="119.89,-65.39 128.31,-58.96 117.71,-58.74 119.89,-65.39"/>
</a>
</g>
</g>
<!-- Node3 -->
<g id="Node000003" class="node">
<title>Node3</title>
<g id="a_Node000003"><a xlink:href="class_model.html#aaa76b9c72b66fa245f6b7b92d1ecc032" target="_top" xlink:title="Assignment operator.">
<polygon fill="white" stroke="#666666" points="89.5,-58 0,-58 0,-38 89.5,-38 89.5,-58"/>
<text xml:space="preserve" text-anchor="middle" x="44.75" y="-44.5" font-family="Helvetica,sans-Serif" font-size="10.00">Model::operator=</text>
</a>
</g>
</g>
<!-- Node1&#45;&gt;Node3 -->
<g id="edge2_Node000001_Node000003" class="edge">
<title>Node1&#45;&gt;Node3</title>
<g id="a_edge2_Node000001_Node000003"><a xlink:title=" ">
<path fill="none" stroke="#63b8ff" d="M113.75,-48C105.86,-48 97.72,-48 89.94,-48"/>
<polygon fill="#63b8ff" stroke="#63b8ff" points="113.53,-51.5 123.53,-48 113.53,-44.5 113.53,-51.5"/>
</a>
</g>
</g>
<!-- Node4 -->
<g id="Node000004" class="node">
<title>Node4</title>
<g id="a_Node000004"><a xlink:href="class_model.html#ad6ebd2062a0b823db841a0b88baac4c0" target="_top" xlink:title="Virtual destructor.">
<polygon fill="white" stroke="#666666" points="85,-20 4.5,-20 4.5,0 85,0 85,-20"/>
<text xml:space="preserve" text-anchor="middle" x="44.75" y="-6.5" font-family="Helvetica,sans-Serif" font-size="10.00">Model::~Model</text>
</a>
</g>
</g>
<!-- Node1&#45;&gt;Node4 -->
<g id="edge3_Node000001_Node000004" class="edge">
<title>Node1&#45;&gt;Node4</title>
<g id="a_edge3_Node000001_Node000004"><a xlink:title=" ">
<path fill="none" stroke="#63b8ff" d="M119.08,-34.02C105.38,-29.53 90.44,-24.64 77.65,-20.45"/>
<polygon fill="#63b8ff" stroke="#63b8ff" points="117.71,-37.26 128.31,-37.04 119.89,-30.61 117.71,-37.26"/>
</a>
</g>
</g>
</g>
</svg>
