<?xml version="1.0" encoding="UTF-8" standalone="no"?>
<!DOCTYPE svg PUBLIC "-//W3C//DTD SVG 1.1//EN"
 "http://www.w3.org/Graphics/SVG/1.1/DTD/svg11.dtd">
<!-- Generated by graphviz version 14.1.5 (20260411.2331)
 -->
<!-- Title: ExponentialFlow Pages: 1 -->
<svg width="110pt" height="607pt"
 viewBox="0.00 0.00 110.00 607.00" xmlns="http://www.w3.org/2000/svg" xmlns:xlink="http://www.w3.org/1999/xlink">
<g id="graph0" class="graph" transform="scale(1 1) rotate(0) translate(4 603)">
<title>ExponentialFlow</title>
<!-- Node1 -->
<g id="Node000001" class="node">
<title>Node1</title>
<g id="a_Node000001"><a xlink:title="Implements a flow with exponential growth.">
<polygon fill="#999999" stroke="none" points="102,-132 0,-132 0,0 102,0 102,-132"/>
<text xml:space="preserve" text-anchor="start" x="15" y="-118.25" font-family="Helvetica,sans-Serif" font-size="10.00">ExponentialFlow</text>
<text xml:space="preserve" text-anchor="start" x="49.5" y="-102.25" font-family="Helvetica,sans-Serif" font-size="10.00"> </text>
<text xml:space="preserve" text-anchor="start" x="4" y="-86.25" font-family="Helvetica,sans-Serif" font-size="10.00">+</text>
<text xml:space="preserve" text-anchor="start" x="14" y="-86.25" font-family="Helvetica,sans-Serif" font-size="10.00">ExponentialFlow()</text>
<text xml:space="preserve" text-anchor="start" x="4" y="-70.25" font-family="Helvetica,sans-Serif" font-size="10.00">+</text>
<text xml:space="preserve" text-anchor="start" x="14" y="-70.25" font-family="Helvetica,sans-Serif" font-size="10.00">ExponentialFlow()</text>
<text xml:space="preserve" text-anchor="start" x="4" y="-54.25" font-family="Helvetica,sans-Serif" font-size="10.00">+</text>
<text xml:space="preserve" text-anchor="start" x="14" y="-54.25" font-family="Helvetica,sans-Serif" font-size="10.00">~ExponentialFlow()</text>
<text xml:space="preserve" text-anchor="start" x="4" y="-38.25" font-family="Helvetica,sans-Serif" font-size="10.00">+</text>
<text xml:space="preserve" text-anchor="start" x="14" y="-38.25" font-family="Helvetica,sans-Serif" font-size="10.00">ExponentialFlow()</text>
<text xml:space="preserve" text-anchor="start" x="4" y="-22.25" font-family="Helvetica,sans-Serif" font-size="10.00">+</text>
<text xml:space="preserve" text-anchor="start" x="14" y="-22.25" font-family="Helvetica,sans-Serif" font-size="10.00">operator=()</text>
<text xml:space="preserve" text-anchor="start" x="4" y="-6.25" font-family="Helvetica,sans-Serif" font-size="10.00">+</text>
<text xml:space="preserve" text-anchor="start" x="14" y="-6.25" font-family="Helvetica,sans-Serif" font-size="10.00">execute()</text>
<polygon fill="#666666" stroke="#666666" points="0,-114 0,-114 102,-114 102,-114 0,-114"/>
<polygon fill="#666666" stroke="#666666" points="0,-98 0,-98 102,-98 102,-98 0,-98"/>
<polygon fill="none" stroke="#666666" points="0,0 0,-132 102,-132 102,0 0,0"/>
</a>
</g>
</g>
<!-- Node2 -->
<g id="Node000002" class="node">
<title>Node2</title>
<g id="a_Node000002"><a xlink:href="class_flow.html" target="_top" xlink:title="Abstract class that represents a flow between systems.">
<polygon fill="white" stroke="none" points="85.12,-333 16.88,-333 16.88,-169 85.12,-169 85.12,-333"/>
<text xml:space="preserve" text-anchor="start" x="40.5" y="-319.25" font-family="Helvetica,sans-Serif" font-size="10.00">Flow</text>
<text xml:space="preserve" text-anchor="start" x="49.5" y="-303.25" font-family="Helvetica,sans-Serif" font-size="10.00"> </text>
<text xml:space="preserve" text-anchor="start" x="20.88" y="-287.25" font-family="Helvetica,sans-Serif" font-size="10.00">+</text>
<text xml:space="preserve" text-anchor="start" x="30.88" y="-287.25" font-family="Helvetica,sans-Serif" font-size="10.00">Flow()</text>
<text xml:space="preserve" text-anchor="start" x="20.88" y="-271.25" font-family="Helvetica,sans-Serif" font-size="10.00">+</text>
<text xml:space="preserve" text-anchor="start" x="30.88" y="-271.25" font-family="Helvetica,sans-Serif" font-size="10.00">Flow()</text>
<text xml:space="preserve" text-anchor="start" x="20.88" y="-255.25" font-family="Helvetica,sans-Serif" font-size="10.00">+</text>
<text xml:space="preserve" text-anchor="start" x="30.88" y="-255.25" font-family="Helvetica,sans-Serif" font-size="10.00">~Flow()</text>
<text xml:space="preserve" text-anchor="start" x="20.88" y="-239.25" font-family="Helvetica,sans-Serif" font-size="10.00">+</text>
<text xml:space="preserve" text-anchor="start" x="30.88" y="-239.25" font-family="Helvetica,sans-Serif" font-size="10.00">Flow()</text>
<text xml:space="preserve" text-anchor="start" x="20.88" y="-223.25" font-family="Helvetica,sans-Serif" font-size="10.00">+</text>
<text xml:space="preserve" text-anchor="start" x="30.88" y="-223.25" font-family="Helvetica,sans-Serif" font-size="10.00">operator=()</text>
<text xml:space="preserve" text-anchor="start" x="20.88" y="-207.25" font-family="Helvetica,sans-Serif" font-size="10.00">+</text>
<text xml:space="preserve" text-anchor="start" x="30.88" y="-207.25" font-family="Helvetica,sans-Serif" font-size="10.00">execute()</text>
<text xml:space="preserve" text-anchor="start" x="20.88" y="-191.25" font-family="Helvetica,sans-Serif" font-size="10.00">+</text>
<text xml:space="preserve" text-anchor="start" x="30.88" y="-191.25" font-family="Helvetica,sans-Serif" font-size="10.00">getSource()</text>
<text xml:space="preserve" text-anchor="start" x="20.88" y="-175.25" font-family="Helvetica,sans-Serif" font-size="10.00">+</text>
<text xml:space="preserve" text-anchor="start" x="30.88" y="-175.25" font-family="Helvetica,sans-Serif" font-size="10.00">getSink()</text>
<polygon fill="#666666" stroke="#666666" points="16.88,-315 16.88,-315 85.12,-315 85.12,-315 16.88,-315"/>
<polygon fill="#666666" stroke="#666666" points="16.88,-299 16.88,-299 85.12,-299 85.12,-299 16.88,-299"/>
<polygon fill="none" stroke="#666666" points="16.88,-169 16.88,-333 85.12,-333 85.12,-169 16.88,-169"/>
</a>
</g>
</g>
<!-- Node2&#45;&gt;Node1 -->
<g id="edge1_Node000001_Node000002" class="edge">
<title>Node2&#45;&gt;Node1</title>
<g id="a_edge1_Node000001_Node000002"><a xlink:title=" ">
<path fill="none" stroke="#63b8ff" d="M51,-157.78C51,-149.07 51,-140.37 51,-131.99"/>
<polygon fill="none" stroke="#63b8ff" points="47.5,-157.69 51,-167.69 54.5,-157.69 47.5,-157.69"/>
</a>
</g>
</g>
<!-- Node3 -->
<g id="Node000003" class="node">
<title>Node3</title>
<g id="a_Node000003"><a xlink:href="class_system.html" target="_top" xlink:title="Represents a system with variable state in the simulation.">
<polygon fill="white" stroke="none" points="83.62,-599 18.38,-599 18.38,-403 83.62,-403 83.62,-599"/>
<text xml:space="preserve" text-anchor="start" x="34.12" y="-585.25" font-family="Helvetica,sans-Serif" font-size="10.00">System</text>
<text xml:space="preserve" text-anchor="start" x="23.88" y="-569.25" font-family="Helvetica,sans-Serif" font-size="10.00">&#45;</text>
<text xml:space="preserve" text-anchor="start" x="32.38" y="-569.25" font-family="Helvetica,sans-Serif" font-size="10.00">name</text>
<text xml:space="preserve" text-anchor="start" x="23.88" y="-553.25" font-family="Helvetica,sans-Serif" font-size="10.00">&#45;</text>
<text xml:space="preserve" text-anchor="start" x="32.38" y="-553.25" font-family="Helvetica,sans-Serif" font-size="10.00">value</text>
<text xml:space="preserve" text-anchor="start" x="22.38" y="-537.25" font-family="Helvetica,sans-Serif" font-size="10.00">+</text>
<text xml:space="preserve" text-anchor="start" x="32.38" y="-537.25" font-family="Helvetica,sans-Serif" font-size="10.00">System()</text>
<text xml:space="preserve" text-anchor="start" x="22.38" y="-521.25" font-family="Helvetica,sans-Serif" font-size="10.00">+</text>
<text xml:space="preserve" text-anchor="start" x="32.38" y="-521.25" font-family="Helvetica,sans-Serif" font-size="10.00">System()</text>
<text xml:space="preserve" text-anchor="start" x="22.38" y="-505.25" font-family="Helvetica,sans-Serif" font-size="10.00">+</text>
<text xml:space="preserve" text-anchor="start" x="32.38" y="-505.25" font-family="Helvetica,sans-Serif" font-size="10.00">~System()</text>
<text xml:space="preserve" text-anchor="start" x="22.38" y="-489.25" font-family="Helvetica,sans-Serif" font-size="10.00">+</text>
<text xml:space="preserve" text-anchor="start" x="32.38" y="-489.25" font-family="Helvetica,sans-Serif" font-size="10.00">System()</text>
<text xml:space="preserve" text-anchor="start" x="22.38" y="-473.25" font-family="Helvetica,sans-Serif" font-size="10.00">+</text>
<text xml:space="preserve" text-anchor="start" x="32.38" y="-473.25" font-family="Helvetica,sans-Serif" font-size="10.00">operator=()</text>
<text xml:space="preserve" text-anchor="start" x="22.38" y="-457.25" font-family="Helvetica,sans-Serif" font-size="10.00">+</text>
<text xml:space="preserve" text-anchor="start" x="32.38" y="-457.25" font-family="Helvetica,sans-Serif" font-size="10.00">setName()</text>
<text xml:space="preserve" text-anchor="start" x="22.38" y="-441.25" font-family="Helvetica,sans-Serif" font-size="10.00">+</text>
<text xml:space="preserve" text-anchor="start" x="32.38" y="-441.25" font-family="Helvetica,sans-Serif" font-size="10.00">setValue()</text>
<text xml:space="preserve" text-anchor="start" x="22.38" y="-425.25" font-family="Helvetica,sans-Serif" font-size="10.00">+</text>
<text xml:space="preserve" text-anchor="start" x="32.38" y="-425.25" font-family="Helvetica,sans-Serif" font-size="10.00">getName()</text>
<text xml:space="preserve" text-anchor="start" x="22.38" y="-409.25" font-family="Helvetica,sans-Serif" font-size="10.00">+</text>
<text xml:space="preserve" text-anchor="start" x="32.38" y="-409.25" font-family="Helvetica,sans-Serif" font-size="10.00">getValue()</text>
<polygon fill="#666666" stroke="#666666" points="18.38,-581 18.38,-581 83.62,-581 83.62,-581 18.38,-581"/>
<polygon fill="#666666" stroke="#666666" points="18.38,-549 18.38,-549 30.38,-549 30.38,-549 18.38,-549"/>
<polygon fill="#666666" stroke="#666666" points="30.38,-549 30.38,-549 83.62,-549 83.62,-549 30.38,-549"/>
<polygon fill="none" stroke="#666666" points="18.38,-403 18.38,-599 83.62,-599 83.62,-403 18.38,-403"/>
</a>
</g>
</g>
<!-- Node3&#45;&gt;Node2 -->
<g id="edge2_Node000002_Node000003" class="edge">
<title>Node3&#45;&gt;Node2</title>
<g id="a_edge2_Node000002_Node000003"><a xlink:title=" ">
<path fill="none" stroke="#63b8ff" d="M51,-403.05C51,-384.18 51,-364.42 51,-345.66"/>
<polygon fill="none" stroke="#63b8ff" points="51,-345.75 47,-339.75 51,-333.75 55,-339.75 51,-345.75"/>
</a>
</g>
<text xml:space="preserve" text-anchor="start" x="54" y="-372.25" font-family="Helvetica,sans-Serif" font-size="10.00" fill="grey">#sink</text>
<text xml:space="preserve" text-anchor="start" x="54" y="-356.25" font-family="Helvetica,sans-Serif" font-size="10.00" fill="grey">#source</text>
</g>
</g>
</svg>
