<?xml version="1.0" encoding="UTF-8" standalone="no"?>
<!DOCTYPE svg PUBLIC "-//W3C//DTD SVG 1.1//EN"
 "http://www.w3.org/Graphics/SVG/1.1/DTD/svg11.dtd">
<!-- Generated by graphviz version 14.1.5 (20260411.2331)
 -->
<!-- Title: LogisticFlow::~LogisticFlow Pages: 1 -->
<svg width="413pt" height="28pt"
 viewBox="0.00 0.00 413.00 28.00" xmlns="http://www.w3.org/2000/svg" xmlns:xlink="http://www.w3.org/1999/xlink">
<g id="graph0" class="graph" transform="scale(1 1) rotate(0) translate(4 24)">
<title>LogisticFlow::~LogisticFlow</title>
<!-- Node1 -->
<g id="Node000001" class="node">
<title>Node1</title>
<g id="a_Node000001"><a xlink:title="Virtual destructor.">
<polygon fill="#999999" stroke="#666666" points="137.5,-20 0,-20 0,0 137.5,0 137.5,-20"/>
<text xml:space="preserve" text-anchor="middle" x="68.75" y="-6.5" font-family="Helvetica,sans-Serif" font-size="10.00">LogisticFlow::~LogisticFlow</text>
</a>
</g>
</g>
<!-- Node2 -->
<g id="Node000002" class="node">
<title>Node2</title>
<g id="a_Node000002"><a xlink:href="class_logistic_flow.html#ab0f7906cfe1a27e18a4f558124e53ee0" target="_top" xlink:title="Default constructor.">
<polygon fill="white" stroke="#666666" points="305,-20 173.5,-20 173.5,0 305,0 305,-20"/>
<text xml:space="preserve" text-anchor="middle" x="239.25" y="-6.5" font-family="Helvetica,sans-Serif" font-size="10.00">LogisticFlow::LogisticFlow</text>
</a>
</g>
</g>
<!-- Node1&#45;&gt;Node2 -->
<g id="edge1_Node000001_Node000002" class="edge">
<title>Node1&#45;&gt;Node2</title>
<g id="a_edge1_Node000001_Node000002"><a xlink:title=" ">
<path fill="none" stroke="#63b8ff" d="M137.8,-10C145.75,-10 153.89,-10 161.94,-10"/>
<polygon fill="#63b8ff" stroke="#63b8ff" points="161.71,-13.5 171.71,-10 161.71,-6.5 161.71,-13.5"/>
</a>
</g>
</g>
<!-- Node3 -->
<g id="Node000003" class="node">
<title>Node3</title>
<g id="a_Node000003"><a xlink:href="class_flow.html#ac9975e144e606242748197798e87dd32" target="_top" xlink:title="Default constructor.">
<polygon fill="white" stroke="#666666" points="405,-20 341,-20 341,0 405,0 405,-20"/>
<text xml:space="preserve" text-anchor="middle" x="373" y="-6.5" font-family="Helvetica,sans-Serif" font-size="10.00">Flow::Flow</text>
</a>
</g>
</g>
<!-- Node2&#45;&gt;Node3 -->
<g id="edge2_Node000002_Node000003" class="edge">
<title>Node2&#45;&gt;Node3</title>
<g id="a_edge2_Node000002_Node000003"><a xlink:title=" ">
<path fill="none" stroke="#63b8ff" d="M305.35,-10C313.53,-10 321.73,-10 329.44,-10"/>
<polygon fill="#63b8ff" stroke="#63b8ff" points="329.18,-13.5 339.18,-10 329.18,-6.5 329.18,-13.5"/>
</a>
</g>
</g>
</g>
</svg>
