<?xml version="1.0" encoding="UTF-8" standalone="no"?>
<!DOCTYPE svg PUBLIC "-//W3C//DTD SVG 1.1//EN"
 "http://www.w3.org/Graphics/SVG/1.1/DTD/svg11.dtd">
<!-- Generated by graphviz version 14.1.5 (20260411.2331)
 -->
<!-- Title: Flow Pages: 1 -->
<svg width="320pt" height="356pt"
 viewBox="0.00 0.00 320.00 356.00" xmlns="http://www.w3.org/2000/svg" xmlns:xlink="http://www.w3.org/1999/xlink">

<svg id="main" version="1.1" xmlns="http://www.w3.org/2000/svg" xmlns:xlink="http://www.w3.org/1999/xlink" xml:space="preserve">

<style type="text/css"><![CDATA[
.node, .edge {opacity: 0.7;}
.node.selected, .edge.selected {opacity: 1;}
.edge:hover path { stroke: red; }
.edge:hover polygon { stroke: red; fill: red; }
]]></style>
<script type="application/ecmascript" xlink:href="svg.min.js"/>
<svg id="graph" class="graph">
<g id="graph0" class="graph" transform="scale(1 1) rotate(0) translate(4 352)">
<title>Flow</title>
<!-- Node1 -->
<g id="Node000001" class="node">
<title>Node1</title>
<g id="a_Node000001"><a xlink:title="Abstract class that represents a flow between systems.">
<polygon fill="#999999" stroke="none" points="193.12,-348 124.88,-348 124.88,-168 193.12,-168 193.12,-348"/>
<text xml:space="preserve" text-anchor="start" x="148.5" y="-334.25" font-family="Helvetica,sans-Serif" font-size="10.00">Flow</text>
<text xml:space="preserve" text-anchor="start" x="129.25" y="-318.25" font-family="Helvetica,sans-Serif" font-size="10.00">#</text>
<text xml:space="preserve" text-anchor="start" x="138.88" y="-318.25" font-family="Helvetica,sans-Serif" font-size="10.00">source</text>
<text xml:space="preserve" text-anchor="start" x="129.25" y="-302.25" font-family="Helvetica,sans-Serif" font-size="10.00">#</text>
<text xml:space="preserve" text-anchor="start" x="138.88" y="-302.25" font-family="Helvetica,sans-Serif" font-size="10.00">sink</text>
<text xml:space="preserve" text-anchor="start" x="128.88" y="-286.25" font-family="Helvetica,sans-Serif" font-size="10.00">+</text>
<text xml:space="preserve" text-anchor="start" x="138.88" y="-286.25" font-family="Helvetica,sans-Serif" font-size="10.00">Flow()</text>
<text xml:space="preserve" text-anchor="start" x="128.88" y="-270.25" font-family="Helvetica,sans-Serif" font-size="10.00">+</text>
<text xml:space="preserve" text-anchor="start" x="138.88" y="-270.25" font-family="Helvetica,sans-Serif" font-size="10.00">Flow()</text>
<text xml:space="preserve" text-anchor="start" x="128.88" y="-254.25" font-family="Helvetica,sans-Serif" font-size="10.00">+</text>
<text xml:space="preserve" text-anchor="start" x="138.88" y="-254.25" font-family="Helvetica,sans-Serif" font-size="10.00">~Flow()</text>
<text xml:space="preserve" text-anchor="start" x="128.88" y="-238.25" font-family="Helvetica,sans-Serif" font-size="10.00">+</text>
<text xml:space="preserve" text-anchor="start" x="138.88" y="-238.25" font-family="Helvetica,sans-Serif" font-size="10.00">Flow()</text>
<text xml:space="preserve" text-anchor="start" x="128.88" y="-222.25" font-family="Helvetica,sans-Serif" font-size="10.00">+</text>
<text xml:space="preserve" text-anchor="start" x="138.88" y="-222.25" font-family="Helvetica,sans-Serif" font-size="10.00">operator=()</text>
<text xml:space="preserve" text-anchor="start" x="128.88" y="-206.25" font-family="Helvetica,sans-Serif" font-size="10.00">+</text>
<text xml:space="preserve" text-anchor="start" x="138.88" y="-206.25" font-family="Helvetica,sans-Serif" font-size="10.00">execute()</text>
<text xml:space="preserve" text-anchor="start" x="128.88" y="-190.25" font-family="Helvetica,sans-Serif" font-size="10.00">+</text>
<text xml:space="preserve" text-anchor="start" x="138.88" y="-190.25" font-family="Helvetica,sans-Serif" font-size="10.00">getSource()</text>
<text xml:space="preserve" text-anchor="start" x="128.88" y="-174.25" font-family="Helvetica,sans-Serif" font-size="10.00">+</text>
<text xml:space="preserve" text-anchor="start" x="138.88" y="-174.25" font-family="Helvetica,sans-Serif" font-size="10.00">getSink()</text>
<polygon fill="#666666" stroke="#666666" points="124.88,-330 124.88,-330 193.12,-330 193.12,-330 124.88,-330"/>
<polygon fill="#666666" stroke="#666666" points="124.88,-298 124.88,-298 136.88,-298 136.88,-298 124.88,-298"/>
<polygon fill="#666666" stroke="#666666" points="136.88,-298 136.88,-298 193.12,-298 193.12,-298 136.88,-298"/>
<polygon fill="none" stroke="#666666" points="124.88,-168 124.88,-348 193.12,-348 193.12,-168 124.88,-168"/>
</a>
</g>
</g>
<!-- Node2 -->
<g id="Node000002" class="node">
<title>Node2</title>
<g id="a_Node000002"><a xlink:href="class_complex_flow.html" target="_top" xlink:title="Implements a flow with specific calculation rule.">
<polygon fill="white" stroke="none" points="90,-132 0,-132 0,0 90,0 90,-132"/>
<text xml:space="preserve" text-anchor="start" x="15" y="-118.25" font-family="Helvetica,sans-Serif" font-size="10.00">ComplexFlow</text>
<text xml:space="preserve" text-anchor="start" x="43.5" y="-102.25" font-family="Helvetica,sans-Serif" font-size="10.00"> </text>
<text xml:space="preserve" text-anchor="start" x="4" y="-86.25" font-family="Helvetica,sans-Serif" font-size="10.00">+</text>
<text xml:space="preserve" text-anchor="start" x="14" y="-86.25" font-family="Helvetica,sans-Serif" font-size="10.00">ComplexFlow()</text>
<text xml:space="preserve" text-anchor="start" x="4" y="-70.25" font-family="Helvetica,sans-Serif" font-size="10.00">+</text>
<text xml:space="preserve" text-anchor="start" x="14" y="-70.25" font-family="Helvetica,sans-Serif" font-size="10.00">ComplexFlow()</text>
<text xml:space="preserve" text-anchor="start" x="4" y="-54.25" font-family="Helvetica,sans-Serif" font-size="10.00">+</text>
<text xml:space="preserve" text-anchor="start" x="14" y="-54.25" font-family="Helvetica,sans-Serif" font-size="10.00">~ComplexFlow()</text>
<text xml:space="preserve" text-anchor="start" x="4" y="-38.25" font-family="Helvetica,sans-Serif" font-size="10.00">+</text>
<text xml:space="preserve" text-anchor="start" x="14" y="-38.25" font-family="Helvetica,sans-Serif" font-size="10.00">ComplexFlow()</text>
<text xml:space="preserve" text-anchor="start" x="4" y="-22.25" font-family="Helvetica,sans-Serif" font-size="10.00">+</text>
<text xml:space="preserve" text-anchor="start" x="14" y="-22.25" font-family="Helvetica,sans-Serif" font-size="10.00">operator=()</text>
<text xml:space="preserve" text-anchor="start" x="4" y="-6.25" font-family="Helvetica,sans-Serif" font-size="10.00">+</text>
<text xml:space="preserve" text-anchor="start" x="14" y="-6.25" font-family="Helvetica,sans-Serif" font-size="10.00">execute()</text>
<polygon fill="#666666" stroke="#666666" points="0,-114 0,-114 90,-114 90,-114 0,-114"/>
<polygon fill="#666666" stroke="#666666" points="0,-98 0,-98 90,-98 90,-98 0,-98"/>
<polygon fill="none" stroke="#666666" points="0,0 0,-132 90,-132 90,0 0,0"/>
</a>
</g>
</g>
<!-- Node1&#45;&gt;Node2 -->
<g id="edge1_Node000001_Node000002" class="edge">
<title>Node1&#45;&gt;Node2</title>
<g id="a_edge1_Node000001_Node000002"><a xlink:title=" ">
<path fill="none" stroke="#63b8ff" d="M119.08,-190.47C107.66,-171.43 95.23,-150.72 83.87,-131.79"/>
<polygon fill="none" stroke="#63b8ff" points="116.03,-192.18 124.17,-198.95 122.03,-188.58 116.03,-192.18"/>
</a>
</g>
</g>
<!-- Node3 -->
<g id="Node000003" class="node">
<title>Node3</title>
<g id="a_Node000003"><a xlink:href="class_exponential_flow.html" target="_top" xlink:title="Implements a flow with exponential growth.">
<polygon fill="white" stroke="none" points="210,-132 108,-132 108,0 210,0 210,-132"/>
<text xml:space="preserve" text-anchor="start" x="123" y="-118.25" font-family="Helvetica,sans-Serif" font-size="10.00">ExponentialFlow</text>
<text xml:space="preserve" text-anchor="start" x="157.5" y="-102.25" font-family="Helvetica,sans-Serif" font-size="10.00"> </text>
<text xml:space="preserve" text-anchor="start" x="112" y="-86.25" font-family="Helvetica,sans-Serif" font-size="10.00">+</text>
<text xml:space="preserve" text-anchor="start" x="122" y="-86.25" font-family="Helvetica,sans-Serif" font-size="10.00">ExponentialFlow()</text>
<text xml:space="preserve" text-anchor="start" x="112" y="-70.25" font-family="Helvetica,sans-Serif" font-size="10.00">+</text>
<text xml:space="preserve" text-anchor="start" x="122" y="-70.25" font-family="Helvetica,sans-Serif" font-size="10.00">ExponentialFlow()</text>
<text xml:space="preserve" text-anchor="start" x="112" y="-54.25" font-family="Helvetica,sans-Serif" font-size="10.00">+</text>
<text xml:space="preserve" text-anchor="start" x="122" y="-54.25" font-family="Helvetica,sans-Serif" font-size="10.00">~ExponentialFlow()</text>
<text xml:space="preserve" text-anchor="start" x="112" y="-38.25" font-family="Helvetica,sans-Serif" font-size="10.00">+</text>
<text xml:space="preserve" text-anchor="start" x="122" y="-38.25" font-family="Helvetica,sans-Serif" font-size="10.00">ExponentialFlow()</text>
<text xml:space="preserve" text-anchor="start" x="112" y="-22.25" font-family="Helvetica,sans-Serif" font-size="10.00">+</text>
<text xml:space="preserve" text-anchor="start" x="122" y="-22.25" font-family="Helvetica,sans-Serif" font-size="10.00">operator=()</text>
<text xml:space="preserve" text-anchor="start" x="112" y="-6.25" font-family="Helvetica,sans-Serif" font-size="10.00">+</text>
<text xml:space="preserve" text-anchor="start" x="122" y="-6.25" font-family="Helvetica,sans-Serif" font-size="10.00">execute()</text>
<polygon fill="#666666" stroke="#666666" points="108,-114 108,-114 210,-114 210,-114 108,-114"/>
<polygon fill="#666666" stroke="#666666" points="108,-98 108,-98 210,-98 210,-98 108,-98"/>
<polygon fill="none" stroke="#666666" points="108,0 108,-132 210,-132 210,0 108,0"/>
</a>
</g>
</g>
<!-- Node1&#45;&gt;Node3 -->
<g id="edge2_Node000001_Node000003" class="edge">
<title>Node1&#45;&gt;Node3</title>
<g id="a_edge2_Node000001_Node000003"><a xlink:title=" ">
<path fill="none" stroke="#63b8ff" d="M159,-156.89C159,-148.36 159,-139.88 159,-131.73"/>
<polygon fill="none" stroke="#63b8ff" points="155.5,-156.61 159,-166.61 162.5,-156.61 155.5,-156.61"/>
</a>
</g>
</g>
<!-- Node4 -->
<g id="Node000004" class="node">
<title>Node4</title>
<g id="a_Node000004"><a xlink:href="class_logistic_flow.html" target="_top" xlink:title="Implements a logistic flow with population limit.">
<polygon fill="white" stroke="none" points="312.38,-132 227.62,-132 227.62,0 312.38,0 312.38,-132"/>
<text xml:space="preserve" text-anchor="start" x="242.62" y="-118.25" font-family="Helvetica,sans-Serif" font-size="10.00">LogisticFlow</text>
<text xml:space="preserve" text-anchor="start" x="233.12" y="-102.25" font-family="Helvetica,sans-Serif" font-size="10.00">&#45;</text>
<text xml:space="preserve" text-anchor="start" x="241.62" y="-102.25" font-family="Helvetica,sans-Serif" font-size="10.00">pmax</text>
<text xml:space="preserve" text-anchor="start" x="231.62" y="-86.25" font-family="Helvetica,sans-Serif" font-size="10.00">+</text>
<text xml:space="preserve" text-anchor="start" x="241.62" y="-86.25" font-family="Helvetica,sans-Serif" font-size="10.00">LogisticFlow()</text>
<text xml:space="preserve" text-anchor="start" x="231.62" y="-70.25" font-family="Helvetica,sans-Serif" font-size="10.00">+</text>
<text xml:space="preserve" text-anchor="start" x="241.62" y="-70.25" font-family="Helvetica,sans-Serif" font-size="10.00">LogisticFlow()</text>
<text xml:space="preserve" text-anchor="start" x="231.62" y="-54.25" font-family="Helvetica,sans-Serif" font-size="10.00">+</text>
<text xml:space="preserve" text-anchor="start" x="241.62" y="-54.25" font-family="Helvetica,sans-Serif" font-size="10.00">~LogisticFlow()</text>
<text xml:space="preserve" text-anchor="start" x="231.62" y="-38.25" font-family="Helvetica,sans-Serif" font-size="10.00">+</text>
<text xml:space="preserve" text-anchor="start" x="241.62" y="-38.25" font-family="Helvetica,sans-Serif" font-size="10.00">LogisticFlow()</text>
<text xml:space="preserve" text-anchor="start" x="231.62" y="-22.25" font-family="Helvetica,sans-Serif" font-size="10.00">+</text>
<text xml:space="preserve" text-anchor="start" x="241.62" y="-22.25" font-family="Helvetica,sans-Serif" font-size="10.00">operator=()</text>
<text xml:space="preserve" text-anchor="start" x="231.62" y="-6.25" font-family="Helvetica,sans-Serif" font-size="10.00">+</text>
<text xml:space="preserve" text-anchor="start" x="241.62" y="-6.25" font-family="Helvetica,sans-Serif" font-size="10.00">execute()</text>
<polygon fill="#666666" stroke="#666666" points="227.62,-114 227.62,-114 312.38,-114 312.38,-114 227.62,-114"/>
<polygon fill="#666666" stroke="#666666" points="227.62,-98 227.62,-98 239.62,-98 239.62,-98 227.62,-98"/>
<polygon fill="#666666" stroke="#666666" points="239.62,-98 239.62,-98 312.38,-98 312.38,-98 239.62,-98"/>
<polygon fill="none" stroke="#666666" points="227.62,0 227.62,-132 312.38,-132 312.38,0 227.62,0"/>
</a>
</g>
</g>
<!-- Node1&#45;&gt;Node4 -->
<g id="edge3_Node000001_Node000004" class="edge">
<title>Node1&#45;&gt;Node4</title>
<g id="a_edge3_Node000001_Node000004"><a xlink:title=" ">
<path fill="none" stroke="#63b8ff" d="M198.81,-188.85C209.67,-170.27 221.39,-150.2 232.13,-131.82"/>
<polygon fill="none" stroke="#63b8ff" points="195.84,-187 193.82,-197.4 201.89,-190.53 195.84,-187"/>
</a>
</g>
</g>
</g>
</svg>
</svg>

<style type='text/css'>
<![CDATA[
[data-mouse-over-selected='false'] { opacity: 0.7; }
[data-mouse-over-selected='true']  { opacity: 1.0; }
]]>
</style>
<script type="application/ecmascript"><![CDATA[
document.addEventListener('DOMContentLoaded', (event) => {
  highlightEdges();
  highlightAdjacentNodes();
});
]]></script>
</svg>
