<?xml version="1.0" encoding="UTF-8" standalone="no"?>
<!DOCTYPE svg PUBLIC "-//W3C//DTD SVG 1.1//EN"
 "http://www.w3.org/Graphics/SVG/1.1/DTD/svg11.dtd">
<!-- Generated by graphviz version 14.1.5 (20260411.2331)
 -->
<!-- Title: ExponentialFlow::~ExponentialFlow Pages: 1 -->
<svg width="664pt" height="40pt"
 viewBox="0.00 0.00 664.00 40.00" xmlns="http://www.w3.org/2000/svg" xmlns:xlink="http://www.w3.org/1999/xlink">
<g id="graph0" class="graph" transform="scale(1 1) rotate(0) translate(4 36)">
<title>ExponentialFlow::~ExponentialFlow</title>
<!-- Node1 -->
<g id="Node000001" class="node">
<title>Node1</title>
<g id="a_Node000001"><a xlink:title=" ">
<polygon fill="#999999" stroke="#666666" points="172,-26 0,-26 0,-6 172,-6 172,-26"/>
<text xml:space="preserve" text-anchor="middle" x="86" y="-12.5" font-family="Helvetica,sans-Serif" font-size="10.00">ExponentialFlow::~ExponentialFlow</text>
</a>
</g>
</g>
<!-- Node2 -->
<g id="Node000002" class="node">
<title>Node2</title>
<g id="a_Node000002"><a xlink:href="class_exponential_flow.html#a1f981db78e6635fd9837648960d8dc8d" target="_top" xlink:title=" ">
<polygon fill="white" stroke="#666666" points="374,-26 208,-26 208,-6 374,-6 374,-26"/>
<text xml:space="preserve" text-anchor="middle" x="291" y="-12.5" font-family="Helvetica,sans-Serif" font-size="10.00">ExponentialFlow::ExponentialFlow</text>
</a>
</g>
</g>
<!-- Node1&#45;&gt;Node2 -->
<g id="edge1_Node000001_Node000002" class="edge">
<title>Node1&#45;&gt;Node2</title>
<g id="a_edge1_Node000001_Node000002"><a xlink:title=" ">
<path fill="none" stroke="#63b8ff" d="M172.21,-16C180.17,-16 188.27,-16 196.31,-16"/>
<polygon fill="#63b8ff" stroke="#63b8ff" points="196.09,-19.5 206.09,-16 196.09,-12.5 196.09,-19.5"/>
</a>
</g>
</g>
<!-- Node3 -->
<g id="Node000003" class="node">
<title>Node3</title>
<g id="a_Node000003"><a xlink:href="class_flow_impl.html#aa835ccb3c368c683aa95d660175a298b" target="_top" xlink:title=" ">
<polygon fill="white" stroke="#666666" points="511.5,-26 410,-26 410,-6 511.5,-6 511.5,-26"/>
<text xml:space="preserve" text-anchor="middle" x="460.75" y="-12.5" font-family="Helvetica,sans-Serif" font-size="10.00">FlowImpl::FlowImpl</text>
</a>
</g>
</g>
<!-- Node2&#45;&gt;Node3 -->
<g id="edge2_Node000002_Node000003" class="edge">
<title>Node2&#45;&gt;Node3</title>
<g id="a_edge2_Node000002_Node000003"><a xlink:title=" ">
<path fill="none" stroke="#63b8ff" d="M374.4,-16C382.53,-16 390.67,-16 398.53,-16"/>
<polygon fill="#63b8ff" stroke="#63b8ff" points="398.29,-19.5 408.29,-16 398.29,-12.5 398.29,-19.5"/>
</a>
</g>
</g>
<!-- Node4 -->
<g id="Node000004" class="node">
<title>Node4</title>
<g id="a_Node000004"><a xlink:href="class_handle.html#a6a72028918adf79c0ff8d9996e5e4107" target="_top" xlink:title=" ">
<polygon fill="white" stroke="#666666" points="655.75,-32 547.5,-32 547.5,0 655.75,0 655.75,-32"/>
<text xml:space="preserve" text-anchor="start" x="555.5" y="-18.5" font-family="Helvetica,sans-Serif" font-size="10.00">Handle&lt; FlowBody &gt;</text>
<text xml:space="preserve" text-anchor="middle" x="601.62" y="-6.5" font-family="Helvetica,sans-Serif" font-size="10.00">::Handle</text>
</a>
</g>
</g>
<!-- Node3&#45;&gt;Node4 -->
<g id="edge3_Node000003_Node000004" class="edge">
<title>Node3&#45;&gt;Node4</title>
<g id="a_edge3_Node000003_Node000004"><a xlink:title=" ">
<path fill="none" stroke="#63b8ff" d="M511.89,-16C519.7,-16 527.87,-16 535.96,-16"/>
<polygon fill="#63b8ff" stroke="#63b8ff" points="535.77,-19.5 545.77,-16 535.77,-12.5 535.77,-19.5"/>
</a>
</g>
</g>
</g>
</svg>
