<?xml version="1.0" encoding="UTF-8" standalone="no"?>
<!DOCTYPE svg PUBLIC "-//W3C//DTD SVG 1.1//EN"
 "http://www.w3.org/Graphics/SVG/1.1/DTD/svg11.dtd">
<!-- Generated by graphviz version 14.1.5 (20260411.2331)
 -->
<!-- Title: System::System Pages: 1 -->
<svg width="231pt" height="104pt"
 viewBox="0.00 0.00 231.00 104.00" xmlns="http://www.w3.org/2000/svg" xmlns:xlink="http://www.w3.org/1999/xlink">
<g id="graph0" class="graph" transform="scale(1 1) rotate(0) translate(4 100)">
<title>System::System</title>
<!-- Node1 -->
<g id="Node000001" class="node">
<title>Node1</title>
<g id="a_Node000001"><a xlink:title="Default constructor of the System class.">
<polygon fill="#999999" stroke="#666666" points="222.5,-58 133,-58 133,-38 222.5,-38 222.5,-58"/>
<text xml:space="preserve" text-anchor="middle" x="177.75" y="-44.5" font-family="Helvetica,sans-Serif" font-size="10.00">System::System</text>
</a>
</g>
</g>
<!-- Node2 -->
<g id="Node000002" class="node">
<title>Node2</title>
<g id="a_Node000002"><a xlink:href="class_system.html#ac6422081d08c3ac145a6d7c6d9f5bae7" target="_top" xlink:title="Assignment operator.">
<polygon fill="white" stroke="#666666" points="97,-96 0,-96 0,-76 97,-76 97,-96"/>
<text xml:space="preserve" text-anchor="middle" x="48.5" y="-82.5" font-family="Helvetica,sans-Serif" font-size="10.00">System::operator=</text>
</a>
</g>
</g>
<!-- Node1&#45;&gt;Node2 -->
<g id="edge1_Node000001_Node000002" class="edge">
<title>Node1&#45;&gt;Node2</title>
<g id="a_edge1_Node000001_Node000002"><a xlink:title=" ">
<path fill="none" stroke="#63b8ff" d="M130.84,-61.71C115.56,-66.27 98.81,-71.28 84.49,-75.55"/>
<polygon fill="#63b8ff" stroke="#63b8ff" points="131.61,-65.13 140.19,-58.92 129.61,-58.43 131.61,-65.13"/>
</a>
</g>
</g>
<!-- Node3 -->
<g id="Node000003" class="node">
<title>Node3</title>
<g id="a_Node000003"><a xlink:href="class_system.html#ae95d7374f80fdfaee096e95c1abc438c" target="_top" xlink:title="Copy constructor.">
<polygon fill="white" stroke="#666666" points="93.25,-58 3.75,-58 3.75,-38 93.25,-38 93.25,-58"/>
<text xml:space="preserve" text-anchor="middle" x="48.5" y="-44.5" font-family="Helvetica,sans-Serif" font-size="10.00">System::System</text>
</a>
</g>
</g>
<!-- Node1&#45;&gt;Node3 -->
<g id="edge2_Node000001_Node000003" class="edge">
<title>Node1&#45;&gt;Node3</title>
<g id="a_edge2_Node000001_Node000003"><a xlink:title=" ">
<path fill="none" stroke="#63b8ff" d="M121.11,-48C111.89,-48 102.45,-48 93.57,-48"/>
<polygon fill="#63b8ff" stroke="#63b8ff" points="121.09,-51.5 131.09,-48 121.09,-44.5 121.09,-51.5"/>
</a>
</g>
</g>
<!-- Node4 -->
<g id="Node000004" class="node">
<title>Node4</title>
<g id="a_Node000004"><a xlink:href="class_system.html#a3be70bb338e3f062f821173fd15680d0" target="_top" xlink:title="Virtual destructor.">
<polygon fill="white" stroke="#666666" points="96.25,-20 0.75,-20 0.75,0 96.25,0 96.25,-20"/>
<text xml:space="preserve" text-anchor="middle" x="48.5" y="-6.5" font-family="Helvetica,sans-Serif" font-size="10.00">System::~System</text>
</a>
</g>
</g>
<!-- Node1&#45;&gt;Node4 -->
<g id="edge3_Node000001_Node000004" class="edge">
<title>Node1&#45;&gt;Node4</title>
<g id="a_edge3_Node000001_Node000004"><a xlink:title=" ">
<path fill="none" stroke="#63b8ff" d="M130.84,-34.29C115.56,-29.73 98.81,-24.72 84.49,-20.45"/>
<polygon fill="#63b8ff" stroke="#63b8ff" points="129.61,-37.57 140.19,-37.08 131.61,-30.87 129.61,-37.57"/>
</a>
</g>
</g>
</g>
</svg>
