<?xml version="1.0" encoding="UTF-8" standalone="no"?>
<!DOCTYPE svg PUBLIC "-//W3C//DTD SVG 1.1//EN"
 "http://www.w3.org/Graphics/SVG/1.1/DTD/svg11.dtd">
<!-- Generated by graphviz version 14.1.5 (20260411.2331)
 -->
<!-- Title: LogisticFlow Pages: 1 -->
<svg width="93pt" height="356pt"
 viewBox="0.00 0.00 93.00 356.00" xmlns="http://www.w3.org/2000/svg" xmlns:xlink="http://www.w3.org/1999/xlink">
<g id="graph0" class="graph" transform="scale(1 1) rotate(0) translate(4 352)">
<title>LogisticFlow</title>
<!-- Node1 -->
<g id="Node000001" class="node">
<title>Node1</title>
<g id="a_Node000001"><a xlink:title="Implements a logistic flow with population limit.">
<polygon fill="#999999" stroke="none" points="84.75,-132 0,-132 0,0 84.75,0 84.75,-132"/>
<text xml:space="preserve" text-anchor="start" x="15" y="-118.25" font-family="Helvetica,sans-Serif" font-size="10.00">LogisticFlow</text>
<text xml:space="preserve" text-anchor="start" x="5.5" y="-102.25" font-family="Helvetica,sans-Serif" font-size="10.00">&#45;</text>
<text xml:space="preserve" text-anchor="start" x="14" y="-102.25" font-family="Helvetica,sans-Serif" font-size="10.00">pmax</text>
<text xml:space="preserve" text-anchor="start" x="4" y="-86.25" font-family="Helvetica,sans-Serif" font-size="10.00">+</text>
<text xml:space="preserve" text-anchor="start" x="14" y="-86.25" font-family="Helvetica,sans-Serif" font-size="10.00">LogisticFlow()</text>
<text xml:space="preserve" text-anchor="start" x="4" y="-70.25" font-family="Helvetica,sans-Serif" font-size="10.00">+</text>
<text xml:space="preserve" text-anchor="start" x="14" y="-70.25" font-family="Helvetica,sans-Serif" font-size="10.00">LogisticFlow()</text>
<text xml:space="preserve" text-anchor="start" x="4" y="-54.25" font-family="Helvetica,sans-Serif" font-size="10.00">+</text>
<text xml:space="preserve" text-anchor="start" x="14" y="-54.25" font-family="Helvetica,sans-Serif" font-size="10.00">~LogisticFlow()</text>
<text xml:space="preserve" text-anchor="start" x="4" y="-38.25" font-family="Helvetica,sans-Serif" font-size="10.00">+</text>
<text xml:space="preserve" text-anchor="start" x="14" y="-38.25" font-family="Helvetica,sans-Serif" font-size="10.00">LogisticFlow()</text>
<text xml:space="preserve" text-anchor="start" x="4" y="-22.25" font-family="Helvetica,sans-Serif" font-size="10.00">+</text>
<text xml:space="preserve" text-anchor="start" x="14" y="-22.25" font-family="Helvetica,sans-Serif" font-size="10.00">operator=()</text>
<text xml:space="preserve" text-anchor="start" x="4" y="-6.25" font-family="Helvetica,sans-Serif" font-size="10.00">+</text>
<text xml:space="preserve" text-anchor="start" x="14" y="-6.25" font-family="Helvetica,sans-Serif" font-size="10.00">execute()</text>
<polygon fill="#666666" stroke="#666666" points="0,-114 0,-114 84.75,-114 84.75,-114 0,-114"/>
<polygon fill="#666666" stroke="#666666" points="0,-98 0,-98 12,-98 12,-98 0,-98"/>
<polygon fill="#666666" stroke="#666666" points="12,-98 12,-98 84.75,-98 84.75,-98 12,-98"/>
<polygon fill="none" stroke="#666666" points="0,0 0,-132 84.75,-132 84.75,0 0,0"/>
</a>
</g>
</g>
<!-- Node2 -->
<g id="Node000002" class="node">
<title>Node2</title>
<g id="a_Node000002"><a xlink:href="class_flow.html" target="_top" xlink:title="Abstract class that represents a flow between systems.">
<polygon fill="white" stroke="none" points="76.5,-348 8.25,-348 8.25,-168 76.5,-168 76.5,-348"/>
<text xml:space="preserve" text-anchor="start" x="31.88" y="-334.25" font-family="Helvetica,sans-Serif" font-size="10.00">Flow</text>
<text xml:space="preserve" text-anchor="start" x="12.62" y="-318.25" font-family="Helvetica,sans-Serif" font-size="10.00">#</text>
<text xml:space="preserve" text-anchor="start" x="22.25" y="-318.25" font-family="Helvetica,sans-Serif" font-size="10.00">source</text>
<text xml:space="preserve" text-anchor="start" x="12.62" y="-302.25" font-family="Helvetica,sans-Serif" font-size="10.00">#</text>
<text xml:space="preserve" text-anchor="start" x="22.25" y="-302.25" font-family="Helvetica,sans-Serif" font-size="10.00">sink</text>
<text xml:space="preserve" text-anchor="start" x="12.25" y="-286.25" font-family="Helvetica,sans-Serif" font-size="10.00">+</text>
<text xml:space="preserve" text-anchor="start" x="22.25" y="-286.25" font-family="Helvetica,sans-Serif" font-size="10.00">Flow()</text>
<text xml:space="preserve" text-anchor="start" x="12.25" y="-270.25" font-family="Helvetica,sans-Serif" font-size="10.00">+</text>
<text xml:space="preserve" text-anchor="start" x="22.25" y="-270.25" font-family="Helvetica,sans-Serif" font-size="10.00">Flow()</text>
<text xml:space="preserve" text-anchor="start" x="12.25" y="-254.25" font-family="Helvetica,sans-Serif" font-size="10.00">+</text>
<text xml:space="preserve" text-anchor="start" x="22.25" y="-254.25" font-family="Helvetica,sans-Serif" font-size="10.00">~Flow()</text>
<text xml:space="preserve" text-anchor="start" x="12.25" y="-238.25" font-family="Helvetica,sans-Serif" font-size="10.00">+</text>
<text xml:space="preserve" text-anchor="start" x="22.25" y="-238.25" font-family="Helvetica,sans-Serif" font-size="10.00">Flow()</text>
<text xml:space="preserve" text-anchor="start" x="12.25" y="-222.25" font-family="Helvetica,sans-Serif" font-size="10.00">+</text>
<text xml:space="preserve" text-anchor="start" x="22.25" y="-222.25" font-family="Helvetica,sans-Serif" font-size="10.00">operator=()</text>
<text xml:space="preserve" text-anchor="start" x="12.25" y="-206.25" font-family="Helvetica,sans-Serif" font-size="10.00">+</text>
<text xml:space="preserve" text-anchor="start" x="22.25" y="-206.25" font-family="Helvetica,sans-Serif" font-size="10.00">execute()</text>
<text xml:space="preserve" text-anchor="start" x="12.25" y="-190.25" font-family="Helvetica,sans-Serif" font-size="10.00">+</text>
<text xml:space="preserve" text-anchor="start" x="22.25" y="-190.25" font-family="Helvetica,sans-Serif" font-size="10.00">getSource()</text>
<text xml:space="preserve" text-anchor="start" x="12.25" y="-174.25" font-family="Helvetica,sans-Serif" font-size="10.00">+</text>
<text xml:space="preserve" text-anchor="start" x="22.25" y="-174.25" font-family="Helvetica,sans-Serif" font-size="10.00">getSink()</text>
<polygon fill="#666666" stroke="#666666" points="8.25,-330 8.25,-330 76.5,-330 76.5,-330 8.25,-330"/>
<polygon fill="#666666" stroke="#666666" points="8.25,-298 8.25,-298 20.25,-298 20.25,-298 8.25,-298"/>
<polygon fill="#666666" stroke="#666666" points="20.25,-298 20.25,-298 76.5,-298 76.5,-298 20.25,-298"/>
<polygon fill="none" stroke="#666666" points="8.25,-168 8.25,-348 76.5,-348 76.5,-168 8.25,-168"/>
</a>
</g>
</g>
<!-- Node2&#45;&gt;Node1 -->
<g id="edge1_Node000001_Node000002" class="edge">
<title>Node2&#45;&gt;Node1</title>
<g id="a_edge1_Node000001_Node000002"><a xlink:title=" ">
<path fill="none" stroke="#63b8ff" d="M42.38,-156.89C42.38,-148.36 42.38,-139.88 42.38,-131.73"/>
<polygon fill="none" stroke="#63b8ff" points="38.88,-156.61 42.38,-166.61 45.88,-156.61 38.88,-156.61"/>
</a>
</g>
</g>
</g>
</svg>
