<?xml version="1.0" encoding="UTF-8" standalone="no"?>
<!DOCTYPE svg PUBLIC "-//W3C//DTD SVG 1.1//EN"
 "http://www.w3.org/Graphics/SVG/1.1/DTD/svg11.dtd">
<!-- Generated by graphviz version 14.1.5 (20260411.2331)
 -->
<!-- Title: ExponentialFlow Pages: 1 -->
<!--zoomable 607 -->

<svg id="main" version="1.1" xmlns="http://www.w3.org/2000/svg" xmlns:xlink="http://www.w3.org/1999/xlink" xml:space="preserve" onload="init(evt)">

<style type="text/css"><![CDATA[
.node, .edge {opacity: 0.7;}
.node.selected, .edge.selected {opacity: 1;}
.edge:hover path { stroke: red; }
.edge:hover polygon { stroke: red; fill: red; }
]]></style>

<defs>
  <circle id="rim" cx="0" cy="0" r="7"/>
  <circle id="rim2" cx="0" cy="0" r="3.5"/>
  <g id="zoomPlus">
    <use xlink:href="#rim" fill="#404040"><set attributeName="fill" to="#808080" begin="zoomplus.mouseover" end="zoomplus.mouseout"/></use>
    <path d="M-4,0h8M0,-4v8" fill="none" stroke="white" stroke-width="1.5" pointer-events="none"/>
  </g>
  <g id="zoomMin">
    <use xlink:href="#rim" fill="#404040"><set attributeName="fill" to="#808080" begin="zoomminus.mouseover" end="zoomminus.mouseout"/></use>
    <path d="M-4,0h8" fill="none" stroke="white" stroke-width="1.5" pointer-events="none"/>
  </g>
  <g id="arrowUp" transform="translate(30 24)">
    <use xlink:href="#rim"/>
    <path pointer-events="none" fill="none" stroke="white" stroke-width="1.5" d="M0,-3.0v7 M-2.5,-0.5L0,-3.0L2.5,-0.5"/>
  </g>
  <g id="arrowRight" transform="rotate(90) translate(36 -43)">
    <use xlink:href="#rim"/>
    <path pointer-events="none" fill="none" stroke="white" stroke-width="1.5" d="M0,-3.0v7 M-2.5,-0.5L0,-3.0L2.5,-0.5"/>
  </g>
  <g id="arrowDown" transform="rotate(180) translate(-30 -48)">
    <use xlink:href="#rim"/>
    <path pointer-events="none" fill="none" stroke="white" stroke-width="1.5" d="M0,-3.0v7 M-2.5,-0.5L0,-3.0L2.5,-0.5"/>
  </g>
  <g id="arrowLeft" transform="rotate(270) translate(-36 17)">
    <use xlink:href="#rim"/>
    <path pointer-events="none" fill="none" stroke="white" stroke-width="1.5" d="M0,-3.0v7 M-2.5,-0.5L0,-3.0L2.5,-0.5"/>
  </g>
  <g id="resetDef">
    <use xlink:href="#rim2" fill="#404040"><set attributeName="fill" to="#808080" begin="reset.mouseover" end="reset.mouseout"/></use>
  </g>
</defs>
<script type="application/ecmascript">
var viewWidth = 110;
var viewHeight = 607;
var sectionId = 'dynsection-1';
</script>
<script type="application/ecmascript" xlink:href="svg.min.js"/>
<svg id="graph" class="graph">
<g id="viewport">
<title>ExponentialFlow</title>
<!-- Node1 -->
<g id="Node000001" class="node">
<title>Node1</title>
<g id="a_Node000001"><a xlink:title="Implements a flow with exponential growth.">
<polygon fill="#999999" stroke="none" points="102,-132 0,-132 0,0 102,0 102,-132"/>
<text xml:space="preserve" text-anchor="start" x="15" y="-118.25" font-family="Helvetica,sans-Serif" font-size="10.00">ExponentialFlow</text>
<text xml:space="preserve" text-anchor="start" x="49.5" y="-102.25" font-family="Helvetica,sans-Serif" font-size="10.00"> </text>
<text xml:space="preserve" text-anchor="start" x="4" y="-86.25" font-family="Helvetica,sans-Serif" font-size="10.00">+</text>
<text xml:space="preserve" text-anchor="start" x="14" y="-86.25" font-family="Helvetica,sans-Serif" font-size="10.00">ExponentialFlow()</text>
<text xml:space="preserve" text-anchor="start" x="4" y="-70.25" font-family="Helvetica,sans-Serif" font-size="10.00">+</text>
<text xml:space="preserve" text-anchor="start" x="14" y="-70.25" font-family="Helvetica,sans-Serif" font-size="10.00">ExponentialFlow()</text>
<text xml:space="preserve" text-anchor="start" x="4" y="-54.25" font-family="Helvetica,sans-Serif" font-size="10.00">+</text>
<text xml:space="preserve" text-anchor="start" x="14" y="-54.25" font-family="Helvetica,sans-Serif" font-size="10.00">~ExponentialFlow()</text>
<text xml:space="preserve" text-anchor="start" x="4" y="-38.25" font-family="Helvetica,sans-Serif" font-size="10.00">+</text>
<text xml:space="preserve" text-anchor="start" x="14" y="-38.25" font-family="Helvetica,sans-Serif" font-size="10.00">ExponentialFlow()</text>
<text xml:space="preserve" text-anchor="start" x="4" y="-22.25" font-family="Helvetica,sans-Serif" font-size="10.00">+</text>
<text xml:space="preserve" text-anchor="start" x="14" y="-22.25" font-family="Helvetica,sans-Serif" font-size="10.00">operator=()</text>
<text xml:space="preserve" text-anchor="start" x="4" y="-6.25" font-family="Helvetica,sans-Serif" font-size="10.00">+</text>
<text xml:space="preserve" text-anchor="start" x="14" y="-6.25" font-family="Helvetica,sans-Serif" font-size="10.00">execute()</text>
<polygon fill="#666666" stroke="#666666" points="0,-114 0,-114 102,-114 102,-114 0,-114"/>
<polygon fill="#666666" stroke="#666666" points="0,-98 0,-98 102,-98 102,-98 0,-98"/>
<polygon fill="none" stroke="#666666" points="0,0 0,-132 102,-132 102,0 0,0"/>
</a>
</g>
</g>
<!-- Node2 -->
<g id="Node000002" class="node">
<title>Node2</title>
<g id="a_Node000002"><a xlink:href="class_flow.html" target="_top" xlink:title="Abstract class that represents a flow between systems.">
<polygon fill="white" stroke="none" points="85.12,-333 16.88,-333 16.88,-169 85.12,-169 85.12,-333"/>
<text xml:space="preserve" text-anchor="start" x="40.5" y="-319.25" font-family="Helvetica,sans-Serif" font-size="10.00">Flow</text>
<text xml:space="preserve" text-anchor="start" x="49.5" y="-303.25" font-family="Helvetica,sans-Serif" font-size="10.00"> </text>
<text xml:space="preserve" text-anchor="start" x="20.88" y="-287.25" font-family="Helvetica,sans-Serif" font-size="10.00">+</text>
<text xml:space="preserve" text-anchor="start" x="30.88" y="-287.25" font-family="Helvetica,sans-Serif" font-size="10.00">Flow()</text>
<text xml:space="preserve" text-anchor="start" x="20.88" y="-271.25" font-family="Helvetica,sans-Serif" font-size="10.00">+</text>
<text xml:space="preserve" text-anchor="start" x="30.88" y="-271.25" font-family="Helvetica,sans-Serif" font-size="10.00">Flow()</text>
<text xml:space="preserve" text-anchor="start" x="20.88" y="-255.25" font-family="Helvetica,sans-Serif" font-size="10.00">+</text>
<text xml:space="preserve" text-anchor="start" x="30.88" y="-255.25" font-family="Helvetica,sans-Serif" font-size="10.00">~Flow()</text>
<text xml:space="preserve" text-anchor="start" x="20.88" y="-239.25" font-family="Helvetica,sans-Serif" font-size="10.00">+</text>
<text xml:space="preserve" text-anchor="start" x="30.88" y="-239.25" font-family="Helvetica,sans-Serif" font-size="10.00">Flow()</text>
<text xml:space="preserve" text-anchor="start" x="20.88" y="-223.25" font-family="Helvetica,sans-Serif" font-size="10.00">+</text>
<text xml:space="preserve" text-anchor="start" x="30.88" y="-223.25" font-family="Helvetica,sans-Serif" font-size="10.00">operator=()</text>
<text xml:space="preserve" text-anchor="start" x="20.88" y="-207.25" font-family="Helvetica,sans-Serif" font-size="10.00">+</text>
<text xml:space="preserve" text-anchor="start" x="30.88" y="-207.25" font-family="Helvetica,sans-Serif" font-size="10.00">execute()</text>
<text xml:space="preserve" text-anchor="start" x="20.88" y="-191.25" font-family="Helvetica,sans-Serif" font-size="10.00">+</text>
<text xml:space="preserve" text-anchor="start" x="30.88" y="-191.25" font-family="Helvetica,sans-Serif" font-size="10.00">getSource()</text>
<text xml:space="preserve" text-anchor="start" x="20.88" y="-175.25" font-family="Helvetica,sans-Serif" font-size="10.00">+</text>
<text xml:space="preserve" text-anchor="start" x="30.88" y="-175.25" font-family="Helvetica,sans-Serif" font-size="10.00">getSink()</text>
<polygon fill="#666666" stroke="#666666" points="16.88,-315 16.88,-315 85.12,-315 85.12,-315 16.88,-315"/>
<polygon fill="#666666" stroke="#666666" points="16.88,-299 16.88,-299 85.12,-299 85.12,-299 16.88,-299"/>
<polygon fill="none" stroke="#666666" points="16.88,-169 16.88,-333 85.12,-333 85.12,-169 16.88,-169"/>
</a>
</g>
</g>
<!-- Node2&#45;&gt;Node1 -->
<g id="edge1_Node000001_Node000002" class="edge">
<title>Node2&#45;&gt;Node1</title>
<g id="a_edge1_Node000001_Node000002"><a xlink:title=" ">
<path fill="none" stroke="#63b8ff" d="M51,-157.78C51,-149.07 51,-140.37 51,-131.99"/>
<polygon fill="none" stroke="#63b8ff" points="47.5,-157.69 51,-167.69 54.5,-157.69 47.5,-157.69"/>
</a>
</g>
</g>
<!-- Node3 -->
<g id="Node000003" class="node">
<title>Node3</title>
<g id="a_Node000003"><a xlink:href="class_system.html" target="_top" xlink:title="Represents a system with variable state in the simulation.">
<polygon fill="white" stroke="none" points="83.62,-599 18.38,-599 18.38,-403 83.62,-403 83.62,-599"/>
<text xml:space="preserve" text-anchor="start" x="34.12" y="-585.25" font-family="Helvetica,sans-Serif" font-size="10.00">System</text>
<text xml:space="preserve" text-anchor="start" x="23.88" y="-569.25" font-family="Helvetica,sans-Serif" font-size="10.00">&#45;</text>
<text xml:space="preserve" text-anchor="start" x="32.38" y="-569.25" font-family="Helvetica,sans-Serif" font-size="10.00">name</text>
<text xml:space="preserve" text-anchor="start" x="23.88" y="-553.25" font-family="Helvetica,sans-Serif" font-size="10.00">&#45;</text>
<text xml:space="preserve" text-anchor="start" x="32.38" y="-553.25" font-family="Helvetica,sans-Serif" font-size="10.00">value</text>
<text xml:space="preserve" text-anchor="start" x="22.38" y="-537.25" font-family="Helvetica,sans-Serif" font-size="10.00">+</text>
<text xml:space="preserve" text-anchor="start" x="32.38" y="-537.25" font-family="Helvetica,sans-Serif" font-size="10.00">System()</text>
<text xml:space="preserve" text-anchor="start" x="22.38" y="-521.25" font-family="Helvetica,sans-Serif" font-size="10.00">+</text>
<text xml:space="preserve" text-anchor="start" x="32.38" y="-521.25" font-family="Helvetica,sans-Serif" font-size="10.00">System()</text>
<text xml:space="preserve" text-anchor="start" x="22.38" y="-505.25" font-family="Helvetica,sans-Serif" font-size="10.00">+</text>
<text xml:space="preserve" text-anchor="start" x="32.38" y="-505.25" font-family="Helvetica,sans-Serif" font-size="10.00">~System()</text>
<text xml:space="preserve" text-anchor="start" x="22.38" y="-489.25" font-family="Helvetica,sans-Serif" font-size="10.00">+</text>
<text xml:space="preserve" text-anchor="start" x="32.38" y="-489.25" font-family="Helvetica,sans-Serif" font-size="10.00">System()</text>
<text xml:space="preserve" text-anchor="start" x="22.38" y="-473.25" font-family="Helvetica,sans-Serif" font-size="10.00">+</text>
<text xml:space="preserve" text-anchor="start" x="32.38" y="-473.25" font-family="Helvetica,sans-Serif" font-size="10.00">operator=()</text>
<text xml:space="preserve" text-anchor="start" x="22.38" y="-457.25" font-family="Helvetica,sans-Serif" font-size="10.00">+</text>
<text xml:space="preserve" text-anchor="start" x="32.38" y="-457.25" font-family="Helvetica,sans-Serif" font-size="10.00">setName()</text>
<text xml:space="preserve" text-anchor="start" x="22.38" y="-441.25" font-family="Helvetica,sans-Serif" font-size="10.00">+</text>
<text xml:space="preserve" text-anchor="start" x="32.38" y="-441.25" font-family="Helvetica,sans-Serif" font-size="10.00">setValue()</text>
<text xml:space="preserve" text-anchor="start" x="22.38" y="-425.25" font-family="Helvetica,sans-Serif" font-size="10.00">+</text>
<text xml:space="preserve" text-anchor="start" x="32.38" y="-425.25" font-family="Helvetica,sans-Serif" font-size="10.00">getName()</text>
<text xml:space="preserve" text-anchor="start" x="22.38" y="-409.25" font-family="Helvetica,sans-Serif" font-size="10.00">+</text>
<text xml:space="preserve" text-anchor="start" x="32.38" y="-409.25" font-family="Helvetica,sans-Serif" font-size="10.00">getValue()</text>
<polygon fill="#666666" stroke="#666666" points="18.38,-581 18.38,-581 83.62,-581 83.62,-581 18.38,-581"/>
<polygon fill="#666666" stroke="#666666" points="18.38,-549 18.38,-549 30.38,-549 30.38,-549 18.38,-549"/>
<polygon fill="#666666" stroke="#666666" points="30.38,-549 30.38,-549 83.62,-549 83.62,-549 30.38,-549"/>
<polygon fill="none" stroke="#666666" points="18.38,-403 18.38,-599 83.62,-599 83.62,-403 18.38,-403"/>
</a>
</g>
</g>
<!-- Node3&#45;&gt;Node2 -->
<g id="edge2_Node000002_Node000003" class="edge">
<title>Node3&#45;&gt;Node2</title>
<g id="a_edge2_Node000002_Node000003"><a xlink:title=" ">
<path fill="none" stroke="#63b8ff" d="M51,-403.05C51,-384.18 51,-364.42 51,-345.66"/>
<polygon fill="none" stroke="#63b8ff" points="51,-345.75 47,-339.75 51,-333.75 55,-339.75 51,-345.75"/>
</a>
</g>
<text xml:space="preserve" text-anchor="start" x="54" y="-372.25" font-family="Helvetica,sans-Serif" font-size="10.00" fill="grey">#sink</text>
<text xml:space="preserve" text-anchor="start" x="54" y="-356.25" font-family="Helvetica,sans-Serif" font-size="10.00" fill="grey">#source</text>
</g>
</g>
</svg>

<g id="navigator" transform="translate(0 0)" fill="#404254">
  <rect fill="#f2f5e9" fill-opacity="0.5" stroke="#606060" stroke-width=".5" x="0" y="0" width="60" height="60"/>
  <use id="zoomplus" xlink:href="#zoomPlus" x="17" y="9" onmousedown="handleZoom(evt,'in')"/>
  <use id="zoomminus" xlink:href="#zoomMin" x="42" y="9" onmousedown="handleZoom(evt,'out')"/>
  <use id="reset" xlink:href="#resetDef" x="30" y="36" onmousedown="handleReset()"/>
   <use id="arrowup" xlink:href="#arrowUp" x="0" y="0" onmousedown="handlePan(0,-1)"/>
  <use id="arrowright" xlink:href="#arrowRight" x="0" y="0" onmousedown="handlePan(1,0)"/>
  <use id="arrowdown" xlink:href="#arrowDown" x="0" y="0" onmousedown="handlePan(0,1)"/>
  <use id="arrowleft" xlink:href="#arrowLeft" x="0" y="0" onmousedown="handlePan(-1,0)"/>
</g>
<svg viewBox="0 0 15 15" width="100%" height="30px" preserveAspectRatio="xMaxYMin meet">
 <g id="arrow_out" transform="scale(0.3 0.3)">
  <a xlink:href="class_exponential_flow__coll__graph_org.svg" target="_base">
   <rect id="button" ry="5" rx="5" y="6" x="6" height="38" width="38"
        fill="#f2f5e9" fill-opacity="0.5" stroke="#606060" stroke-width="1.0"/>
   <path id="arrow"
     d="M 11.500037,31.436501 C 11.940474,20.09759 22.043105,11.32322 32.158766,21.979434 L 37.068811,17.246167 C 37.068811,17.246167 37.088388,32 37.088388,32 L 22.160133,31.978069 C 22.160133,31.978069 26.997745,27.140456 26.997745,27.140456 C 18.528582,18.264221 13.291696,25.230495 11.500037,31.436501 z"
     style="fill:#404040;"/>
  </a>
 </g>
</svg>

<style type='text/css'>
<![CDATA[
[data-mouse-over-selected='false'] { opacity: 0.7; }
[data-mouse-over-selected='true']  { opacity: 1.0; }
]]>
</style>
<script type="application/ecmascript"><![CDATA[
document.addEventListener('DOMContentLoaded', (event) => {
  highlightEdges();
  highlightAdjacentNodes();
});
]]></script>
</svg>
