<?xml version="1.0" encoding="UTF-8" standalone="no"?>
<!DOCTYPE svg PUBLIC "-//W3C//DTD SVG 1.1//EN"
 "http://www.w3.org/Graphics/SVG/1.1/DTD/svg11.dtd">
<!-- Generated by graphviz version 14.1.5 (20260411.2331)
 -->
<!-- Title: LogisticFlow::operator= Pages: 1 -->
<svg width="394pt" height="66pt"
 viewBox="0.00 0.00 394.00 66.00" xmlns="http://www.w3.org/2000/svg" xmlns:xlink="http://www.w3.org/1999/xlink">

<svg id="main" version="1.1" xmlns="http://www.w3.org/2000/svg" xmlns:xlink="http://www.w3.org/1999/xlink" xml:space="preserve">

<style type="text/css"><![CDATA[
.node, .edge {opacity: 0.7;}
.node.selected, .edge.selected {opacity: 1;}
.edge:hover path { stroke: red; }
.edge:hover polygon { stroke: red; fill: red; }
]]></style>
<script type="application/ecmascript" xlink:href="svg.min.js"/>
<svg id="graph" class="graph">
<g id="graph0" class="graph" transform="scale(1 1) rotate(0) translate(4 62)">
<title>LogisticFlow::operator=</title>
<!-- Node1 -->
<g id="Node000001" class="node">
<title>Node1</title>
<g id="a_Node000001"><a xlink:title="Assignment operator.">
<polygon fill="#999999" stroke="#666666" points="118,-39 0,-39 0,-19 118,-19 118,-39"/>
<text xml:space="preserve" text-anchor="middle" x="59" y="-25.5" font-family="Helvetica,sans-Serif" font-size="10.00">LogisticFlow::operator=</text>
</a>
</g>
</g>
<!-- Node2 -->
<g id="Node000002" class="node">
<title>Node2</title>
<g id="a_Node000002"><a xlink:href="class_logistic_flow.html#ab0f7906cfe1a27e18a4f558124e53ee0" target="_top" xlink:title="Default constructor.">
<polygon fill="white" stroke="#666666" points="285.5,-58 154,-58 154,-38 285.5,-38 285.5,-58"/>
<text xml:space="preserve" text-anchor="middle" x="219.75" y="-44.5" font-family="Helvetica,sans-Serif" font-size="10.00">LogisticFlow::LogisticFlow</text>
</a>
</g>
</g>
<!-- Node1&#45;&gt;Node2 -->
<g id="edge1_Node000001_Node000002" class="edge">
<title>Node1&#45;&gt;Node2</title>
<g id="a_edge1_Node000001_Node000002"><a xlink:title=" ">
<path fill="none" stroke="#63b8ff" d="M118.21,-35.97C126.03,-36.9 134.14,-37.87 142.22,-38.84"/>
<polygon fill="#63b8ff" stroke="#63b8ff" points="141.73,-42.31 152.07,-40.02 142.56,-35.36 141.73,-42.31"/>
</a>
</g>
</g>
<!-- Node4 -->
<g id="Node000004" class="node">
<title>Node4</title>
<g id="a_Node000004"><a xlink:href="class_flow.html#a5f7550e37445bb6ae955beffd1fa857a" target="_top" xlink:title="Assignment operator.">
<polygon fill="white" stroke="#666666" points="261.88,-20 177.62,-20 177.62,0 261.88,0 261.88,-20"/>
<text xml:space="preserve" text-anchor="middle" x="219.75" y="-6.5" font-family="Helvetica,sans-Serif" font-size="10.00">Flow::operator=</text>
</a>
</g>
</g>
<!-- Node1&#45;&gt;Node4 -->
<g id="edge3_Node000001_Node000004" class="edge">
<title>Node1&#45;&gt;Node4</title>
<g id="a_edge3_Node000001_Node000004"><a xlink:title=" ">
<path fill="none" stroke="#63b8ff" d="M118.21,-22.03C133.87,-20.16 150.71,-18.14 166.04,-16.31"/>
<polygon fill="#63b8ff" stroke="#63b8ff" points="166.42,-19.79 175.93,-15.13 165.58,-12.84 166.42,-19.79"/>
</a>
</g>
</g>
<!-- Node3 -->
<g id="Node000003" class="node">
<title>Node3</title>
<g id="a_Node000003"><a xlink:href="class_flow.html#ac9975e144e606242748197798e87dd32" target="_top" xlink:title="Default constructor.">
<polygon fill="white" stroke="#666666" points="385.5,-39 321.5,-39 321.5,-19 385.5,-19 385.5,-39"/>
<text xml:space="preserve" text-anchor="middle" x="353.5" y="-25.5" font-family="Helvetica,sans-Serif" font-size="10.00">Flow::Flow</text>
</a>
</g>
</g>
<!-- Node2&#45;&gt;Node3 -->
<g id="edge2_Node000002_Node000003" class="edge">
<title>Node2&#45;&gt;Node3</title>
<g id="a_edge2_Node000002_Node000003"><a xlink:title=" ">
<path fill="none" stroke="#63b8ff" d="M285.85,-38.61C294.03,-37.43 302.23,-36.25 309.94,-35.14"/>
<polygon fill="#63b8ff" stroke="#63b8ff" points="310.29,-38.62 319.69,-33.73 309.3,-31.69 310.29,-38.62"/>
</a>
</g>
</g>
<!-- Node4&#45;&gt;Node3 -->
<g id="edge4_Node000004_Node000003" class="edge">
<title>Node4&#45;&gt;Node3</title>
<g id="a_edge4_Node000004_Node000003"><a xlink:title=" ">
<path fill="none" stroke="#63b8ff" d="M262.08,-15.96C277.35,-18.16 294.68,-20.66 310.05,-22.88"/>
<polygon fill="#63b8ff" stroke="#63b8ff" points="309.46,-26.33 319.86,-24.29 310.46,-19.4 309.46,-26.33"/>
</a>
</g>
</g>
</g>
</svg>
</svg>

<style type='text/css'>
<![CDATA[
[data-mouse-over-selected='false'] { opacity: 0.7; }
[data-mouse-over-selected='true']  { opacity: 1.0; }
]]>
</style>
<script type="application/ecmascript"><![CDATA[
document.addEventListener('DOMContentLoaded', (event) => {
  highlightEdges();
  highlightAdjacentNodes();
});
]]></script>
</svg>
