<?xml version="1.0" encoding="UTF-8" standalone="no"?>
<!DOCTYPE svg PUBLIC "-//W3C//DTD SVG 1.1//EN"
 "http://www.w3.org/Graphics/SVG/1.1/DTD/svg11.dtd">
<!-- Generated by graphviz version 14.1.5 (20260411.2331)
 -->
<!-- Title: ComplexFlow::operator= Pages: 1 -->
<svg width="409pt" height="66pt"
 viewBox="0.00 0.00 409.00 66.00" xmlns="http://www.w3.org/2000/svg" xmlns:xlink="http://www.w3.org/1999/xlink">

<svg id="main" version="1.1" xmlns="http://www.w3.org/2000/svg" xmlns:xlink="http://www.w3.org/1999/xlink" xml:space="preserve">

<style type="text/css"><![CDATA[
.node, .edge {opacity: 0.7;}
.node.selected, .edge.selected {opacity: 1;}
.edge:hover path { stroke: red; }
.edge:hover polygon { stroke: red; fill: red; }
]]></style>
<script type="application/ecmascript" xlink:href="svg.min.js"/>
<svg id="graph" class="graph">
<g id="graph0" class="graph" transform="scale(1 1) rotate(0) translate(4 62)">
<title>ComplexFlow::operator=</title>
<!-- Node1 -->
<g id="Node000001" class="node">
<title>Node1</title>
<g id="a_Node000001"><a xlink:title="Assignment operator.">
<polygon fill="#999999" stroke="#666666" points="123.25,-39 0,-39 0,-19 123.25,-19 123.25,-39"/>
<text xml:space="preserve" text-anchor="middle" x="61.62" y="-25.5" font-family="Helvetica,sans-Serif" font-size="10.00">ComplexFlow::operator=</text>
</a>
</g>
</g>
<!-- Node2 -->
<g id="Node000002" class="node">
<title>Node2</title>
<g id="a_Node000002"><a xlink:href="class_complex_flow.html#a5842ce02ac6229830dbe8895b61891cf" target="_top" xlink:title="Default constructor.">
<polygon fill="white" stroke="#666666" points="301.25,-58 159.25,-58 159.25,-38 301.25,-38 301.25,-58"/>
<text xml:space="preserve" text-anchor="middle" x="230.25" y="-44.5" font-family="Helvetica,sans-Serif" font-size="10.00">ComplexFlow::ComplexFlow</text>
</a>
</g>
</g>
<!-- Node1&#45;&gt;Node2 -->
<g id="edge1_Node000001_Node000002" class="edge">
<title>Node1&#45;&gt;Node2</title>
<g id="a_edge1_Node000001_Node000002"><a xlink:title=" ">
<path fill="none" stroke="#63b8ff" d="M123.72,-35.97C131.49,-36.85 139.53,-37.77 147.55,-38.68"/>
<polygon fill="#63b8ff" stroke="#63b8ff" points="147.02,-42.15 157.35,-39.8 147.81,-35.19 147.02,-42.15"/>
</a>
</g>
</g>
<!-- Node4 -->
<g id="Node000004" class="node">
<title>Node4</title>
<g id="a_Node000004"><a xlink:href="class_flow.html#a5f7550e37445bb6ae955beffd1fa857a" target="_top" xlink:title="Assignment operator.">
<polygon fill="white" stroke="#666666" points="272.38,-20 188.12,-20 188.12,0 272.38,0 272.38,-20"/>
<text xml:space="preserve" text-anchor="middle" x="230.25" y="-6.5" font-family="Helvetica,sans-Serif" font-size="10.00">Flow::operator=</text>
</a>
</g>
</g>
<!-- Node1&#45;&gt;Node4 -->
<g id="edge3_Node000001_Node000004" class="edge">
<title>Node1&#45;&gt;Node4</title>
<g id="a_edge3_Node000001_Node000004"><a xlink:title=" ">
<path fill="none" stroke="#63b8ff" d="M123.72,-22.03C141.01,-20.06 159.66,-17.93 176.41,-16.02"/>
<polygon fill="#63b8ff" stroke="#63b8ff" points="176.62,-19.52 186.16,-14.91 175.83,-12.57 176.62,-19.52"/>
</a>
</g>
</g>
<!-- Node3 -->
<g id="Node000003" class="node">
<title>Node3</title>
<g id="a_Node000003"><a xlink:href="class_flow.html#ac9975e144e606242748197798e87dd32" target="_top" xlink:title="Default constructor.">
<polygon fill="white" stroke="#666666" points="401.25,-39 337.25,-39 337.25,-19 401.25,-19 401.25,-39"/>
<text xml:space="preserve" text-anchor="middle" x="369.25" y="-25.5" font-family="Helvetica,sans-Serif" font-size="10.00">Flow::Flow</text>
</a>
</g>
</g>
<!-- Node2&#45;&gt;Node3 -->
<g id="edge2_Node000002_Node000003" class="edge">
<title>Node2&#45;&gt;Node3</title>
<g id="a_edge2_Node000002_Node000003"><a xlink:title=" ">
<path fill="none" stroke="#63b8ff" d="M301.36,-38.28C309.66,-37.13 317.94,-35.98 325.69,-34.9"/>
<polygon fill="#63b8ff" stroke="#63b8ff" points="326.07,-38.38 335.5,-33.54 325.11,-31.45 326.07,-38.38"/>
</a>
</g>
</g>
<!-- Node4&#45;&gt;Node3 -->
<g id="edge4_Node000004_Node000003" class="edge">
<title>Node4&#45;&gt;Node3</title>
<g id="a_edge4_Node000004_Node000003"><a xlink:title=" ">
<path fill="none" stroke="#63b8ff" d="M272.73,-15.75C289.49,-18.08 308.83,-20.76 325.7,-23.1"/>
<polygon fill="#63b8ff" stroke="#63b8ff" points="325.04,-26.54 335.43,-24.45 326,-19.61 325.04,-26.54"/>
</a>
</g>
</g>
</g>
</svg>
</svg>

<style type='text/css'>
<![CDATA[
[data-mouse-over-selected='false'] { opacity: 0.7; }
[data-mouse-over-selected='true']  { opacity: 1.0; }
]]>
</style>
<script type="application/ecmascript"><![CDATA[
document.addEventListener('DOMContentLoaded', (event) => {
  highlightEdges();
  highlightAdjacentNodes();
});
]]></script>
</svg>
