<?xml version="1.0" encoding="UTF-8" standalone="no"?>
<!DOCTYPE svg PUBLIC "-//W3C//DTD SVG 1.1//EN"
 "http://www.w3.org/Graphics/SVG/1.1/DTD/svg11.dtd">
<!-- Generated by graphviz version 14.1.4 (20260321.0153)
 -->
<!-- Title: complexFuncionalTest Pages: 1 -->
<svg width="394pt" height="263pt"
 viewBox="0.00 0.00 394.00 263.00" xmlns="http://www.w3.org/2000/svg" xmlns:xlink="http://www.w3.org/1999/xlink">
<g id="graph0" class="graph" transform="scale(1 1) rotate(0) translate(4 258.75)">
<title>complexFuncionalTest</title>
<!-- Node1 -->
<g id="Node000001" class="node">
<title>Node1</title>
<g id="a_Node000001"><a xlink:title="Implementation of complex functional test.">
<polygon fill="#999999" stroke="#666666" points="124,-137.75 0,-137.75 0,-117 124,-117 124,-137.75"/>
<text xml:space="preserve" text-anchor="middle" x="62" y="-124.25" font-family="Helvetica,sans-Serif" font-size="10.00">complexFuncionalTest</text>
</a>
</g>
</g>
<!-- Node2 -->
<g id="Node000002" class="node">
<title>Node2</title>
<g id="a_Node000002"><a xlink:href="classModel.html#a1adc3a9da8ae4ff6fd69b01e24889adb" target="_top" xlink:title=" ">
<polygon fill="white" stroke="#666666" points="272.75,-254.75 166.75,-254.75 166.75,-234 272.75,-234 272.75,-254.75"/>
<text xml:space="preserve" text-anchor="middle" x="219.75" y="-241.25" font-family="Helvetica,sans-Serif" font-size="10.00">Model::createFlow</text>
</a>
</g>
</g>
<!-- Node1&#45;&gt;Node2 -->
<g id="edge1_Node000001_Node000002" class="edge">
<title>Node1&#45;&gt;Node2</title>
<g id="a_edge1_Node000001_Node000002"><a xlink:title=" ">
<path fill="none" stroke="#63b8ff" d="M70.88,-138C86.03,-157.73 121.18,-200.21 160,-224.38 162.61,-226 165.37,-227.51 168.21,-228.91"/>
<polygon fill="#63b8ff" stroke="#63b8ff" points="166.8,-232.12 177.36,-232.92 169.61,-225.7 166.8,-232.12"/>
</a>
</g>
</g>
<!-- Node4 -->
<g id="Node000004" class="node">
<title>Node4</title>
<g id="a_Node000004"><a xlink:href="classModel.html#a761d898cd7975e92719915f122330886" target="_top" xlink:title=" ">
<polygon fill="white" stroke="#666666" points="276.12,-215.75 163.38,-215.75 163.38,-195 276.12,-195 276.12,-215.75"/>
<text xml:space="preserve" text-anchor="middle" x="219.75" y="-202.25" font-family="Helvetica,sans-Serif" font-size="10.00">Model::createModel</text>
</a>
</g>
</g>
<!-- Node1&#45;&gt;Node4 -->
<g id="edge3_Node000001_Node000004" class="edge">
<title>Node1&#45;&gt;Node4</title>
<g id="a_edge3_Node000001_Node000004"><a xlink:title=" ">
<path fill="none" stroke="#63b8ff" d="M78.57,-138.09C97.27,-150.63 129.91,-171.45 160,-185.38 163.96,-187.21 168.13,-188.96 172.35,-190.61"/>
<polygon fill="#63b8ff" stroke="#63b8ff" points="170.85,-193.79 181.44,-193.98 173.28,-187.22 170.85,-193.79"/>
</a>
</g>
</g>
<!-- Node5 -->
<g id="Node000005" class="node">
<title>Node5</title>
<g id="a_Node000005"><a xlink:href="classModel.html#a6b104d0394f9c52c334fe091f2a7ed8b" target="_top" xlink:title=" ">
<polygon fill="white" stroke="#666666" points="279.5,-176.75 160,-176.75 160,-156 279.5,-156 279.5,-176.75"/>
<text xml:space="preserve" text-anchor="middle" x="219.75" y="-163.25" font-family="Helvetica,sans-Serif" font-size="10.00">Model::createSystem</text>
</a>
</g>
</g>
<!-- Node1&#45;&gt;Node5 -->
<g id="edge4_Node000001_Node000005" class="edge">
<title>Node1&#45;&gt;Node5</title>
<g id="a_edge4_Node000001_Node000005"><a xlink:title=" ">
<path fill="none" stroke="#63b8ff" d="M106.39,-138.24C124.37,-142.74 145.43,-148.01 164.42,-152.77"/>
<polygon fill="#63b8ff" stroke="#63b8ff" points="163.31,-156.1 173.86,-155.13 165.01,-149.31 163.31,-156.1"/>
</a>
</g>
</g>
<!-- Node6 -->
<g id="Node000006" class="node">
<title>Node6</title>
<g id="a_Node000006"><a xlink:href="classModel.html#a25abe7087cc471a00d076aa75781ad48" target="_top" xlink:title=" ">
<polygon fill="white" stroke="#666666" points="276.12,-137.75 163.38,-137.75 163.38,-117 276.12,-117 276.12,-137.75"/>
<text xml:space="preserve" text-anchor="middle" x="219.75" y="-124.25" font-family="Helvetica,sans-Serif" font-size="10.00">Model::deleteModel</text>
</a>
</g>
</g>
<!-- Node1&#45;&gt;Node6 -->
<g id="edge5_Node000001_Node000006" class="edge">
<title>Node1&#45;&gt;Node6</title>
<g id="a_edge5_Node000001_Node000006"><a xlink:title=" ">
<path fill="none" stroke="#63b8ff" d="M124.11,-127.38C133.1,-127.38 142.4,-127.38 151.5,-127.38"/>
<polygon fill="#63b8ff" stroke="#63b8ff" points="151.38,-130.88 161.38,-127.38 151.38,-123.88 151.38,-130.88"/>
</a>
</g>
</g>
<!-- Node7 -->
<g id="Node000007" class="node">
<title>Node7</title>
<g id="a_Node000007"><a xlink:href="classSystem.html#a41b673faa6c199eb8e4f204639fab4f2" target="_top" xlink:title=" ">
<polygon fill="white" stroke="#666666" points="270.5,-98.75 169,-98.75 169,-78 270.5,-78 270.5,-98.75"/>
<text xml:space="preserve" text-anchor="middle" x="219.75" y="-85.25" font-family="Helvetica,sans-Serif" font-size="10.00">System::getValue</text>
</a>
</g>
</g>
<!-- Node1&#45;&gt;Node7 -->
<g id="edge6_Node000001_Node000007" class="edge">
<title>Node1&#45;&gt;Node7</title>
<g id="a_edge6_Node000001_Node000007"><a xlink:title=" ">
<path fill="none" stroke="#63b8ff" d="M106.39,-116.51C124.37,-112.01 145.43,-106.74 164.42,-101.98"/>
<polygon fill="#63b8ff" stroke="#63b8ff" points="165.01,-105.44 173.86,-99.62 163.31,-98.65 165.01,-105.44"/>
</a>
</g>
</g>
<!-- Node8 -->
<g id="Node000008" class="node">
<title>Node8</title>
<g id="a_Node000008"><a xlink:href="funcional__tests_8cpp.html#aa6ada142da95d4c7c576bc6d348776ed" target="_top" xlink:title="Rounds a double value to 4 decimal places.">
<polygon fill="white" stroke="#666666" points="244.62,-59.75 194.88,-59.75 194.88,-39 244.62,-39 244.62,-59.75"/>
<text xml:space="preserve" text-anchor="middle" x="219.75" y="-46.25" font-family="Helvetica,sans-Serif" font-size="10.00">round4</text>
</a>
</g>
</g>
<!-- Node1&#45;&gt;Node8 -->
<g id="edge7_Node000001_Node000008" class="edge">
<title>Node1&#45;&gt;Node8</title>
<g id="a_edge7_Node000001_Node000008"><a xlink:title=" ">
<path fill="none" stroke="#63b8ff" d="M78.57,-116.66C97.27,-104.12 129.91,-83.3 160,-69.38 167.51,-65.9 175.8,-62.71 183.73,-59.94"/>
<polygon fill="#63b8ff" stroke="#63b8ff" points="184.76,-63.29 193.14,-56.82 182.55,-56.65 184.76,-63.29"/>
</a>
</g>
</g>
<!-- Node9 -->
<g id="Node000009" class="node">
<title>Node9</title>
<g id="a_Node000009"><a xlink:href="classModel.html#a2c91b25ab51d25d3c7e6ec40e6f7f150" target="_top" xlink:title=" ">
<polygon fill="white" stroke="#666666" points="253.62,-20.75 185.88,-20.75 185.88,0 253.62,0 253.62,-20.75"/>
<text xml:space="preserve" text-anchor="middle" x="219.75" y="-7.25" font-family="Helvetica,sans-Serif" font-size="10.00">Model::run</text>
</a>
</g>
</g>
<!-- Node1&#45;&gt;Node9 -->
<g id="edge8_Node000001_Node000009" class="edge">
<title>Node1&#45;&gt;Node9</title>
<g id="a_edge8_Node000001_Node000009"><a xlink:title=" ">
<path fill="none" stroke="#63b8ff" d="M70.88,-116.75C86.03,-97.02 121.18,-54.54 160,-30.38 164.62,-27.5 169.7,-24.98 174.88,-22.79"/>
<polygon fill="#63b8ff" stroke="#63b8ff" points="176.01,-26.1 184.12,-19.28 173.53,-19.56 176.01,-26.1"/>
</a>
</g>
</g>
<!-- Node3 -->
<g id="Node000003" class="node">
<title>Node3</title>
<g id="a_Node000003"><a xlink:href="classModel.html#afde6c25ab942f2eec7aedeaf8eec53fd" target="_top" xlink:title=" ">
<polygon fill="white" stroke="#666666" points="385.5,-254.75 315.5,-254.75 315.5,-234 385.5,-234 385.5,-254.75"/>
<text xml:space="preserve" text-anchor="middle" x="350.5" y="-241.25" font-family="Helvetica,sans-Serif" font-size="10.00">Model::add</text>
</a>
</g>
</g>
<!-- Node2&#45;&gt;Node3 -->
<g id="edge2_Node000002_Node000003" class="edge">
<title>Node2&#45;&gt;Node3</title>
<g id="a_edge2_Node000002_Node000003"><a xlink:title=" ">
<path fill="none" stroke="#63b8ff" d="M273.12,-244.38C283.33,-244.38 293.95,-244.38 303.92,-244.38"/>
<polygon fill="#63b8ff" stroke="#63b8ff" points="303.74,-247.88 313.74,-244.38 303.74,-240.88 303.74,-247.88"/>
</a>
</g>
</g>
</g>
</svg>
