<?xml version="1.0" encoding="UTF-8" standalone="no"?>
<!DOCTYPE svg PUBLIC "-//W3C//DTD SVG 1.1//EN"
 "http://www.w3.org/Graphics/SVG/1.1/DTD/svg11.dtd">
<!-- Generated by graphviz version 14.1.5 (20260411.2331)
 -->
<!-- Title: funcional_tests.cpp Pages: 1 -->
<!--zoomable 252 -->

<svg id="main" version="1.1" xmlns="http://www.w3.org/2000/svg" xmlns:xlink="http://www.w3.org/1999/xlink" xml:space="preserve" onload="init(evt)">

<style type="text/css"><![CDATA[
.node, .edge {opacity: 0.7;}
.node.selected, .edge.selected {opacity: 1;}
.edge:hover path { stroke: red; }
.edge:hover polygon { stroke: red; fill: red; }
]]></style>

<defs>
  <circle id="rim" cx="0" cy="0" r="7"/>
  <circle id="rim2" cx="0" cy="0" r="3.5"/>
  <g id="zoomPlus">
    <use xlink:href="#rim" fill="#404040"><set attributeName="fill" to="#808080" begin="zoomplus.mouseover" end="zoomplus.mouseout"/></use>
    <path d="M-4,0h8M0,-4v8" fill="none" stroke="white" stroke-width="1.5" pointer-events="none"/>
  </g>
  <g id="zoomMin">
    <use xlink:href="#rim" fill="#404040"><set attributeName="fill" to="#808080" begin="zoomminus.mouseover" end="zoomminus.mouseout"/></use>
    <path d="M-4,0h8" fill="none" stroke="white" stroke-width="1.5" pointer-events="none"/>
  </g>
  <g id="arrowUp" transform="translate(30 24)">
    <use xlink:href="#rim"/>
    <path pointer-events="none" fill="none" stroke="white" stroke-width="1.5" d="M0,-3.0v7 M-2.5,-0.5L0,-3.0L2.5,-0.5"/>
  </g>
  <g id="arrowRight" transform="rotate(90) translate(36 -43)">
    <use xlink:href="#rim"/>
    <path pointer-events="none" fill="none" stroke="white" stroke-width="1.5" d="M0,-3.0v7 M-2.5,-0.5L0,-3.0L2.5,-0.5"/>
  </g>
  <g id="arrowDown" transform="rotate(180) translate(-30 -48)">
    <use xlink:href="#rim"/>
    <path pointer-events="none" fill="none" stroke="white" stroke-width="1.5" d="M0,-3.0v7 M-2.5,-0.5L0,-3.0L2.5,-0.5"/>
  </g>
  <g id="arrowLeft" transform="rotate(270) translate(-36 17)">
    <use xlink:href="#rim"/>
    <path pointer-events="none" fill="none" stroke="white" stroke-width="1.5" d="M0,-3.0v7 M-2.5,-0.5L0,-3.0L2.5,-0.5"/>
  </g>
  <g id="resetDef">
    <use xlink:href="#rim2" fill="#404040"><set attributeName="fill" to="#808080" begin="reset.mouseover" end="reset.mouseout"/></use>
  </g>
</defs>
<script type="application/ecmascript">
var viewWidth = 815;
var viewHeight = 252;
var sectionId = 'dynsection-0';
</script>
<script type="application/ecmascript" xlink:href="svg.min.js"/>
<svg id="graph" class="graph">
<g id="viewport">
<title>funcional_tests.cpp</title>
<!-- Node1 -->
<g id="Node000001" class="node">
<title>Node1</title>
<g id="a_Node000001"><a xlink:title="Implementation of functional tests for MySim framework.">
<polygon fill="#999999" stroke="#666666" points="386.5,-244 285.75,-244 285.75,-224 386.5,-224 386.5,-244"/>
<text xml:space="preserve" text-anchor="middle" x="336.12" y="-230.5" font-family="Helvetica,sans-Serif" font-size="10.00">funcional_tests.cpp</text>
</a>
</g>
</g>
<!-- Node2 -->
<g id="Node000002" class="node">
<title>Node2</title>
<g id="a_Node000002"><a xlink:title=" ">
<polygon fill="#e0e0e0" stroke="#999999" points="48.25,-188 0,-188 0,-168 48.25,-168 48.25,-188"/>
<text xml:space="preserve" text-anchor="middle" x="24.12" y="-174.5" font-family="Helvetica,sans-Serif" font-size="10.00">cassert</text>
</a>
</g>
</g>
<!-- Node1&#45;&gt;Node2 -->
<g id="edge1_Node000001_Node000002" class="edge">
<title>Node1&#45;&gt;Node2</title>
<g id="a_edge1_Node000001_Node000002"><a xlink:title=" ">
<path fill="none" stroke="#63b8ff" d="M285.42,-226.47C231.64,-219.18 144,-206.26 59.63,-188.36"/>
<polygon fill="#63b8ff" stroke="#63b8ff" points="60.55,-184.98 50.04,-186.29 59.08,-191.82 60.55,-184.98"/>
</a>
</g>
</g>
<!-- Node3 -->
<g id="Node000003" class="node">
<title>Node3</title>
<g id="a_Node000003"><a xlink:title=" ">
<polygon fill="#e0e0e0" stroke="#999999" points="109.62,-188 66.62,-188 66.62,-168 109.62,-168 109.62,-188"/>
<text xml:space="preserve" text-anchor="middle" x="88.12" y="-174.5" font-family="Helvetica,sans-Serif" font-size="10.00">cmath</text>
</a>
</g>
</g>
<!-- Node1&#45;&gt;Node3 -->
<g id="edge2_Node000001_Node000003" class="edge">
<title>Node1&#45;&gt;Node3</title>
<g id="a_edge2_Node000001_Node000003"><a xlink:title=" ">
<path fill="none" stroke="#63b8ff" d="M285.62,-223.88C243.76,-216.03 182.5,-203.87 121.08,-188.59"/>
<polygon fill="#63b8ff" stroke="#63b8ff" points="122.04,-185.23 111.49,-186.18 120.33,-192.01 122.04,-185.23"/>
</a>
</g>
</g>
<!-- Node4 -->
<g id="Node000004" class="node">
<title>Node4</title>
<g id="a_Node000004"><a xlink:title=" ">
<polygon fill="#e0e0e0" stroke="#999999" points="180.88,-188 127.38,-188 127.38,-168 180.88,-168 180.88,-188"/>
<text xml:space="preserve" text-anchor="middle" x="154.12" y="-174.5" font-family="Helvetica,sans-Serif" font-size="10.00">iostream</text>
</a>
</g>
</g>
<!-- Node1&#45;&gt;Node4 -->
<g id="edge3_Node000001_Node000004" class="edge">
<title>Node1&#45;&gt;Node4</title>
<g id="a_edge3_Node000001_Node000004"><a xlink:title=" ">
<path fill="none" stroke="#63b8ff" d="M304.42,-223.59C273.13,-214.31 225.27,-200.11 191.99,-190.23"/>
<polygon fill="#63b8ff" stroke="#63b8ff" points="193.34,-186.99 182.76,-187.5 191.35,-193.7 193.34,-186.99"/>
</a>
</g>
</g>
<!-- Node5 -->
<g id="Node000005" class="node">
<title>Node5</title>
<g id="a_Node000005"><a xlink:href="funcional__tests_8h.html" target="_top" xlink:title="Functional tests for the MySim framework.">
<polygon fill="white" stroke="#666666" points="289.25,-188 199,-188 199,-168 289.25,-168 289.25,-188"/>
<text xml:space="preserve" text-anchor="middle" x="244.12" y="-174.5" font-family="Helvetica,sans-Serif" font-size="10.00">funcional_tests.h</text>
</a>
</g>
</g>
<!-- Node1&#45;&gt;Node5 -->
<g id="edge4_Node000001_Node000005" class="edge">
<title>Node1&#45;&gt;Node5</title>
<g id="a_edge4_Node000001_Node000005"><a xlink:title=" ">
<path fill="none" stroke="#63b8ff" d="M320.1,-223.59C306.33,-215.51 286.22,-203.71 270.15,-194.27"/>
<polygon fill="#63b8ff" stroke="#63b8ff" points="271.98,-191.29 261.58,-189.25 268.43,-197.33 271.98,-191.29"/>
</a>
</g>
</g>
<!-- Node6 -->
<g id="Node000006" class="node">
<title>Node6</title>
<g id="a_Node000006"><a xlink:href="_flow_8h.html" target="_top" xlink:title="Definition of the abstract Flow class.">
<polygon fill="white" stroke="#666666" points="585.62,-132 506.62,-132 506.62,-112 585.62,-112 585.62,-132"/>
<text xml:space="preserve" text-anchor="middle" x="546.12" y="-118.5" font-family="Helvetica,sans-Serif" font-size="10.00">../../src/Flow.h</text>
</a>
</g>
</g>
<!-- Node1&#45;&gt;Node6 -->
<g id="edge5_Node000001_Node000006" class="edge">
<title>Node1&#45;&gt;Node6</title>
<g id="a_edge5_Node000001_Node000006"><a xlink:title=" ">
<path fill="none" stroke="#63b8ff" d="M338.9,-223.92C343.71,-209.75 354.96,-182.53 374.12,-168 409.12,-141.46 458.34,-130.52 495.17,-126.04"/>
<polygon fill="#63b8ff" stroke="#63b8ff" points="495.11,-129.57 504.67,-125.01 494.35,-122.61 495.11,-129.57"/>
</a>
</g>
</g>
<!-- Node7 -->
<g id="Node000007" class="node">
<title>Node7</title>
<g id="a_Node000007"><a xlink:href="_system_8h.html" target="_top" xlink:title="Definition of the System class.">
<polygon fill="white" stroke="#666666" points="575.12,-76 517.12,-76 517.12,-56 575.12,-56 575.12,-76"/>
<text xml:space="preserve" text-anchor="middle" x="546.12" y="-62.5" font-family="Helvetica,sans-Serif" font-size="10.00">System.h</text>
</a>
</g>
</g>
<!-- Node1&#45;&gt;Node7 -->
<g id="edge8_Node000001_Node000007" class="edge">
<title>Node1&#45;&gt;Node7</title>
<g id="a_edge8_Node000001_Node000007"><a xlink:title=" ">
<path fill="none" stroke="#63b8ff" d="M336.1,-223.56C336.54,-209.9 339.2,-184.45 352.12,-168 391.19,-118.29 461.51,-90.52 505.9,-77.17"/>
<polygon fill="#63b8ff" stroke="#63b8ff" points="506.77,-80.57 515.41,-74.43 504.83,-73.84 506.77,-80.57"/>
</a>
</g>
</g>
<!-- Node9 -->
<g id="Node000009" class="node">
<title>Node9</title>
<g id="a_Node000009"><a xlink:href="_model_8h.html" target="_top" xlink:title="Definition of the Model class.">
<polygon fill="white" stroke="#666666" points="806.62,-188 721.62,-188 721.62,-168 806.62,-168 806.62,-188"/>
<text xml:space="preserve" text-anchor="middle" x="764.12" y="-174.5" font-family="Helvetica,sans-Serif" font-size="10.00">../../src/Model.h</text>
</a>
</g>
</g>
<!-- Node1&#45;&gt;Node9 -->
<g id="edge9_Node000001_Node000009" class="edge">
<title>Node1&#45;&gt;Node9</title>
<g id="a_edge9_Node000001_Node000009"><a xlink:title=" ">
<path fill="none" stroke="#63b8ff" d="M386.86,-227.85C457.17,-220.52 588.47,-206.11 709.95,-188.4"/>
<polygon fill="#63b8ff" stroke="#63b8ff" points="710.42,-191.87 719.8,-186.96 709.4,-184.95 710.42,-191.87"/>
</a>
</g>
</g>
<!-- Node11 -->
<g id="Node000011" class="node">
<title>Node11</title>
<g id="a_Node000011"><a xlink:href="_complex_flow_8h.html" target="_top" xlink:title="Definition of the ComplexFlow class.">
<polygon fill="white" stroke="#666666" points="475.38,-188 382.88,-188 382.88,-168 475.38,-168 475.38,-188"/>
<text xml:space="preserve" text-anchor="middle" x="429.12" y="-174.5" font-family="Helvetica,sans-Serif" font-size="10.00">../ComplexFlow.h</text>
</a>
</g>
</g>
<!-- Node1&#45;&gt;Node11 -->
<g id="edge13_Node000001_Node000011" class="edge">
<title>Node1&#45;&gt;Node11</title>
<g id="a_edge13_Node000001_Node000011"><a xlink:title=" ">
<path fill="none" stroke="#63b8ff" d="M352.32,-223.59C366.37,-215.44 386.96,-203.48 403.28,-194"/>
<polygon fill="#63b8ff" stroke="#63b8ff" points="404.6,-197.29 411.49,-189.24 401.08,-191.23 404.6,-197.29"/>
</a>
</g>
</g>
<!-- Node12 -->
<g id="Node000012" class="node">
<title>Node12</title>
<g id="a_Node000012"><a xlink:href="_exponential_flow_8h.html" target="_top" xlink:title="Definition of the ExponentialFlow class.">
<polygon fill="white" stroke="#666666" points="598.38,-188 493.88,-188 493.88,-168 598.38,-168 598.38,-188"/>
<text xml:space="preserve" text-anchor="middle" x="546.12" y="-174.5" font-family="Helvetica,sans-Serif" font-size="10.00">../ExponentialFlow.h</text>
</a>
</g>
</g>
<!-- Node1&#45;&gt;Node12 -->
<g id="edge15_Node000001_Node000012" class="edge">
<title>Node1&#45;&gt;Node12</title>
<g id="a_edge15_Node000001_Node000012"><a xlink:title=" ">
<path fill="none" stroke="#63b8ff" d="M372.7,-223.59C407.57,-214.63 460.27,-201.08 498.42,-191.27"/>
<polygon fill="#63b8ff" stroke="#63b8ff" points="498.98,-194.74 507.79,-188.86 497.24,-187.96 498.98,-194.74"/>
</a>
</g>
</g>
<!-- Node13 -->
<g id="Node000013" class="node">
<title>Node13</title>
<g id="a_Node000013"><a xlink:href="_logistic_flow_8h.html" target="_top" xlink:title="Definition of the LogisticFlow class.">
<polygon fill="white" stroke="#666666" points="703.75,-188 616.5,-188 616.5,-168 703.75,-168 703.75,-188"/>
<text xml:space="preserve" text-anchor="middle" x="660.12" y="-174.5" font-family="Helvetica,sans-Serif" font-size="10.00">../LogisticFlow.h</text>
</a>
</g>
</g>
<!-- Node1&#45;&gt;Node13 -->
<g id="edge17_Node000001_Node000013" class="edge">
<title>Node1&#45;&gt;Node13</title>
<g id="a_edge17_Node000001_Node000013"><a xlink:title=" ">
<path fill="none" stroke="#63b8ff" d="M386.83,-224.64C438.89,-216.04 522.58,-202.18 604.84,-188.38"/>
<polygon fill="#63b8ff" stroke="#63b8ff" points="605.39,-191.84 614.67,-186.73 604.23,-184.93 605.39,-191.84"/>
</a>
</g>
</g>
<!-- Node6&#45;&gt;Node7 -->
<g id="edge6_Node000006_Node000007" class="edge">
<title>Node6&#45;&gt;Node7</title>
<g id="a_edge6_Node000006_Node000007"><a xlink:title=" ">
<path fill="none" stroke="#63b8ff" d="M546.12,-111.59C546.12,-105.01 546.12,-95.96 546.12,-87.73"/>
<polygon fill="#63b8ff" stroke="#63b8ff" points="549.63,-87.81 546.13,-77.81 542.63,-87.81 549.63,-87.81"/>
</a>
</g>
</g>
<!-- Node8 -->
<g id="Node000008" class="node">
<title>Node8</title>
<g id="a_Node000008"><a xlink:title=" ">
<polygon fill="#e0e0e0" stroke="#999999" points="566.12,-20 526.12,-20 526.12,0 566.12,0 566.12,-20"/>
<text xml:space="preserve" text-anchor="middle" x="546.12" y="-6.5" font-family="Helvetica,sans-Serif" font-size="10.00">string</text>
</a>
</g>
</g>
<!-- Node7&#45;&gt;Node8 -->
<g id="edge7_Node000007_Node000008" class="edge">
<title>Node7&#45;&gt;Node8</title>
<g id="a_edge7_Node000007_Node000008"><a xlink:title=" ">
<path fill="none" stroke="#63b8ff" d="M546.12,-55.59C546.12,-49.01 546.12,-39.96 546.12,-31.73"/>
<polygon fill="#63b8ff" stroke="#63b8ff" points="549.63,-31.81 546.13,-21.81 542.63,-31.81 549.63,-31.81"/>
</a>
</g>
</g>
<!-- Node9&#45;&gt;Node6 -->
<g id="edge12_Node000009_Node000006" class="edge">
<title>Node9&#45;&gt;Node6</title>
<g id="a_edge12_Node000009_Node000006"><a xlink:title=" ">
<path fill="none" stroke="#63b8ff" d="M725.9,-167.53C689.59,-158.54 634.82,-144.97 595.28,-135.18"/>
<polygon fill="#63b8ff" stroke="#63b8ff" points="596.32,-131.83 585.77,-132.82 594.64,-138.62 596.32,-131.83"/>
</a>
</g>
</g>
<!-- Node9&#45;&gt;Node7 -->
<g id="edge11_Node000009_Node000007" class="edge">
<title>Node9&#45;&gt;Node7</title>
<g id="a_edge11_Node000009_Node000007"><a xlink:title=" ">
<path fill="none" stroke="#63b8ff" d="M745.54,-167.62C707.41,-148.38 620.12,-104.34 574.73,-81.43"/>
<polygon fill="#63b8ff" stroke="#63b8ff" points="576.52,-78.42 566.02,-77.04 573.37,-84.67 576.52,-78.42"/>
</a>
</g>
</g>
<!-- Node10 -->
<g id="Node000010" class="node">
<title>Node10</title>
<g id="a_Node000010"><a xlink:title=" ">
<polygon fill="#e0e0e0" stroke="#999999" points="785.62,-132 742.62,-132 742.62,-112 785.62,-112 785.62,-132"/>
<text xml:space="preserve" text-anchor="middle" x="764.12" y="-118.5" font-family="Helvetica,sans-Serif" font-size="10.00">vector</text>
</a>
</g>
</g>
<!-- Node9&#45;&gt;Node10 -->
<g id="edge10_Node000009_Node000010" class="edge">
<title>Node9&#45;&gt;Node10</title>
<g id="a_edge10_Node000009_Node000010"><a xlink:title=" ">
<path fill="none" stroke="#63b8ff" d="M764.12,-167.59C764.12,-161.01 764.12,-151.96 764.12,-143.73"/>
<polygon fill="#63b8ff" stroke="#63b8ff" points="767.63,-143.81 764.13,-133.81 760.63,-143.81 767.63,-143.81"/>
</a>
</g>
</g>
<!-- Node11&#45;&gt;Node6 -->
<g id="edge14_Node000011_Node000006" class="edge">
<title>Node11&#45;&gt;Node6</title>
<g id="a_edge14_Node000011_Node000006"><a xlink:title=" ">
<path fill="none" stroke="#63b8ff" d="M449.5,-167.59C467.68,-159.21 494.55,-146.8 515.34,-137.21"/>
<polygon fill="#63b8ff" stroke="#63b8ff" points="516.6,-140.48 524.21,-133.11 513.67,-134.13 516.6,-140.48"/>
</a>
</g>
</g>
<!-- Node12&#45;&gt;Node6 -->
<g id="edge16_Node000012_Node000006" class="edge">
<title>Node12&#45;&gt;Node6</title>
<g id="a_edge16_Node000012_Node000006"><a xlink:title=" ">
<path fill="none" stroke="#63b8ff" d="M546.12,-167.59C546.12,-161.01 546.12,-151.96 546.12,-143.73"/>
<polygon fill="#63b8ff" stroke="#63b8ff" points="549.63,-143.81 546.13,-133.81 542.63,-143.81 549.63,-143.81"/>
</a>
</g>
</g>
<!-- Node13&#45;&gt;Node6 -->
<g id="edge18_Node000013_Node000006" class="edge">
<title>Node13&#45;&gt;Node6</title>
<g id="a_edge18_Node000013_Node000006"><a xlink:title=" ">
<path fill="none" stroke="#63b8ff" d="M640.27,-167.59C622.64,-159.24 596.62,-146.92 576.4,-137.34"/>
<polygon fill="#63b8ff" stroke="#63b8ff" points="578.04,-134.25 567.51,-133.13 575.04,-140.57 578.04,-134.25"/>
</a>
</g>
</g>
</g>
</svg>

<g id="navigator" transform="translate(0 0)" fill="#404254">
  <rect fill="#f2f5e9" fill-opacity="0.5" stroke="#606060" stroke-width=".5" x="0" y="0" width="60" height="60"/>
  <use id="zoomplus" xlink:href="#zoomPlus" x="17" y="9" onmousedown="handleZoom(evt,'in')"/>
  <use id="zoomminus" xlink:href="#zoomMin" x="42" y="9" onmousedown="handleZoom(evt,'out')"/>
  <use id="reset" xlink:href="#resetDef" x="30" y="36" onmousedown="handleReset()"/>
   <use id="arrowup" xlink:href="#arrowUp" x="0" y="0" onmousedown="handlePan(0,-1)"/>
  <use id="arrowright" xlink:href="#arrowRight" x="0" y="0" onmousedown="handlePan(1,0)"/>
  <use id="arrowdown" xlink:href="#arrowDown" x="0" y="0" onmousedown="handlePan(0,1)"/>
  <use id="arrowleft" xlink:href="#arrowLeft" x="0" y="0" onmousedown="handlePan(-1,0)"/>
</g>
<svg viewBox="0 0 15 15" width="100%" height="30px" preserveAspectRatio="xMaxYMin meet">
 <g id="arrow_out" transform="scale(0.3 0.3)">
  <a xlink:href="funcional__tests_8cpp__incl_org.svg" target="_base">
   <rect id="button" ry="5" rx="5" y="6" x="6" height="38" width="38"
        fill="#f2f5e9" fill-opacity="0.5" stroke="#606060" stroke-width="1.0"/>
   <path id="arrow"
     d="M 11.500037,31.436501 C 11.940474,20.09759 22.043105,11.32322 32.158766,21.979434 L 37.068811,17.246167 C 37.068811,17.246167 37.088388,32 37.088388,32 L 22.160133,31.978069 C 22.160133,31.978069 26.997745,27.140456 26.997745,27.140456 C 18.528582,18.264221 13.291696,25.230495 11.500037,31.436501 z"
     style="fill:#404040;"/>
  </a>
 </g>
</svg>

<style type='text/css'>
<![CDATA[
[data-mouse-over-selected='false'] { opacity: 0.7; }
[data-mouse-over-selected='true']  { opacity: 1.0; }
]]>
</style>
<script type="application/ecmascript"><![CDATA[
document.addEventListener('DOMContentLoaded', (event) => {
  highlightEdges();
  highlightAdjacentNodes();
});
]]></script>
</svg>
