<?xml version="1.0" encoding="UTF-8" standalone="no"?>
<!DOCTYPE svg PUBLIC "-//W3C//DTD SVG 1.1//EN"
 "http://www.w3.org/Graphics/SVG/1.1/DTD/svg11.dtd">
<!-- Generated by graphviz version 14.1.5 (20260411.2331)
 -->
<!-- Title: funcional_tests.cpp Pages: 1 -->
<!--zoomable 308 -->

<svg id="main" version="1.1" xmlns="http://www.w3.org/2000/svg" xmlns:xlink="http://www.w3.org/1999/xlink" xml:space="preserve" onload="init(evt)">

<style type="text/css"><![CDATA[
.node, .edge {opacity: 0.7;}
.node.selected, .edge.selected {opacity: 1;}
.edge:hover path { stroke: red; }
.edge:hover polygon { stroke: red; fill: red; }
]]></style>

<defs>
  <circle id="rim" cx="0" cy="0" r="7"/>
  <circle id="rim2" cx="0" cy="0" r="3.5"/>
  <g id="zoomPlus">
    <use xlink:href="#rim" fill="#404040"><set attributeName="fill" to="#808080" begin="zoomplus.mouseover" end="zoomplus.mouseout"/></use>
    <path d="M-4,0h8M0,-4v8" fill="none" stroke="white" stroke-width="1.5" pointer-events="none"/>
  </g>
  <g id="zoomMin">
    <use xlink:href="#rim" fill="#404040"><set attributeName="fill" to="#808080" begin="zoomminus.mouseover" end="zoomminus.mouseout"/></use>
    <path d="M-4,0h8" fill="none" stroke="white" stroke-width="1.5" pointer-events="none"/>
  </g>
  <g id="arrowUp" transform="translate(30 24)">
    <use xlink:href="#rim"/>
    <path pointer-events="none" fill="none" stroke="white" stroke-width="1.5" d="M0,-3.0v7 M-2.5,-0.5L0,-3.0L2.5,-0.5"/>
  </g>
  <g id="arrowRight" transform="rotate(90) translate(36 -43)">
    <use xlink:href="#rim"/>
    <path pointer-events="none" fill="none" stroke="white" stroke-width="1.5" d="M0,-3.0v7 M-2.5,-0.5L0,-3.0L2.5,-0.5"/>
  </g>
  <g id="arrowDown" transform="rotate(180) translate(-30 -48)">
    <use xlink:href="#rim"/>
    <path pointer-events="none" fill="none" stroke="white" stroke-width="1.5" d="M0,-3.0v7 M-2.5,-0.5L0,-3.0L2.5,-0.5"/>
  </g>
  <g id="arrowLeft" transform="rotate(270) translate(-36 17)">
    <use xlink:href="#rim"/>
    <path pointer-events="none" fill="none" stroke="white" stroke-width="1.5" d="M0,-3.0v7 M-2.5,-0.5L0,-3.0L2.5,-0.5"/>
  </g>
  <g id="resetDef">
    <use xlink:href="#rim2" fill="#404040"><set attributeName="fill" to="#808080" begin="reset.mouseover" end="reset.mouseout"/></use>
  </g>
</defs>
<script type="application/ecmascript">
var viewWidth = 796;
var viewHeight = 308;
var sectionId = 'dynsection-0';
</script>
<script type="application/ecmascript" xlink:href="svg.min.js"/>
<svg id="graph" class="graph">
<g id="viewport">
<title>funcional_tests.cpp</title>
<!-- Node1 -->
<g id="Node000001" class="node">
<title>Node1</title>
<g id="a_Node000001"><a xlink:title="Implementation of functional tests for MySim framework.">
<polygon fill="#999999" stroke="#666666" points="367.5,-300 266.75,-300 266.75,-280 367.5,-280 367.5,-300"/>
<text xml:space="preserve" text-anchor="middle" x="317.12" y="-286.5" font-family="Helvetica,sans-Serif" font-size="10.00">funcional_tests.cpp</text>
</a>
</g>
</g>
<!-- Node2 -->
<g id="Node000002" class="node">
<title>Node2</title>
<g id="a_Node000002"><a xlink:title=" ">
<polygon fill="#e0e0e0" stroke="#999999" points="48.25,-244 0,-244 0,-224 48.25,-224 48.25,-244"/>
<text xml:space="preserve" text-anchor="middle" x="24.12" y="-230.5" font-family="Helvetica,sans-Serif" font-size="10.00">cassert</text>
</a>
</g>
</g>
<!-- Node1&#45;&gt;Node2 -->
<g id="edge1_Node000001_Node000002" class="edge">
<title>Node1&#45;&gt;Node2</title>
<g id="a_edge1_Node000001_Node000002"><a xlink:title=" ">
<path fill="none" stroke="#63b8ff" d="M266.52,-281.7C216.28,-274.12 136.88,-261.28 59.47,-244.36"/>
<polygon fill="#63b8ff" stroke="#63b8ff" points="60.57,-241.02 50.05,-242.27 59.05,-247.85 60.57,-241.02"/>
</a>
</g>
</g>
<!-- Node3 -->
<g id="Node000003" class="node">
<title>Node3</title>
<g id="a_Node000003"><a xlink:title=" ">
<polygon fill="#e0e0e0" stroke="#999999" points="109.62,-244 66.62,-244 66.62,-224 109.62,-224 109.62,-244"/>
<text xml:space="preserve" text-anchor="middle" x="88.12" y="-230.5" font-family="Helvetica,sans-Serif" font-size="10.00">cmath</text>
</a>
</g>
</g>
<!-- Node1&#45;&gt;Node3 -->
<g id="edge2_Node000001_Node000003" class="edge">
<title>Node1&#45;&gt;Node3</title>
<g id="a_edge2_Node000001_Node000003"><a xlink:title=" ">
<path fill="none" stroke="#63b8ff" d="M271.06,-279.53C233.04,-271.5 177.44,-259.27 120.96,-244.62"/>
<polygon fill="#63b8ff" stroke="#63b8ff" points="122.06,-241.29 111.49,-242.15 120.28,-248.07 122.06,-241.29"/>
</a>
</g>
</g>
<!-- Node4 -->
<g id="Node000004" class="node">
<title>Node4</title>
<g id="a_Node000004"><a xlink:title=" ">
<polygon fill="#e0e0e0" stroke="#999999" points="180.88,-244 127.38,-244 127.38,-224 180.88,-224 180.88,-244"/>
<text xml:space="preserve" text-anchor="middle" x="154.12" y="-230.5" font-family="Helvetica,sans-Serif" font-size="10.00">iostream</text>
</a>
</g>
</g>
<!-- Node1&#45;&gt;Node4 -->
<g id="edge3_Node000001_Node000004" class="edge">
<title>Node1&#45;&gt;Node4</title>
<g id="a_edge3_Node000001_Node000004"><a xlink:title=" ">
<path fill="none" stroke="#63b8ff" d="M288.73,-279.59C261.88,-270.7 221.41,-257.29 191.85,-247.5"/>
<polygon fill="#63b8ff" stroke="#63b8ff" points="193.14,-244.24 182.55,-244.42 190.94,-250.88 193.14,-244.24"/>
</a>
</g>
</g>
<!-- Node5 -->
<g id="Node000005" class="node">
<title>Node5</title>
<g id="a_Node000005"><a xlink:href="funcional__tests_8h.html" target="_top" xlink:title="Functional tests for the MySim framework.">
<polygon fill="white" stroke="#666666" points="289.25,-244 199,-244 199,-224 289.25,-224 289.25,-244"/>
<text xml:space="preserve" text-anchor="middle" x="244.12" y="-230.5" font-family="Helvetica,sans-Serif" font-size="10.00">funcional_tests.h</text>
</a>
</g>
</g>
<!-- Node1&#45;&gt;Node5 -->
<g id="edge4_Node000001_Node000005" class="edge">
<title>Node1&#45;&gt;Node5</title>
<g id="a_edge4_Node000001_Node000005"><a xlink:title=" ">
<path fill="none" stroke="#63b8ff" d="M304.41,-279.59C293.73,-271.7 278.25,-260.24 265.64,-250.92"/>
<polygon fill="#63b8ff" stroke="#63b8ff" points="268.03,-248.33 257.91,-245.2 263.87,-253.96 268.03,-248.33"/>
</a>
</g>
</g>
<!-- Node6 -->
<g id="Node000006" class="node">
<title>Node6</title>
<g id="a_Node000006"><a xlink:href="_system_impl_8h.html" target="_top" xlink:title=" ">
<polygon fill="white" stroke="#666666" points="387.75,-132 276.5,-132 276.5,-112 387.75,-112 387.75,-132"/>
<text xml:space="preserve" text-anchor="middle" x="332.12" y="-118.5" font-family="Helvetica,sans-Serif" font-size="10.00">../../src/SystemImpl.h</text>
</a>
</g>
</g>
<!-- Node1&#45;&gt;Node6 -->
<g id="edge5_Node000001_Node000006" class="edge">
<title>Node1&#45;&gt;Node6</title>
<g id="a_edge5_Node000001_Node000006"><a xlink:title=" ">
<path fill="none" stroke="#63b8ff" d="M317.97,-279.6C320.34,-253.46 327.02,-179.48 330.29,-143.36"/>
<polygon fill="#63b8ff" stroke="#63b8ff" points="333.73,-144.08 331.15,-133.8 326.76,-143.45 333.73,-144.08"/>
</a>
</g>
</g>
<!-- Node9 -->
<g id="Node000009" class="node">
<title>Node9</title>
<g id="a_Node000009"><a xlink:href="_model_impl_8h.html" target="_top" xlink:title=" ">
<polygon fill="white" stroke="#666666" points="449,-244 345.25,-244 345.25,-224 449,-224 449,-244"/>
<text xml:space="preserve" text-anchor="middle" x="397.12" y="-230.5" font-family="Helvetica,sans-Serif" font-size="10.00">../../src/ModelImpl.h</text>
</a>
</g>
</g>
<!-- Node1&#45;&gt;Node9 -->
<g id="edge8_Node000001_Node000009" class="edge">
<title>Node1&#45;&gt;Node9</title>
<g id="a_edge8_Node000001_Node000009"><a xlink:title=" ">
<path fill="none" stroke="#63b8ff" d="M331.06,-279.59C342.8,-271.67 359.86,-260.16 373.69,-250.82"/>
<polygon fill="#63b8ff" stroke="#63b8ff" points="375.5,-253.82 381.83,-245.33 371.58,-248.02 375.5,-253.82"/>
</a>
</g>
</g>
<!-- Node13 -->
<g id="Node000013" class="node">
<title>Node13</title>
<g id="a_Node000013"><a xlink:href="_complex_flow_8h.html" target="_top" xlink:title="Definition of the ComplexFlow class.">
<polygon fill="white" stroke="#666666" points="559.38,-244 466.88,-244 466.88,-224 559.38,-224 559.38,-244"/>
<text xml:space="preserve" text-anchor="middle" x="513.12" y="-230.5" font-family="Helvetica,sans-Serif" font-size="10.00">../ComplexFlow.h</text>
</a>
</g>
</g>
<!-- Node1&#45;&gt;Node13 -->
<g id="edge14_Node000001_Node000013" class="edge">
<title>Node1&#45;&gt;Node13</title>
<g id="a_edge14_Node000001_Node000013"><a xlink:title=" ">
<path fill="none" stroke="#63b8ff" d="M351.27,-279.59C383.53,-270.71 432.15,-257.31 467.68,-247.52"/>
<polygon fill="#63b8ff" stroke="#63b8ff" points="468.55,-250.91 477.26,-244.88 466.69,-244.16 468.55,-250.91"/>
</a>
</g>
</g>
<!-- Node15 -->
<g id="Node000015" class="node">
<title>Node15</title>
<g id="a_Node000015"><a xlink:href="_exponential_flow_8h.html" target="_top" xlink:title="Definition of the ExponentialFlow class.">
<polygon fill="white" stroke="#666666" points="682.38,-244 577.88,-244 577.88,-224 682.38,-224 682.38,-244"/>
<text xml:space="preserve" text-anchor="middle" x="630.12" y="-230.5" font-family="Helvetica,sans-Serif" font-size="10.00">../ExponentialFlow.h</text>
</a>
</g>
</g>
<!-- Node1&#45;&gt;Node15 -->
<g id="edge17_Node000001_Node000015" class="edge">
<title>Node1&#45;&gt;Node15</title>
<g id="a_edge17_Node000001_Node000015"><a xlink:title=" ">
<path fill="none" stroke="#63b8ff" d="M367.76,-280.26C421.89,-270.93 507.82,-256.1 566.48,-245.98"/>
<polygon fill="#63b8ff" stroke="#63b8ff" points="566.72,-249.49 575.98,-244.34 565.53,-242.59 566.72,-249.49"/>
</a>
</g>
</g>
<!-- Node16 -->
<g id="Node000016" class="node">
<title>Node16</title>
<g id="a_Node000016"><a xlink:href="_logistic_flow_8h.html" target="_top" xlink:title="Definition of the LogisticFlow class.">
<polygon fill="white" stroke="#666666" points="787.75,-244 700.5,-244 700.5,-224 787.75,-224 787.75,-244"/>
<text xml:space="preserve" text-anchor="middle" x="744.12" y="-230.5" font-family="Helvetica,sans-Serif" font-size="10.00">../LogisticFlow.h</text>
</a>
</g>
</g>
<!-- Node1&#45;&gt;Node16 -->
<g id="edge19_Node000001_Node000016" class="edge">
<title>Node1&#45;&gt;Node16</title>
<g id="a_edge19_Node000001_Node000016"><a xlink:title=" ">
<path fill="none" stroke="#63b8ff" d="M367.74,-283.7C437.55,-276.21 567.58,-261.64 688.86,-244.26"/>
<polygon fill="#63b8ff" stroke="#63b8ff" points="689.3,-247.74 698.69,-242.85 688.3,-240.81 689.3,-247.74"/>
</a>
</g>
</g>
<!-- Node7 -->
<g id="Node000007" class="node">
<title>Node7</title>
<g id="a_Node000007"><a xlink:href="_system_8h.html" target="_top" xlink:title=" ">
<polygon fill="white" stroke="#666666" points="460.12,-76 402.12,-76 402.12,-56 460.12,-56 460.12,-76"/>
<text xml:space="preserve" text-anchor="middle" x="431.12" y="-62.5" font-family="Helvetica,sans-Serif" font-size="10.00">System.h</text>
</a>
</g>
</g>
<!-- Node6&#45;&gt;Node7 -->
<g id="edge6_Node000006_Node000007" class="edge">
<title>Node6&#45;&gt;Node7</title>
<g id="a_edge6_Node000006_Node000007"><a xlink:title=" ">
<path fill="none" stroke="#63b8ff" d="M349.37,-111.59C364.47,-103.36 386.65,-91.26 404.11,-81.74"/>
<polygon fill="#63b8ff" stroke="#63b8ff" points="405.31,-85.07 412.42,-77.2 401.96,-78.92 405.31,-85.07"/>
</a>
</g>
</g>
<!-- Node8 -->
<g id="Node000008" class="node">
<title>Node8</title>
<g id="a_Node000008"><a xlink:title=" ">
<polygon fill="#e0e0e0" stroke="#999999" points="451.12,-20 411.12,-20 411.12,0 451.12,0 451.12,-20"/>
<text xml:space="preserve" text-anchor="middle" x="431.12" y="-6.5" font-family="Helvetica,sans-Serif" font-size="10.00">string</text>
</a>
</g>
</g>
<!-- Node7&#45;&gt;Node8 -->
<g id="edge7_Node000007_Node000008" class="edge">
<title>Node7&#45;&gt;Node8</title>
<g id="a_edge7_Node000007_Node000008"><a xlink:title=" ">
<path fill="none" stroke="#63b8ff" d="M431.12,-55.59C431.12,-49.01 431.12,-39.96 431.12,-31.73"/>
<polygon fill="#63b8ff" stroke="#63b8ff" points="434.63,-31.81 431.13,-21.81 427.63,-31.81 434.63,-31.81"/>
</a>
</g>
</g>
<!-- Node10 -->
<g id="Node000010" class="node">
<title>Node10</title>
<g id="a_Node000010"><a xlink:title=" ">
<polygon fill="#e0e0e0" stroke="#999999" points="403.62,-188 360.62,-188 360.62,-168 403.62,-168 403.62,-188"/>
<text xml:space="preserve" text-anchor="middle" x="382.12" y="-174.5" font-family="Helvetica,sans-Serif" font-size="10.00">vector</text>
</a>
</g>
</g>
<!-- Node9&#45;&gt;Node10 -->
<g id="edge9_Node000009_Node000010" class="edge">
<title>Node9&#45;&gt;Node10</title>
<g id="a_edge9_Node000009_Node000010"><a xlink:title=" ">
<path fill="none" stroke="#63b8ff" d="M394.51,-223.59C392.64,-216.86 390.05,-207.53 387.72,-199.15"/>
<polygon fill="#63b8ff" stroke="#63b8ff" points="391.16,-198.46 385.11,-189.76 384.42,-200.33 391.16,-198.46"/>
</a>
</g>
</g>
<!-- Node11 -->
<g id="Node000011" class="node">
<title>Node11</title>
<g id="a_Node000011"><a xlink:href="_model_8h.html" target="_top" xlink:title=" ">
<polygon fill="white" stroke="#666666" points="472.38,-188 421.88,-188 421.88,-168 472.38,-168 472.38,-188"/>
<text xml:space="preserve" text-anchor="middle" x="447.12" y="-174.5" font-family="Helvetica,sans-Serif" font-size="10.00">Model.h</text>
</a>
</g>
</g>
<!-- Node9&#45;&gt;Node11 -->
<g id="edge10_Node000009_Node000011" class="edge">
<title>Node9&#45;&gt;Node11</title>
<g id="a_edge10_Node000009_Node000011"><a xlink:title=" ">
<path fill="none" stroke="#63b8ff" d="M405.83,-223.59C412.72,-216.16 422.52,-205.58 430.84,-196.58"/>
<polygon fill="#63b8ff" stroke="#63b8ff" points="433.26,-199.12 437.49,-189.41 428.12,-194.37 433.26,-199.12"/>
</a>
</g>
</g>
<!-- Node11&#45;&gt;Node7 -->
<g id="edge11_Node000011_Node000007" class="edge">
<title>Node11&#45;&gt;Node7</title>
<g id="a_edge11_Node000011_Node000007"><a xlink:title=" ">
<path fill="none" stroke="#63b8ff" d="M445.76,-167.62C443.2,-150.01 437.61,-111.59 434.13,-87.65"/>
<polygon fill="#63b8ff" stroke="#63b8ff" points="437.61,-87.24 432.7,-77.85 430.68,-88.25 437.61,-87.24"/>
</a>
</g>
</g>
<!-- Node12 -->
<g id="Node000012" class="node">
<title>Node12</title>
<g id="a_Node000012"><a xlink:href="_flow_8h.html" target="_top" xlink:title=" ">
<polygon fill="white" stroke="#666666" points="503.38,-132 458.88,-132 458.88,-112 503.38,-112 503.38,-132"/>
<text xml:space="preserve" text-anchor="middle" x="481.12" y="-118.5" font-family="Helvetica,sans-Serif" font-size="10.00">Flow.h</text>
</a>
</g>
</g>
<!-- Node11&#45;&gt;Node12 -->
<g id="edge12_Node000011_Node000012" class="edge">
<title>Node11&#45;&gt;Node12</title>
<g id="a_edge12_Node000011_Node000012"><a xlink:title=" ">
<path fill="none" stroke="#63b8ff" d="M453.05,-167.59C457.48,-160.55 463.7,-150.67 469.16,-142"/>
<polygon fill="#63b8ff" stroke="#63b8ff" points="472.1,-143.91 474.46,-133.58 466.17,-140.18 472.1,-143.91"/>
</a>
</g>
</g>
<!-- Node12&#45;&gt;Node7 -->
<g id="edge13_Node000012_Node000007" class="edge">
<title>Node12&#45;&gt;Node7</title>
<g id="a_edge13_Node000012_Node000007"><a xlink:title=" ">
<path fill="none" stroke="#63b8ff" d="M472.42,-111.59C465.53,-104.16 455.73,-93.58 447.41,-84.58"/>
<polygon fill="#63b8ff" stroke="#63b8ff" points="450.13,-82.37 440.76,-77.41 444.99,-87.12 450.13,-82.37"/>
</a>
</g>
</g>
<!-- Node14 -->
<g id="Node000014" class="node">
<title>Node14</title>
<g id="a_Node000014"><a xlink:href="_flow_impl_8h.html" target="_top" xlink:title=" ">
<polygon fill="white" stroke="#666666" points="626.88,-188 537.38,-188 537.38,-168 626.88,-168 626.88,-188"/>
<text xml:space="preserve" text-anchor="middle" x="582.12" y="-174.5" font-family="Helvetica,sans-Serif" font-size="10.00">../src/FlowImpl.h</text>
</a>
</g>
</g>
<!-- Node13&#45;&gt;Node14 -->
<g id="edge15_Node000013_Node000014" class="edge">
<title>Node13&#45;&gt;Node14</title>
<g id="a_edge15_Node000013_Node000014"><a xlink:title=" ">
<path fill="none" stroke="#63b8ff" d="M525.14,-223.59C535.14,-215.77 549.59,-204.46 561.43,-195.19"/>
<polygon fill="#63b8ff" stroke="#63b8ff" points="563.33,-198.15 569.05,-189.23 559.02,-192.64 563.33,-198.15"/>
</a>
</g>
</g>
<!-- Node14&#45;&gt;Node12 -->
<g id="edge16_Node000014_Node000012" class="edge">
<title>Node14&#45;&gt;Node12</title>
<g id="a_edge16_Node000014_Node000012"><a xlink:title=" ">
<path fill="none" stroke="#63b8ff" d="M564.53,-167.59C549.2,-159.4 526.71,-147.37 508.94,-137.87"/>
<polygon fill="#63b8ff" stroke="#63b8ff" points="510.66,-134.82 500.19,-133.19 507.36,-140.99 510.66,-134.82"/>
</a>
</g>
</g>
<!-- Node15&#45;&gt;Node14 -->
<g id="edge18_Node000015_Node000014" class="edge">
<title>Node15&#45;&gt;Node14</title>
<g id="a_edge18_Node000015_Node000014"><a xlink:title=" ">
<path fill="none" stroke="#63b8ff" d="M621.76,-223.59C615.23,-216.24 605.94,-205.8 598.01,-196.87"/>
<polygon fill="#63b8ff" stroke="#63b8ff" points="600.66,-194.58 591.4,-189.43 595.42,-199.23 600.66,-194.58"/>
</a>
</g>
</g>
<!-- Node16&#45;&gt;Node14 -->
<g id="edge20_Node000016_Node000014" class="edge">
<title>Node16&#45;&gt;Node14</title>
<g id="a_edge20_Node000016_Node000014"><a xlink:title=" ">
<path fill="none" stroke="#63b8ff" d="M715.91,-223.59C689.7,-214.86 650.44,-201.77 621.22,-192.03"/>
<polygon fill="#63b8ff" stroke="#63b8ff" points="622.59,-188.8 612,-188.96 620.38,-195.44 622.59,-188.8"/>
</a>
</g>
</g>
</g>
</svg>

<g id="navigator" transform="translate(0 0)" fill="#404254">
  <rect fill="#f2f5e9" fill-opacity="0.5" stroke="#606060" stroke-width=".5" x="0" y="0" width="60" height="60"/>
  <use id="zoomplus" xlink:href="#zoomPlus" x="17" y="9" onmousedown="handleZoom(evt,'in')"/>
  <use id="zoomminus" xlink:href="#zoomMin" x="42" y="9" onmousedown="handleZoom(evt,'out')"/>
  <use id="reset" xlink:href="#resetDef" x="30" y="36" onmousedown="handleReset()"/>
   <use id="arrowup" xlink:href="#arrowUp" x="0" y="0" onmousedown="handlePan(0,-1)"/>
  <use id="arrowright" xlink:href="#arrowRight" x="0" y="0" onmousedown="handlePan(1,0)"/>
  <use id="arrowdown" xlink:href="#arrowDown" x="0" y="0" onmousedown="handlePan(0,1)"/>
  <use id="arrowleft" xlink:href="#arrowLeft" x="0" y="0" onmousedown="handlePan(-1,0)"/>
</g>
<svg viewBox="0 0 15 15" width="100%" height="30px" preserveAspectRatio="xMaxYMin meet">
 <g id="arrow_out" transform="scale(0.3 0.3)">
  <a xlink:href="funcional__tests_8cpp__incl_org.svg" target="_base">
   <rect id="button" ry="5" rx="5" y="6" x="6" height="38" width="38"
        fill="#f2f5e9" fill-opacity="0.5" stroke="#606060" stroke-width="1.0"/>
   <path id="arrow"
     d="M 11.500037,31.436501 C 11.940474,20.09759 22.043105,11.32322 32.158766,21.979434 L 37.068811,17.246167 C 37.068811,17.246167 37.088388,32 37.088388,32 L 22.160133,31.978069 C 22.160133,31.978069 26.997745,27.140456 26.997745,27.140456 C 18.528582,18.264221 13.291696,25.230495 11.500037,31.436501 z"
     style="fill:#404040;"/>
  </a>
 </g>
</svg>

<style type='text/css'>
<![CDATA[
[data-mouse-over-selected='false'] { opacity: 0.7; }
[data-mouse-over-selected='true']  { opacity: 1.0; }
]]>
</style>
<script type="application/ecmascript"><![CDATA[
document.addEventListener('DOMContentLoaded', (event) => {
  highlightEdges();
  highlightAdjacentNodes();
});
]]></script>
</svg>
