<?xml version="1.0" encoding="UTF-8" standalone="no"?>
<!DOCTYPE svg PUBLIC "-//W3C//DTD SVG 1.1//EN"
 "http://www.w3.org/Graphics/SVG/1.1/DTD/svg11.dtd">
<!-- Generated by graphviz version 14.1.5 (20260411.2331)
 -->
<!-- Title: logisticalFuncionalTest Pages: 1 -->
<svg width="352pt" height="180pt"
 viewBox="0.00 0.00 352.00 180.00" xmlns="http://www.w3.org/2000/svg" xmlns:xlink="http://www.w3.org/1999/xlink">
<g id="graph0" class="graph" transform="scale(1 1) rotate(0) translate(4 176)">
<title>logisticalFuncionalTest</title>
<!-- Node1 -->
<g id="Node000001" class="node">
<title>Node1</title>
<g id="a_Node000001"><a xlink:title="Functional test for logistic flow.">
<polygon fill="#999999" stroke="#666666" points="115,-115 0,-115 0,-95 115,-95 115,-115"/>
<text xml:space="preserve" text-anchor="middle" x="57.5" y="-101.5" font-family="Helvetica,sans-Serif" font-size="10.00">logisticalFuncionalTest</text>
</a>
</g>
</g>
<!-- Node2 -->
<g id="Node000002" class="node">
<title>Node2</title>
<g id="a_Node000002"><a xlink:href="class_model.html#a302d4ed93c6e6f9a0f728e021a91f821" target="_top" xlink:title="Adds a system to the model.">
<polygon fill="white" stroke="#666666" points="215,-172 151,-172 151,-152 215,-152 215,-172"/>
<text xml:space="preserve" text-anchor="middle" x="183" y="-158.5" font-family="Helvetica,sans-Serif" font-size="10.00">Model::add</text>
</a>
</g>
</g>
<!-- Node1&#45;&gt;Node2 -->
<g id="edge1_Node000001_Node000002" class="edge">
<title>Node1&#45;&gt;Node2</title>
<g id="a_edge1_Node000001_Node000002"><a xlink:title=" ">
<path fill="none" stroke="#63b8ff" d="M81.15,-115.45C100.21,-124.25 127.72,-136.95 149.19,-146.86"/>
<polygon fill="#63b8ff" stroke="#63b8ff" points="147.57,-149.96 158.12,-150.98 150.5,-143.61 147.57,-149.96"/>
</a>
</g>
</g>
<!-- Node3 -->
<g id="Node000003" class="node">
<title>Node3</title>
<g id="a_Node000003"><a xlink:href="class_system.html#aa7d17369d1034e7d8643a63f69d1901d" target="_top" xlink:title="Gets the current value of the system.">
<polygon fill="white" stroke="#666666" points="344.25,-134 251,-134 251,-114 344.25,-114 344.25,-134"/>
<text xml:space="preserve" text-anchor="middle" x="297.62" y="-120.5" font-family="Helvetica,sans-Serif" font-size="10.00">System::getValue</text>
</a>
</g>
</g>
<!-- Node1&#45;&gt;Node3 -->
<g id="edge2_Node000001_Node000003" class="edge">
<title>Node1&#45;&gt;Node3</title>
<g id="a_edge2_Node000001_Node000003"><a xlink:title=" ">
<path fill="none" stroke="#63b8ff" d="M115.23,-109.53C152.76,-112.52 201.79,-116.43 239.41,-119.43"/>
<polygon fill="#63b8ff" stroke="#63b8ff" points="238.94,-122.91 249.19,-120.21 239.5,-115.93 238.94,-122.91"/>
</a>
</g>
</g>
<!-- Node4 -->
<g id="Node000004" class="node">
<title>Node4</title>
<g id="a_Node000004"><a xlink:href="funcional__tests_8cpp.html#ad2b4c01be2c53afbb083be1bc94f4e38" target="_top" xlink:title="Checks if a value is between two bounds (inclusive).">
<polygon fill="white" stroke="#666666" points="213.88,-96 152.12,-96 152.12,-76 213.88,-76 213.88,-96"/>
<text xml:space="preserve" text-anchor="middle" x="183" y="-82.5" font-family="Helvetica,sans-Serif" font-size="10.00">isBetween</text>
</a>
</g>
</g>
<!-- Node1&#45;&gt;Node4 -->
<g id="edge3_Node000001_Node000004" class="edge">
<title>Node1&#45;&gt;Node4</title>
<g id="a_edge3_Node000001_Node000004"><a xlink:title=" ">
<path fill="none" stroke="#63b8ff" d="M115.19,-96.28C123.81,-94.95 132.56,-93.61 140.77,-92.34"/>
<polygon fill="#63b8ff" stroke="#63b8ff" points="141.09,-95.84 150.44,-90.86 140.02,-88.92 141.09,-95.84"/>
</a>
</g>
</g>
<!-- Node5 -->
<g id="Node000005" class="node">
<title>Node5</title>
<g id="a_Node000005"><a xlink:href="class_model.html#a27269301c78fc4f54061c150f13ae123" target="_top" xlink:title="Executes the simulation in the specified time interval.">
<polygon fill="white" stroke="#666666" points="213.88,-58 152.12,-58 152.12,-38 213.88,-38 213.88,-58"/>
<text xml:space="preserve" text-anchor="middle" x="183" y="-44.5" font-family="Helvetica,sans-Serif" font-size="10.00">Model::run</text>
</a>
</g>
</g>
<!-- Node1&#45;&gt;Node5 -->
<g id="edge4_Node000001_Node000005" class="edge">
<title>Node1&#45;&gt;Node5</title>
<g id="a_edge4_Node000001_Node000005"><a xlink:title=" ">
<path fill="none" stroke="#63b8ff" d="M81.15,-94.55C100.21,-85.75 127.72,-73.05 149.19,-63.14"/>
<polygon fill="#63b8ff" stroke="#63b8ff" points="150.5,-66.39 158.12,-59.02 147.57,-60.04 150.5,-66.39"/>
</a>
</g>
</g>
<!-- Node5&#45;&gt;Node3 -->
<g id="edge7_Node000005_Node000003" class="edge">
<title>Node5&#45;&gt;Node3</title>
<g id="a_edge7_Node000005_Node000003"><a xlink:title=" ">
<path fill="none" stroke="#63b8ff" d="M202.9,-58.49C207.03,-61.08 211.27,-63.98 215,-67 233.07,-81.65 231.85,-91.8 251,-105 252.8,-106.24 254.7,-107.42 256.65,-108.55"/>
<polygon fill="#63b8ff" stroke="#63b8ff" points="254.87,-111.57 265.37,-112.98 258.04,-105.33 254.87,-111.57"/>
</a>
</g>
</g>
<!-- Node6 -->
<g id="Node000006" class="node">
<title>Node6</title>
<g id="a_Node000006"><a xlink:href="class_flow.html#a17d9bd9c23d8949446709af6a4c0d6a6" target="_top" xlink:title="Gets the sink system of the flow.">
<polygon fill="white" stroke="#666666" points="335.62,-96 259.62,-96 259.62,-76 335.62,-76 335.62,-96"/>
<text xml:space="preserve" text-anchor="middle" x="297.62" y="-82.5" font-family="Helvetica,sans-Serif" font-size="10.00">Flow::getSink</text>
</a>
</g>
</g>
<!-- Node5&#45;&gt;Node6 -->
<g id="edge5_Node000005_Node000006" class="edge">
<title>Node5&#45;&gt;Node6</title>
<g id="a_edge5_Node000005_Node000006"><a xlink:title=" ">
<path fill="none" stroke="#63b8ff" d="M214.18,-58.18C226.73,-62.42 241.49,-67.4 255.04,-71.97"/>
<polygon fill="#63b8ff" stroke="#63b8ff" points="253.55,-75.16 264.14,-75.04 255.78,-68.53 253.55,-75.16"/>
</a>
</g>
</g>
<!-- Node7 -->
<g id="Node000007" class="node">
<title>Node7</title>
<g id="a_Node000007"><a xlink:href="class_flow.html#a1f3858f90d141807377c2640fb5dd0fc" target="_top" xlink:title="Gets the source system of the flow.">
<polygon fill="white" stroke="#666666" points="341.25,-58 254,-58 254,-38 341.25,-38 341.25,-58"/>
<text xml:space="preserve" text-anchor="middle" x="297.62" y="-44.5" font-family="Helvetica,sans-Serif" font-size="10.00">Flow::getSource</text>
</a>
</g>
</g>
<!-- Node5&#45;&gt;Node7 -->
<g id="edge6_Node000005_Node000007" class="edge">
<title>Node5&#45;&gt;Node7</title>
<g id="a_edge6_Node000005_Node000007"><a xlink:title=" ">
<path fill="none" stroke="#63b8ff" d="M214.18,-48C222.89,-48 232.67,-48 242.38,-48"/>
<polygon fill="#63b8ff" stroke="#63b8ff" points="242.14,-51.5 252.14,-48 242.14,-44.5 242.14,-51.5"/>
</a>
</g>
</g>
<!-- Node8 -->
<g id="Node000008" class="node">
<title>Node8</title>
<g id="a_Node000008"><a xlink:href="class_system.html#a5343de0a45485edd88bc87f338fe9a19" target="_top" xlink:title="Sets the value of the system state.">
<polygon fill="white" stroke="#666666" points="344.25,-20 251,-20 251,0 344.25,0 344.25,-20"/>
<text xml:space="preserve" text-anchor="middle" x="297.62" y="-6.5" font-family="Helvetica,sans-Serif" font-size="10.00">System::setValue</text>
</a>
</g>
</g>
<!-- Node5&#45;&gt;Node8 -->
<g id="edge8_Node000005_Node000008" class="edge">
<title>Node5&#45;&gt;Node8</title>
<g id="a_edge8_Node000005_Node000008"><a xlink:title=" ">
<path fill="none" stroke="#63b8ff" d="M214.18,-37.82C226.73,-33.58 241.49,-28.6 255.04,-24.03"/>
<polygon fill="#63b8ff" stroke="#63b8ff" points="255.78,-27.47 264.14,-20.96 253.55,-20.84 255.78,-27.47"/>
</a>
</g>
</g>
</g>
</svg>
