<?xml version="1.0" encoding="UTF-8" standalone="no"?>
<!DOCTYPE svg PUBLIC "-//W3C//DTD SVG 1.1//EN"
 "http://www.w3.org/Graphics/SVG/1.1/DTD/svg11.dtd">
<!-- Generated by graphviz version 14.1.5 (20260411.2331)
 -->
<!-- Title: Graphical Class Hierarchy Pages: 1 -->
<svg width="169pt" height="104pt"
 viewBox="0.00 0.00 169.00 104.00" xmlns="http://www.w3.org/2000/svg" xmlns:xlink="http://www.w3.org/1999/xlink">
<g id="graph0" class="graph" transform="scale(1 1) rotate(0) translate(4 100)">
<title>Graphical Class Hierarchy</title>
<!-- Node0 -->
<g id="Node000000" class="node">
<title>Node0</title>
<g id="a_Node000000"><a xlink:href="class_flow.html" target="_top" xlink:title="Abstract class that represents a flow between systems.">
<polygon fill="white" stroke="#666666" points="37,-58 0,-58 0,-38 37,-38 37,-58"/>
<text xml:space="preserve" text-anchor="middle" x="18.5" y="-44.5" font-family="Helvetica,sans-Serif" font-size="10.00">Flow</text>
</a>
</g>
</g>
<!-- Node1 -->
<g id="Node000001" class="node">
<title>Node1</title>
<g id="a_Node000001"><a xlink:href="class_complex_flow.html" target="_top" xlink:title="Implements a flow with specific calculation rule.">
<polygon fill="white" stroke="#666666" points="155,-96 79,-96 79,-76 155,-76 155,-96"/>
<text xml:space="preserve" text-anchor="middle" x="117" y="-82.5" font-family="Helvetica,sans-Serif" font-size="10.00">ComplexFlow</text>
</a>
</g>
</g>
<!-- Node0&#45;&gt;Node1 -->
<g id="edge1_Node000000_Node000001" class="edge">
<title>Node0&#45;&gt;Node1</title>
<g id="a_edge1_Node000000_Node000001"><a xlink:title=" ">
<path fill="none" stroke="#63b8ff" d="M47.65,-59.08C60.91,-64.31 76.65,-70.5 89.67,-75.63"/>
<polygon fill="#63b8ff" stroke="#63b8ff" points="49.19,-55.93 38.61,-55.52 46.63,-62.44 49.19,-55.93"/>
</a>
</g>
</g>
<!-- Node2 -->
<g id="Node000002" class="node">
<title>Node2</title>
<g id="a_Node000002"><a xlink:href="class_exponential_flow.html" target="_top" xlink:title="Implements a flow with exponential growth.">
<polygon fill="white" stroke="#666666" points="161,-58 73,-58 73,-38 161,-38 161,-58"/>
<text xml:space="preserve" text-anchor="middle" x="117" y="-44.5" font-family="Helvetica,sans-Serif" font-size="10.00">ExponentialFlow</text>
</a>
</g>
</g>
<!-- Node0&#45;&gt;Node2 -->
<g id="edge2_Node000000_Node000002" class="edge">
<title>Node0&#45;&gt;Node2</title>
<g id="a_edge2_Node000000_Node000002"><a xlink:title=" ">
<path fill="none" stroke="#63b8ff" d="M48.44,-48C56.09,-48 64.51,-48 72.74,-48"/>
<polygon fill="#63b8ff" stroke="#63b8ff" points="48.71,-44.5 38.71,-48 48.71,-51.5 48.71,-44.5"/>
</a>
</g>
</g>
<!-- Node3 -->
<g id="Node000003" class="node">
<title>Node3</title>
<g id="a_Node000003"><a xlink:href="class_logistic_flow.html" target="_top" xlink:title="Implements a logistic flow with population limit.">
<polygon fill="white" stroke="#666666" points="152.38,-20 81.62,-20 81.62,0 152.38,0 152.38,-20"/>
<text xml:space="preserve" text-anchor="middle" x="117" y="-6.5" font-family="Helvetica,sans-Serif" font-size="10.00">LogisticFlow</text>
</a>
</g>
</g>
<!-- Node0&#45;&gt;Node3 -->
<g id="edge3_Node000000_Node000003" class="edge">
<title>Node0&#45;&gt;Node3</title>
<g id="a_edge3_Node000000_Node000003"><a xlink:title=" ">
<path fill="none" stroke="#63b8ff" d="M47.65,-36.92C60.91,-31.69 76.65,-25.5 89.67,-20.37"/>
<polygon fill="#63b8ff" stroke="#63b8ff" points="46.63,-33.56 38.61,-40.48 49.19,-40.07 46.63,-33.56"/>
</a>
</g>
</g>
</g>
</svg>
