<?xml version="1.0" encoding="UTF-8" standalone="no"?>
<!DOCTYPE svg PUBLIC "-//W3C//DTD SVG 1.1//EN"
 "http://www.w3.org/Graphics/SVG/1.1/DTD/svg11.dtd">
<!-- Generated by graphviz version 14.1.5 (20260411.2331)
 -->
<!-- Title: main Pages: 1 -->
<svg width="437pt" height="233pt"
 viewBox="0.00 0.00 437.00 233.00" xmlns="http://www.w3.org/2000/svg" xmlns:xlink="http://www.w3.org/1999/xlink">

<svg id="main" version="1.1" xmlns="http://www.w3.org/2000/svg" xmlns:xlink="http://www.w3.org/1999/xlink" xml:space="preserve">

<style type="text/css"><![CDATA[
.node, .edge {opacity: 0.7;}
.node.selected, .edge.selected {opacity: 1;}
.edge:hover path { stroke: red; }
.edge:hover polygon { stroke: red; fill: red; }
]]></style>
<script type="application/ecmascript" xlink:href="svg.min.js"/>
<svg id="graph" class="graph">
<g id="graph0" class="graph" transform="scale(1 1) rotate(0) translate(4 228.9)">
<title>main</title>
<!-- Node1 -->
<g id="Node000001" class="node">
<title>Node1</title>
<g id="a_Node000001"><a xlink:title=" ">
<polygon fill="#999999" stroke="#666666" points="37,-134 0,-134 0,-114 37,-114 37,-134"/>
<text xml:space="preserve" text-anchor="middle" x="18.5" y="-120.5" font-family="Helvetica,sans-Serif" font-size="10.00">main</text>
</a>
</g>
</g>
<!-- Node2 -->
<g id="Node000002" class="node">
<title>Node2</title>
<g id="a_Node000002"><a xlink:href="funcional__tests_8cpp.html#a943dfe0c597a01c9760c140715fed527" target="_top" xlink:title="Implementation of complex functional test.">
<polygon fill="white" stroke="#666666" points="192.88,-172 79.38,-172 79.38,-152 192.88,-152 192.88,-172"/>
<text xml:space="preserve" text-anchor="middle" x="136.12" y="-158.5" font-family="Helvetica,sans-Serif" font-size="10.00">complexFuncionalTest</text>
</a>
</g>
</g>
<!-- Node1&#45;&gt;Node2 -->
<g id="edge1_Node000001_Node000002" class="edge">
<title>Node1&#45;&gt;Node2</title>
<g id="a_edge1_Node000001_Node000002"><a xlink:title=" ">
<path fill="none" stroke="#63b8ff" d="M37.27,-130.53C47.65,-134.29 61.02,-139.04 73,-143 78.15,-144.7 83.56,-146.43 88.95,-148.13"/>
<polygon fill="#63b8ff" stroke="#63b8ff" points="87.85,-151.45 98.44,-151.07 89.92,-144.77 87.85,-151.45"/>
</a>
</g>
</g>
<!-- Node10 -->
<g id="Node000010" class="node">
<title>Node10</title>
<g id="a_Node000010"><a xlink:href="funcional__tests_8cpp.html#a2c448ffaffdff4b03c825a01dffa6f27" target="_top" xlink:title="Implementation of exponential functional test.">
<polygon fill="white" stroke="#666666" points="199.25,-134 73,-134 73,-114 199.25,-114 199.25,-134"/>
<text xml:space="preserve" text-anchor="middle" x="136.12" y="-120.5" font-family="Helvetica,sans-Serif" font-size="10.00">exponentialFuncionalTest</text>
</a>
</g>
</g>
<!-- Node1&#45;&gt;Node10 -->
<g id="edge10_Node000001_Node000010" class="edge">
<title>Node1&#45;&gt;Node10</title>
<g id="a_edge10_Node000001_Node000010"><a xlink:title=" ">
<path fill="none" stroke="#63b8ff" d="M37.31,-124C44.13,-124 52.4,-124 61.21,-124"/>
<polygon fill="#63b8ff" stroke="#63b8ff" points="61.08,-127.5 71.08,-124 61.08,-120.5 61.08,-127.5"/>
</a>
</g>
</g>
<!-- Node11 -->
<g id="Node000011" class="node">
<title>Node11</title>
<g id="a_Node000011"><a xlink:href="funcional__tests_8cpp.html#a60914db64bde71b56d69320797266c29" target="_top" xlink:title="Implementation of logistic functional test.">
<polygon fill="white" stroke="#666666" points="193.62,-96 78.62,-96 78.62,-76 193.62,-76 193.62,-96"/>
<text xml:space="preserve" text-anchor="middle" x="136.12" y="-82.5" font-family="Helvetica,sans-Serif" font-size="10.00">logisticalFuncionalTest</text>
</a>
</g>
</g>
<!-- Node1&#45;&gt;Node11 -->
<g id="edge15_Node000001_Node000011" class="edge">
<title>Node1&#45;&gt;Node11</title>
<g id="a_edge15_Node000001_Node000011"><a xlink:title=" ">
<path fill="none" stroke="#63b8ff" d="M37.27,-117.47C47.65,-113.71 61.02,-108.96 73,-105 78.15,-103.3 83.56,-101.57 88.95,-99.87"/>
<polygon fill="#63b8ff" stroke="#63b8ff" points="89.92,-103.23 98.44,-96.93 87.85,-96.55 89.92,-103.23"/>
</a>
</g>
</g>
<!-- Node3 -->
<g id="Node000003" class="node">
<title>Node3</title>
<g id="a_Node000003"><a xlink:href="class_model.html#a302d4ed93c6e6f9a0f728e021a91f821" target="_top" xlink:title="Adds a system to the model.">
<polygon fill="white" stroke="#666666" points="299.25,-134 235.25,-134 235.25,-114 299.25,-114 299.25,-134"/>
<text xml:space="preserve" text-anchor="middle" x="267.25" y="-120.5" font-family="Helvetica,sans-Serif" font-size="10.00">Model::add</text>
</a>
</g>
</g>
<!-- Node2&#45;&gt;Node3 -->
<g id="edge2_Node000002_Node000003" class="edge">
<title>Node2&#45;&gt;Node3</title>
<g id="a_edge2_Node000002_Node000003"><a xlink:title=" ">
<path fill="none" stroke="#63b8ff" d="M172.75,-151.52C188.79,-146.79 207.84,-141.19 224.55,-136.27"/>
<polygon fill="#63b8ff" stroke="#63b8ff" points="225.08,-139.77 233.68,-133.58 223.1,-133.05 225.08,-139.77"/>
</a>
</g>
</g>
<!-- Node4 -->
<g id="Node000004" class="node">
<title>Node4</title>
<g id="a_Node000004"><a xlink:href="class_system.html#aa7d17369d1034e7d8643a63f69d1901d" target="_top" xlink:title="Gets the current value of the system.">
<polygon fill="white" stroke="#666666" points="428.5,-153 335.25,-153 335.25,-133 428.5,-133 428.5,-153"/>
<text xml:space="preserve" text-anchor="middle" x="381.88" y="-139.5" font-family="Helvetica,sans-Serif" font-size="10.00">System::getValue</text>
</a>
</g>
</g>
<!-- Node2&#45;&gt;Node4 -->
<g id="edge3_Node000002_Node000004" class="edge">
<title>Node2&#45;&gt;Node4</title>
<g id="a_edge3_Node000002_Node000004"><a xlink:title=" ">
<path fill="none" stroke="#63b8ff" d="M149.44,-172.45C176.68,-194.24 244,-240.74 299.25,-219 327.96,-207.7 352.56,-181.02 367.04,-162.48"/>
<polygon fill="#63b8ff" stroke="#63b8ff" points="369.73,-164.73 372.92,-154.63 364.12,-160.53 369.73,-164.73"/>
</a>
</g>
</g>
<!-- Node5 -->
<g id="Node000005" class="node">
<title>Node5</title>
<g id="a_Node000005"><a xlink:href="funcional__tests_8cpp.html#aa6ada142da95d4c7c576bc6d348776ed" target="_top" xlink:title="Rounds a double value to 4 decimal places.">
<polygon fill="white" stroke="#666666" points="289.88,-210 244.62,-210 244.62,-190 289.88,-190 289.88,-210"/>
<text xml:space="preserve" text-anchor="middle" x="267.25" y="-196.5" font-family="Helvetica,sans-Serif" font-size="10.00">round4</text>
</a>
</g>
</g>
<!-- Node2&#45;&gt;Node5 -->
<g id="edge4_Node000002_Node000005" class="edge">
<title>Node2&#45;&gt;Node5</title>
<g id="a_edge4_Node000002_Node000005"><a xlink:title=" ">
<path fill="none" stroke="#63b8ff" d="M172.75,-172.48C191.79,-178.09 215.06,-184.94 233.63,-190.4"/>
<polygon fill="#63b8ff" stroke="#63b8ff" points="232.47,-193.71 243.05,-193.17 234.44,-186.99 232.47,-193.71"/>
</a>
</g>
</g>
<!-- Node6 -->
<g id="Node000006" class="node">
<title>Node6</title>
<g id="a_Node000006"><a xlink:href="class_model.html#a27269301c78fc4f54061c150f13ae123" target="_top" xlink:title="Executes the simulation in the specified time interval.">
<polygon fill="white" stroke="#666666" points="298.12,-58 236.38,-58 236.38,-38 298.12,-38 298.12,-58"/>
<text xml:space="preserve" text-anchor="middle" x="267.25" y="-44.5" font-family="Helvetica,sans-Serif" font-size="10.00">Model::run</text>
</a>
</g>
</g>
<!-- Node2&#45;&gt;Node6 -->
<g id="edge5_Node000002_Node000006" class="edge">
<title>Node2&#45;&gt;Node6</title>
<g id="a_edge5_Node000002_Node000006"><a xlink:title=" ">
<path fill="none" stroke="#63b8ff" d="M183.55,-151.59C189.12,-149.27 194.5,-146.44 199.25,-143 225.99,-123.64 245.92,-90.22 256.82,-68.63"/>
<polygon fill="#63b8ff" stroke="#63b8ff" points="259.96,-70.17 261.15,-59.64 253.65,-67.13 259.96,-70.17"/>
</a>
</g>
</g>
<!-- Node6&#45;&gt;Node4 -->
<g id="edge8_Node000006_Node000004" class="edge">
<title>Node6&#45;&gt;Node4</title>
<g id="a_edge8_Node000006_Node000004"><a xlink:title=" ">
<path fill="none" stroke="#63b8ff" d="M282.03,-58.27C287.47,-62.44 293.73,-67.35 299.25,-72 315.85,-85.99 318.91,-90.72 335.25,-105 342.98,-111.75 351.59,-119 359.24,-125.33"/>
<polygon fill="#63b8ff" stroke="#63b8ff" points="356.84,-127.9 366.79,-131.55 361.29,-122.49 356.84,-127.9"/>
</a>
</g>
</g>
<!-- Node7 -->
<g id="Node000007" class="node">
<title>Node7</title>
<g id="a_Node000007"><a xlink:href="class_flow.html#a17d9bd9c23d8949446709af6a4c0d6a6" target="_top" xlink:title="Gets the sink system of the flow.">
<polygon fill="white" stroke="#666666" points="419.88,-58 343.88,-58 343.88,-38 419.88,-38 419.88,-58"/>
<text xml:space="preserve" text-anchor="middle" x="381.88" y="-44.5" font-family="Helvetica,sans-Serif" font-size="10.00">Flow::getSink</text>
</a>
</g>
</g>
<!-- Node6&#45;&gt;Node7 -->
<g id="edge6_Node000006_Node000007" class="edge">
<title>Node6&#45;&gt;Node7</title>
<g id="a_edge6_Node000006_Node000007"><a xlink:title=" ">
<path fill="none" stroke="#63b8ff" d="M298.43,-48C308.89,-48 320.89,-48 332.44,-48"/>
<polygon fill="#63b8ff" stroke="#63b8ff" points="332.26,-51.5 342.26,-48 332.26,-44.5 332.26,-51.5"/>
</a>
</g>
</g>
<!-- Node8 -->
<g id="Node000008" class="node">
<title>Node8</title>
<g id="a_Node000008"><a xlink:href="class_flow.html#a1f3858f90d141807377c2640fb5dd0fc" target="_top" xlink:title="Gets the source system of the flow.">
<polygon fill="white" stroke="#666666" points="425.5,-20 338.25,-20 338.25,0 425.5,0 425.5,-20"/>
<text xml:space="preserve" text-anchor="middle" x="381.88" y="-6.5" font-family="Helvetica,sans-Serif" font-size="10.00">Flow::getSource</text>
</a>
</g>
</g>
<!-- Node6&#45;&gt;Node8 -->
<g id="edge7_Node000006_Node000008" class="edge">
<title>Node6&#45;&gt;Node8</title>
<g id="a_edge7_Node000006_Node000008"><a xlink:title=" ">
<path fill="none" stroke="#63b8ff" d="M298.43,-37.82C310.98,-33.58 325.74,-28.6 339.29,-24.03"/>
<polygon fill="#63b8ff" stroke="#63b8ff" points="340.03,-27.47 348.39,-20.96 337.8,-20.84 340.03,-27.47"/>
</a>
</g>
</g>
<!-- Node9 -->
<g id="Node000009" class="node">
<title>Node9</title>
<g id="a_Node000009"><a xlink:href="class_system.html#a5343de0a45485edd88bc87f338fe9a19" target="_top" xlink:title="Sets the value of the system state.">
<polygon fill="white" stroke="#666666" points="428.5,-96 335.25,-96 335.25,-76 428.5,-76 428.5,-96"/>
<text xml:space="preserve" text-anchor="middle" x="381.88" y="-82.5" font-family="Helvetica,sans-Serif" font-size="10.00">System::setValue</text>
</a>
</g>
</g>
<!-- Node6&#45;&gt;Node9 -->
<g id="edge9_Node000006_Node000009" class="edge">
<title>Node6&#45;&gt;Node9</title>
<g id="a_edge9_Node000006_Node000009"><a xlink:title=" ">
<path fill="none" stroke="#63b8ff" d="M298.43,-58.18C310.98,-62.42 325.74,-67.4 339.29,-71.97"/>
<polygon fill="#63b8ff" stroke="#63b8ff" points="337.8,-75.16 348.39,-75.04 340.03,-68.53 337.8,-75.16"/>
</a>
</g>
</g>
<!-- Node10&#45;&gt;Node3 -->
<g id="edge11_Node000010_Node000003" class="edge">
<title>Node10&#45;&gt;Node3</title>
<g id="a_edge11_Node000010_Node000003"><a xlink:title=" ">
<path fill="none" stroke="#63b8ff" d="M199.42,-124C207.64,-124 215.91,-124 223.7,-124"/>
<polygon fill="#63b8ff" stroke="#63b8ff" points="223.56,-127.5 233.56,-124 223.56,-120.5 223.56,-127.5"/>
</a>
</g>
</g>
<!-- Node10&#45;&gt;Node4 -->
<g id="edge12_Node000010_Node000004" class="edge">
<title>Node10&#45;&gt;Node4</title>
<g id="a_edge12_Node000010_Node000004"><a xlink:title=" ">
<path fill="none" stroke="#63b8ff" d="M181.31,-134.42C198.1,-137.88 217.46,-141.29 235.25,-143 264.32,-145.79 296.8,-146.06 323.7,-145.52"/>
<polygon fill="#63b8ff" stroke="#63b8ff" points="323.43,-149.03 333.34,-145.28 323.26,-142.03 323.43,-149.03"/>
</a>
</g>
</g>
<!-- Node10&#45;&gt;Node5 -->
<g id="edge13_Node000010_Node000005" class="edge">
<title>Node10&#45;&gt;Node5</title>
<g id="a_edge13_Node000010_Node000005"><a xlink:title=" ">
<path fill="none" stroke="#63b8ff" d="M180.28,-134.45C186.84,-136.81 193.38,-139.64 199.25,-143 218.09,-153.77 218.65,-162.01 235.25,-176 237.92,-178.25 240.77,-180.57 243.61,-182.83"/>
<polygon fill="#63b8ff" stroke="#63b8ff" points="241.24,-185.41 251.28,-188.8 245.54,-179.89 241.24,-185.41"/>
</a>
</g>
</g>
<!-- Node10&#45;&gt;Node6 -->
<g id="edge14_Node000010_Node000006" class="edge">
<title>Node10&#45;&gt;Node6</title>
<g id="a_edge14_Node000010_Node000006"><a xlink:title=" ">
<path fill="none" stroke="#63b8ff" d="M179.52,-113.59C186.31,-111.2 193.12,-108.36 199.25,-105 217.97,-94.75 236.22,-78.71 248.93,-66.25"/>
<polygon fill="#63b8ff" stroke="#63b8ff" points="251.17,-68.96 255.72,-59.39 246.2,-64.03 251.17,-68.96"/>
</a>
</g>
</g>
<!-- Node11&#45;&gt;Node3 -->
<g id="edge16_Node000011_Node000003" class="edge">
<title>Node11&#45;&gt;Node3</title>
<g id="a_edge16_Node000011_Node000003"><a xlink:title=" ">
<path fill="none" stroke="#63b8ff" d="M172.75,-96.48C188.79,-101.21 207.84,-106.81 224.55,-111.73"/>
<polygon fill="#63b8ff" stroke="#63b8ff" points="223.1,-114.95 233.68,-114.42 225.08,-108.23 223.1,-114.95"/>
</a>
</g>
</g>
<!-- Node11&#45;&gt;Node4 -->
<g id="edge17_Node000011_Node000004" class="edge">
<title>Node11&#45;&gt;Node4</title>
<g id="a_edge17_Node000011_Node000004"><a xlink:title=" ">
<path fill="none" stroke="#63b8ff" d="M193.89,-88.22C225.4,-90.55 265.03,-95.3 299.25,-105 317.95,-110.3 337.73,-119.41 353.14,-127.39"/>
<polygon fill="#63b8ff" stroke="#63b8ff" points="351.23,-130.34 361.71,-131.95 354.53,-124.16 351.23,-130.34"/>
</a>
</g>
</g>
<!-- Node11&#45;&gt;Node6 -->
<g id="edge19_Node000011_Node000006" class="edge">
<title>Node11&#45;&gt;Node6</title>
<g id="a_edge19_Node000011_Node000006"><a xlink:title=" ">
<path fill="none" stroke="#63b8ff" d="M172.75,-75.52C189.04,-70.72 208.43,-65.02 225.31,-60.05"/>
<polygon fill="#63b8ff" stroke="#63b8ff" points="225.93,-63.51 234.54,-57.33 223.96,-56.8 225.93,-63.51"/>
</a>
</g>
</g>
<!-- Node12 -->
<g id="Node000012" class="node">
<title>Node12</title>
<g id="a_Node000012"><a xlink:href="funcional__tests_8cpp.html#ad2b4c01be2c53afbb083be1bc94f4e38" target="_top" xlink:title="Checks if a value is between two bounds (inclusive).">
<polygon fill="white" stroke="#666666" points="298.12,-20 236.38,-20 236.38,0 298.12,0 298.12,-20"/>
<text xml:space="preserve" text-anchor="middle" x="267.25" y="-6.5" font-family="Helvetica,sans-Serif" font-size="10.00">isBetween</text>
</a>
</g>
</g>
<!-- Node11&#45;&gt;Node12 -->
<g id="edge18_Node000011_Node000012" class="edge">
<title>Node11&#45;&gt;Node12</title>
<g id="a_edge18_Node000011_Node000012"><a xlink:title=" ">
<path fill="none" stroke="#63b8ff" d="M154.81,-75.59C176.54,-62.8 213.65,-40.96 239.03,-26.02"/>
<polygon fill="#63b8ff" stroke="#63b8ff" points="240.63,-29.14 247.48,-21.05 237.08,-23.11 240.63,-29.14"/>
</a>
</g>
</g>
</g>
</svg>
</svg>

<style type='text/css'>
<![CDATA[
[data-mouse-over-selected='false'] { opacity: 0.7; }
[data-mouse-over-selected='true']  { opacity: 1.0; }
]]>
</style>
<script type="application/ecmascript"><![CDATA[
document.addEventListener('DOMContentLoaded', (event) => {
  highlightEdges();
  highlightAdjacentNodes();
});
]]></script>
</svg>
