<?xml version="1.0" encoding="UTF-8" standalone="no"?>
<!DOCTYPE svg PUBLIC "-//W3C//DTD SVG 1.1//EN"
 "http://www.w3.org/Graphics/SVG/1.1/DTD/svg11.dtd">
<!-- Generated by graphviz version 14.1.5 (20260411.2331)
 -->
<!-- Title: unit_Flow.cpp Pages: 1 -->
<svg width="423pt" height="308pt"
 viewBox="0.00 0.00 423.00 308.00" xmlns="http://www.w3.org/2000/svg" xmlns:xlink="http://www.w3.org/1999/xlink">
<g id="graph0" class="graph" transform="scale(1 1) rotate(0) translate(4 304)">
<title>unit_Flow.cpp</title>
<!-- Node1 -->
<g id="Node000001" class="node">
<title>Node1</title>
<g id="a_Node000001"><a xlink:title=" ">
<polygon fill="#999999" stroke="#666666" points="217.62,-300 141.62,-300 141.62,-280 217.62,-280 217.62,-300"/>
<text xml:space="preserve" text-anchor="middle" x="179.62" y="-286.5" font-family="Helvetica,sans-Serif" font-size="10.00">unit_Flow.cpp</text>
</a>
</g>
</g>
<!-- Node2 -->
<g id="Node000002" class="node">
<title>Node2</title>
<g id="a_Node000002"><a xlink:title=" ">
<polygon fill="#e0e0e0" stroke="#999999" points="51.25,-244 0,-244 0,-224 51.25,-224 51.25,-244"/>
<text xml:space="preserve" text-anchor="middle" x="25.62" y="-230.5" font-family="Helvetica,sans-Serif" font-size="10.00">assert.h</text>
</a>
</g>
</g>
<!-- Node1&#45;&gt;Node2 -->
<g id="edge1_Node000001_Node000002" class="edge">
<title>Node1&#45;&gt;Node2</title>
<g id="a_edge1_Node000001_Node000002"><a xlink:title=" ">
<path fill="none" stroke="#63b8ff" d="M152.8,-279.59C127.69,-270.79 89.98,-257.57 62.14,-247.8"/>
<polygon fill="#63b8ff" stroke="#63b8ff" points="63.65,-244.63 53.06,-244.62 61.34,-251.23 63.65,-244.63"/>
</a>
</g>
</g>
<!-- Node3 -->
<g id="Node000003" class="node">
<title>Node3</title>
<g id="a_Node000003"><a xlink:href="unit___flow_8h.html" target="_top" xlink:title="Unit tests for the Flow class.">
<polygon fill="white" stroke="#666666" points="134.38,-244 68.88,-244 68.88,-224 134.38,-224 134.38,-244"/>
<text xml:space="preserve" text-anchor="middle" x="101.62" y="-230.5" font-family="Helvetica,sans-Serif" font-size="10.00">unit_Flow.h</text>
</a>
</g>
</g>
<!-- Node1&#45;&gt;Node3 -->
<g id="edge2_Node000001_Node000003" class="edge">
<title>Node1&#45;&gt;Node3</title>
<g id="a_edge2_Node000001_Node000003"><a xlink:title=" ">
<path fill="none" stroke="#63b8ff" d="M166.04,-279.59C154.59,-271.67 137.96,-260.16 124.47,-250.82"/>
<polygon fill="#63b8ff" stroke="#63b8ff" points="126.78,-248.16 116.56,-245.34 122.79,-253.91 126.78,-248.16"/>
</a>
</g>
</g>
<!-- Node4 -->
<g id="Node000004" class="node">
<title>Node4</title>
<g id="a_Node000004"><a xlink:href="mocks_8h.html" target="_top" xlink:title=" ">
<polygon fill="white" stroke="#666666" points="206.38,-244 152.88,-244 152.88,-224 206.38,-224 206.38,-244"/>
<text xml:space="preserve" text-anchor="middle" x="179.62" y="-230.5" font-family="Helvetica,sans-Serif" font-size="10.00">mocks.h</text>
</a>
</g>
</g>
<!-- Node1&#45;&gt;Node4 -->
<g id="edge3_Node000001_Node000004" class="edge">
<title>Node1&#45;&gt;Node4</title>
<g id="a_edge3_Node000001_Node000004"><a xlink:title=" ">
<path fill="none" stroke="#63b8ff" d="M179.62,-279.59C179.62,-273.01 179.62,-263.96 179.62,-255.73"/>
<polygon fill="#63b8ff" stroke="#63b8ff" points="183.13,-255.81 179.63,-245.81 176.13,-255.81 183.13,-255.81"/>
</a>
</g>
</g>
<!-- Node6 -->
<g id="Node000006" class="node">
<title>Node6</title>
<g id="a_Node000006"><a xlink:href="_system_8h.html" target="_top" xlink:title=" ">
<polygon fill="white" stroke="#666666" points="218.88,-76 126.38,-76 126.38,-56 218.88,-56 218.88,-76"/>
<text xml:space="preserve" text-anchor="middle" x="172.62" y="-62.5" font-family="Helvetica,sans-Serif" font-size="10.00">../../src/System.h</text>
</a>
</g>
</g>
<!-- Node1&#45;&gt;Node6 -->
<g id="edge18_Node000001_Node000006" class="edge">
<title>Node1&#45;&gt;Node6</title>
<g id="a_edge18_Node000001_Node000006"><a xlink:title=" ">
<path fill="none" stroke="#63b8ff" d="M189.58,-279.75C217.39,-252.79 291.55,-172.34 255.62,-112 247.19,-97.83 232.57,-87.85 217.93,-80.95"/>
<polygon fill="#63b8ff" stroke="#63b8ff" points="219.32,-77.74 208.74,-77.05 216.58,-84.18 219.32,-77.74"/>
</a>
</g>
</g>
<!-- Node11 -->
<g id="Node000011" class="node">
<title>Node11</title>
<g id="a_Node000011"><a xlink:href="_flow_impl_8h.html" target="_top" xlink:title=" ">
<polygon fill="white" stroke="#666666" points="400.88,-188 302.38,-188 302.38,-168 400.88,-168 400.88,-188"/>
<text xml:space="preserve" text-anchor="middle" x="351.62" y="-174.5" font-family="Helvetica,sans-Serif" font-size="10.00">../../src/FlowImpl.h</text>
</a>
</g>
</g>
<!-- Node1&#45;&gt;Node11 -->
<g id="edge14_Node000001_Node000011" class="edge">
<title>Node1&#45;&gt;Node11</title>
<g id="a_edge14_Node000001_Node000011"><a xlink:title=" ">
<path fill="none" stroke="#63b8ff" d="M211.88,-279.57C234.53,-272.04 264.91,-260.1 288.62,-244 307.85,-230.95 325.89,-211.29 337.69,-197.01"/>
<polygon fill="#63b8ff" stroke="#63b8ff" points="340.34,-199.3 343.86,-189.31 334.88,-194.92 340.34,-199.3"/>
</a>
</g>
</g>
<!-- Node5 -->
<g id="Node000005" class="node">
<title>Node5</title>
<g id="a_Node000005"><a xlink:href="_mock_system_8h.html" target="_top" xlink:title=" ">
<polygon fill="white" stroke="#666666" points="103.62,-188 21.62,-188 21.62,-168 103.62,-168 103.62,-188"/>
<text xml:space="preserve" text-anchor="middle" x="62.62" y="-174.5" font-family="Helvetica,sans-Serif" font-size="10.00">MockSystem.h</text>
</a>
</g>
</g>
<!-- Node4&#45;&gt;Node5 -->
<g id="edge4_Node000004_Node000005" class="edge">
<title>Node4&#45;&gt;Node5</title>
<g id="a_edge4_Node000004_Node000005"><a xlink:title=" ">
<path fill="none" stroke="#63b8ff" d="M159.25,-223.59C141.07,-215.21 114.2,-202.8 93.41,-193.21"/>
<polygon fill="#63b8ff" stroke="#63b8ff" points="95.08,-190.13 84.54,-189.11 92.15,-196.48 95.08,-190.13"/>
</a>
</g>
</g>
<!-- Node9 -->
<g id="Node000009" class="node">
<title>Node9</title>
<g id="a_Node000009"><a xlink:href="_mock_flow_8h.html" target="_top" xlink:title=" ">
<polygon fill="white" stroke="#666666" points="192.88,-188 124.38,-188 124.38,-168 192.88,-168 192.88,-188"/>
<text xml:space="preserve" text-anchor="middle" x="158.62" y="-174.5" font-family="Helvetica,sans-Serif" font-size="10.00">MockFlow.h</text>
</a>
</g>
</g>
<!-- Node4&#45;&gt;Node9 -->
<g id="edge9_Node000004_Node000009" class="edge">
<title>Node4&#45;&gt;Node9</title>
<g id="a_edge9_Node000004_Node000009"><a xlink:title=" ">
<path fill="none" stroke="#63b8ff" d="M175.97,-223.59C173.32,-216.78 169.64,-207.32 166.35,-198.86"/>
<polygon fill="#63b8ff" stroke="#63b8ff" points="169.68,-197.76 162.79,-189.71 163.15,-200.3 169.68,-197.76"/>
</a>
</g>
</g>
<!-- Node5&#45;&gt;Node6 -->
<g id="edge5_Node000005_Node000006" class="edge">
<title>Node5&#45;&gt;Node6</title>
<g id="a_edge5_Node000005_Node000006"><a xlink:title=" ">
<path fill="none" stroke="#63b8ff" d="M58.53,-167.66C53.28,-154.13 46.14,-128.83 57.62,-112 70.76,-92.76 93.45,-81.75 115.23,-75.44"/>
<polygon fill="#63b8ff" stroke="#63b8ff" points="115.87,-78.89 124.68,-73.01 114.12,-72.11 115.87,-78.89"/>
</a>
</g>
</g>
<!-- Node7 -->
<g id="Node000007" class="node">
<title>Node7</title>
<g id="a_Node000007"><a xlink:title=" ">
<polygon fill="#e0e0e0" stroke="#999999" points="192.62,-20 152.62,-20 152.62,0 192.62,0 192.62,-20"/>
<text xml:space="preserve" text-anchor="middle" x="172.62" y="-6.5" font-family="Helvetica,sans-Serif" font-size="10.00">string</text>
</a>
</g>
</g>
<!-- Node5&#45;&gt;Node7 -->
<g id="edge7_Node000005_Node000007" class="edge">
<title>Node5&#45;&gt;Node7</title>
<g id="a_edge7_Node000005_Node000007"><a xlink:title=" ">
<path fill="none" stroke="#63b8ff" d="M56.82,-167.76C49.46,-154.76 38.74,-130.6 47.62,-112 67.09,-71.24 111.94,-41.64 142.27,-25.38"/>
<polygon fill="#63b8ff" stroke="#63b8ff" points="143.7,-28.58 150.98,-20.89 140.49,-22.36 143.7,-28.58"/>
</a>
</g>
</g>
<!-- Node8 -->
<g id="Node000008" class="node">
<title>Node8</title>
<g id="a_Node000008"><a xlink:title=" ">
<polygon fill="#e0e0e0" stroke="#999999" points="110.12,-132 67.12,-132 67.12,-112 110.12,-112 110.12,-132"/>
<text xml:space="preserve" text-anchor="middle" x="88.62" y="-118.5" font-family="Helvetica,sans-Serif" font-size="10.00">vector</text>
</a>
</g>
</g>
<!-- Node5&#45;&gt;Node8 -->
<g id="edge8_Node000005_Node000008" class="edge">
<title>Node5&#45;&gt;Node8</title>
<g id="a_edge8_Node000005_Node000008"><a xlink:title=" ">
<path fill="none" stroke="#63b8ff" d="M67.15,-167.59C70.47,-160.7 75.09,-151.1 79.2,-142.57"/>
<polygon fill="#63b8ff" stroke="#63b8ff" points="82.31,-144.19 83.49,-133.66 76,-141.15 82.31,-144.19"/>
</a>
</g>
</g>
<!-- Node6&#45;&gt;Node7 -->
<g id="edge6_Node000006_Node000007" class="edge">
<title>Node6&#45;&gt;Node7</title>
<g id="a_edge6_Node000006_Node000007"><a xlink:title=" ">
<path fill="none" stroke="#63b8ff" d="M172.62,-55.59C172.62,-49.01 172.62,-39.96 172.62,-31.73"/>
<polygon fill="#63b8ff" stroke="#63b8ff" points="176.13,-31.81 172.63,-21.81 169.13,-31.81 176.13,-31.81"/>
</a>
</g>
</g>
<!-- Node9&#45;&gt;Node6 -->
<g id="edge12_Node000009_Node000006" class="edge">
<title>Node9&#45;&gt;Node6</title>
<g id="a_edge12_Node000009_Node000006"><a xlink:title=" ">
<path fill="none" stroke="#63b8ff" d="M157.75,-167.68C156.76,-154.99 155.64,-131.64 158.62,-112 159.88,-103.72 162.37,-94.86 164.91,-87.22"/>
<polygon fill="#63b8ff" stroke="#63b8ff" points="168.18,-88.48 168.25,-77.88 161.59,-86.12 168.18,-88.48"/>
</a>
</g>
</g>
<!-- Node9&#45;&gt;Node8 -->
<g id="edge13_Node000009_Node000008" class="edge">
<title>Node9&#45;&gt;Node8</title>
<g id="a_edge13_Node000009_Node000008"><a xlink:title=" ">
<path fill="none" stroke="#63b8ff" d="M146.43,-167.59C136.29,-159.77 121.63,-148.46 109.61,-139.19"/>
<polygon fill="#63b8ff" stroke="#63b8ff" points="111.93,-136.56 101.88,-133.22 107.66,-142.1 111.93,-136.56"/>
</a>
</g>
</g>
<!-- Node10 -->
<g id="Node000010" class="node">
<title>Node10</title>
<g id="a_Node000010"><a xlink:href="_flow_8h.html" target="_top" xlink:title=" ">
<polygon fill="white" stroke="#666666" points="246.12,-132 167.12,-132 167.12,-112 246.12,-112 246.12,-132"/>
<text xml:space="preserve" text-anchor="middle" x="206.62" y="-118.5" font-family="Helvetica,sans-Serif" font-size="10.00">../../src/Flow.h</text>
</a>
</g>
</g>
<!-- Node9&#45;&gt;Node10 -->
<g id="edge10_Node000009_Node000010" class="edge">
<title>Node9&#45;&gt;Node10</title>
<g id="a_edge10_Node000009_Node000010"><a xlink:title=" ">
<path fill="none" stroke="#63b8ff" d="M166.99,-167.59C173.52,-160.24 182.81,-149.8 190.74,-140.87"/>
<polygon fill="#63b8ff" stroke="#63b8ff" points="193.33,-143.23 197.35,-133.43 188.09,-138.58 193.33,-143.23"/>
</a>
</g>
</g>
<!-- Node10&#45;&gt;Node6 -->
<g id="edge11_Node000010_Node000006" class="edge">
<title>Node10&#45;&gt;Node6</title>
<g id="a_edge11_Node000010_Node000006"><a xlink:title=" ">
<path fill="none" stroke="#63b8ff" d="M200.7,-111.59C196.27,-104.55 190.05,-94.67 184.59,-86"/>
<polygon fill="#63b8ff" stroke="#63b8ff" points="187.58,-84.18 179.29,-77.58 181.65,-87.91 187.58,-84.18"/>
</a>
</g>
</g>
<!-- Node11&#45;&gt;Node7 -->
<g id="edge15_Node000011_Node000007" class="edge">
<title>Node11&#45;&gt;Node7</title>
<g id="a_edge15_Node000011_Node000007"><a xlink:title=" ">
<path fill="none" stroke="#63b8ff" d="M342.82,-167.58C330.79,-154.78 308.45,-131.29 288.62,-112 262.25,-86.33 255.43,-80.11 227.62,-56 216.49,-46.35 203.77,-35.91 193.37,-27.51"/>
<polygon fill="#63b8ff" stroke="#63b8ff" points="195.76,-24.94 185.77,-21.41 191.38,-30.4 195.76,-24.94"/>
</a>
</g>
</g>
<!-- Node11&#45;&gt;Node10 -->
<g id="edge16_Node000011_Node000010" class="edge">
<title>Node11&#45;&gt;Node10</title>
<g id="a_edge16_Node000011_Node000010"><a xlink:title=" ">
<path fill="none" stroke="#63b8ff" d="M326.37,-167.59C303.22,-158.97 268.7,-146.12 242.66,-136.42"/>
<polygon fill="#63b8ff" stroke="#63b8ff" points="244.09,-133.22 233.5,-133.01 241.65,-139.78 244.09,-133.22"/>
</a>
</g>
</g>
<!-- Node12 -->
<g id="Node000012" class="node">
<title>Node12</title>
<g id="a_Node000012"><a xlink:href="handle_body_8h.html" target="_top" xlink:title=" ">
<polygon fill="white" stroke="#666666" points="414.88,-132 340.38,-132 340.38,-112 414.88,-112 414.88,-132"/>
<text xml:space="preserve" text-anchor="middle" x="377.62" y="-118.5" font-family="Helvetica,sans-Serif" font-size="10.00">handleBody.h</text>
</a>
</g>
</g>
<!-- Node11&#45;&gt;Node12 -->
<g id="edge17_Node000011_Node000012" class="edge">
<title>Node11&#45;&gt;Node12</title>
<g id="a_edge17_Node000011_Node000012"><a xlink:title=" ">
<path fill="none" stroke="#63b8ff" d="M356.15,-167.59C359.47,-160.7 364.09,-151.1 368.2,-142.57"/>
<polygon fill="#63b8ff" stroke="#63b8ff" points="371.31,-144.19 372.49,-133.66 365,-141.15 371.31,-144.19"/>
</a>
</g>
</g>
</g>
</svg>
