<?xml version="1.0" encoding="UTF-8" standalone="no"?>
<!DOCTYPE svg PUBLIC "-//W3C//DTD SVG 1.1//EN"
 "http://www.w3.org/Graphics/SVG/1.1/DTD/svg11.dtd">
<!-- Generated by graphviz version 14.1.5 (20260411.2331)
 -->
<!-- Title: run_unit_test_System Pages: 1 -->
<svg width="469pt" height="344pt"
 viewBox="0.00 0.00 469.00 344.00" xmlns="http://www.w3.org/2000/svg" xmlns:xlink="http://www.w3.org/1999/xlink">

<svg id="main" version="1.1" xmlns="http://www.w3.org/2000/svg" xmlns:xlink="http://www.w3.org/1999/xlink" xml:space="preserve">

<style type="text/css"><![CDATA[
.node, .edge {opacity: 0.7;}
.node.selected, .edge.selected {opacity: 1;}
.edge:hover path { stroke: red; }
.edge:hover polygon { stroke: red; fill: red; }
]]></style>
<script type="application/ecmascript" xlink:href="svg.min.js"/>
<svg id="graph" class="graph">
<g id="graph0" class="graph" transform="scale(1 1) rotate(0) translate(4 340)">
<title>run_unit_test_System</title>
<!-- Node1 -->
<g id="Node000001" class="node">
<title>Node1</title>
<g id="a_Node000001"><a xlink:title="Runs all unit tests for the SystemImpl class.">
<polygon fill="#999999" stroke="#666666" points="111.25,-172 0,-172 0,-152 111.25,-152 111.25,-172"/>
<text xml:space="preserve" text-anchor="middle" x="55.62" y="-158.5" font-family="Helvetica,sans-Serif" font-size="10.00">run_unit_test_System</text>
</a>
</g>
</g>
<!-- Node2 -->
<g id="Node000002" class="node">
<title>Node2</title>
<g id="a_Node000002"><a xlink:href="unit___system_8cpp.html#ae1b2276713abfafdd55b3a70f2380c78" target="_top" xlink:title="Test the assignment operator of System.">
<polygon fill="white" stroke="#666666" points="311,-210 147.25,-210 147.25,-190 311,-190 311,-210"/>
<text xml:space="preserve" text-anchor="middle" x="229.12" y="-196.5" font-family="Helvetica,sans-Serif" font-size="10.00">unit_System_assignmentOperator</text>
</a>
</g>
</g>
<!-- Node1&#45;&gt;Node2 -->
<g id="edge1_Node000001_Node000002" class="edge">
<title>Node1&#45;&gt;Node2</title>
<g id="a_edge1_Node000001_Node000002"><a xlink:title=" ">
<path fill="none" stroke="#63b8ff" d="M103.94,-172.48C124.37,-177.01 148.48,-182.35 169.98,-187.12"/>
<polygon fill="#63b8ff" stroke="#63b8ff" points="168.96,-190.48 179.48,-189.22 170.48,-183.64 168.96,-190.48"/>
</a>
</g>
</g>
<!-- Node5 -->
<g id="Node000005" class="node">
<title>Node5</title>
<g id="a_Node000005"><a xlink:href="unit___system_8cpp.html#a4b504bd5c78b1a1cae785948cf0e58a3" target="_top" xlink:title="Test the copy constructor of System.">
<polygon fill="white" stroke="#666666" points="303.12,-134 155.12,-134 155.12,-114 303.12,-114 303.12,-134"/>
<text xml:space="preserve" text-anchor="middle" x="229.12" y="-120.5" font-family="Helvetica,sans-Serif" font-size="10.00">unit_System_copyConstructor</text>
</a>
</g>
</g>
<!-- Node1&#45;&gt;Node5 -->
<g id="edge4_Node000001_Node000005" class="edge">
<title>Node1&#45;&gt;Node5</title>
<g id="a_edge4_Node000001_Node000005"><a xlink:title=" ">
<path fill="none" stroke="#63b8ff" d="M103.94,-151.52C124.37,-146.99 148.48,-141.65 169.98,-136.88"/>
<polygon fill="#63b8ff" stroke="#63b8ff" points="170.48,-140.36 179.48,-134.78 168.96,-133.52 170.48,-140.36"/>
</a>
</g>
</g>
<!-- Node7 -->
<g id="Node000007" class="node">
<title>Node7</title>
<g id="a_Node000007"><a xlink:href="unit___system_8cpp.html#aa0b06ac0db36fb098d1fb27a757caf16" target="_top" xlink:title="Test the default constructor of System.">
<polygon fill="white" stroke="#666666" points="307.25,-172 151,-172 151,-152 307.25,-152 307.25,-172"/>
<text xml:space="preserve" text-anchor="middle" x="229.12" y="-158.5" font-family="Helvetica,sans-Serif" font-size="10.00">unit_System_defaultConstructor</text>
</a>
</g>
</g>
<!-- Node1&#45;&gt;Node7 -->
<g id="edge8_Node000001_Node000007" class="edge">
<title>Node1&#45;&gt;Node7</title>
<g id="a_edge8_Node000001_Node000007"><a xlink:title=" ">
<path fill="none" stroke="#63b8ff" d="M111.36,-162C120.38,-162 129.93,-162 139.52,-162"/>
<polygon fill="#63b8ff" stroke="#63b8ff" points="139.27,-165.5 149.27,-162 139.27,-158.5 139.27,-165.5"/>
</a>
</g>
</g>
<!-- Node8 -->
<g id="Node000008" class="node">
<title>Node8</title>
<g id="a_Node000008"><a xlink:href="unit___system_8cpp.html#a6102352f9630ddcf12eb94bc4b558bc1" target="_top" xlink:title="Test the destructor of System.">
<polygon fill="white" stroke="#666666" points="288.88,-20 169.38,-20 169.38,0 288.88,0 288.88,-20"/>
<text xml:space="preserve" text-anchor="middle" x="229.12" y="-6.5" font-family="Helvetica,sans-Serif" font-size="10.00">unit_System_destructor</text>
</a>
</g>
</g>
<!-- Node1&#45;&gt;Node8 -->
<g id="edge11_Node000001_Node000008" class="edge">
<title>Node1&#45;&gt;Node8</title>
<g id="a_edge11_Node000001_Node000008"><a xlink:title=" ">
<path fill="none" stroke="#63b8ff" d="M60.51,-151.76C70.61,-126.56 100.26,-61.26 147.25,-29 150.72,-26.61 154.46,-24.53 158.35,-22.7"/>
<polygon fill="#63b8ff" stroke="#63b8ff" points="159.56,-25.98 167.53,-19.01 156.95,-19.49 159.56,-25.98"/>
</a>
</g>
</g>
<!-- Node9 -->
<g id="Node000009" class="node">
<title>Node9</title>
<g id="a_Node000009"><a xlink:href="unit___system_8cpp.html#ac5707e927092753fdf9ffb275f209466" target="_top" xlink:title="Test the getName method of System.">
<polygon fill="white" stroke="#666666" points="287,-298 171.25,-298 171.25,-278 287,-278 287,-298"/>
<text xml:space="preserve" text-anchor="middle" x="229.12" y="-284.5" font-family="Helvetica,sans-Serif" font-size="10.00">unit_System_getName</text>
</a>
</g>
</g>
<!-- Node1&#45;&gt;Node9 -->
<g id="edge12_Node000001_Node000009" class="edge">
<title>Node1&#45;&gt;Node9</title>
<g id="a_edge12_Node000001_Node000009"><a xlink:title=" ">
<path fill="none" stroke="#63b8ff" d="M62.33,-172.44C74.73,-194.09 106.35,-243.96 147.25,-269 151.33,-271.5 155.72,-273.67 160.25,-275.56"/>
<polygon fill="#63b8ff" stroke="#63b8ff" points="159.03,-278.84 169.63,-278.94 161.41,-272.25 159.03,-278.84"/>
</a>
</g>
</g>
<!-- Node11 -->
<g id="Node000011" class="node">
<title>Node11</title>
<g id="a_Node000011"><a xlink:href="unit___system_8cpp.html#adeeb73fcb3ab0a36610f3740f85b6eae" target="_top" xlink:title="Test the getValue method of System.">
<polygon fill="white" stroke="#666666" points="285.88,-96 172.38,-96 172.38,-76 285.88,-76 285.88,-96"/>
<text xml:space="preserve" text-anchor="middle" x="229.12" y="-82.5" font-family="Helvetica,sans-Serif" font-size="10.00">unit_System_getValue</text>
</a>
</g>
</g>
<!-- Node1&#45;&gt;Node11 -->
<g id="edge15_Node000001_Node000011" class="edge">
<title>Node1&#45;&gt;Node11</title>
<g id="a_edge15_Node000001_Node000011"><a xlink:title=" ">
<path fill="none" stroke="#63b8ff" d="M69.97,-151.6C86.98,-138.83 117.76,-117.33 147.25,-105 151.87,-103.07 156.72,-101.31 161.65,-99.72"/>
<polygon fill="#63b8ff" stroke="#63b8ff" points="162.5,-103.12 171.08,-96.92 160.5,-96.41 162.5,-103.12"/>
</a>
</g>
</g>
<!-- Node12 -->
<g id="Node000012" class="node">
<title>Node12</title>
<g id="a_Node000012"><a xlink:href="unit___system_8cpp.html#afc6a7207144c2f1f8a441a4d95023630" target="_top" xlink:title="Test the parameterized constructor of System.">
<polygon fill="white" stroke="#666666" points="297.88,-260 160.38,-260 160.38,-228 297.88,-228 297.88,-260"/>
<text xml:space="preserve" text-anchor="start" x="168.38" y="-246.5" font-family="Helvetica,sans-Serif" font-size="10.00">unit_System_parameterized</text>
<text xml:space="preserve" text-anchor="middle" x="229.12" y="-234.5" font-family="Helvetica,sans-Serif" font-size="10.00">Constructor</text>
</a>
</g>
</g>
<!-- Node1&#45;&gt;Node12 -->
<g id="edge18_Node000001_Node000012" class="edge">
<title>Node1&#45;&gt;Node12</title>
<g id="a_edge18_Node000001_Node000012"><a xlink:title=" ">
<path fill="none" stroke="#63b8ff" d="M70.41,-172.29C87.64,-184.76 118.37,-205.73 147.25,-219 150.76,-220.61 154.41,-222.16 158.12,-223.63"/>
<polygon fill="#63b8ff" stroke="#63b8ff" points="156.69,-226.84 167.29,-227.07 159.15,-220.28 156.69,-226.84"/>
</a>
</g>
</g>
<!-- Node13 -->
<g id="Node000013" class="node">
<title>Node13</title>
<g id="a_Node000013"><a xlink:href="unit___system_8cpp.html#ae92753cb0977ecd3217dc3540dc33e87" target="_top" xlink:title="Test the setName method of System.">
<polygon fill="white" stroke="#666666" points="287,-336 171.25,-336 171.25,-316 287,-316 287,-336"/>
<text xml:space="preserve" text-anchor="middle" x="229.12" y="-322.5" font-family="Helvetica,sans-Serif" font-size="10.00">unit_System_setName</text>
</a>
</g>
</g>
<!-- Node1&#45;&gt;Node13 -->
<g id="edge21_Node000001_Node000013" class="edge">
<title>Node1&#45;&gt;Node13</title>
<g id="a_edge21_Node000001_Node000013"><a xlink:title=" ">
<path fill="none" stroke="#63b8ff" d="M59.96,-172.36C69.15,-199.2 97.53,-271.39 147.25,-307 151.32,-309.91 155.77,-312.39 160.42,-314.48"/>
<polygon fill="#63b8ff" stroke="#63b8ff" points="158.87,-317.63 169.46,-317.96 161.38,-311.1 158.87,-317.63"/>
</a>
</g>
</g>
<!-- Node14 -->
<g id="Node000014" class="node">
<title>Node14</title>
<g id="a_Node000014"><a xlink:href="unit___system_8cpp.html#a0e0a4c0513e1dbf6487920465ce62b22" target="_top" xlink:title="Test the setValue method of System.">
<polygon fill="white" stroke="#666666" points="285.88,-58 172.38,-58 172.38,-38 285.88,-38 285.88,-58"/>
<text xml:space="preserve" text-anchor="middle" x="229.12" y="-44.5" font-family="Helvetica,sans-Serif" font-size="10.00">unit_System_setValue</text>
</a>
</g>
</g>
<!-- Node1&#45;&gt;Node14 -->
<g id="edge24_Node000001_Node000014" class="edge">
<title>Node1&#45;&gt;Node14</title>
<g id="a_edge24_Node000001_Node000014"><a xlink:title=" ">
<path fill="none" stroke="#63b8ff" d="M63.45,-151.54C76.95,-131.75 109.07,-88.85 147.25,-67 151.66,-64.47 156.4,-62.28 161.28,-60.38"/>
<polygon fill="#63b8ff" stroke="#63b8ff" points="162.37,-63.71 170.7,-57.16 160.1,-57.09 162.37,-63.71"/>
</a>
</g>
</g>
<!-- Node3 -->
<g id="Node000003" class="node">
<title>Node3</title>
<g id="a_Node000003"><a xlink:href="class_system_impl.html#a68ca2c650fa5669baec1bd4c05fa2bd0" target="_top" xlink:title=" ">
<polygon fill="white" stroke="#666666" points="461.25,-232 347,-232 347,-212 461.25,-212 461.25,-232"/>
<text xml:space="preserve" text-anchor="middle" x="404.12" y="-218.5" font-family="Helvetica,sans-Serif" font-size="10.00">SystemImpl::getName</text>
</a>
</g>
</g>
<!-- Node2&#45;&gt;Node3 -->
<g id="edge2_Node000002_Node000003" class="edge">
<title>Node2&#45;&gt;Node3</title>
<g id="a_edge2_Node000002_Node000003"><a xlink:title=" ">
<path fill="none" stroke="#63b8ff" d="M311.31,-210.32C319.33,-211.34 327.41,-212.37 335.28,-213.37"/>
<polygon fill="#63b8ff" stroke="#63b8ff" points="334.75,-216.83 345.12,-214.62 335.64,-209.89 334.75,-216.83"/>
</a>
</g>
</g>
<!-- Node4 -->
<g id="Node000004" class="node">
<title>Node4</title>
<g id="a_Node000004"><a xlink:href="class_system_impl.html#abd3ff91586d4474c0a747dc5dd6e0268" target="_top" xlink:title=" ">
<polygon fill="white" stroke="#666666" points="460.12,-153 348.12,-153 348.12,-133 460.12,-133 460.12,-153"/>
<text xml:space="preserve" text-anchor="middle" x="404.12" y="-139.5" font-family="Helvetica,sans-Serif" font-size="10.00">SystemImpl::getValue</text>
</a>
</g>
</g>
<!-- Node2&#45;&gt;Node4 -->
<g id="edge3_Node000002_Node000004" class="edge">
<title>Node2&#45;&gt;Node4</title>
<g id="a_edge3_Node000002_Node000004"><a xlink:title=" ">
<path fill="none" stroke="#63b8ff" d="M280.08,-189.59C290.39,-187.07 301.11,-184.18 311,-181 331.19,-174.51 353.16,-165.53 370.58,-157.92"/>
<polygon fill="#63b8ff" stroke="#63b8ff" points="371.68,-161.26 379.4,-154.01 368.84,-154.86 371.68,-161.26"/>
</a>
</g>
</g>
<!-- Node5&#45;&gt;Node3 -->
<g id="edge5_Node000005_Node000003" class="edge">
<title>Node5&#45;&gt;Node3</title>
<g id="a_edge5_Node000005_Node000003"><a xlink:title=" ">
<path fill="none" stroke="#63b8ff" d="M289.61,-134.5C297.01,-136.8 304.31,-139.6 311,-143 341.19,-158.33 369.78,-185.54 386.88,-203.68"/>
<polygon fill="#63b8ff" stroke="#63b8ff" points="383.94,-205.66 393.29,-210.65 389.1,-200.92 383.94,-205.66"/>
</a>
</g>
</g>
<!-- Node5&#45;&gt;Node4 -->
<g id="edge6_Node000005_Node000004" class="edge">
<title>Node5&#45;&gt;Node4</title>
<g id="a_edge6_Node000005_Node000004"><a xlink:title=" ">
<path fill="none" stroke="#63b8ff" d="M303.49,-132.06C314.5,-133.27 325.79,-134.51 336.64,-135.7"/>
<polygon fill="#63b8ff" stroke="#63b8ff" points="335.93,-139.14 346.25,-136.75 336.69,-132.18 335.93,-139.14"/>
</a>
</g>
</g>
<!-- Node6 -->
<g id="Node000006" class="node">
<title>Node6</title>
<g id="a_Node000006"><a xlink:href="class_system_impl.html#a3ebff8dd869e1fab281375d5c2ef8362" target="_top" xlink:title=" ">
<polygon fill="white" stroke="#666666" points="460.12,-96 348.12,-96 348.12,-76 460.12,-76 460.12,-96"/>
<text xml:space="preserve" text-anchor="middle" x="404.12" y="-82.5" font-family="Helvetica,sans-Serif" font-size="10.00">SystemImpl::setValue</text>
</a>
</g>
</g>
<!-- Node5&#45;&gt;Node6 -->
<g id="edge7_Node000005_Node000006" class="edge">
<title>Node5&#45;&gt;Node6</title>
<g id="a_edge7_Node000005_Node000006"><a xlink:title=" ">
<path fill="none" stroke="#63b8ff" d="M277.86,-113.52C298.47,-108.99 322.78,-103.65 344.48,-98.88"/>
<polygon fill="#63b8ff" stroke="#63b8ff" points="345.06,-102.34 354.07,-96.77 343.55,-95.5 345.06,-102.34"/>
</a>
</g>
</g>
<!-- Node7&#45;&gt;Node3 -->
<g id="edge9_Node000007_Node000003" class="edge">
<title>Node7&#45;&gt;Node3</title>
<g id="a_edge9_Node000007_Node000003"><a xlink:title=" ">
<path fill="none" stroke="#63b8ff" d="M281.01,-172.41C291.05,-174.9 301.43,-177.78 311,-181 332.02,-188.08 354.8,-198.19 372.45,-206.6"/>
<polygon fill="#63b8ff" stroke="#63b8ff" points="370.83,-209.71 381.35,-210.92 373.88,-203.41 370.83,-209.71"/>
</a>
</g>
</g>
<!-- Node7&#45;&gt;Node4 -->
<g id="edge10_Node000007_Node000004" class="edge">
<title>Node7&#45;&gt;Node4</title>
<g id="a_edge10_Node000007_Node000004"><a xlink:title=" ">
<path fill="none" stroke="#63b8ff" d="M307.52,-153.5C317.17,-152.44 326.99,-151.36 336.46,-150.32"/>
<polygon fill="#63b8ff" stroke="#63b8ff" points="336.76,-153.81 346.32,-149.24 335.99,-146.85 336.76,-153.81"/>
</a>
</g>
</g>
<!-- Node9&#45;&gt;Node3 -->
<g id="edge13_Node000009_Node000003" class="edge">
<title>Node9&#45;&gt;Node3</title>
<g id="a_edge13_Node000009_Node000003"><a xlink:title=" ">
<path fill="none" stroke="#63b8ff" d="M282.87,-277.55C292.36,-275.12 302.06,-272.28 311,-269 333.83,-260.63 358.29,-247.97 376.26,-237.89"/>
<polygon fill="#63b8ff" stroke="#63b8ff" points="377.77,-241.06 384.72,-233.06 374.3,-234.98 377.77,-241.06"/>
</a>
</g>
</g>
<!-- Node10 -->
<g id="Node000010" class="node">
<title>Node10</title>
<g id="a_Node000010"><a xlink:href="class_system_impl.html#a0b975a45ebdee7c20d4cc84697e0688e" target="_top" xlink:title=" ">
<polygon fill="white" stroke="#666666" points="461.25,-317 347,-317 347,-297 461.25,-297 461.25,-317"/>
<text xml:space="preserve" text-anchor="middle" x="404.12" y="-303.5" font-family="Helvetica,sans-Serif" font-size="10.00">SystemImpl::setName</text>
</a>
</g>
</g>
<!-- Node9&#45;&gt;Node10 -->
<g id="edge14_Node000009_Node000010" class="edge">
<title>Node9&#45;&gt;Node10</title>
<g id="a_edge14_Node000009_Node000010"><a xlink:title=" ">
<path fill="none" stroke="#63b8ff" d="M287.25,-294.27C302.62,-295.96 319.38,-297.8 335.27,-299.55"/>
<polygon fill="#63b8ff" stroke="#63b8ff" points="334.82,-303.02 345.14,-300.63 335.59,-296.06 334.82,-303.02"/>
</a>
</g>
</g>
<!-- Node11&#45;&gt;Node4 -->
<g id="edge16_Node000011_Node000004" class="edge">
<title>Node11&#45;&gt;Node4</title>
<g id="a_edge16_Node000011_Node000004"><a xlink:title=" ">
<path fill="none" stroke="#63b8ff" d="M280.08,-96.41C290.39,-98.93 301.11,-101.82 311,-105 331.19,-111.49 353.16,-120.47 370.58,-128.08"/>
<polygon fill="#63b8ff" stroke="#63b8ff" points="368.84,-131.14 379.4,-131.99 371.68,-124.74 368.84,-131.14"/>
</a>
</g>
</g>
<!-- Node11&#45;&gt;Node6 -->
<g id="edge17_Node000011_Node000006" class="edge">
<title>Node11&#45;&gt;Node6</title>
<g id="a_edge17_Node000011_Node000006"><a xlink:title=" ">
<path fill="none" stroke="#63b8ff" d="M286.29,-86C302.33,-86 319.95,-86 336.54,-86"/>
<polygon fill="#63b8ff" stroke="#63b8ff" points="336.32,-89.5 346.32,-86 336.32,-82.5 336.32,-89.5"/>
</a>
</g>
</g>
<!-- Node12&#45;&gt;Node3 -->
<g id="edge19_Node000012_Node000003" class="edge">
<title>Node12&#45;&gt;Node3</title>
<g id="a_edge19_Node000012_Node000003"><a xlink:title=" ">
<path fill="none" stroke="#63b8ff" d="M298,-235.37C310.32,-233.8 323.17,-232.17 335.49,-230.6"/>
<polygon fill="#63b8ff" stroke="#63b8ff" points="335.63,-234.11 345.11,-229.38 334.75,-227.17 335.63,-234.11"/>
</a>
</g>
</g>
<!-- Node12&#45;&gt;Node4 -->
<g id="edge20_Node000012_Node000004" class="edge">
<title>Node12&#45;&gt;Node4</title>
<g id="a_edge20_Node000012_Node000004"><a xlink:title=" ">
<path fill="none" stroke="#63b8ff" d="M292.09,-227.61C298.63,-225.07 305.05,-222.21 311,-219 339.59,-203.57 367.7,-178.56 385.2,-161.47"/>
<polygon fill="#63b8ff" stroke="#63b8ff" points="387.65,-163.97 392.26,-154.42 382.71,-159.01 387.65,-163.97"/>
</a>
</g>
</g>
<!-- Node13&#45;&gt;Node3 -->
<g id="edge22_Node000013_Node000003" class="edge">
<title>Node13&#45;&gt;Node3</title>
<g id="a_edge22_Node000013_Node000003"><a xlink:title=" ">
<path fill="none" stroke="#63b8ff" d="M287.17,-316.52C295.42,-314.04 303.61,-310.92 311,-307 342.22,-290.43 370.91,-260.67 387.71,-241.13"/>
<polygon fill="#63b8ff" stroke="#63b8ff" points="390.26,-243.53 393.99,-233.62 384.89,-239.04 390.26,-243.53"/>
</a>
</g>
</g>
<!-- Node13&#45;&gt;Node10 -->
<g id="edge23_Node000013_Node000010" class="edge">
<title>Node13&#45;&gt;Node10</title>
<g id="a_edge23_Node000013_Node000010"><a xlink:title=" ">
<path fill="none" stroke="#63b8ff" d="M287.25,-319.73C302.62,-318.04 319.38,-316.2 335.27,-314.45"/>
<polygon fill="#63b8ff" stroke="#63b8ff" points="335.59,-317.94 345.14,-313.37 334.82,-310.98 335.59,-317.94"/>
</a>
</g>
</g>
<!-- Node14&#45;&gt;Node4 -->
<g id="edge25_Node000014_Node000004" class="edge">
<title>Node14&#45;&gt;Node4</title>
<g id="a_edge25_Node000014_Node000004"><a xlink:title=" ">
<path fill="none" stroke="#63b8ff" d="M286.13,-56.65C294.79,-59.24 303.37,-62.62 311,-67 331.17,-78.59 329.26,-89.95 347,-105 356.06,-112.69 366.7,-120.22 376.26,-126.52"/>
<polygon fill="#63b8ff" stroke="#63b8ff" points="374.15,-129.33 384.46,-131.79 377.94,-123.44 374.15,-129.33"/>
</a>
</g>
</g>
<!-- Node14&#45;&gt;Node6 -->
<g id="edge26_Node000014_Node000006" class="edge">
<title>Node14&#45;&gt;Node6</title>
<g id="a_edge26_Node000014_Node000006"><a xlink:title=" ">
<path fill="none" stroke="#63b8ff" d="M277.86,-58.48C298.47,-63.01 322.78,-68.35 344.48,-73.12"/>
<polygon fill="#63b8ff" stroke="#63b8ff" points="343.55,-76.5 354.07,-75.23 345.06,-69.66 343.55,-76.5"/>
</a>
</g>
</g>
</g>
</svg>
</svg>

<style type='text/css'>
<![CDATA[
[data-mouse-over-selected='false'] { opacity: 0.7; }
[data-mouse-over-selected='true']  { opacity: 1.0; }
]]>
</style>
<script type="application/ecmascript"><![CDATA[
document.addEventListener('DOMContentLoaded', (event) => {
  highlightEdges();
  highlightAdjacentNodes();
});
]]></script>
</svg>
