<?xml version="1.0" encoding="UTF-8" standalone="no"?>
<!DOCTYPE svg PUBLIC "-//W3C//DTD SVG 1.1//EN"
 "http://www.w3.org/Graphics/SVG/1.1/DTD/svg11.dtd">
<!-- Generated by graphviz version 14.1.4 (20260321.0153)
 -->
<!-- Title: main.cpp Pages: 1 -->
<svg width="572pt" height="86pt"
 viewBox="0.00 0.00 572.00 86.00" xmlns="http://www.w3.org/2000/svg" xmlns:xlink="http://www.w3.org/1999/xlink">
<g id="graph0" class="graph" transform="scale(1 1) rotate(0) translate(4 81.5)">
<title>main.cpp</title>
<!-- Node1 -->
<g id="Node000001" class="node">
<title>Node1</title>
<g id="a_Node000001"><a xlink:title="Main entry point for unit tests.">
<polygon fill="#999999" stroke="#666666" points="291.25,-77.5 230.25,-77.5 230.25,-56.75 291.25,-56.75 291.25,-77.5"/>
<text xml:space="preserve" text-anchor="middle" x="260.75" y="-64" font-family="Helvetica,sans-Serif" font-size="10.00">main.cpp</text>
</a>
</g>
</g>
<!-- Node2 -->
<g id="Node000002" class="node">
<title>Node2</title>
<g id="a_Node000002"><a xlink:title=" ">
<polygon fill="#e0e0e0" stroke="#999999" points="59.5,-20.75 0,-20.75 0,0 59.5,0 59.5,-20.75"/>
<text xml:space="preserve" text-anchor="middle" x="29.75" y="-7.25" font-family="Helvetica,sans-Serif" font-size="10.00">iostream</text>
</a>
</g>
</g>
<!-- Node1&#45;&gt;Node2 -->
<g id="edge1_Node000001_Node000002" class="edge">
<title>Node1&#45;&gt;Node2</title>
<g id="a_edge1_Node000001_Node000002"><a xlink:title=" ">
<path fill="none" stroke="#63b8ff" d="M229.97,-59C194.02,-50.65 132.46,-36.28 70.73,-21.45"/>
<polygon fill="#63b8ff" stroke="#63b8ff" points="71.63,-18.07 61.08,-19.13 69.99,-24.87 71.63,-18.07"/>
</a>
</g>
</g>
<!-- Node3 -->
<g id="Node000003" class="node">
<title>Node3</title>
<g id="a_Node000003"><a xlink:href="unit__tests_8h.html" target="_top" xlink:title="Unit tests for global functions.">
<polygon fill="white" stroke="#666666" points="150.25,-20.75 77.25,-20.75 77.25,0 150.25,0 150.25,-20.75"/>
<text xml:space="preserve" text-anchor="middle" x="113.75" y="-7.25" font-family="Helvetica,sans-Serif" font-size="10.00">unit_tests.h</text>
</a>
</g>
</g>
<!-- Node1&#45;&gt;Node3 -->
<g id="edge2_Node000001_Node000003" class="edge">
<title>Node1&#45;&gt;Node3</title>
<g id="a_edge2_Node000001_Node000003"><a xlink:title=" ">
<path fill="none" stroke="#63b8ff" d="M234.47,-56.34C211.06,-47.62 176.56,-34.77 150.43,-25.04"/>
<polygon fill="#63b8ff" stroke="#63b8ff" points="151.81,-21.82 141.22,-21.61 149.37,-28.38 151.81,-21.82"/>
</a>
</g>
</g>
<!-- Node4 -->
<g id="Node000004" class="node">
<title>Node4</title>
<g id="a_Node000004"><a xlink:href="unit__System_8h.html" target="_top" xlink:title="Unit tests for the System class.">
<polygon fill="white" stroke="#666666" points="253.62,-20.75 167.88,-20.75 167.88,0 253.62,0 253.62,-20.75"/>
<text xml:space="preserve" text-anchor="middle" x="210.75" y="-7.25" font-family="Helvetica,sans-Serif" font-size="10.00">unit_System.h</text>
</a>
</g>
</g>
<!-- Node1&#45;&gt;Node4 -->
<g id="edge3_Node000001_Node000004" class="edge">
<title>Node1&#45;&gt;Node4</title>
<g id="a_edge3_Node000001_Node000004"><a xlink:title=" ">
<path fill="none" stroke="#63b8ff" d="M251.81,-56.34C244.99,-48.86 235.39,-38.36 227.19,-29.38"/>
<polygon fill="#63b8ff" stroke="#63b8ff" points="229.96,-27.22 220.63,-22.2 224.79,-31.94 229.96,-27.22"/>
</a>
</g>
</g>
<!-- Node5 -->
<g id="Node000005" class="node">
<title>Node5</title>
<g id="a_Node000005"><a xlink:href="unit__Model_8h.html" target="_top" xlink:title="Unit tests for the Model class.">
<polygon fill="white" stroke="#666666" points="350.25,-20.75 271.25,-20.75 271.25,0 350.25,0 350.25,-20.75"/>
<text xml:space="preserve" text-anchor="middle" x="310.75" y="-7.25" font-family="Helvetica,sans-Serif" font-size="10.00">unit_Model.h</text>
</a>
</g>
</g>
<!-- Node1&#45;&gt;Node5 -->
<g id="edge4_Node000001_Node000005" class="edge">
<title>Node1&#45;&gt;Node5</title>
<g id="a_edge4_Node000001_Node000005"><a xlink:title=" ">
<path fill="none" stroke="#63b8ff" d="M269.69,-56.34C276.51,-48.86 286.11,-38.36 294.31,-29.38"/>
<polygon fill="#63b8ff" stroke="#63b8ff" points="296.71,-31.94 300.87,-22.2 291.54,-27.22 296.71,-31.94"/>
</a>
</g>
</g>
<!-- Node6 -->
<g id="Node000006" class="node">
<title>Node6</title>
<g id="a_Node000006"><a xlink:href="unit__Flow_8h.html" target="_top" xlink:title="Unit tests for the Flow class.">
<polygon fill="white" stroke="#666666" points="439.5,-20.75 368,-20.75 368,0 439.5,0 439.5,-20.75"/>
<text xml:space="preserve" text-anchor="middle" x="403.75" y="-7.25" font-family="Helvetica,sans-Serif" font-size="10.00">unit_Flow.h</text>
</a>
</g>
</g>
<!-- Node1&#45;&gt;Node6 -->
<g id="edge5_Node000001_Node000006" class="edge">
<title>Node1&#45;&gt;Node6</title>
<g id="a_edge5_Node000001_Node000006"><a xlink:title=" ">
<path fill="none" stroke="#63b8ff" d="M286.32,-56.34C308.99,-47.66 342.35,-34.88 367.73,-25.17"/>
<polygon fill="#63b8ff" stroke="#63b8ff" points="368.9,-28.46 376.99,-21.62 366.4,-21.93 368.9,-28.46"/>
</a>
</g>
</g>
<!-- Node7 -->
<g id="Node000007" class="node">
<title>Node7</title>
<g id="a_Node000007"><a xlink:href="unit__HandleBody_8h.html" target="_top" xlink:title=" ">
<polygon fill="white" stroke="#666666" points="564.12,-20.75 457.38,-20.75 457.38,0 564.12,0 564.12,-20.75"/>
<text xml:space="preserve" text-anchor="middle" x="510.75" y="-7.25" font-family="Helvetica,sans-Serif" font-size="10.00">unit_HandleBody.h</text>
</a>
</g>
</g>
<!-- Node1&#45;&gt;Node7 -->
<g id="edge6_Node000001_Node000007" class="edge">
<title>Node1&#45;&gt;Node7</title>
<g id="a_edge6_Node000001_Node000007"><a xlink:title=" ">
<path fill="none" stroke="#63b8ff" d="M291.66,-59.36C332.34,-50.45 404.6,-34.62 454.96,-23.59"/>
<polygon fill="#63b8ff" stroke="#63b8ff" points="455.49,-27.06 464.51,-21.5 454,-20.22 455.49,-27.06"/>
</a>
</g>
</g>
</g>
</svg>
